<svg id="Layer_1" data-name="Layer 1" xmlns="http://www.w3.org/2000/svg" xmlns:xlink="http://www.w3.org/1999/xlink" viewBox="0 0 600 600"><defs><style>.cls-1{fill:none;}.cls-2{clip-path:url(#clip-path);}.cls-3{clip-path:url(#clip-path-2);}.cls-4{fill:#005d13;}.cls-5{fill:#69dc90;}.cls-6{fill:#eaeaff;}.cls-7{opacity:0.2;filter:url(#AI_Shadow_3);}.cls-8{fill:#ccc;}.cls-9{fill:#f1f3f4;}.cls-10{fill:#fff;}.cls-11{clip-path:url(#clip-path-3);}.cls-12{fill:#0e4fb9;}.cls-13{fill:#00a037;}.cls-14{fill:#4688f1;}.cls-15{fill:#85b2fe;}.cls-16{fill:url(#linear-gradient);}.cls-17{fill:#43c870;}.cls-18{fill:#838383;}.cls-19{fill:#007d24;}.cls-20{fill:#585858;}.cls-21{fill:#bfc2c7;}.cls-22{clip-path:url(#clip-path-4);}.cls-23{fill:#784c1b;}.cls-24{fill:#1e2227;}.cls-25{fill:#dbdcde;}.cls-26{fill:#f0f1f3;}.cls-27{fill:url(#linear-gradient-2);}.cls-28{fill:url(#linear-gradient-3);}.cls-29{fill:url(#linear-gradient-4);}.cls-30{fill:url(#linear-gradient-5);}.cls-31{fill:url(#linear-gradient-6);}.cls-32{fill:url(#linear-gradient-7);}.cls-33{fill:url(#linear-gradient-8);}.cls-34{fill:url(#linear-gradient-9);}.cls-35{fill:url(#linear-gradient-10);}.cls-36{fill:url(#linear-gradient-11);}.cls-37{fill:url(#linear-gradient-12);}.cls-38{fill:#676c72;}.cls-39{fill:#abb2b9;}.cls-40{fill:#ec0014;}.cls-41{fill:#d76300;}.cls-42{fill:#9ea1a3;}.cls-43{fill:#818a95;}.cls-44{fill:url(#linear-gradient-13);}.cls-45{fill:url(#linear-gradient-14);}.cls-46{fill:url(#linear-gradient-15);}.cls-47{fill:url(#linear-gradient-16);}.cls-48{fill:url(#linear-gradient-17);}.cls-49{fill:url(#linear-gradient-18);}.cls-50{fill:#8a0000;}.cls-51{fill:url(#linear-gradient-19);}.cls-52,.cls-53{fill:#de950a;}.cls-52{stroke:#fff;stroke-miterlimit:10;stroke-width:9px;}</style><clipPath id="clip-path"><circle class="cls-1" cx="300" cy="-319.998" r="226.537"/></clipPath><clipPath id="clip-path-2"><rect class="cls-1" x="-93.82" y="-484.401" width="311.733" height="381.962"/></clipPath><filter id="AI_Shadow_3" x="-15%" y="-15%" width="140%" height="130%" name="AI_Shadow_3"><feGaussianBlur result="blur" stdDeviation="10" in="SourceAlpha"/><feOffset result="offsetBlurredAlpha" dy="5" in="blur"/><feMerge><feMergeNode in="offsetBlurredAlpha"/><feMergeNode in="SourceGraphic"/></feMerge></filter><clipPath id="clip-path-3"><circle class="cls-1" cx="300" cy="300.002" r="226.537"/></clipPath><linearGradient id="linear-gradient" x1="3191.091" y1="-12924.74" x2="3191.091" y2="-12943.529" gradientTransform="translate(-2896.964 13189.366)" gradientUnits="userSpaceOnUse"><stop offset="0" stop-color="#629bfd" stop-opacity="0"/><stop offset="0.132" stop-color="#548cea" stop-opacity="0.144"/><stop offset="0.726" stop-color="#184c9a" stop-opacity="0.758"/><stop offset="1" stop-color="#00337b"/></linearGradient><clipPath id="clip-path-4"><rect class="cls-1" x="-93.82" y="135.599" width="311.733" height="381.962"/></clipPath><linearGradient id="linear-gradient-2" x1="64.99" y1="103.017" x2="100.766" y2="103.017" gradientUnits="userSpaceOnUse"><stop offset="0" stop-color="#676c72" stop-opacity="0"/><stop offset="0.175" stop-color="#606b6b" stop-opacity="0.07"/><stop offset="0.42" stop-color="#4b6859" stop-opacity="0.267"/><stop offset="0.707" stop-color="#2a633a" stop-opacity="0.59"/><stop offset="1" stop-color="#005d13"/></linearGradient><linearGradient id="linear-gradient-3" x1="101.666" y1="102.782" x2="137.442" y2="102.782" xlink:href="#linear-gradient-2"/><linearGradient id="linear-gradient-4" x1="84.021" y1="236.628" x2="100.807" y2="236.628" xlink:href="#linear-gradient-2"/><linearGradient id="linear-gradient-5" x1="97.479" y1="305.374" x2="114.265" y2="305.374" xlink:href="#linear-gradient-2"/><linearGradient id="linear-gradient-6" x1="179.012" y1="379.951" x2="194.202" y2="379.951" xlink:href="#linear-gradient-2"/><linearGradient id="linear-gradient-7" x1="184.916" y1="242.426" x2="201.702" y2="242.426" xlink:href="#linear-gradient-2"/><linearGradient id="linear-gradient-8" x1="267.112" y1="240.469" x2="283.898" y2="240.469" xlink:href="#linear-gradient-2"/><linearGradient id="linear-gradient-9" x1="204.767" y1="197.999" x2="221.552" y2="197.999" xlink:href="#linear-gradient-2"/><linearGradient id="linear-gradient-10" x1="224.097" y1="197.792" x2="240.882" y2="197.792" xlink:href="#linear-gradient-2"/><linearGradient id="linear-gradient-11" x1="371.803" y1="172.759" x2="388.589" y2="172.759" xlink:href="#linear-gradient-2"/><linearGradient id="linear-gradient-12" x1="-2661.537" y1="-4225.298" x2="-2661.537" y2="-4244.087" gradientTransform="translate(2954.64 4416.846)" xlink:href="#linear-gradient"/><linearGradient id="linear-gradient-13" x1="394.704" y1="173.163" x2="411.49" y2="173.163" xlink:href="#linear-gradient-2"/><linearGradient id="linear-gradient-14" x1="381.815" y1="111.701" x2="398.601" y2="111.701" xlink:href="#linear-gradient-2"/><linearGradient id="linear-gradient-15" x1="463.856" y1="132.342" x2="480.641" y2="132.342" xlink:href="#linear-gradient-2"/><linearGradient id="linear-gradient-16" x1="293.695" y1="441.263" x2="310.481" y2="441.263" xlink:href="#linear-gradient-2"/><linearGradient id="linear-gradient-17" x1="316.596" y1="441.667" x2="333.381" y2="441.667" xlink:href="#linear-gradient-2"/><linearGradient id="linear-gradient-18" x1="38.673" y1="100.989" x2="58.015" y2="100.989" xlink:href="#linear-gradient-2"/><linearGradient id="linear-gradient-19" x1="305.861" y1="403.275" x2="413.316" y2="403.275" gradientUnits="userSpaceOnUse"><stop offset="0" stop-color="#676c72" stop-opacity="0"/><stop offset="0.188" stop-color="#656a70" stop-opacity="0.079"/><stop offset="0.452" stop-color="#616569" stop-opacity="0.299"/><stop offset="0.76" stop-color="#5a5c5e" stop-opacity="0.659"/><stop offset="1" stop-color="#535353"/></linearGradient></defs><g class="cls-2"><g class="cls-3"><path class="cls-4" d="M64.482-221.781a57.821,57.821,0,0,0,57.755,57.755c.5,0,1.005-.016,1.5-.043q.672.033,1.352.034H260.164a2.976,2.976,0,0,1,2.972,2.973,27.475,27.475,0,0,0,.279,3.872c-.031.533-.051,1.07-.051,1.611a57.819,57.819,0,0,0,57.5,57.751,27.476,27.476,0,0,0,3.73.261h40.341v78.093a44.289,44.289,0,0,0,0,85.119v75.792a13.921,13.921,0,0,0,27.841,0V65.644a44.288,44.288,0,0,0,0-85.118V-97.567h61.044a2.975,2.975,0,0,1,2.972,2.972c0,.645.031,1.283.075,1.917-.044.634-.075,1.271-.075,1.916a57.821,57.821,0,0,0,57.755,57.755A57.82,57.82,0,0,0,572.3-90.762c0-.08,0-.159-.006-.239s.006-.148.006-.222v-70.962c0-.79-.042-1.57-.107-2.344a57.827,57.827,0,0,0-57.648-54.279c-.489,0-.974.014-1.456.039-.483-.025-.968-.039-1.457-.039h-48.34a2.976,2.976,0,0,1-2.972-2.973,2.975,2.975,0,0,1,2.972-2.972c.307,0,.611-.013.916-.023.3.01.608.023.915.023H594.332a27.423,27.423,0,0,0,27.391-27.391,27.423,27.423,0,0,0-27.391-27.392H465.124c-.307,0-.611.013-.915.024-.305-.011-.609-.024-.916-.024a57.821,57.821,0,0,0-57.755,57.755,57.821,57.821,0,0,0,57.755,57.755h48.34c.489,0,.974-.014,1.457-.039.482.025.967.039,1.456.039a2.976,2.976,0,0,1,2.972,2.964v69.839c0,.08.006.159.006.239s0,.148,0,.222a2.977,2.977,0,0,1-2.973,2.973,2.976,2.976,0,0,1-2.972-2.973c0-.645-.031-1.282-.075-1.916.044-.634.075-1.272.075-1.917a57.821,57.821,0,0,0-57.755-57.755h-129a27.607,27.607,0,0,0-3.7-.257,2.976,2.976,0,0,1-2.972-2.972,27.489,27.489,0,0,0-.279-3.873c.031-.533.052-1.069.052-1.61a57.82,57.82,0,0,0-57.755-57.755H125.092c-.5,0-1.006.016-1.5.043q-.672-.033-1.351-.034a2.976,2.976,0,0,1-2.973-2.973,2.975,2.975,0,0,1,2.973-2.972c.635,0,1.263-.03,1.887-.073H246.5c.307,0,.611-.013.915-.023.305.01.609.023.916.023a57.82,57.82,0,0,0,57.755-57.754,57.82,57.82,0,0,0-57.755-57.755,27.421,27.421,0,0,0-27.391,27.391,27.421,27.421,0,0,0,27.391,27.391,2.976,2.976,0,0,1,2.972,2.973,2.976,2.976,0,0,1-2.972,2.972c-.307,0-.611.013-.916.023-.3-.01-.608-.023-.915-.023H117.288a27.222,27.222,0,0,0-11,2.313A57.856,57.856,0,0,0,64.482-221.781ZM360.741,23.085A16.461,16.461,0,0,1,377.184,6.642c.28,0,.559-.011.835-.027.277.016.555.027.836.027s.558-.011.835-.027c.276.016.554.027.835.027a16.444,16.444,0,1,1,0,32.887,13.6,13.6,0,0,1-3.341,0A16.462,16.462,0,0,1,360.741,23.085Z"/><path class="cls-5" d="M378.43,149.475a3.593,3.593,0,0,0,3.593-3.592V-133.9a3.593,3.593,0,0,0-3.593-3.592,3.592,3.592,0,0,0-3.592,3.592V145.883A3.592,3.592,0,0,0,378.43,149.475Z"/><path class="cls-6" d="M378.43,149.026a.449.449,0,0,1-.449-.449v-2.245a.449.449,0,1,1,.9,0v2.245A.449.449,0,0,1,378.43,149.026Zm0-9.879a.449.449,0,0,1-.449-.449v-2.245a.449.449,0,0,1,.9,0V138.7A.449.449,0,0,1,378.43,139.147Zm0-9.878a.449.449,0,0,1-.449-.45v-2.245a.449.449,0,1,1,.9,0v2.245A.449.449,0,0,1,378.43,129.269Zm0-9.879a.449.449,0,0,1-.449-.449V116.7a.449.449,0,1,1,.9,0v2.246A.449.449,0,0,1,378.43,119.39Zm0-9.879a.449.449,0,0,1-.449-.449v-2.245a.449.449,0,0,1,.9,0v2.245A.449.449,0,0,1,378.43,109.511Zm0-9.879a.449.449,0,0,1-.449-.449V96.938a.449.449,0,0,1,.9,0v2.245A.449.449,0,0,1,378.43,99.632Zm0-9.879a.449.449,0,0,1-.449-.449V87.059a.449.449,0,0,1,.9,0V89.3A.449.449,0,0,1,378.43,89.753Zm0-9.878a.449.449,0,0,1-.449-.45V77.18a.449.449,0,0,1,.9,0v2.245A.449.449,0,0,1,378.43,79.875Zm0-9.879a.449.449,0,0,1-.449-.449V67.3a.449.449,0,1,1,.9,0v2.245A.449.449,0,0,1,378.43,70Zm0-9.879a.449.449,0,0,1-.449-.449V57.423a.449.449,0,0,1,.9,0v2.245A.449.449,0,0,1,378.43,60.117Zm0-9.879a.449.449,0,0,1-.449-.449V47.544a.449.449,0,0,1,.9,0v2.245A.449.449,0,0,1,378.43,50.238Zm0-9.879a.448.448,0,0,1-.449-.449V37.665a.449.449,0,1,1,.9,0V39.91A.448.448,0,0,1,378.43,40.359Zm0-9.878a.449.449,0,0,1-.449-.449V27.786a.449.449,0,0,1,.9,0v2.246A.449.449,0,0,1,378.43,30.481Zm0-9.879a.449.449,0,0,1-.449-.449V17.908a.449.449,0,1,1,.9,0v2.245A.449.449,0,0,1,378.43,20.6Zm0-9.879a.449.449,0,0,1-.449-.449V8.029a.449.449,0,1,1,.9,0v2.245A.449.449,0,0,1,378.43,10.723Zm0-9.879A.449.449,0,0,1,377.981.4V-1.85a.449.449,0,0,1,.449-.449.449.449,0,0,1,.449.449V.4A.449.449,0,0,1,378.43.844Zm0-9.879a.448.448,0,0,1-.449-.449v-2.245a.449.449,0,0,1,.449-.449.449.449,0,0,1,.449.449v2.245A.448.448,0,0,1,378.43-9.035Zm0-9.878a.449.449,0,0,1-.449-.449v-2.246a.449.449,0,0,1,.449-.449.449.449,0,0,1,.449.449v2.246A.449.449,0,0,1,378.43-18.913Zm0-9.879a.449.449,0,0,1-.449-.449v-2.245a.448.448,0,0,1,.449-.449.448.448,0,0,1,.449.449v2.245A.449.449,0,0,1,378.43-28.792Zm0-9.879a.449.449,0,0,1-.449-.449v-2.245a.449.449,0,0,1,.449-.449.449.449,0,0,1,.449.449v2.245A.449.449,0,0,1,378.43-38.671Zm0-9.879a.449.449,0,0,1-.449-.449v-2.245a.449.449,0,0,1,.449-.449.449.449,0,0,1,.449.449V-49A.449.449,0,0,1,378.43-48.55Zm0-9.879a.448.448,0,0,1-.449-.449v-2.245a.449.449,0,0,1,.449-.449.449.449,0,0,1,.449.449v2.245A.448.448,0,0,1,378.43-58.429Zm0-9.878a.449.449,0,0,1-.449-.449V-71a.449.449,0,0,1,.449-.449.449.449,0,0,1,.449.449v2.246A.449.449,0,0,1,378.43-68.307Zm0-9.879a.449.449,0,0,1-.449-.449V-80.88a.448.448,0,0,1,.449-.449.448.448,0,0,1,.449.449v2.245A.449.449,0,0,1,378.43-78.186Zm0-9.879a.449.449,0,0,1-.449-.449v-2.245a.449.449,0,0,1,.449-.449.449.449,0,0,1,.449.449v2.245A.449.449,0,0,1,378.43-88.065Zm0-9.879a.449.449,0,0,1-.449-.449v-2.245a.449.449,0,0,1,.449-.449.449.449,0,0,1,.449.449v2.245A.449.449,0,0,1,378.43-97.944Zm0-9.879a.448.448,0,0,1-.449-.449v-2.245a.449.449,0,0,1,.449-.449.449.449,0,0,1,.449.449v2.245A.448.448,0,0,1,378.43-107.823Zm0-9.878a.449.449,0,0,1-.449-.449V-120.4a.449.449,0,0,1,.449-.449.449.449,0,0,1,.449.449v2.246A.449.449,0,0,1,378.43-117.7Zm0-9.879a.449.449,0,0,1-.449-.449v-2.245a.448.448,0,0,1,.449-.449.448.448,0,0,1,.449.449v2.245A.449.449,0,0,1,378.43-127.58Z"/></g></g><g id="svg_shadow" data-name="svg shadow" class="cls-7"><circle class="cls-8" cx="300" cy="300" r="241.5"/></g><g id="base"><path class="cls-9" d="M300.5,534A234,234,0,0,1,135.037,134.537,234,234,0,0,1,465.963,465.463,232.465,232.465,0,0,1,300.5,534Z"/><path class="cls-10" d="M300.5,73.5a225.741,225.741,0,1,1-88.16,17.793A225.086,225.086,0,0,1,300.5,73.5m0-15C167.123,58.5,59,166.623,59,300S167.123,541.5,300.5,541.5,542,433.377,542,300,433.877,58.5,300.5,58.5Z"/></g><g class="cls-11"><path class="cls-12" d="M384.253,260.562H564.439c9.653,0,8.5-6.232,8.5-13.92s1.156-13.92-8.5-13.92h-175.7c-9.652,0-12.987,6.232-12.987,13.92S374.6,260.562,384.253,260.562Z"/><path class="cls-1" d="M249.734,367.548a3.426,3.426,0,0,0-3.421-3.422v-3.872h0c-.281,0-.559-.011-.836-.027-.276.016-.554.027-.835.027s-.559-.011-.835-.027c-.276.016-.554.027-.835.027a16.444,16.444,0,1,0,0,32.887,14.184,14.184,0,0,1,1.671.1,14.141,14.141,0,0,1,1.67-.1h0V370.969A3.425,3.425,0,0,0,249.734,367.548Z"/><path class="cls-4" d="M517.2,76.317a27.211,27.211,0,0,0-11-2.313H377c-.307,0-.611.013-.916.023-.3-.01-.608-.023-.915-.023a2.973,2.973,0,1,1,0-5.945,27.391,27.391,0,1,0,0-54.782,57.755,57.755,0,1,0,0,115.509c.307,0,.611-.013.915-.023.3.01.609.023.916.023H499.37c.625.043,1.253.073,1.888.073a2.973,2.973,0,1,1,0,5.945q-.679,0-1.351.034c-.5-.027-1-.043-1.5-.043H363.331a57.82,57.82,0,0,0-57.755,57.755c0,.541.02,1.077.051,1.61a27.489,27.489,0,0,0-.279,3.873,2.976,2.976,0,0,1-2.972,2.972,27.592,27.592,0,0,0-3.7.257h-129a57.82,57.82,0,0,0-57.755,57.755c0,.645.03,1.283.074,1.917-.044.634-.074,1.271-.074,1.916a2.973,2.973,0,1,1-5.945,0c0-.074,0-.148,0-.222s.006-.159.006-.239V192.55a2.975,2.975,0,0,1,2.972-2.964c.488,0,.974-.014,1.456-.039.483.025.968.039,1.456.039H160.2a57.755,57.755,0,0,0,0-115.51c-.308,0-.612.013-.916.024-.305-.011-.609-.024-.916-.024H29.163a27.392,27.392,0,0,0,0,54.783H158.37c.307,0,.611-.013.916-.024.3.011.608.024.916.024a2.973,2.973,0,0,1,0,5.945H111.861c-.488,0-.973.014-1.456.039-.482-.025-.968-.039-1.456-.039A57.827,57.827,0,0,0,51.3,189.083c-.066.774-.107,1.554-.107,2.344v70.962c0,.074,0,.148.006.222s-.006.159-.006.239a57.755,57.755,0,1,0,115.509,0c0-.645-.03-1.282-.074-1.916.044-.634.074-1.272.074-1.917a2.976,2.976,0,0,1,2.973-2.972H230.72v78.093a44.288,44.288,0,0,0,0,85.118v75.793a13.92,13.92,0,0,0,27.84,0V423.522a57.225,57.225,0,0,1-12.247,1.331V393.141h0a14.141,14.141,0,0,0-1.67.1,14.184,14.184,0,0,0-1.671-.1,16.444,16.444,0,1,1,0-32.887c.281,0,.559-.011.835-.027.276.016.554.027.835.027s.559-.011.835-.027c.277.016.555.027.836.027h0V310.242a57.289,57.289,0,0,1,12.247,1.331V256.045H298.9a27.487,27.487,0,0,0,3.73-.261,57.819,57.819,0,0,0,57.5-57.751c0-.541-.02-1.078-.051-1.611a27.475,27.475,0,0,0,.279-3.872,2.976,2.976,0,0,1,2.972-2.973H498.4q.679,0,1.351-.034c.5.027,1,.043,1.5.043A57.757,57.757,0,0,0,517.2,76.317Z"/><path class="cls-13" d="M262.754,376.7a16.461,16.461,0,0,0-16.441-16.443v3.872a3.422,3.422,0,0,1,0,6.843v22.172A16.462,16.462,0,0,0,262.754,376.7Z"/><path class="cls-13" d="M258.56,419.257v4.265a56.766,56.766,0,0,0,13.024-4.559v-5.927A44.145,44.145,0,0,1,258.56,419.257Z"/><path class="cls-13" d="M271.584,340.359V316.132a56.861,56.861,0,0,0-13.024-4.559v22.565A44.121,44.121,0,0,1,271.584,340.359Z"/><path class="cls-13" d="M246.313,360.254a16.444,16.444,0,0,1,0,32.887v31.712a57.225,57.225,0,0,0,12.247-1.331v-4.265a44.145,44.145,0,0,0,13.024-6.221V340.359a44.121,44.121,0,0,0-13.024-6.221V311.573a57.289,57.289,0,0,0-12.247-1.331Z"/><path class="cls-12" d="M368.955,276.587l-.191,13.149-1.709.6-3.951-5.025s4.615-7.554,4.71-7.649S368.955,276.587,368.955,276.587Z"/><path class="cls-12" d="M368.955,276.9l-.772,18.658h0s-2.4-2.951-2.4-3.12,1.643-10.072,1.77-10.241S368.955,276.9,368.955,276.9Z"/><path class="cls-12" d="M280.119,270.138l.093,21.6.523,1.64s3.207,1.939,3.163,1.517.213-17.11,0-17.363S280.119,270.138,280.119,270.138Z"/><rect class="cls-12" x="240.624" y="57.391" width="139.872" height="117.15" rx="28.488"/><path class="cls-14" d="M352.007,48.411H269.112c-15.734,0-28.488-2.979-28.488,12.754v75.908a28.488,28.488,0,0,0,28.488,28.488h82.895A28.489,28.489,0,0,0,380.5,137.073V76.9A28.488,28.488,0,0,0,352.007,48.411Z"/><path class="cls-12" d="M355.034,290.815a13.92,13.92,0,0,1-13.92-13.92A44.335,44.335,0,0,1,385.4,232.611a13.921,13.921,0,0,1,0,27.841A16.461,16.461,0,0,0,368.955,276.9,13.921,13.921,0,0,1,355.034,290.815Z"/><path class="cls-14" d="M280.207,168.681V280.946c0,6.4,6.232,11.582,13.92,11.582s13.92-5.185,13.92-11.582V168.681c0-6.4-6.232-6.818-13.92-6.818S280.207,162.284,280.207,168.681Z"/><path class="cls-14" d="M355.034,281.835c-7.688,0-13.92-4.94-13.92-13.92A44.334,44.334,0,0,1,385.4,223.631a13.92,13.92,0,0,1,0,27.84,16.6,16.6,0,0,0-16.443,16.444C368.611,283.137,362.722,281.835,355.034,281.835Z"/><path class="cls-14" d="M341.114,266.323l-.2,14.888,6.028,1.926L349.26,272.9s19.538,10.2,19.493,10.239.087-12.759.087-12.759l-13.964-5.066Z"/><path class="cls-12" d="M324.469,334.475a44.334,44.334,0,0,1-44.284-44.283,13.921,13.921,0,0,1,27.841,0,16.444,16.444,0,0,0,32.887,0,13.92,13.92,0,1,1,27.84,0A44.334,44.334,0,0,1,324.469,334.475Z"/><path class="cls-14" d="M324.469,325.5a44.335,44.335,0,0,1-44.284-44.284,13.921,13.921,0,0,1,27.841,0,16.444,16.444,0,0,0,32.887,0,13.92,13.92,0,1,1,27.84,0C369.3,305.613,348.9,325.494,324.469,325.5Z"/><path class="cls-15" d="M318.424,312.889a3.69,3.69,0,0,1-3.685-3.685.45.45,0,0,1,.9,0,2.787,2.787,0,1,0,5.573,0,.45.45,0,0,1,.9,0A3.69,3.69,0,0,1,318.424,312.889Z"/><path class="cls-15" d="M324.94,312.889a3.689,3.689,0,0,1-3.685-3.685.449.449,0,0,1,.9,0,2.787,2.787,0,0,0,5.574,0,.449.449,0,0,1,.9,0A3.689,3.689,0,0,1,324.94,312.889Z"/><path class="cls-15" d="M331.412,312.889a3.689,3.689,0,0,1-3.685-3.685.449.449,0,0,1,.9,0,2.787,2.787,0,1,0,5.574,0,.449.449,0,1,1,.9,0A3.689,3.689,0,0,1,331.412,312.889Z"/><rect class="cls-16" x="280.163" y="245.837" width="27.928" height="18.789"/><path class="cls-14" d="M384.253,251.581H564.439c9.653,0,8.5-6.232,8.5-13.92s1.156-13.92-8.5-13.92h-175.7c-9.652,0-12.987,6.232-12.987,13.92S374.6,251.581,384.253,251.581Z"/><rect class="cls-13" x="217.7" y="401.708" width="53.884" height="84.191"/><rect class="cls-13" x="217.7" y="229.37" width="53.884" height="181.215"/><rect class="cls-13" x="217.7" y="401.708" width="53.884" height="136.577"/><path class="cls-13" d="M158.7,105.915H29.489a13.92,13.92,0,1,1,0-27.84H158.7a13.92,13.92,0,1,1,0,27.84Z"/><path class="cls-13" d="M158.7,119.387H29.489a27.392,27.392,0,1,1,0-54.783H158.7a27.392,27.392,0,0,1,0,54.783ZM29.489,91.546a.449.449,0,1,0,0,.9H158.7a.449.449,0,1,0,0-.9Z"/><path class="cls-13" d="M498.728,166.634H363.656a13.92,13.92,0,0,1,0-27.84H498.728a13.92,13.92,0,1,1,0,27.84Z"/><path class="cls-13" d="M498.729,180.105H363.656a27.391,27.391,0,0,1,0-54.782H498.729a27.391,27.391,0,1,1,0,54.782Zm-135.073-27.84a.449.449,0,0,0,0,.9H498.729a.449.449,0,0,0,0-.9Z"/><path class="cls-13" d="M515.215,434.17H245.837c-15.332,0-27.761-6.232-27.761-13.92s12.429-13.92,27.761-13.92H515.215c15.332,0,27.761,6.232,27.761,13.92S530.547,434.17,515.215,434.17Z"/><path class="cls-13" d="M515.215,447.641H245.837c-30.121,0-54.627-12.287-54.627-27.391s24.506-27.391,54.627-27.391H515.215c30.122,0,54.627,12.287,54.627,27.391S545.337,447.641,515.215,447.641ZM245.837,419.8c-.494,0-.895.2-.895.449s.4.449.895.449H515.215c.5,0,.9-.2.9-.449s-.4-.449-.9-.449Z"/><path class="cls-13" d="M299.227,233.1H170.02a13.92,13.92,0,0,1,0-27.84H299.227a13.92,13.92,0,1,1,0,27.84Z"/><path class="cls-13" d="M299.228,246.572H170.02a27.391,27.391,0,0,1,0-54.782H299.228a27.391,27.391,0,1,1,0,54.782ZM170.02,218.732a.449.449,0,0,0,0,.9H299.228a.449.449,0,1,0,0-.9Z"/><path class="cls-13" d="M78.911,266.837a13.921,13.921,0,0,1-13.921-13.92V181.954a13.921,13.921,0,0,1,27.841,0v70.963A13.92,13.92,0,0,1,78.911,266.837Z"/><path class="cls-13" d="M78.911,280.308a27.422,27.422,0,0,1-27.392-27.391V181.955a27.392,27.392,0,1,1,54.783,0v70.962A27.422,27.422,0,0,1,78.911,280.308Zm0-98.8a.449.449,0,0,0-.449.449v70.962a.449.449,0,1,0,.9,0V181.955A.45.45,0,0,0,78.911,181.506Z"/><path class="cls-13" d="M160.527,166.643h-48.34a13.921,13.921,0,0,1,0-27.841h48.34a13.921,13.921,0,0,1,0,27.841Z"/><path class="cls-13" d="M160.527,180.114h-48.34a27.392,27.392,0,1,1,0-54.783h48.34a27.392,27.392,0,0,1,0,54.783Zm-48.34-27.84a.449.449,0,1,0,0,.9h48.34a.449.449,0,1,0,0-.9Z"/><path class="cls-13" d="M160.527,166.643a13.921,13.921,0,0,1,0-27.841,16.444,16.444,0,1,0,0-32.887,13.92,13.92,0,1,1,0-27.84,44.284,44.284,0,1,1,0,88.568Z"/><path class="cls-13" d="M160.527,180.114a27.392,27.392,0,0,1,0-54.783,2.972,2.972,0,1,0,0-5.944,27.392,27.392,0,0,1,0-54.783,57.755,57.755,0,1,1,0,115.51Zm0-88.568a.449.449,0,1,0,0,.9,29.915,29.915,0,1,1,0,59.83.449.449,0,0,0,0,.9,30.813,30.813,0,1,0,0-61.626Z"/><path class="cls-13" d="M506.532,105.843H377.324a13.92,13.92,0,0,1,0-27.84H506.532a13.92,13.92,0,1,1,0,27.84Z"/><path class="cls-13" d="M506.532,119.314H377.324a27.391,27.391,0,0,1,0-54.782H506.532a27.391,27.391,0,1,1,0,54.782ZM377.324,91.474a.449.449,0,1,0,0,.9H506.532a.449.449,0,1,0,0-.9Z"/><path class="cls-13" d="M375.493,105.843a44.284,44.284,0,1,1,0-88.568,13.921,13.921,0,0,1,0,27.841,16.444,16.444,0,0,0,0,32.887,13.92,13.92,0,1,1,0,27.84Z"/><path class="cls-13" d="M375.494,119.314a57.755,57.755,0,1,1,0-115.51,27.392,27.392,0,0,1,0,54.783,2.973,2.973,0,1,0,0,5.945,27.391,27.391,0,0,1,0,54.782Zm0-88.567a30.813,30.813,0,1,0,0,61.625.449.449,0,1,0,0-.9,29.915,29.915,0,1,1,0-59.829.449.449,0,1,0,0-.9Z"/><path class="cls-13" d="M109.274,297.662A44.335,44.335,0,0,1,64.99,253.378a13.92,13.92,0,1,1,27.84,0,16.444,16.444,0,0,0,32.887,0,13.921,13.921,0,1,1,27.841,0A44.335,44.335,0,0,1,109.274,297.662Z"/><path class="cls-13" d="M109.274,311.133a57.821,57.821,0,0,1-57.755-57.755,27.391,27.391,0,0,1,54.782,0,2.973,2.973,0,0,0,5.945,0,27.392,27.392,0,0,1,54.783,0A57.821,57.821,0,0,1,109.274,311.133Zm-30.364-58.2a.45.45,0,0,0-.449.449,30.813,30.813,0,1,0,61.626,0,.45.45,0,0,0-.9,0,29.915,29.915,0,1,1-59.829,0A.449.449,0,0,0,78.91,252.929Z"/><path class="cls-13" d="M494.9,170.155a14.221,14.221,0,0,1,0-28.441,16.8,16.8,0,0,0,0-33.6,14.221,14.221,0,0,1,0-28.441,45.239,45.239,0,1,1,0,90.478Z"/><path class="cls-13" d="M494.9,183.917a27.982,27.982,0,0,1,0-55.964,3.037,3.037,0,1,0,0-6.073,27.982,27.982,0,0,1,0-55.964,59,59,0,1,1,0,118Zm0-90.478a.459.459,0,1,0,0,.917,30.56,30.56,0,1,1,0,61.12.459.459,0,1,0,0,.918,31.478,31.478,0,1,0,0-62.955Z"/><path class="cls-13" d="M78.91,197.006a13.92,13.92,0,0,1-13.92-13.92A44.335,44.335,0,0,1,109.274,138.8a13.921,13.921,0,0,1,0,27.841A16.462,16.462,0,0,0,92.83,183.086,13.92,13.92,0,0,1,78.91,197.006Z"/><path class="cls-13" d="M78.91,210.478a27.423,27.423,0,0,1-27.391-27.392,57.821,57.821,0,0,1,57.755-57.755,27.392,27.392,0,0,1,0,54.783,2.976,2.976,0,0,0-2.973,2.972A27.422,27.422,0,0,1,78.91,210.478Zm30.364-58.2a30.847,30.847,0,0,0-30.813,30.812.449.449,0,1,0,.9,0,29.948,29.948,0,0,1,29.915-29.914.449.449,0,1,0,0-.9Z"/><path class="cls-13" d="M302.7,232.844a13.92,13.92,0,0,1,0-27.84,16.462,16.462,0,0,0,16.443-16.444,13.92,13.92,0,0,1,27.84,0A44.334,44.334,0,0,1,302.7,232.844Z"/><path class="cls-13" d="M302.7,246.315a27.391,27.391,0,0,1,0-54.782,2.976,2.976,0,0,0,2.972-2.973,27.392,27.392,0,0,1,54.783,0A57.821,57.821,0,0,1,302.7,246.315Zm30.363-58.2a.45.45,0,0,0-.449.449A29.948,29.948,0,0,1,302.7,218.475a.449.449,0,1,0,0,.9,30.847,30.847,0,0,0,30.812-30.813A.45.45,0,0,0,333.065,188.111Z"/><path class="cls-13" d="M333.293,197a13.92,13.92,0,0,1-13.92-13.92,44.333,44.333,0,0,1,44.283-44.284,13.92,13.92,0,1,1,0,27.84,16.461,16.461,0,0,0-16.443,16.444A13.92,13.92,0,0,1,333.293,197Z"/><path class="cls-13" d="M333.293,210.469A27.422,27.422,0,0,1,305.9,183.078a57.82,57.82,0,0,1,57.754-57.755,27.391,27.391,0,1,1,0,54.782,2.977,2.977,0,0,0-2.972,2.973A27.422,27.422,0,0,1,333.293,210.469Zm30.363-58.2a30.847,30.847,0,0,0-30.812,30.813.449.449,0,0,0,.9,0,29.948,29.948,0,0,1,29.914-29.915.449.449,0,0,0,0-.9Z"/><path class="cls-13" d="M139.638,263.465a13.921,13.921,0,0,1-13.921-13.92A44.335,44.335,0,0,1,170,205.261a13.92,13.92,0,1,1,0,27.84,16.462,16.462,0,0,0-16.443,16.444A13.92,13.92,0,0,1,139.638,263.465Z"/><path class="cls-13" d="M139.637,276.936a27.422,27.422,0,0,1-27.391-27.391A57.821,57.821,0,0,1,170,191.79a27.391,27.391,0,1,1,0,54.782,2.976,2.976,0,0,0-2.972,2.973A27.422,27.422,0,0,1,139.637,276.936ZM170,218.732a30.848,30.848,0,0,0-30.813,30.813.45.45,0,0,0,.9,0A29.948,29.948,0,0,1,170,219.63a.449.449,0,0,0,0-.9Z"/><path class="cls-17" d="M244.966,350.782a13.921,13.921,0,0,1-13.92-13.921V229.047a13.92,13.92,0,0,1,27.84,0V336.861A13.921,13.921,0,0,1,244.966,350.782Z"/><path class="cls-17" d="M244.966,499.5a13.92,13.92,0,0,1-13.92-13.92V401.386a13.92,13.92,0,0,1,27.84,0v84.191A13.92,13.92,0,0,1,244.966,499.5Z"/><path class="cls-17" d="M158.652,106.025H29.445a13.92,13.92,0,1,1,0-27.84H158.652a13.92,13.92,0,1,1,0,27.84Z"/><path class="cls-17" d="M498.684,166.743H363.612a13.92,13.92,0,0,1,0-27.84H498.684a13.92,13.92,0,1,1,0,27.84Z"/><path class="cls-17" d="M299.183,233.211H169.976a13.92,13.92,0,1,1,0-27.84H299.183a13.92,13.92,0,1,1,0,27.84Z"/><path class="cls-17" d="M78.867,266.946a13.92,13.92,0,0,1-13.92-13.92V182.064a13.92,13.92,0,0,1,27.84,0v70.962A13.92,13.92,0,0,1,78.867,266.946Z"/><path class="cls-17" d="M160.483,166.752h-48.34a13.92,13.92,0,0,1,0-27.84h48.34a13.92,13.92,0,0,1,0,27.84Z"/><path class="cls-17" d="M160.483,166.752a13.92,13.92,0,0,1,0-27.84,16.444,16.444,0,0,0,0-32.887,13.92,13.92,0,0,1,0-27.84,44.284,44.284,0,1,1,0,88.567Z"/><path class="cls-17" d="M506.488,105.952H377.28a13.92,13.92,0,1,1,0-27.84H506.488a13.92,13.92,0,1,1,0,27.84Z"/><path class="cls-17" d="M375.449,105.952a44.284,44.284,0,1,1,0-88.567,13.92,13.92,0,1,1,0,27.84,16.444,16.444,0,0,0,0,32.887,13.92,13.92,0,1,1,0,27.84Z"/><path class="cls-17" d="M109.23,297.771a44.335,44.335,0,0,1-44.284-44.284,13.92,13.92,0,1,1,27.84,0,16.444,16.444,0,1,0,32.887,0,13.921,13.921,0,0,1,27.841,0A44.335,44.335,0,0,1,109.23,297.771Z"/><path class="cls-17" d="M244.966,445.079a13.92,13.92,0,0,1-13.92-13.92V229.047a13.92,13.92,0,0,1,27.84,0V431.159A13.92,13.92,0,0,1,244.966,445.079Z"/><path class="cls-17" d="M170.45,419.228c0-7.688,10.176-13.92,22.729-13.92h330c12.552,0,22.728,6.232,22.728,13.92s-10.176,13.92-22.728,13.92h-330C180.626,433.148,170.45,426.916,170.45,419.228Z"/><path class="cls-17" d="M244.966,535.3c-7.688,0-13.92-8.224-13.92-18.369v-111.1c0-10.145,6.232-18.369,13.92-18.369s13.92,8.224,13.92,18.369v111.1C258.886,527.079,252.654,535.3,244.966,535.3Z"/><path class="cls-17" d="M494.854,170.267a14.221,14.221,0,0,1,0-28.441,16.8,16.8,0,1,0,0-33.6,14.221,14.221,0,0,1,0-28.441,45.239,45.239,0,0,1,0,90.478Z"/><path class="cls-17" d="M78.866,197.116a13.92,13.92,0,0,1-13.92-13.92,44.335,44.335,0,0,1,44.284-44.284,13.92,13.92,0,0,1,0,27.84A16.463,16.463,0,0,0,92.786,183.2,13.92,13.92,0,0,1,78.866,197.116Z"/><path class="cls-17" d="M302.657,232.953a13.92,13.92,0,1,1,0-27.84A16.462,16.462,0,0,0,319.1,188.669a13.92,13.92,0,1,1,27.84,0A44.334,44.334,0,0,1,302.657,232.953Z"/><path class="cls-17" d="M333.249,197.107a13.92,13.92,0,0,1-13.92-13.92A44.334,44.334,0,0,1,363.612,138.9a13.92,13.92,0,0,1,0,27.84,16.462,16.462,0,0,0-16.443,16.444A13.92,13.92,0,0,1,333.249,197.107Z"/><path class="cls-17" d="M139.594,263.575a13.921,13.921,0,0,1-13.921-13.92,44.334,44.334,0,0,1,44.284-44.284,13.92,13.92,0,1,1,0,27.84,16.461,16.461,0,0,0-16.443,16.444A13.92,13.92,0,0,1,139.594,263.575Z"/><path class="cls-18" d="M160.191,95.416H136.669a3.592,3.592,0,0,1,0-7.184h23.522a3.592,3.592,0,1,1,0,7.184Z"/><path class="cls-18" d="M160.845,156.416H106.321a3.593,3.593,0,0,1,0-7.185h54.524a3.593,3.593,0,0,1,0,7.185Z"/><path class="cls-18" d="M78.32,258.072a3.592,3.592,0,0,1-3.592-3.592V183.5a3.592,3.592,0,0,1,7.184,0V254.48A3.592,3.592,0,0,1,78.32,258.072Z"/><path class="cls-18" d="M302.351,222.92H169.679a3.592,3.592,0,0,1,0-7.184H302.351a3.592,3.592,0,0,1,0,7.184Z"/><path class="cls-18" d="M501.436,157.471H363.473a3.593,3.593,0,1,1,0-7.185H501.436a3.593,3.593,0,0,1,0,7.185Z"/><path class="cls-18" d="M501.436,96.273H375.52a3.593,3.593,0,1,1,0-7.185H501.436a3.593,3.593,0,0,1,0,7.185Z"/><path class="cls-18" d="M245.064,535.3a3.81,3.81,0,0,1-3.592-4V220.119a3.613,3.613,0,1,1,7.185,0V531.308A3.811,3.811,0,0,1,245.064,535.3Z"/><path class="cls-18" d="M160.191,156.469a3.593,3.593,0,0,1,0-7.185,26.913,26.913,0,1,0,0-53.825,3.592,3.592,0,0,1,0-7.184,34.1,34.1,0,1,1,0,68.194Z"/><path class="cls-18" d="M494.748,160.593a3.67,3.67,0,0,1,0-7.34,27.493,27.493,0,0,0,0-54.986,3.67,3.67,0,1,1,0-7.339,34.833,34.833,0,0,1,0,69.665Z"/><path class="cls-18" d="M375.52,96.215a34.1,34.1,0,1,1,0-68.194,3.592,3.592,0,1,1,0,7.184,26.913,26.913,0,1,0,0,53.825,3.593,3.593,0,0,1,0,7.185Z"/><path class="cls-18" d="M78.32,186.988a3.592,3.592,0,0,1-3.592-3.592,34.135,34.135,0,0,1,34.1-34.1,3.593,3.593,0,1,1,0,7.185A26.942,26.942,0,0,0,81.912,183.4,3.592,3.592,0,0,1,78.32,186.988Z"/><path class="cls-18" d="M302.351,222.81a3.592,3.592,0,1,1,0-7.184,27.412,27.412,0,0,0,19.28-7.908,26.461,26.461,0,0,0,8.081-18.971l-.082-4.307a34.135,34.135,0,0,1,34.1-34.1,3.593,3.593,0,0,1,0,7.185,26.945,26.945,0,0,0-26.913,26.878l.083,4.307a33.592,33.592,0,0,1-10.237,24.136A34.554,34.554,0,0,1,302.351,222.81Z"/><path class="cls-18" d="M108.824,288.577a34.135,34.135,0,0,1-34.1-34.1,3.592,3.592,0,0,1,7.184,0,26.913,26.913,0,0,0,53.825,0V254.4l.1-4.637a34.135,34.135,0,0,1,34.1-34.058,3.593,3.593,0,0,1,0,7.185A26.942,26.942,0,0,0,143.023,249.8v.078l-.1,4.638A34.136,34.136,0,0,1,108.824,288.577Z"/><path class="cls-6" d="M157.96,153.273h-2.245a.45.45,0,0,1,0-.9h2.245a.45.45,0,0,1,0,.9Zm-9.879,0h-2.245a.45.45,0,0,1,0-.9h2.245a.45.45,0,1,1,0,.9Zm-9.878,0h-2.246a.45.45,0,0,1,0-.9H138.2a.45.45,0,0,1,0,.9Zm-9.879,0h-2.245a.45.45,0,0,1,0-.9h2.245a.45.45,0,0,1,0,.9Zm-9.879,0H116.2a.45.45,0,0,1,0-.9h2.245a.45.45,0,0,1,0,.9Zm-9.879,0h-2.245a.45.45,0,0,1,0-.9h2.245a.45.45,0,0,1,0,.9Z"/><path class="cls-6" d="M296.962,219.777h-2.245a.449.449,0,1,1,0-.9h2.245a.449.449,0,1,1,0,.9Zm-9.879,0h-2.245a.449.449,0,0,1,0-.9h2.245a.449.449,0,0,1,0,.9Zm-9.878,0h-2.246a.449.449,0,0,1,0-.9h2.246a.449.449,0,0,1,0,.9Zm-9.879,0h-2.245a.449.449,0,0,1,0-.9h2.245a.449.449,0,0,1,0,.9Zm-9.879,0H255.2a.449.449,0,0,1,0-.9h2.245a.449.449,0,0,1,0,.9Zm-9.879,0h-2.245a.449.449,0,0,1,0-.9h2.245a.449.449,0,0,1,0,.9Zm-9.879,0h-2.245a.449.449,0,0,1,0-.9h2.245a.449.449,0,0,1,0,.9Zm-9.878,0h-2.246a.449.449,0,0,1,0-.9h2.246a.449.449,0,0,1,0,.9Zm-9.879,0h-2.245a.449.449,0,0,1,0-.9h2.245a.449.449,0,1,1,0,.9Zm-9.879,0h-2.245a.449.449,0,0,1,0-.9h2.245a.449.449,0,0,1,0,.9Zm-9.879,0h-2.245a.449.449,0,0,1,0-.9h2.245a.449.449,0,0,1,0,.9Zm-9.879,0H186.05a.449.449,0,0,1,0-.9H188.3a.449.449,0,0,1,0,.9Zm-9.878,0h-2.246a.449.449,0,0,1,0-.9h2.246a.449.449,0,0,1,0,.9Z"/><path class="cls-6" d="M501.436,154.327h-2.245a.449.449,0,1,1,0-.9h2.245a.449.449,0,0,1,0,.9Zm-9.879,0h-2.245a.449.449,0,0,1,0-.9h2.245a.449.449,0,1,1,0,.9Zm-9.879,0h-2.245a.449.449,0,0,1,0-.9h2.245a.449.449,0,0,1,0,.9Zm-9.878,0h-2.246a.449.449,0,1,1,0-.9H471.8a.449.449,0,0,1,0,.9Zm-9.879,0h-2.245a.449.449,0,1,1,0-.9h2.245a.449.449,0,0,1,0,.9Zm-9.879,0H449.8a.449.449,0,0,1,0-.9h2.245a.449.449,0,0,1,0,.9Zm-9.879,0h-2.245a.449.449,0,0,1,0-.9h2.245a.449.449,0,0,1,0,.9Zm-9.879,0h-2.245a.449.449,0,0,1,0-.9h2.245a.449.449,0,0,1,0,.9Zm-9.878,0H420.16a.449.449,0,0,1,0-.9h2.246a.449.449,0,0,1,0,.9Zm-9.879,0h-2.245a.449.449,0,1,1,0-.9h2.245a.449.449,0,0,1,0,.9Zm-9.879,0H400.4a.449.449,0,0,1,0-.9h2.245a.449.449,0,1,1,0,.9Zm-9.879,0h-2.245a.449.449,0,0,1,0-.9h2.245a.449.449,0,0,1,0,.9Zm-9.879,0h-2.245a.449.449,0,1,1,0-.9h2.245a.449.449,0,0,1,0,.9Zm-9.878,0h-2.246a.449.449,0,0,1,0-.9h2.246a.449.449,0,0,1,0,.9Z"/><path class="cls-6" d="M495.149,93.129H492.9a.449.449,0,0,1,0-.9h2.245a.449.449,0,0,1,0,.9Zm-9.878,0h-2.246a.449.449,0,0,1,0-.9h2.246a.449.449,0,0,1,0,.9Zm-9.879,0h-2.245a.449.449,0,0,1,0-.9h2.245a.449.449,0,0,1,0,.9Zm-9.879,0h-2.245a.449.449,0,0,1,0-.9h2.245a.449.449,0,0,1,0,.9Zm-9.879,0h-2.245a.449.449,0,0,1,0-.9h2.245a.449.449,0,0,1,0,.9Zm-9.879,0H443.51a.449.449,0,0,1,0-.9h2.245a.449.449,0,0,1,0,.9Zm-9.878,0h-2.246a.449.449,0,0,1,0-.9h2.246a.449.449,0,0,1,0,.9Zm-9.879,0h-2.245a.449.449,0,0,1,0-.9H426a.449.449,0,0,1,0,.9Zm-9.879,0h-2.245a.449.449,0,1,1,0-.9h2.245a.449.449,0,1,1,0,.9Zm-9.879,0H404a.449.449,0,1,1,0-.9h2.245a.449.449,0,0,1,0,.9Zm-9.879,0h-2.245a.449.449,0,1,1,0-.9h2.245a.449.449,0,0,1,0,.9Zm-9.878,0h-2.246a.449.449,0,1,1,0-.9h2.246a.449.449,0,0,1,0,.9Zm-9.879,0H375.52a.449.449,0,0,1,0-.9H376.6a.449.449,0,0,1,0,.9Z"/><path class="cls-6" d="M245.065,502.638a.45.45,0,0,1-.45-.449v-2.245a.45.45,0,0,1,.9,0v2.245A.45.45,0,0,1,245.065,502.638Zm0,9.389a.45.45,0,0,1-.45-.449v-2.245a.45.45,0,0,1,.9,0v2.245A.45.45,0,0,1,245.065,512.027Zm0-19.268a.45.45,0,0,1-.45-.449v-2.245a.45.45,0,0,1,.9,0v2.245A.45.45,0,0,1,245.065,492.759Zm0-9.879a.449.449,0,0,1-.45-.449v-2.245a.45.45,0,0,1,.9,0v2.245A.449.449,0,0,1,245.065,482.88Zm0-9.878a.45.45,0,0,1-.45-.449v-2.246a.45.45,0,0,1,.9,0v2.246A.45.45,0,0,1,245.065,473Zm0-9.879a.45.45,0,0,1-.45-.449v-2.245a.45.45,0,0,1,.9,0v2.245A.45.45,0,0,1,245.065,463.123Zm0-9.879a.45.45,0,0,1-.45-.449V450.55a.45.45,0,0,1,.9,0V452.8A.45.45,0,0,1,245.065,453.244Zm0-9.879a.45.45,0,0,1-.45-.449v-2.245a.45.45,0,0,1,.9,0v2.245A.45.45,0,0,1,245.065,443.365Zm0-9.879a.449.449,0,0,1-.45-.449v-2.245a.45.45,0,0,1,.9,0v2.245A.449.449,0,0,1,245.065,433.486Zm0-9.878a.45.45,0,0,1-.45-.449v-2.246a.45.45,0,0,1,.9,0v2.246A.45.45,0,0,1,245.065,423.608Zm0-9.879a.45.45,0,0,1-.45-.449v-2.245a.45.45,0,0,1,.9,0v2.245A.45.45,0,0,1,245.065,413.729Zm0-9.879a.45.45,0,0,1-.45-.449v-2.245a.45.45,0,0,1,.9,0V403.4A.45.45,0,0,1,245.065,403.85Zm0-9.879a.45.45,0,0,1-.45-.449v-2.245a.45.45,0,0,1,.9,0v2.245A.45.45,0,0,1,245.065,393.971Zm0-9.879a.449.449,0,0,1-.45-.449V381.4a.45.45,0,0,1,.9,0v2.245A.449.449,0,0,1,245.065,384.092Zm0-9.878a.45.45,0,0,1-.45-.449v-2.246a.45.45,0,0,1,.9,0v2.246A.45.45,0,0,1,245.065,374.214Zm0-9.879a.45.45,0,0,1-.45-.449v-2.245a.45.45,0,0,1,.9,0v2.245A.45.45,0,0,1,245.065,364.335Zm0-9.879a.45.45,0,0,1-.45-.449v-2.245a.45.45,0,0,1,.9,0v2.245A.45.45,0,0,1,245.065,354.456Zm0-9.879a.45.45,0,0,1-.45-.449v-2.245a.45.45,0,0,1,.9,0v2.245A.45.45,0,0,1,245.065,344.577Zm0-9.879a.449.449,0,0,1-.45-.449V332a.45.45,0,0,1,.9,0v2.245A.449.449,0,0,1,245.065,334.7Zm0-9.878a.45.45,0,0,1-.45-.449v-2.246a.45.45,0,0,1,.9,0v2.246A.45.45,0,0,1,245.065,324.82Zm0-9.879a.45.45,0,0,1-.45-.449v-2.245a.45.45,0,0,1,.9,0v2.245A.45.45,0,0,1,245.065,314.941Zm0-9.879a.45.45,0,0,1-.45-.449v-2.245a.45.45,0,0,1,.9,0v2.245A.45.45,0,0,1,245.065,305.062Zm0-9.879a.45.45,0,0,1-.45-.449v-2.245a.45.45,0,0,1,.9,0v2.245A.45.45,0,0,1,245.065,295.183Zm0-9.879a.449.449,0,0,1-.45-.449V282.61a.45.45,0,0,1,.9,0v2.245A.449.449,0,0,1,245.065,285.3Zm0-9.878a.45.45,0,0,1-.45-.449v-2.246a.45.45,0,0,1,.9,0v2.246A.45.45,0,0,1,245.065,275.426Zm0-9.879a.45.45,0,0,1-.45-.449v-2.245a.45.45,0,0,1,.9,0V265.1A.45.45,0,0,1,245.065,265.547Zm0-9.879a.45.45,0,0,1-.45-.449v-2.245a.45.45,0,0,1,.9,0v2.245A.45.45,0,0,1,245.065,255.668Zm0-9.879a.45.45,0,0,1-.45-.449V243.1a.45.45,0,0,1,.9,0v2.245A.45.45,0,0,1,245.065,245.789Zm0-9.878a.45.45,0,0,1-.45-.45v-2.245a.45.45,0,0,1,.9,0v2.245A.45.45,0,0,1,245.065,235.911Zm0-9.879a.45.45,0,0,1-.45-.449v-2.245a.45.45,0,1,1,.9,0v2.245A.45.45,0,0,1,245.065,226.032Z"/><path class="cls-6" d="M499.541,157.016a.459.459,0,0,1-.069-.912c.742-.115,1.489-.259,2.218-.427a.459.459,0,1,1,.206.894c-.751.173-1.519.321-2.284.44A.565.565,0,0,1,499.541,157.016Zm9.549-3.123a.459.459,0,0,1-.212-.866c.663-.344,1.323-.718,1.964-1.113a.459.459,0,1,1,.481.781c-.66.407-1.34.792-2.022,1.147A.459.459,0,0,1,509.09,153.893Zm8.051-6a.458.458,0,0,1-.329-.778c.522-.54,1.031-1.1,1.511-1.68a.459.459,0,1,1,.7.589c-.5.591-1.018,1.173-1.556,1.729A.458.458,0,0,1,517.141,147.891Zm5.738-8.248a.454.454,0,0,1-.2-.045.458.458,0,0,1-.215-.612c.324-.677.626-1.375.9-2.073a.459.459,0,0,1,.855.333c-.281.72-.592,1.438-.926,2.136A.457.457,0,0,1,522.879,139.643Zm2.806-9.65a.507.507,0,0,1-.055,0,.46.46,0,0,1-.4-.511c.09-.743.153-1.5.189-2.25a.453.453,0,0,1,.479-.437.458.458,0,0,1,.437.48c-.037.773-.1,1.552-.194,2.317A.459.459,0,0,1,525.685,129.993Zm-.4-10.036a.458.458,0,0,1-.449-.367c-.15-.738-.33-1.476-.533-2.194a.459.459,0,1,1,.883-.25c.209.741.394,1.5.549,2.26a.459.459,0,0,1-.358.541A.418.418,0,0,1,525.281,119.957ZM521.7,110.57a.457.457,0,0,1-.4-.228c-.375-.646-.781-1.288-1.206-1.908a.459.459,0,1,1,.757-.518c.438.639.855,1.3,1.242,1.965a.458.458,0,0,1-.4.689Zm-6.38-7.756a.455.455,0,0,1-.3-.115c-.565-.5-1.153-.977-1.75-1.429a.458.458,0,0,1,.553-.731c.615.465,1.221.96,1.8,1.471a.459.459,0,0,1-.3.8Zm-8.513-5.337a.464.464,0,0,1-.178-.036c-.689-.29-1.4-.558-2.116-.8a.459.459,0,0,1,.292-.87c.736.247,1.469.523,2.18.822a.459.459,0,0,1-.178.882Zm-9.771-2.338h-.033c-.744-.054-1.5-.081-2.258-.081a.459.459,0,0,1,0-.918c.777,0,1.558.028,2.324.084a.459.459,0,0,1-.033.916Z"/><path class="cls-6" d="M375.52,93.071c-.76,0-1.525-.027-2.275-.082a.449.449,0,0,1,.065-.9c.728.053,1.472.079,2.21.079a.449.449,0,0,1,0,.9Zm-9.7-1.576a.45.45,0,0,1-.143-.023c-.72-.241-1.438-.512-2.133-.8a.449.449,0,1,1,.348-.827c.675.283,1.372.546,2.071.781a.449.449,0,0,1-.143.874Zm-8.7-4.6a.448.448,0,0,1-.27-.091c-.6-.456-1.2-.94-1.765-1.441a.449.449,0,0,1,.593-.674c.553.486,1.129.957,1.714,1.4a.449.449,0,0,1-.272.807Zm-6.785-7.117a.449.449,0,0,1-.371-.2c-.428-.626-.837-1.273-1.216-1.924a.449.449,0,0,1,.777-.452c.367.633.764,1.261,1.18,1.868a.449.449,0,0,1-.117.624A.44.44,0,0,1,350.333,79.781Zm-4.172-8.9a.448.448,0,0,1-.432-.326c-.2-.726-.386-1.47-.538-2.213a.449.449,0,1,1,.88-.18c.147.722.323,1.445.522,2.148a.449.449,0,0,1-.31.554A.428.428,0,0,1,346.161,70.877Zm-1.111-9.768h-.022a.449.449,0,0,1-.427-.469c.036-.757.1-1.52.19-2.269a.449.449,0,1,1,.892.108c-.089.727-.15,1.468-.185,2.2A.449.449,0,0,1,345.05,61.109Zm2.04-9.622a.441.441,0,0,1-.163-.031.45.45,0,0,1-.256-.581c.275-.7.58-1.408.906-2.092a.45.45,0,0,1,.811.388c-.318.663-.613,1.346-.88,2.03A.448.448,0,0,1,347.09,51.487Zm5.008-8.466a.448.448,0,0,1-.344-.737c.484-.579,1-1.148,1.523-1.692a.449.449,0,1,1,.645.624c-.511.529-1.009,1.082-1.479,1.644A.446.446,0,0,1,352.1,43.021Zm7.433-6.438a.449.449,0,0,1-.236-.831c.646-.4,1.311-.776,1.98-1.122a.449.449,0,0,1,.414.8c-.649.337-1.3.7-1.923,1.09A.448.448,0,0,1,359.531,36.583Zm9.092-3.739a.449.449,0,0,1-.1-.886c.736-.17,1.488-.315,2.237-.43a.449.449,0,1,1,.137.887c-.727.112-1.457.253-2.171.418A.443.443,0,0,1,368.623,32.844Z"/><path class="cls-6" d="M78.32,183.845a.449.449,0,0,1-.449-.449c0-.757.028-1.522.082-2.274a.449.449,0,1,1,.9.064c-.053.731-.08,1.475-.08,2.21A.449.449,0,0,1,78.32,183.845ZM79.9,174.14a.448.448,0,0,1-.426-.592c.241-.716.511-1.434.805-2.132a.449.449,0,1,1,.828.347c-.285.679-.548,1.375-.781,2.071A.449.449,0,0,1,79.9,174.14Zm4.6-8.7a.442.442,0,0,1-.27-.091.448.448,0,0,1-.087-.629c.455-.6.94-1.194,1.441-1.764a.449.449,0,1,1,.674.593c-.487.554-.958,1.13-1.4,1.713A.448.448,0,0,1,84.492,165.443Zm7.119-6.786a.449.449,0,0,1-.254-.819c.626-.429,1.273-.838,1.924-1.216a.449.449,0,1,1,.451.776c-.631.368-1.26.764-1.868,1.181A.448.448,0,0,1,91.611,158.657Zm8.9-4.171a.449.449,0,0,1-.122-.881c.725-.2,1.47-.386,2.213-.538a.449.449,0,1,1,.18.88c-.722.147-1.445.323-2.149.522A.428.428,0,0,1,100.513,154.486Z"/><path class="cls-6" d="M302.351,219.667a.449.449,0,0,1,0-.9c.737,0,1.48-.027,2.21-.08a.449.449,0,1,1,.065.9C303.875,219.639,303.109,219.667,302.351,219.667Zm9.711-1.564a.449.449,0,0,1-.14-.875c.7-.231,1.4-.491,2.075-.77a.449.449,0,0,1,.343.829c-.7.289-1.417.556-2.137.794A.456.456,0,0,1,312.062,218.1Zm8.739-4.523a.449.449,0,0,1-.267-.81c.59-.435,1.173-.9,1.733-1.376a.449.449,0,1,1,.583.683c-.576.492-1.176.968-1.783,1.415A.444.444,0,0,1,320.8,213.58Zm6.9-7.008a.448.448,0,0,1-.365-.709c.424-.6.834-1.218,1.217-1.846a.449.449,0,1,1,.767.466c-.394.648-.815,1.287-1.253,1.9A.446.446,0,0,1,327.7,206.572Zm4.339-8.823a.484.484,0,0,1-.129-.018.449.449,0,0,1-.3-.56c.212-.706.4-1.426.556-2.139a.449.449,0,0,1,.877.193c-.161.735-.355,1.477-.574,2.205A.449.449,0,0,1,332.042,197.749Zm1.24-9.751a.449.449,0,0,1-.449-.44l-.044-2.245a.451.451,0,0,1,.441-.458h.009a.45.45,0,0,1,.449.44l.043,2.245a.45.45,0,0,1-.44.458Zm.681-9.822a.489.489,0,0,1-.1-.01.45.45,0,0,1-.339-.537c.166-.738.361-1.479.581-2.2a.449.449,0,0,1,.859.261c-.213.7-.4,1.422-.564,2.138A.448.448,0,0,1,333.963,178.176Zm3.683-9.118a.448.448,0,0,1-.383-.682c.392-.645.814-1.285,1.255-1.9a.449.449,0,1,1,.73.522c-.427.6-.837,1.22-1.218,1.846A.448.448,0,0,1,337.646,169.058Zm6.4-7.472a.449.449,0,0,1-.291-.792c.578-.489,1.181-.962,1.791-1.405a.449.449,0,1,1,.528.726c-.593.431-1.178.89-1.739,1.365A.447.447,0,0,1,344.042,161.586Zm8.428-5.058a.449.449,0,0,1-.165-.866c.7-.278,1.423-.535,2.146-.762a.449.449,0,1,1,.269.857c-.7.22-1.4.469-2.084.74A.456.456,0,0,1,352.47,156.528Zm9.6-2.1a.449.449,0,0,1-.024-.9c.558-.03,1.125-.056,1.676-.044a.449.449,0,1,1,0,.9h0c-.52,0-1.085.014-1.627.043Z"/><path class="cls-6" d="M108.825,285.434c-.165,0-.329,0-.492,0a.449.449,0,0,1,.007-.9h.007c.736.013,1.483,0,2.211-.045a.455.455,0,0,1,.474.422.448.448,0,0,1-.422.474C110.022,285.417,109.421,285.434,108.825,285.434Zm-8.021-1.066a.436.436,0,0,1-.118-.016c-.728-.2-1.46-.425-2.174-.677a.45.45,0,0,1,.3-.848c.693.245,1.4.467,2.11.659a.449.449,0,0,1-.117.882Zm17.265-.359a.449.449,0,0,1-.136-.877c.7-.224,1.4-.476,2.081-.748a.449.449,0,0,1,.335.834c-.7.28-1.42.539-2.143.77A.46.46,0,0,1,118.069,284.009Zm-26.212-3.725a.445.445,0,0,1-.25-.077c-.626-.42-1.246-.869-1.844-1.336a.449.449,0,1,1,.554-.708c.58.454,1.182.891,1.791,1.3a.45.45,0,0,1-.251.822Zm34.976-.731a.449.449,0,0,1-.266-.811c.593-.434,1.176-.9,1.735-1.371a.449.449,0,0,1,.582.684c-.575.489-1.176.964-1.786,1.411A.445.445,0,0,1,126.833,279.553Zm-42.159-5.986a.446.446,0,0,1-.355-.175c-.463-.6-.909-1.221-1.326-1.851a.449.449,0,1,1,.749-.5c.405.611.838,1.216,1.287,1.8a.45.45,0,0,1-.355.724Zm49.057-1.021a.443.443,0,0,1-.259-.083.448.448,0,0,1-.107-.626c.424-.6.832-1.222,1.212-1.851a.449.449,0,1,1,.768.464c-.39.648-.81,1.289-1.247,1.906A.45.45,0,0,1,133.731,272.546ZM79.993,264.92a.448.448,0,0,1-.424-.3c-.248-.715-.471-1.447-.665-2.178a.449.449,0,0,1,.868-.231c.188.71.405,1.421.646,2.115a.449.449,0,0,1-.278.571A.441.441,0,0,1,79.993,264.92Zm58.055-1.212a.438.438,0,0,1-.129-.019.45.45,0,0,1-.3-.559c.211-.7.4-1.423.557-2.14a.449.449,0,1,1,.877.194c-.164.738-.356,1.48-.573,2.2A.451.451,0,0,1,138.048,263.708Zm-59.727-8.477a.45.45,0,0,1-.449-.445v-.305a.449.449,0,0,1,.448-.45h0a.449.449,0,0,1,.449.448v.3a.448.448,0,0,1-.445.453Zm61.029-1.274h-.009a.45.45,0,0,1-.44-.459l.049-2.244a.434.434,0,0,1,.458-.44.45.45,0,0,1,.44.459l-.049,2.245A.449.449,0,0,1,139.35,253.957Zm.7-9.834a.459.459,0,0,1-.09-.01.448.448,0,0,1-.35-.529c.15-.74.331-1.484.537-2.213a.449.449,0,1,1,.864.244c-.2.707-.375,1.43-.521,2.148A.45.45,0,0,1,140.047,244.123Zm3.5-9.188a.449.449,0,0,1-.388-.675c.38-.653.789-1.3,1.216-1.924a.449.449,0,0,1,.741.508c-.414.605-.812,1.234-1.181,1.868A.449.449,0,0,1,143.549,234.935Zm6.246-7.593a.449.449,0,0,1-.3-.787c.566-.5,1.16-.983,1.764-1.44a.449.449,0,1,1,.542.715c-.586.445-1.163.915-1.713,1.4A.447.447,0,0,1,149.795,227.342Zm8.333-5.224a.449.449,0,0,1-.174-.863c.7-.293,1.413-.564,2.133-.805a.449.449,0,1,1,.286.851c-.7.235-1.4.5-2.071.781A.448.448,0,0,1,158.128,222.118Zm9.564-2.288a.449.449,0,0,1-.032-.9c.75-.055,1.515-.082,2.275-.082a.449.449,0,0,1,0,.9c-.738,0-1.481.026-2.21.08Z"/><path class="cls-19" d="M398.547,88.316l-5.4,17.506a.931.931,0,0,0,.89,1.206H402.5a.932.932,0,0,0,.9-1.18Z"/><path class="cls-15" d="M386.523,243.372a3.689,3.689,0,0,1-3.685-3.685.449.449,0,0,1,.9,0,2.787,2.787,0,1,0,5.574,0,.449.449,0,0,1,.9,0A3.689,3.689,0,0,1,386.523,243.372Z"/><path class="cls-15" d="M393.039,243.372a3.689,3.689,0,0,1-3.685-3.685.449.449,0,0,1,.9,0,2.787,2.787,0,1,0,5.574,0,.449.449,0,0,1,.9,0A3.689,3.689,0,0,1,393.039,243.372Z"/><path class="cls-15" d="M399.511,243.372a3.689,3.689,0,0,1-3.685-3.685.449.449,0,0,1,.9,0,2.787,2.787,0,1,0,5.574,0,.449.449,0,1,1,.9,0A3.689,3.689,0,0,1,399.511,243.372Z"/><path class="cls-15" d="M268.017,138.028a3.69,3.69,0,0,1-3.686-3.685.449.449,0,0,1,.9,0,2.787,2.787,0,1,0,5.574,0,.449.449,0,1,1,.9,0A3.689,3.689,0,0,1,268.017,138.028Z"/><path class="cls-15" d="M274.532,138.028a3.689,3.689,0,0,1-3.685-3.685.449.449,0,1,1,.9,0,2.787,2.787,0,0,0,5.574,0,.449.449,0,0,1,.9,0A3.689,3.689,0,0,1,274.532,138.028Z"/><path class="cls-15" d="M281,138.028a3.689,3.689,0,0,1-3.685-3.685.449.449,0,0,1,.9,0,2.787,2.787,0,1,0,5.574,0,.449.449,0,0,1,.9,0A3.689,3.689,0,0,1,281,138.028Z"/><path class="cls-15" d="M295.759,106.948a3.689,3.689,0,0,1-3.685-3.685.449.449,0,1,1,.9,0,2.787,2.787,0,1,0,5.574,0,.449.449,0,0,1,.9,0A3.689,3.689,0,0,1,295.759,106.948Z"/><path class="cls-15" d="M302.275,106.948a3.689,3.689,0,0,1-3.685-3.685.449.449,0,0,1,.9,0,2.787,2.787,0,1,0,5.574,0,.449.449,0,1,1,.9,0A3.689,3.689,0,0,1,302.275,106.948Z"/><path class="cls-15" d="M308.747,106.948a3.689,3.689,0,0,1-3.685-3.685.449.449,0,1,1,.9,0,2.787,2.787,0,1,0,5.574,0,.449.449,0,1,1,.9,0A3.689,3.689,0,0,1,308.747,106.948Z"/><path class="cls-15" d="M322.529,44.231a3.69,3.69,0,0,1-3.685-3.685.449.449,0,0,1,.9,0,2.787,2.787,0,1,0,5.574,0,.449.449,0,0,1,.9,0A3.69,3.69,0,0,1,322.529,44.231Z"/><path class="cls-15" d="M329.044,44.231a3.69,3.69,0,0,1-3.685-3.685.45.45,0,0,1,.9,0,2.787,2.787,0,1,0,5.573,0,.45.45,0,0,1,.9,0A3.691,3.691,0,0,1,329.044,44.231Z"/><path class="cls-15" d="M335.516,44.231a3.69,3.69,0,0,1-3.685-3.685.45.45,0,0,1,.9,0,2.787,2.787,0,1,0,5.573,0,.45.45,0,0,1,.9,0A3.691,3.691,0,0,1,335.516,44.231Z"/><path class="cls-15" d="M600.827,267.886a3.686,3.686,0,0,1-3.681-3.682.449.449,0,0,1,.9,0,2.784,2.784,0,1,0,5.568,0,.449.449,0,0,1,.9,0A3.687,3.687,0,0,1,600.827,267.886Z"/><path class="cls-15" d="M290.31,281.859a3.686,3.686,0,0,1-3.682-3.681.449.449,0,1,1,.9,0,2.785,2.785,0,0,0,5.569,0,.449.449,0,1,1,.9,0A3.685,3.685,0,0,1,290.31,281.859Z"/><path class="cls-15" d="M296.819,281.859a3.686,3.686,0,0,1-3.682-3.681.449.449,0,0,1,.9,0,2.784,2.784,0,0,0,5.568,0,.449.449,0,1,1,.9,0A3.685,3.685,0,0,1,296.819,281.859Z"/><path class="cls-15" d="M530.76,302.976a3.686,3.686,0,0,1-3.681-3.682.449.449,0,0,1,.9,0,2.784,2.784,0,1,0,5.568,0,.449.449,0,0,1,.9,0A3.686,3.686,0,0,1,530.76,302.976Z"/><rect class="cls-20" x="38.042" y="88.12" width="109.489" height="7.374"/><path class="cls-6" d="M160.192,92.273h-2.246a.449.449,0,1,1,0-.9h2.246a.449.449,0,0,1,0,.9Zm-9.879,0h-2.245a.449.449,0,0,1,0-.9h2.245a.449.449,0,1,1,0,.9Zm-9.879,0h-2.245a.449.449,0,1,1,0-.9h2.245a.449.449,0,1,1,0,.9Zm-9.879,0H128.31a.449.449,0,0,1,0-.9h2.245a.449.449,0,0,1,0,.9Zm-9.879,0h-2.245a.449.449,0,0,1,0-.9h2.245a.449.449,0,0,1,0,.9Zm-9.878,0h-2.246a.449.449,0,0,1,0-.9H110.8a.449.449,0,1,1,0,.9Zm-9.879,0H98.674a.449.449,0,0,1,0-.9h2.245a.449.449,0,0,1,0,.9Zm-9.879,0H88.8a.449.449,0,0,1,0-.9H91.04a.449.449,0,0,1,0,.9Zm-9.879,0H78.916a.449.449,0,1,1,0-.9h2.245a.449.449,0,1,1,0,.9Zm-9.879,0H69.037a.449.449,0,0,1,0-.9h2.245a.449.449,0,1,1,0,.9Zm-9.878,0H59.158a.449.449,0,0,1,0-.9H61.4a.449.449,0,1,1,0,.9Zm-9.879,0H49.28a.449.449,0,1,1,0-.9h2.245a.449.449,0,0,1,0,.9Zm-9.879,0H39.4a.449.449,0,1,1,0-.9h2.245a.449.449,0,0,1,0,.9Z"/><rect class="cls-21" x="174.865" y="339.667" width="42.828" height="0.898"/><rect class="cls-21" x="174.865" y="353.719" width="42.828" height="0.898"/><rect class="cls-21" x="174.865" y="367.771" width="42.828" height="0.898"/><rect class="cls-21" x="173.531" y="382.273" width="42.828" height="0.898"/><rect class="cls-21" x="173.531" y="396.325" width="42.828" height="0.898"/><rect class="cls-21" x="173.531" y="410.376" width="42.828" height="0.898"/><rect class="cls-21" x="168.393" y="420.836" width="48.01" height="0.898"/><rect class="cls-21" x="168.393" y="438.481" width="48.01" height="0.898"/><g class="cls-22"><path class="cls-17" d="M342.273,517.56H471.48a13.92,13.92,0,0,0,0-27.84H342.273a13.92,13.92,0,0,0,0,27.84Z"/><path class="cls-17" d="M544.628,533.334a13.92,13.92,0,0,0,13.92-13.92V448.452a13.92,13.92,0,1,0-27.84,0v70.962A13.92,13.92,0,0,0,544.628,533.334Z"/><path class="cls-17" d="M463.012,433.14h48.34a13.92,13.92,0,0,0,0-27.84h-48.34a13.92,13.92,0,0,0,0,27.84Z"/><path class="cls-17" d="M463.012,433.14a13.92,13.92,0,0,0,0-27.84,16.444,16.444,0,1,1,0-32.887,13.92,13.92,0,0,0,0-27.84,44.284,44.284,0,1,0,0,88.567Z"/><path class="cls-17" d="M544.628,463.5a13.921,13.921,0,0,0,13.921-13.92A44.335,44.335,0,0,0,514.265,405.3a13.92,13.92,0,1,0,0,27.84,16.462,16.462,0,0,1,16.443,16.444A13.92,13.92,0,0,0,544.628,463.5Z"/><path class="cls-17" d="M320.837,499.341a13.92,13.92,0,1,0,0-27.84,16.461,16.461,0,0,1-16.443-16.444,13.921,13.921,0,0,0-27.841,0A44.334,44.334,0,0,0,320.837,499.341Z"/><path class="cls-17" d="M290.246,463.5a13.92,13.92,0,0,0,13.92-13.92,44.334,44.334,0,0,0-44.283-44.284,13.92,13.92,0,1,0,0,27.84,16.462,16.462,0,0,1,16.443,16.444A13.92,13.92,0,0,0,290.246,463.5Z"/><path class="cls-17" d="M501.863,547.924A13.92,13.92,0,0,0,515.783,534,44.335,44.335,0,0,0,471.5,489.72a13.92,13.92,0,0,0,0,27.84A16.462,16.462,0,0,1,487.942,534,13.921,13.921,0,0,0,501.863,547.924Z"/><path class="cls-4" d="M64.482,398.219a57.821,57.821,0,0,0,57.755,57.755c.5,0,1.005-.016,1.5-.043q.672.033,1.352.034H260.164a2.976,2.976,0,0,1,2.972,2.973,27.475,27.475,0,0,0,.279,3.872c-.031.533-.051,1.07-.051,1.611a57.819,57.819,0,0,0,57.5,57.751,27.476,27.476,0,0,0,3.73.261h40.341v78.093a44.289,44.289,0,0,0,0,85.119v75.792a13.921,13.921,0,0,0,27.841,0V685.644a44.288,44.288,0,0,0,0-85.118V522.433h61.044a2.975,2.975,0,0,1,2.972,2.972c0,.645.031,1.283.075,1.917-.044.634-.075,1.271-.075,1.916a57.755,57.755,0,1,0,115.51,0c0-.08,0-.159-.006-.239s.006-.148.006-.222V457.815c0-.79-.042-1.57-.107-2.344a57.827,57.827,0,0,0-57.648-54.279c-.489,0-.974.014-1.456.039-.483-.025-.968-.039-1.457-.039h-48.34a2.973,2.973,0,0,1,0-5.945c.307,0,.611-.013.916-.023.3.01.608.023.915.023H594.332a27.392,27.392,0,0,0,0-54.783H465.124c-.307,0-.611.013-.915.024-.305-.011-.609-.024-.916-.024a57.755,57.755,0,0,0,0,115.51h48.34c.489,0,.974-.014,1.457-.039.482.025.967.039,1.456.039a2.976,2.976,0,0,1,2.972,2.964v69.839c0,.08.006.159.006.239s0,.148,0,.222a2.973,2.973,0,1,1-5.945,0c0-.645-.031-1.282-.075-1.916.044-.634.075-1.272.075-1.917a57.821,57.821,0,0,0-57.755-57.755h-129a27.607,27.607,0,0,0-3.7-.257,2.976,2.976,0,0,1-2.972-2.972,27.489,27.489,0,0,0-.279-3.873c.031-.533.052-1.069.052-1.61a57.82,57.82,0,0,0-57.755-57.755H125.092c-.5,0-1.006.016-1.5.043q-.672-.033-1.351-.034a2.973,2.973,0,1,1,0-5.945c.635,0,1.263-.03,1.887-.073H246.5c.307,0,.611-.013.915-.023.305.01.609.023.916.023a57.755,57.755,0,1,0,0-115.509,27.391,27.391,0,0,0,0,54.782,2.973,2.973,0,0,1,0,5.945c-.307,0-.611.013-.916.023-.3-.01-.608-.023-.915-.023H117.288a27.222,27.222,0,0,0-11,2.313A57.856,57.856,0,0,0,64.482,398.219ZM360.741,643.085a16.461,16.461,0,0,1,16.443-16.443c.28,0,.559-.011.835-.027.277.016.555.027.836.027s.558-.011.835-.027c.276.016.554.027.835.027a16.444,16.444,0,1,1,0,32.887,13.6,13.6,0,0,1-3.341,0A16.462,16.462,0,0,1,360.741,643.085Z"/><path class="cls-13" d="M464.8,372.3H594.006a13.92,13.92,0,1,0,0-27.84H464.8a13.92,13.92,0,1,0,0,27.84Z"/><path class="cls-13" d="M594.006,385.774H464.8a27.391,27.391,0,1,1,0-54.782H594.006a27.391,27.391,0,1,1,0,54.782ZM464.8,357.934a.449.449,0,1,0,0,.9H594.006a.449.449,0,1,0,0-.9Z"/><path class="cls-13" d="M124.766,433.022H259.839a13.92,13.92,0,1,0,0-27.84H124.766a13.92,13.92,0,0,0,0,27.84Z"/><path class="cls-13" d="M259.839,446.493H124.766a27.392,27.392,0,0,1,0-54.783H259.839a27.392,27.392,0,0,1,0,54.783ZM124.766,418.652a.45.45,0,0,0,0,.9H259.839a.45.45,0,0,0,0-.9Z"/><path class="cls-13" d="M324.267,499.489H453.474a13.92,13.92,0,1,0,0-27.84H324.267a13.92,13.92,0,0,0,0,27.84Z"/><path class="cls-13" d="M453.475,512.96H324.267a27.391,27.391,0,0,1,0-54.782H453.475a27.391,27.391,0,0,1,0,54.782ZM324.267,485.12a.449.449,0,0,0,0,.9H453.475a.449.449,0,0,0,0-.9Z"/><path class="cls-13" d="M544.584,533.225A13.92,13.92,0,0,0,558.5,519.3V448.343a13.92,13.92,0,1,0-27.84,0V519.3A13.92,13.92,0,0,0,544.584,533.225Z"/><path class="cls-13" d="M544.584,546.7A27.422,27.422,0,0,1,517.193,519.3V448.342a27.391,27.391,0,0,1,54.782,0V519.3A27.422,27.422,0,0,1,544.584,546.7Zm0-98.8a.45.45,0,0,0-.449.449V519.3a.449.449,0,0,0,.9,0V448.342A.45.45,0,0,0,544.584,447.893Z"/><path class="cls-13" d="M462.968,433.031h48.34a13.921,13.921,0,0,0,0-27.841h-48.34a13.921,13.921,0,0,0,0,27.841Z"/><path class="cls-13" d="M511.308,446.5h-48.34a27.391,27.391,0,0,1,0-54.782h48.34a27.391,27.391,0,0,1,0,54.782Zm-48.34-27.84a.449.449,0,0,0,0,.9h48.34a.449.449,0,0,0,0-.9Z"/><path class="cls-13" d="M462.968,433.031a13.921,13.921,0,0,0,0-27.841,16.444,16.444,0,1,1,0-32.887,13.92,13.92,0,0,0,0-27.84,44.284,44.284,0,0,0,0,88.568Z"/><path class="cls-13" d="M462.968,446.5a57.755,57.755,0,1,1,0-115.509,27.391,27.391,0,0,1,0,54.782,2.973,2.973,0,1,0,0,5.945,27.391,27.391,0,0,1,0,54.782Zm0-88.567a30.813,30.813,0,1,0,0,61.625.449.449,0,0,0,0-.9,29.915,29.915,0,1,1,0-59.829.449.449,0,1,0,0-.9Z"/><path class="cls-13" d="M116.963,372.231H246.171a13.92,13.92,0,1,0,0-27.84H116.963a13.92,13.92,0,0,0,0,27.84Z"/><path class="cls-13" d="M246.171,385.7H116.963a27.392,27.392,0,0,1,0-54.783H246.171a27.392,27.392,0,0,1,0,54.783Zm-129.208-27.84a.449.449,0,0,0,0,.9H246.171a.449.449,0,1,0,0-.9Z"/><path class="cls-13" d="M248,372.231a44.284,44.284,0,1,0,0-88.568,13.921,13.921,0,0,0,0,27.841,16.444,16.444,0,1,1,0,32.887,13.92,13.92,0,0,0,0,27.84Z"/><path class="cls-13" d="M248,385.7a27.392,27.392,0,0,1,0-54.783,2.973,2.973,0,1,0,0-5.945,27.391,27.391,0,0,1,0-54.782,57.755,57.755,0,1,1,0,115.51Zm0-88.568a.449.449,0,0,0,0,.9,29.915,29.915,0,0,1,0,59.83.449.449,0,1,0,0,.9,30.813,30.813,0,1,0,0-61.626Z"/><path class="cls-13" d="M514.221,564.05a44.335,44.335,0,0,0,44.284-44.284,13.921,13.921,0,1,0-27.841,0,16.444,16.444,0,0,1-32.887,0,13.92,13.92,0,1,0-27.84,0A44.335,44.335,0,0,0,514.221,564.05Z"/><path class="cls-13" d="M514.221,577.52a57.821,57.821,0,0,1-57.755-57.755,27.391,27.391,0,1,1,54.782,0,2.973,2.973,0,1,0,5.945,0,27.392,27.392,0,0,1,54.783,0A57.821,57.821,0,0,1,514.221,577.52Zm-30.364-58.2a.45.45,0,0,0-.449.449,30.813,30.813,0,0,0,61.626,0,.449.449,0,1,0-.9,0,29.915,29.915,0,1,1-59.83,0A.45.45,0,0,0,483.857,519.316Z"/><path class="cls-13" d="M116.755,433.031a13.921,13.921,0,0,0,0-27.841,16.444,16.444,0,1,1,0-32.887,13.92,13.92,0,1,0,0-27.84,44.284,44.284,0,0,0,0,88.568Z"/><path class="cls-13" d="M116.755,446.5a57.755,57.755,0,1,1,0-115.509,27.391,27.391,0,1,1,0,54.782,2.973,2.973,0,1,0,0,5.945,27.391,27.391,0,0,1,0,54.782Zm0-88.567a30.813,30.813,0,1,0,0,61.625.449.449,0,0,0,0-.9,29.915,29.915,0,1,1,0-59.829.449.449,0,0,0,0-.9Z"/><path class="cls-13" d="M544.585,463.394a13.92,13.92,0,0,0,13.92-13.92,44.335,44.335,0,0,0-44.284-44.284,13.921,13.921,0,0,0,0,27.841,16.461,16.461,0,0,1,16.443,16.443A13.921,13.921,0,0,0,544.585,463.394Z"/><path class="cls-13" d="M544.585,476.865a27.422,27.422,0,0,1-27.392-27.391,2.976,2.976,0,0,0-2.972-2.973,27.391,27.391,0,0,1,0-54.782,57.821,57.821,0,0,1,57.755,57.755A27.422,27.422,0,0,1,544.585,476.865Zm-30.364-58.2a.449.449,0,1,0,0,.9,29.949,29.949,0,0,1,29.915,29.915.449.449,0,1,0,.9,0A30.848,30.848,0,0,0,514.221,418.661Z"/><path class="cls-13" d="M320.793,499.232a13.92,13.92,0,0,0,0-27.84,16.462,16.462,0,0,1-16.443-16.444,13.921,13.921,0,0,0-27.841,0A44.335,44.335,0,0,0,320.793,499.232Z"/><path class="cls-13" d="M320.793,512.7a57.821,57.821,0,0,1-57.755-57.755,27.392,27.392,0,0,1,54.783,0,2.975,2.975,0,0,0,2.972,2.972,27.392,27.392,0,0,1,0,54.783ZM290.43,454.5a.449.449,0,0,0-.449.449,30.847,30.847,0,0,0,30.812,30.813.45.45,0,0,0,0-.9,29.947,29.947,0,0,1-29.914-29.914A.45.45,0,0,0,290.43,454.5Z"/><path class="cls-13" d="M290.2,463.386a13.92,13.92,0,0,0,13.92-13.92,44.333,44.333,0,0,0-44.283-44.284,13.92,13.92,0,1,0,0,27.84,16.461,16.461,0,0,1,16.443,16.444A13.92,13.92,0,0,0,290.2,463.386Z"/><path class="cls-13" d="M290.2,476.857a27.422,27.422,0,0,1-27.391-27.392,2.976,2.976,0,0,0-2.972-2.972,27.392,27.392,0,1,1,0-54.783,57.82,57.82,0,0,1,57.754,57.755A27.422,27.422,0,0,1,290.2,476.857Zm-30.363-58.205a.45.45,0,0,0,0,.9,29.947,29.947,0,0,1,29.914,29.914.449.449,0,0,0,.9,0A30.847,30.847,0,0,0,259.839,418.652Z"/><path class="cls-13" d="M483.857,529.853a13.92,13.92,0,0,0,13.92-13.92,44.335,44.335,0,0,0-44.284-44.284,13.92,13.92,0,0,0,0,27.84,16.463,16.463,0,0,1,16.444,16.444A13.92,13.92,0,0,0,483.857,529.853Z"/><path class="cls-13" d="M483.857,543.324a27.423,27.423,0,0,1-27.391-27.391,2.976,2.976,0,0,0-2.973-2.973,27.391,27.391,0,0,1,0-54.782,57.821,57.821,0,0,1,57.755,57.755A27.422,27.422,0,0,1,483.857,543.324Zm-30.364-58.2a.449.449,0,0,0,0,.9,29.949,29.949,0,0,1,29.915,29.915.449.449,0,1,0,.9,0A30.848,30.848,0,0,0,453.493,485.12Z"/><path class="cls-17" d="M124.81,433.131H259.883a13.92,13.92,0,1,0,0-27.84H124.81a13.92,13.92,0,0,0,0,27.84Z"/><path class="cls-17" d="M124.548,372.34h122.4c7.283,0,13.187-6.232,13.187-13.92s-5.9-13.92-13.187-13.92h-122.4c-7.283,0-13.187,6.232-13.187,13.92S117.265,372.34,124.548,372.34Z"/><path class="cls-17" d="M248.045,372.341a44.284,44.284,0,1,0,0-88.568,13.92,13.92,0,1,0,0,27.84,16.444,16.444,0,1,1,0,32.887,13.921,13.921,0,0,0,0,27.841Z"/><path class="cls-17" d="M122.919,433.14a13.92,13.92,0,1,0,0-27.84,16.444,16.444,0,1,1,0-32.887,13.92,13.92,0,0,0,0-27.84,44.284,44.284,0,1,0,0,88.567Z"/><path class="cls-5" d="M463.3,361.8h23.523a3.592,3.592,0,0,0,0-7.184H463.3a3.592,3.592,0,0,0,0,7.184Z"/><path class="cls-5" d="M462.65,422.8h54.524a3.593,3.593,0,0,0,0-7.185H462.65a3.593,3.593,0,1,0,0,7.185Z"/><path class="cls-5" d="M545.175,524.46a3.592,3.592,0,0,0,3.592-3.592V449.887a3.592,3.592,0,0,0-7.184,0v70.981A3.592,3.592,0,0,0,545.175,524.46Z"/><path class="cls-5" d="M321.144,489.308H453.816a3.592,3.592,0,1,0,0-7.184H321.144a3.592,3.592,0,0,0,0,7.184Z"/><path class="cls-18" d="M122.059,423.859H260.022a3.593,3.593,0,0,0,0-7.185H122.059a3.593,3.593,0,0,0,0,7.185Z"/><path class="cls-18" d="M122.059,362.661H247.975a3.593,3.593,0,0,0,0-7.185H122.059a3.593,3.593,0,0,0,0,7.185Z"/><path class="cls-5" d="M378.43,769.475a3.593,3.593,0,0,0,3.593-3.592V486.1a3.593,3.593,0,0,0-7.185,0V765.883A3.592,3.592,0,0,0,378.43,769.475Z"/><path class="cls-5" d="M463.3,422.857a3.593,3.593,0,1,0,0-7.185,26.913,26.913,0,0,1,0-53.825,3.592,3.592,0,1,0,0-7.184,34.1,34.1,0,1,0,0,68.194Z"/><path class="cls-18" d="M122.059,423.67a3.592,3.592,0,0,0,0-7.184,26.913,26.913,0,0,1,0-53.825,3.593,3.593,0,0,0,0-7.185,34.1,34.1,0,1,0,0,68.194Z"/><path class="cls-20" d="M247.975,362.6a34.1,34.1,0,1,0,0-68.194,3.592,3.592,0,1,0,0,7.184,26.913,26.913,0,1,1,0,53.825,3.593,3.593,0,1,0,0,7.185Z"/><path class="cls-5" d="M545.175,453.376a3.592,3.592,0,0,0,3.592-3.592,34.136,34.136,0,0,0-34.1-34.1,3.593,3.593,0,0,0,0,7.185,26.942,26.942,0,0,1,26.913,26.912A3.592,3.592,0,0,0,545.175,453.376Z"/><path class="cls-5" d="M321.144,489.2a3.592,3.592,0,0,0,0-7.184,27.41,27.41,0,0,1-19.28-7.908,26.459,26.459,0,0,1-8.081-18.97l.082-4.308a34.135,34.135,0,0,0-34.1-34.1,3.592,3.592,0,0,0,0,7.184,26.943,26.943,0,0,1,26.912,26.878L286.6,455.1a33.592,33.592,0,0,0,10.237,24.136A34.551,34.551,0,0,0,321.144,489.2Z"/><path class="cls-5" d="M514.67,554.965a34.136,34.136,0,0,0,34.1-34.1,3.592,3.592,0,1,0-7.184,0,26.913,26.913,0,0,1-53.825,0v-.078l-.1-4.637a34.135,34.135,0,0,0-34.1-34.058,3.593,3.593,0,1,0,0,7.185,26.942,26.942,0,0,1,26.912,26.912v.078l.1,4.638A34.137,34.137,0,0,0,514.67,554.965Z"/><path class="cls-6" d="M486.826,358.661H484.58a.449.449,0,0,1,0-.9h2.246a.449.449,0,0,1,0,.9Zm-9.879,0H474.7a.449.449,0,0,1,0-.9h2.245a.449.449,0,0,1,0,.9Zm-9.879,0h-2.245a.449.449,0,1,1,0-.9h2.245a.449.449,0,0,1,0,.9Z"/><path class="cls-6" d="M517.174,419.66h-2.246a.449.449,0,1,1,0-.9h2.246a.449.449,0,1,1,0,.9Zm-9.879,0H505.05a.449.449,0,0,1,0-.9H507.3a.449.449,0,0,1,0,.9Zm-9.879,0h-2.245a.449.449,0,0,1,0-.9h2.245a.449.449,0,0,1,0,.9Zm-9.879,0h-2.245a.449.449,0,1,1,0-.9h2.245a.449.449,0,0,1,0,.9Zm-9.879,0h-2.245a.449.449,0,0,1,0-.9h2.245a.449.449,0,1,1,0,.9Zm-9.878,0h-2.246a.449.449,0,0,1,0-.9h2.246a.449.449,0,0,1,0,.9Z"/><path class="cls-6" d="M545.175,521.317a.449.449,0,0,1-.449-.449v-1.829a.449.449,0,0,1,.9,0v1.829A.449.449,0,0,1,545.175,521.317Zm0-9.463a.449.449,0,0,1-.449-.449V509.16a.449.449,0,1,1,.9,0v2.245A.449.449,0,0,1,545.175,511.854Zm0-9.879a.448.448,0,0,1-.449-.449v-2.245a.449.449,0,1,1,.9,0v2.245A.448.448,0,0,1,545.175,501.975Zm0-9.878a.449.449,0,0,1-.449-.449V489.4a.449.449,0,1,1,.9,0v2.246A.449.449,0,0,1,545.175,492.1Zm0-9.879a.449.449,0,0,1-.449-.449v-2.245a.449.449,0,0,1,.9,0v2.245A.449.449,0,0,1,545.175,482.218Zm0-9.879a.449.449,0,0,1-.449-.449v-2.245a.449.449,0,0,1,.9,0v2.245A.449.449,0,0,1,545.175,472.339Zm0-9.879a.449.449,0,0,1-.449-.449v-2.245a.449.449,0,0,1,.9,0v2.245A.449.449,0,0,1,545.175,462.46Zm0-9.879a.448.448,0,0,1-.449-.449v-2.245a.449.449,0,0,1,.9,0v2.245A.448.448,0,0,1,545.175,452.581Z"/><path class="cls-6" d="M451.813,486.165h-2.245a.449.449,0,1,1,0-.9h2.245a.449.449,0,0,1,0,.9Zm-9.878,0h-2.246a.449.449,0,0,1,0-.9h2.246a.449.449,0,0,1,0,.9Zm-9.879,0h-2.245a.449.449,0,1,1,0-.9h2.245a.449.449,0,0,1,0,.9Zm-9.879,0h-2.245a.449.449,0,0,1,0-.9h2.245a.449.449,0,0,1,0,.9Zm-9.879,0h-2.245a.449.449,0,0,1,0-.9H412.3a.449.449,0,0,1,0,.9Zm-9.879,0h-2.245a.449.449,0,1,1,0-.9h2.245a.449.449,0,1,1,0,.9Zm-9.878,0H390.3a.449.449,0,0,1,0-.9h2.246a.449.449,0,0,1,0,.9Zm-9.879,0h-2.245a.449.449,0,1,1,0-.9h2.245a.449.449,0,0,1,0,.9Zm-9.879,0h-2.245a.449.449,0,0,1,0-.9h2.245a.449.449,0,0,1,0,.9Zm-9.879,0h-2.245a.449.449,0,0,1,0-.9H362.9a.449.449,0,0,1,0,.9Zm-9.879,0H350.78a.449.449,0,1,1,0-.9h2.245a.449.449,0,1,1,0,.9Zm-9.878,0H340.9a.449.449,0,1,1,0-.9h2.245a.449.449,0,0,1,0,.9Zm-9.879,0h-2.245a.449.449,0,0,1,0-.9h2.245a.449.449,0,0,1,0,.9Zm-9.879,0h-2.245a.449.449,0,0,1,0-.9h2.245a.449.449,0,0,1,0,.9Z"/><path class="cls-6" d="M252.729,420.715h-2.246a.449.449,0,0,1,0-.9h2.246a.449.449,0,1,1,0,.9Zm-9.879,0H240.6a.449.449,0,0,1,0-.9h2.246a.449.449,0,1,1,0,.9Zm-9.879,0h-2.245a.449.449,0,0,1,0-.9h2.245a.449.449,0,1,1,0,.9Zm-9.879,0h-2.245a.449.449,0,0,1,0-.9h2.245a.449.449,0,1,1,0,.9Zm-9.879,0h-2.245a.449.449,0,1,1,0-.9h2.245a.449.449,0,1,1,0,.9Zm-9.879,0h-2.245a.449.449,0,0,1,0-.9h2.245a.449.449,0,1,1,0,.9Zm-9.878,0H191.21a.449.449,0,0,1,0-.9h2.246a.449.449,0,1,1,0,.9Zm-9.879,0h-2.245a.449.449,0,1,1,0-.9h2.245a.449.449,0,1,1,0,.9Zm-9.879,0h-2.245a.449.449,0,0,1,0-.9H173.7a.449.449,0,1,1,0,.9Zm-9.879,0h-2.245a.449.449,0,0,1,0-.9h2.245a.449.449,0,1,1,0,.9Zm-9.879,0H151.7a.449.449,0,1,1,0-.9h2.245a.449.449,0,1,1,0,.9Zm-9.878,0h-2.246a.449.449,0,0,1,0-.9h2.246a.449.449,0,1,1,0,.9Zm-9.879,0h-2.245a.449.449,0,1,1,0-.9h2.245a.449.449,0,1,1,0,.9Zm-9.879,0h-2.245a.449.449,0,0,1,0-.9H124.3a.449.449,0,0,1,0,.9Z"/><path class="cls-6" d="M242.85,359.517h-2.245a.449.449,0,0,1,0-.9h2.245a.449.449,0,1,1,0,.9Zm-9.879,0h-2.245a.449.449,0,0,1,0-.9h2.245a.449.449,0,0,1,0,.9Zm-9.879,0h-2.245a.449.449,0,0,1,0-.9h2.245a.449.449,0,0,1,0,.9Zm-9.879,0h-2.245a.449.449,0,0,1,0-.9h2.245a.449.449,0,1,1,0,.9Zm-9.878,0h-2.246a.449.449,0,0,1,0-.9h2.246a.449.449,0,0,1,0,.9Zm-9.879,0h-2.245a.449.449,0,0,1,0-.9h2.245a.449.449,0,1,1,0,.9Zm-9.879,0h-2.245a.449.449,0,0,1,0-.9h2.245a.449.449,0,1,1,0,.9Zm-9.879,0h-2.245a.449.449,0,0,1,0-.9H173.7a.449.449,0,0,1,0,.9Zm-9.879,0h-2.245a.449.449,0,0,1,0-.9h2.245a.449.449,0,1,1,0,.9Zm-9.878,0H151.7a.449.449,0,0,1,0-.9h2.246a.449.449,0,0,1,0,.9Zm-9.879,0h-2.245a.449.449,0,0,1,0-.9h2.245a.449.449,0,0,1,0,.9Zm-9.879,0h-2.245a.449.449,0,0,1,0-.9h2.245a.449.449,0,1,1,0,.9Zm-9.879,0h-2.245a.449.449,0,0,1,0-.9H124.3a.449.449,0,0,1,0,.9Z"/><path class="cls-6" d="M378.43,769.026a.449.449,0,0,1-.449-.449v-2.245a.449.449,0,1,1,.9,0v2.245A.449.449,0,0,1,378.43,769.026Zm0-9.879a.449.449,0,0,1-.449-.449v-2.245a.449.449,0,1,1,.9,0V758.7A.449.449,0,0,1,378.43,759.147Zm0-9.878a.449.449,0,0,1-.449-.45v-2.245a.449.449,0,1,1,.9,0v2.245A.449.449,0,0,1,378.43,749.269Zm0-9.879a.449.449,0,0,1-.449-.449V736.7a.449.449,0,0,1,.9,0v2.246A.449.449,0,0,1,378.43,739.39Zm0-9.879a.449.449,0,0,1-.449-.449v-2.245a.449.449,0,1,1,.9,0v2.245A.449.449,0,0,1,378.43,729.511Zm0-9.879a.449.449,0,0,1-.449-.449v-2.245a.449.449,0,1,1,.9,0v2.245A.449.449,0,0,1,378.43,719.632Zm0-9.879a.449.449,0,0,1-.449-.449v-2.245a.449.449,0,1,1,.9,0V709.3A.449.449,0,0,1,378.43,709.753Zm0-9.878a.449.449,0,0,1-.449-.45V697.18a.449.449,0,1,1,.9,0v2.245A.449.449,0,0,1,378.43,699.875Zm0-9.879a.449.449,0,0,1-.449-.449V687.3a.449.449,0,1,1,.9,0v2.245A.449.449,0,0,1,378.43,690Zm0-9.879a.449.449,0,0,1-.449-.449v-2.245a.449.449,0,1,1,.9,0v2.245A.449.449,0,0,1,378.43,680.117Zm0-9.879a.449.449,0,0,1-.449-.449v-2.245a.449.449,0,1,1,.9,0v2.245A.449.449,0,0,1,378.43,670.238Zm0-9.879a.448.448,0,0,1-.449-.449v-2.245a.449.449,0,1,1,.9,0v2.245A.448.448,0,0,1,378.43,660.359Zm0-9.878a.449.449,0,0,1-.449-.449v-2.246a.449.449,0,1,1,.9,0v2.246A.449.449,0,0,1,378.43,650.481Zm0-9.879a.449.449,0,0,1-.449-.449v-2.245a.449.449,0,1,1,.9,0v2.245A.449.449,0,0,1,378.43,640.6Zm0-9.879a.449.449,0,0,1-.449-.449v-2.245a.449.449,0,1,1,.9,0v2.245A.449.449,0,0,1,378.43,630.723Zm0-9.879a.449.449,0,0,1-.449-.449V618.15a.449.449,0,0,1,.9,0V620.4A.449.449,0,0,1,378.43,620.844Zm0-9.879a.448.448,0,0,1-.449-.449v-2.245a.449.449,0,0,1,.9,0v2.245A.448.448,0,0,1,378.43,610.965Zm0-9.878a.449.449,0,0,1-.449-.449v-2.246a.449.449,0,1,1,.9,0v2.246A.449.449,0,0,1,378.43,601.087Zm0-9.879a.449.449,0,0,1-.449-.449v-2.245a.449.449,0,0,1,.9,0v2.245A.449.449,0,0,1,378.43,591.208Zm0-9.879a.449.449,0,0,1-.449-.449v-2.245a.449.449,0,1,1,.9,0v2.245A.449.449,0,0,1,378.43,581.329Zm0-9.879a.449.449,0,0,1-.449-.449v-2.245a.449.449,0,0,1,.9,0V571A.449.449,0,0,1,378.43,571.45Zm0-9.879a.448.448,0,0,1-.449-.449v-2.245a.449.449,0,1,1,.9,0v2.245A.448.448,0,0,1,378.43,561.571Zm0-9.878a.449.449,0,0,1-.449-.449V549a.449.449,0,0,1,.9,0v2.246A.449.449,0,0,1,378.43,551.693Zm0-9.879a.449.449,0,0,1-.449-.449V539.12a.449.449,0,0,1,.9,0v2.245A.449.449,0,0,1,378.43,541.814Zm0-9.879a.449.449,0,0,1-.449-.449v-2.245a.449.449,0,0,1,.9,0v2.245A.449.449,0,0,1,378.43,531.935Zm0-9.879a.449.449,0,0,1-.449-.449v-2.245a.449.449,0,0,1,.9,0v2.245A.449.449,0,0,1,378.43,522.056Zm0-9.879a.448.448,0,0,1-.449-.449v-2.245a.449.449,0,0,1,.9,0v2.245A.448.448,0,0,1,378.43,512.177Zm0-9.878a.449.449,0,0,1-.449-.449V499.6a.449.449,0,0,1,.9,0v2.246A.449.449,0,0,1,378.43,502.3Zm0-9.879a.449.449,0,0,1-.449-.449v-2.245a.449.449,0,1,1,.9,0v2.245A.449.449,0,0,1,378.43,492.42Z"/><path class="cls-6" d="M458.61,419.355a.4.4,0,0,1-.069-.006c-.749-.116-1.5-.26-2.236-.43a.449.449,0,1,1,.2-.875c.714.165,1.444.305,2.171.418a.449.449,0,0,1-.068.893Zm-9.346-3.057a.454.454,0,0,1-.207-.05c-.668-.347-1.334-.725-1.979-1.122a.449.449,0,0,1,.471-.765c.627.386,1.273.753,1.922,1.089a.449.449,0,0,1-.207.848Zm-7.882-5.876a.45.45,0,0,1-.323-.136c-.526-.545-1.038-1.114-1.523-1.693a.449.449,0,1,1,.69-.576c.469.562.967,1.115,1.479,1.644a.449.449,0,0,1-.323.761Zm-5.616-8.074a.449.449,0,0,1-.406-.255c-.327-.684-.631-1.387-.906-2.091a.449.449,0,0,1,.837-.327c.266.684.562,1.367.879,2.03a.449.449,0,0,1-.4.643Zm-2.747-9.445a.448.448,0,0,1-.445-.4c-.091-.749-.154-1.512-.19-2.269a.449.449,0,1,1,.9-.042c.035.734.1,1.476.185,2.2a.45.45,0,0,1-.392.5Zm.4-9.825a.476.476,0,0,1-.091-.009.449.449,0,0,1-.349-.53c.151-.743.332-1.488.537-2.213a.449.449,0,1,1,.864.245c-.2.7-.374,1.426-.522,2.148A.449.449,0,0,1,433.415,383.078Zm3.5-9.188a.449.449,0,0,1-.387-.675c.378-.651.787-1.3,1.215-1.924a.449.449,0,0,1,.741.508c-.416.607-.813,1.236-1.18,1.868A.45.45,0,0,1,436.917,373.89Zm6.246-7.593a.449.449,0,0,1-.3-.786c.569-.5,1.163-.985,1.765-1.441a.449.449,0,0,1,.542.716c-.585.442-1.161.913-1.714,1.4A.445.445,0,0,1,443.163,366.3Zm8.333-5.224a.449.449,0,0,1-.174-.863c.7-.293,1.414-.563,2.134-.805a.449.449,0,0,1,.286.852c-.7.234-1.4.5-2.072.781A.462.462,0,0,1,451.5,361.073Zm9.565-2.288a.449.449,0,0,1-.032-.9c.749-.055,1.514-.082,2.274-.082a.449.449,0,0,1,0,.9c-.738,0-1.481.027-2.209.08Z"/><path class="cls-6" d="M117.367,420.168a.42.42,0,0,1-.07,0c-.748-.116-1.5-.26-2.235-.43a.449.449,0,1,1,.2-.875c.714.165,1.444.305,2.171.418a.449.449,0,0,1-.068.892Zm-9.347-3.056a.45.45,0,0,1-.206-.05c-.668-.347-1.335-.725-1.98-1.123a.449.449,0,0,1,.472-.764c.626.386,1.273.753,1.922,1.089a.449.449,0,0,1-.208.848Zm-7.881-5.876a.446.446,0,0,1-.323-.136c-.526-.544-1.039-1.114-1.523-1.693a.449.449,0,1,1,.689-.576c.47.563.968,1.116,1.479,1.644a.448.448,0,0,1-.322.761Zm-5.617-8.073a.448.448,0,0,1-.405-.255c-.326-.68-.631-1.384-.907-2.092a.449.449,0,0,1,.837-.326c.268.687.564,1.37.88,2.03a.449.449,0,0,1-.212.6A.442.442,0,0,1,94.522,403.163Zm-2.747-9.447a.448.448,0,0,1-.445-.395c-.09-.749-.154-1.512-.19-2.268a.449.449,0,1,1,.9-.043c.035.735.1,1.476.184,2.2a.447.447,0,0,1-.392.5A.326.326,0,0,1,91.775,393.716Zm.4-9.824a.394.394,0,0,1-.09-.01.449.449,0,0,1-.351-.529c.151-.74.332-1.484.538-2.213a.449.449,0,0,1,.864.244c-.2.708-.375,1.43-.521,2.148A.45.45,0,0,1,92.171,383.892Zm3.5-9.188a.449.449,0,0,1-.388-.675c.38-.653.789-1.3,1.216-1.924a.449.449,0,0,1,.741.508c-.414.605-.812,1.234-1.181,1.868A.45.45,0,0,1,95.673,374.7Zm6.246-7.593a.45.45,0,0,1-.3-.787c.567-.5,1.161-.983,1.765-1.44a.449.449,0,0,1,.542.716c-.586.444-1.163.914-1.713,1.4A.449.449,0,0,1,101.919,367.111Zm8.333-5.224a.449.449,0,0,1-.174-.863c.7-.293,1.413-.564,2.133-.805a.449.449,0,1,1,.286.852c-.7.234-1.4.5-2.071.781A.466.466,0,0,1,110.252,361.887Zm9.564-2.288a.449.449,0,0,1-.032-.9c.75-.055,1.515-.082,2.275-.082a.449.449,0,1,1,0,.9c-.738,0-1.481.027-2.21.08Z"/><path class="cls-6" d="M247.975,359.459a.449.449,0,0,1,0-.9c.738,0,1.481-.026,2.21-.079a.449.449,0,1,1,.065.895C249.5,359.432,248.734,359.459,247.975,359.459Zm9.705-1.576a.449.449,0,0,1-.143-.874c.7-.235,1.4-.5,2.071-.781a.449.449,0,0,1,.348.828c-.695.292-1.413.563-2.133.8A.45.45,0,0,1,257.68,357.883Zm8.7-4.6a.449.449,0,0,1-.272-.807c.585-.443,1.161-.914,1.714-1.4a.449.449,0,0,1,.593.675c-.569.5-1.163.985-1.765,1.44A.443.443,0,0,1,266.377,353.287Zm6.785-7.118a.449.449,0,0,1-.37-.7c.416-.607.813-1.236,1.18-1.868a.449.449,0,1,1,.776.452c-.378.65-.787,1.3-1.215,1.923A.45.45,0,0,1,273.162,346.169Zm4.172-8.9a.435.435,0,0,1-.123-.017.448.448,0,0,1-.309-.554c.2-.7.374-1.426.521-2.148a.449.449,0,1,1,.88.18c-.152.743-.332,1.487-.538,2.212A.447.447,0,0,1,277.334,337.266Zm1.111-9.769a.449.449,0,0,1-.448-.428c-.035-.735-.1-1.476-.185-2.2a.449.449,0,1,1,.892-.108c.091.749.154,1.512.19,2.269a.448.448,0,0,1-.427.469Zm-2.04-9.622a.448.448,0,0,1-.418-.286c-.267-.683-.562-1.366-.88-2.029a.45.45,0,0,1,.811-.388c.326.684.631,1.387.906,2.091a.451.451,0,0,1-.256.582A.44.44,0,0,1,276.4,317.875Zm-5.008-8.466a.448.448,0,0,1-.345-.16c-.47-.563-.968-1.116-1.479-1.645a.449.449,0,1,1,.645-.624c.527.544,1.039,1.114,1.523,1.692a.448.448,0,0,1-.344.737Zm-7.433-6.438a.445.445,0,0,1-.235-.066c-.627-.387-1.274-.753-1.923-1.09a.449.449,0,0,1,.414-.8c.668.347,1.334.724,1.98,1.122a.449.449,0,0,1-.236.831Zm-9.092-3.738a.521.521,0,0,1-.1-.011c-.713-.165-1.444-.306-2.17-.418a.449.449,0,1,1,.137-.888c.748.116,1.5.261,2.236.43a.449.449,0,0,1-.1.887Z"/><path class="cls-6" d="M545.175,450.233a.449.449,0,0,1-.449-.449c0-.738-.027-1.482-.08-2.209a.449.449,0,0,1,.415-.481.455.455,0,0,1,.48.416c.055.749.083,1.514.083,2.274A.449.449,0,0,1,545.175,450.233Zm-1.576-9.7a.45.45,0,0,1-.426-.307c-.235-.7-.5-1.4-.781-2.071a.449.449,0,1,1,.828-.348c.292.7.563,1.413.8,2.134a.451.451,0,0,1-.426.592Zm-4.6-8.7a.446.446,0,0,1-.358-.178c-.442-.584-.913-1.16-1.4-1.713a.449.449,0,0,1,.674-.593c.5.569.985,1.162,1.441,1.764a.448.448,0,0,1-.087.629A.443.443,0,0,1,539,431.831Zm-7.118-6.785a.447.447,0,0,1-.253-.079c-.607-.416-1.236-.813-1.868-1.18a.449.449,0,0,1,.452-.777c.65.379,1.3.788,1.923,1.216a.449.449,0,0,1-.254.82Zm-8.9-4.172a.435.435,0,0,1-.123-.017c-.7-.2-1.426-.375-2.148-.522a.449.449,0,1,1,.18-.88c.743.152,1.487.333,2.213.538a.449.449,0,0,1-.122.881Z"/><path class="cls-6" d="M321.144,486.055c-.759,0-1.524-.028-2.275-.083a.449.449,0,1,1,.065-.895c.729.053,1.473.08,2.21.08a.449.449,0,0,1,0,.9Zm-9.712-1.563a.467.467,0,0,1-.141-.023c-.72-.238-1.438-.5-2.136-.794a.449.449,0,1,1,.343-.829c.678.28,1.376.539,2.075.77a.45.45,0,0,1-.141.876Zm-8.738-4.524a.445.445,0,0,1-.266-.087c-.607-.448-1.207-.924-1.783-1.416a.449.449,0,0,1,.583-.683c.56.478,1.143.941,1.733,1.376a.449.449,0,0,1-.267.81Zm-6.9-7.008a.449.449,0,0,1-.366-.188c-.437-.614-.858-1.253-1.253-1.9a.449.449,0,0,1,.768-.466c.383.629.792,1.25,1.217,1.846a.449.449,0,0,1-.366.709Zm-4.339-8.822a.448.448,0,0,1-.429-.32c-.22-.728-.413-1.47-.574-2.2a.449.449,0,1,1,.877-.192c.157.713.344,1.432.556,2.138a.45.45,0,0,1-.3.56A.487.487,0,0,1,291.452,464.138Zm-1.239-9.752H290.2a.449.449,0,0,1-.44-.458l.043-2.245a.45.45,0,0,1,.449-.44h.009a.449.449,0,0,1,.44.458l-.043,2.245A.45.45,0,0,1,290.213,454.386Zm-.682-9.821a.448.448,0,0,1-.437-.351c-.161-.716-.351-1.436-.565-2.138a.449.449,0,0,1,.86-.261c.219.723.415,1.464.581,2.2a.45.45,0,0,1-.34.537A.477.477,0,0,1,289.531,444.565Zm-3.682-9.119a.451.451,0,0,1-.385-.216c-.381-.626-.791-1.247-1.218-1.846a.449.449,0,0,1,.731-.522c.44.617.862,1.257,1.255,1.9a.449.449,0,0,1-.383.682Zm-6.4-7.472a.442.442,0,0,1-.289-.106c-.561-.474-1.146-.933-1.739-1.364a.449.449,0,0,1,.528-.727c.61.444,1.213.917,1.791,1.405a.449.449,0,0,1-.291.792Zm-8.429-5.057a.466.466,0,0,1-.166-.032c-.68-.271-1.381-.52-2.083-.74a.449.449,0,0,1,.269-.857c.723.227,1.445.484,2.146.762a.449.449,0,0,1-.166.867Zm-9.605-2.1H261.4c-.539-.029-1.087-.044-1.627-.044a.449.449,0,1,1,0-.9h0c.557,0,1.12.015,1.675.044a.449.449,0,0,1-.024.9Z"/><path class="cls-6" d="M514.67,551.822c-.6,0-1.2-.017-1.785-.051a.449.449,0,1,1,.051-.9c.728.041,1.475.057,2.211.045h.007a.449.449,0,0,1,.008.9C515,551.821,514.835,551.822,514.67,551.822Zm8.021-1.065a.449.449,0,0,1-.118-.882c.707-.193,1.417-.414,2.111-.659a.449.449,0,1,1,.3.847c-.715.252-1.447.481-2.174.678A.441.441,0,0,1,522.691,550.757Zm-17.266-.361a.433.433,0,0,1-.136-.021c-.722-.23-1.443-.489-2.143-.77a.449.449,0,0,1,.334-.833c.68.272,1.38.524,2.082.747a.449.449,0,0,1-.137.877Zm26.212-3.724a.449.449,0,0,1-.25-.822c.607-.407,1.209-.844,1.79-1.3a.449.449,0,0,1,.554.708c-.6.468-1.219.918-1.844,1.337A.444.444,0,0,1,531.637,546.672Zm-34.976-.731a.445.445,0,0,1-.265-.087c-.611-.448-1.212-.923-1.786-1.411a.449.449,0,0,1,.583-.684c.557.474,1.14.936,1.734,1.371a.449.449,0,0,1-.266.811Zm42.159-5.986a.448.448,0,0,1-.354-.723c.45-.583.883-1.188,1.286-1.8a.449.449,0,0,1,.749.5c-.415.628-.861,1.251-1.325,1.851A.45.45,0,0,1,538.82,539.955Zm-49.056-1.022a.449.449,0,0,1-.367-.189c-.438-.618-.858-1.259-1.248-1.906a.449.449,0,1,1,.769-.464c.379.628.786,1.251,1.211,1.851a.449.449,0,0,1-.365.708Zm53.737-7.625a.44.44,0,0,1-.146-.025.449.449,0,0,1-.278-.571c.239-.691.457-1.4.646-2.115a.45.45,0,0,1,.869.231c-.2.733-.42,1.466-.666,2.178A.45.45,0,0,1,543.5,531.308ZM485.448,530.1a.448.448,0,0,1-.43-.32c-.217-.723-.41-1.464-.574-2.2a.449.449,0,0,1,.877-.193c.159.717.346,1.437.557,2.139a.451.451,0,0,1-.3.56A.484.484,0,0,1,485.448,530.1Zm59.726-8.476h0a.45.45,0,0,1-.446-.453l0-.3a.449.449,0,0,1,.9,0v.306A.45.45,0,0,1,545.174,521.619Zm-61.03-1.274a.45.45,0,0,1-.449-.44l-.048-2.244a.449.449,0,0,1,.439-.459.457.457,0,0,1,.459.439l.049,2.245a.451.451,0,0,1-.44.459Zm-.7-9.835a.45.45,0,0,1-.44-.359c-.147-.722-.323-1.444-.522-2.148a.449.449,0,1,1,.864-.244c.206.725.386,1.469.538,2.212a.449.449,0,0,1-.35.53A.458.458,0,0,1,483.448,510.51Zm-3.5-9.187a.45.45,0,0,1-.389-.223c-.367-.633-.764-1.261-1.18-1.868a.449.449,0,0,1,.741-.508c.428.626.837,1.273,1.216,1.924a.45.45,0,0,1-.388.675ZM473.7,493.73a.447.447,0,0,1-.3-.112c-.552-.486-1.129-.957-1.713-1.4a.449.449,0,1,1,.542-.716c.6.455,1.195.94,1.764,1.44a.449.449,0,0,1-.3.787Zm-8.333-5.225a.448.448,0,0,1-.175-.035c-.674-.284-1.371-.546-2.071-.781a.449.449,0,0,1,.286-.851c.72.241,1.438.512,2.134.8a.449.449,0,0,1-.174.863Zm-9.565-2.288h-.033c-.728-.053-1.471-.08-2.209-.08a.449.449,0,0,1,0-.9c.76,0,1.525.028,2.274.083a.449.449,0,0,1-.032.9Z"/><rect class="cls-23" x="228.387" y="358.993" width="1.588" height="21.658"/><path class="cls-19" d="M229.341,356.645l-5.3,17.19a.916.916,0,0,0,.875,1.185h8.309a.915.915,0,0,0,.882-1.159Z"/><path class="cls-13" d="M228.477,352.407l-4.463,14.466a.857.857,0,0,0,.819,1.11H233.3a.858.858,0,0,0,.826-1.086l-4-14.466A.857.857,0,0,0,228.477,352.407Z"/><rect class="cls-23" x="150.613" y="420.742" width="1.588" height="21.658"/><path class="cls-19" d="M151.566,418.394l-5.3,17.191a.914.914,0,0,0,.874,1.184h8.309a.915.915,0,0,0,.882-1.159Z"/><path class="cls-13" d="M150.7,414.156l-4.463,14.466a.857.857,0,0,0,.819,1.11h8.464a.858.858,0,0,0,.826-1.086l-4-14.465A.857.857,0,0,0,150.7,414.156Z"/><rect class="cls-23" x="226.056" y="421.577" width="1.588" height="21.658"/><path class="cls-19" d="M227.009,419.229l-5.3,17.191a.914.914,0,0,0,.874,1.184h8.309a.915.915,0,0,0,.882-1.159Z"/><path class="cls-13" d="M226.145,414.992l-4.462,14.465a.857.857,0,0,0,.818,1.11h8.464a.857.857,0,0,0,.826-1.085l-4-14.466A.857.857,0,0,0,226.145,414.992Z"/><rect class="cls-23" x="194.202" y="359.184" width="1.588" height="21.658"/><path class="cls-19" d="M195.155,356.835l-5.3,17.191a.916.916,0,0,0,.874,1.185h8.31a.915.915,0,0,0,.881-1.159Z"/><path class="cls-13" d="M194.292,352.6l-4.463,14.466a.857.857,0,0,0,.819,1.109h8.464a.857.857,0,0,0,.826-1.085l-4-14.466A.856.856,0,0,0,194.292,352.6Z"/></g><rect class="cls-17" x="217.693" y="344.391" width="13.353" height="27.95"/><rect class="cls-18" x="216.402" y="355.476" width="25.07" height="7.185"/><rect class="cls-18" x="216.402" y="416.658" width="339.508" height="7.185"/><path class="cls-6" d="M242.556,359.517h-2.245a.449.449,0,1,1,0-.9h2.245a.449.449,0,0,1,0,.9Zm-9.878,0h-2.246a.449.449,0,0,1,0-.9h2.246a.449.449,0,1,1,0,.9Zm-9.879,0h-2.245a.449.449,0,0,1,0-.9H222.8a.449.449,0,0,1,0,.9Z"/><path class="cls-6" d="M241.545,420.7H239.3a.449.449,0,0,1,0-.9h2.245a.449.449,0,0,1,0,.9Zm-9.879,0h-2.245a.449.449,0,0,1,0-.9h2.245a.449.449,0,0,1,0,.9Zm-9.879,0h-2.245a.449.449,0,0,1,0-.9h2.245a.449.449,0,1,1,0,.9Zm-9.879,0h-2.245a.449.449,0,0,1,0-.9h2.245a.449.449,0,0,1,0,.9Z"/><path class="cls-17" d="M145.181,106.025H29.445a13.92,13.92,0,1,1,0-27.84H145.181a13.92,13.92,0,0,1,0,27.84Z"/><circle class="cls-24" cx="193.698" cy="44.178" r="2.014"/><circle class="cls-10" cx="193.698" cy="44.178" r="1.007"/><circle class="cls-18" cx="158.268" cy="91.768" r="3.648"/><path class="cls-6" d="M164.884,152.967a.449.449,0,0,1-.068-.893c.727-.112,1.457-.253,2.171-.418a.449.449,0,1,1,.2.875c-.735.17-1.487.315-2.235.431A.562.562,0,0,1,164.884,152.967Zm9.346-3.057a.449.449,0,0,1-.207-.848c.649-.336,1.3-.7,1.922-1.089a.449.449,0,0,1,.472.764c-.646.4-1.312.776-1.98,1.123A.451.451,0,0,1,174.23,149.91Zm7.882-5.876a.449.449,0,0,1-.323-.761c.512-.529,1.01-1.082,1.48-1.644a.449.449,0,1,1,.689.576c-.484.579-1,1.148-1.523,1.693A.448.448,0,0,1,182.112,144.034Zm5.617-8.073a.449.449,0,0,1-.405-.643c.316-.66.612-1.343.88-2.03a.449.449,0,0,1,.836.326c-.276.708-.581,1.412-.906,2.092A.449.449,0,0,1,187.729,135.961Zm2.746-9.446a.335.335,0,0,1-.054,0,.448.448,0,0,1-.392-.5c.088-.728.15-1.469.184-2.2a.45.45,0,0,1,.9.043c-.036.756-.1,1.519-.19,2.268A.451.451,0,0,1,190.475,126.515Zm-.395-9.825a.451.451,0,0,1-.44-.359c-.147-.72-.322-1.442-.522-2.149a.449.449,0,0,1,.865-.244c.2.728.386,1.473.537,2.213a.448.448,0,0,1-.35.529A.394.394,0,0,1,190.08,116.69Zm-3.5-9.188a.448.448,0,0,1-.389-.223c-.369-.634-.766-1.262-1.181-1.867a.449.449,0,1,1,.741-.508c.427.623.836,1.271,1.216,1.924a.447.447,0,0,1-.162.613A.438.438,0,0,1,186.578,107.5Zm-6.247-7.593a.447.447,0,0,1-.3-.112c-.55-.484-1.127-.955-1.713-1.4a.449.449,0,1,1,.542-.716c.6.457,1.2.942,1.764,1.441a.449.449,0,0,1-.3.786ZM172,94.685a.466.466,0,0,1-.174-.035c-.675-.285-1.372-.547-2.07-.781a.449.449,0,0,1,.285-.852c.72.241,1.438.512,2.133.805a.449.449,0,0,1-.174.863ZM162.434,92.4H162.4c-.728-.053-1.472-.08-2.209-.08a.449.449,0,0,1,0-.9c.759,0,1.525.027,2.275.082a.449.449,0,0,1-.033.9Z"/><path class="cls-25" d="M350.53,373.911h.883a2.129,2.129,0,0,0,1.874-1.176,4.589,4.589,0,0,1,7.5-.923,6.685,6.685,0,0,1,12.23.756,2.09,2.09,0,0,0,1.974,1.343h0a.659.659,0,0,1,.641.437.64.64,0,0,1-.607.838H350.5a.638.638,0,0,1-.629-.744A.661.661,0,0,1,350.53,373.911Z"/><path class="cls-25" d="M-.678,331.685H.366a2.52,2.52,0,0,0,2.217-1.391,5.426,5.426,0,0,1,8.864-1.091,7.906,7.906,0,0,1,14.464.893,2.472,2.472,0,0,0,2.334,1.589h0A.779.779,0,0,1,29,332.2a.756.756,0,0,1-.717.992h-29a.754.754,0,0,1-.744-.88A.782.782,0,0,1-.678,331.685Z"/><path class="cls-25" d="M169.416,314.643h1.044a2.516,2.516,0,0,0,2.216-1.392,5.427,5.427,0,0,1,8.865-1.091,7.906,7.906,0,0,1,14.464.893,2.473,2.473,0,0,0,2.334,1.59h0a.779.779,0,0,1,.758.516.756.756,0,0,1-.717.992h-29a.755.755,0,0,1-.744-.881A.781.781,0,0,1,169.416,314.643Z"/><path class="cls-25" d="M469.229,358.58h1.62a3.9,3.9,0,0,0,3.437-2.467,8.363,8.363,0,0,1,7.464-5.164,7.988,7.988,0,0,1,6.283,3.229c2.037-4.527,6.155-7.629,10.914-7.629,5.3,0,9.8,3.838,11.518,9.213a3.879,3.879,0,0,0,3.619,2.818h0a1.225,1.225,0,0,1,1.176.915,1.32,1.32,0,0,1-1.113,1.758H469.166a1.293,1.293,0,0,1-1.153-1.561A1.263,1.263,0,0,1,469.229,358.58Z"/><path class="cls-25" d="M301.411,361.231h1.369a3.293,3.293,0,0,0,2.906-2.086A7.073,7.073,0,0,1,312,354.78a6.751,6.751,0,0,1,5.312,2.73,10.317,10.317,0,0,1,9.229-6.451c4.478,0,8.285,3.245,9.738,7.79a3.281,3.281,0,0,0,3.061,2.382h0a1.037,1.037,0,0,1,.994.774,1.117,1.117,0,0,1-.941,1.487H301.358a1.093,1.093,0,0,1-.975-1.32A1.067,1.067,0,0,1,301.411,361.231Z"/><rect class="cls-23" x="200.878" y="399.785" width="2.103" height="41.282" transform="translate(403.858 840.852) rotate(-180)"/><polygon class="cls-14" points="201.929 414.898 219.267 414.898 223.329 409.078 219.267 403.698 201.929 403.698 201.929 414.898"/><polygon class="cls-26" points="213.3 405.894 216.704 409.298 213.3 412.701 213.3 410.594 208.555 410.594 208.555 408.002 213.3 408.002 213.3 405.894"/><path class="cls-14" d="M307.886,167.9l1.106-3.579.944-14.031-2.566-.062a11.818,11.818,0,0,0-1.18,2.743c.084.435-.422,9.73-.338,9.929S307.886,167.9,307.886,167.9Z"/><path class="cls-25" d="M232.574,43.557h-1.6a3.855,3.855,0,0,1-3.393-2.13,8.306,8.306,0,0,0-13.568-1.67,12.1,12.1,0,0,0-22.141,1.367,3.783,3.783,0,0,1-3.572,2.433h0a1.193,1.193,0,0,0-1.16.79,1.157,1.157,0,0,0,1.1,1.518h44.4a1.154,1.154,0,0,0,1.138-1.347A1.2,1.2,0,0,0,232.574,43.557Z"/><rect class="cls-18" x="76.773" y="253.582" width="3.173" height="3.173"/><path class="cls-6" d="M78.32,251.753a.449.449,0,0,1-.449-.449v-2.245a.449.449,0,0,1,.9,0V251.3A.449.449,0,0,1,78.32,251.753Zm0-9.879a.449.449,0,0,1-.449-.449V239.18a.449.449,0,0,1,.9,0v2.245A.449.449,0,0,1,78.32,241.874Zm0-9.879a.448.448,0,0,1-.449-.449V229.3a.449.449,0,0,1,.9,0v2.245A.448.448,0,0,1,78.32,232Zm0-9.878a.449.449,0,0,1-.449-.449v-2.246a.449.449,0,0,1,.9,0v2.246A.449.449,0,0,1,78.32,222.117Zm0-9.879a.449.449,0,0,1-.449-.449v-2.245a.449.449,0,0,1,.9,0v2.245A.449.449,0,0,1,78.32,212.238Zm0-9.879a.449.449,0,0,1-.449-.449v-2.245a.449.449,0,0,1,.9,0v2.245A.449.449,0,0,1,78.32,202.359Zm0-9.879a.449.449,0,0,1-.449-.449v-2.245a.449.449,0,0,1,.9,0v2.245A.449.449,0,0,1,78.32,192.48Z"/><rect class="cls-27" x="64.99" y="102.059" width="35.776" height="1.915"/><rect class="cls-28" x="101.666" y="101.824" width="35.776" height="1.915"/><rect class="cls-29" x="84.021" y="235.724" width="16.786" height="1.809"/><rect class="cls-30" x="97.479" y="304.469" width="16.786" height="1.809"/><rect class="cls-31" x="179.012" y="379.061" width="15.19" height="1.781"/><rect class="cls-32" x="184.916" y="241.521" width="16.786" height="1.809"/><rect class="cls-33" x="267.112" y="239.564" width="16.786" height="1.809"/><rect class="cls-34" x="204.767" y="197.095" width="16.786" height="1.809"/><rect class="cls-35" x="224.097" y="196.888" width="16.786" height="1.809"/><rect class="cls-36" x="371.803" y="171.854" width="16.786" height="1.809"/><rect class="cls-37" x="280.304" y="172.759" width="25.598" height="18.789" transform="translate(586.205 364.307) rotate(180)"/><rect class="cls-10" x="109.471" y="87.62" width="4.824" height="1.447" rx="0.637" transform="translate(-0.571 0.728) rotate(-0.372)"/><path class="cls-38" d="M116.414,93.321a.5.5,0,0,1-.354-.146L111.529,88.7a.5.5,0,1,1,.708-.716l4.531,4.472a.5.5,0,0,1-.354.863Z"/><path class="cls-24" d="M100.467,103.974a12.069,12.069,0,1,1,11.99-12.147A12.084,12.084,0,0,1,100.467,103.974Zm-.144-22.222a10.154,10.154,0,1,0,10.22,10.087A10.165,10.165,0,0,0,100.323,81.752Z"/><path class="cls-24" d="M136.669,103.739a12.069,12.069,0,1,1,11.99-12.147A12.083,12.083,0,0,1,136.669,103.739Zm-.144-22.222a10.154,10.154,0,1,0,10.219,10.088A10.164,10.164,0,0,0,136.525,81.517Z"/><circle class="cls-39" cx="100.479" cy="91.905" r="2.342"/><path class="cls-40" d="M116.381,93.71a.894.894,0,0,1-.67-1.484L129.49,76.577a.894.894,0,0,1,1.341,1.182L117.052,93.407A.894.894,0,0,1,116.381,93.71Z"/><path class="cls-40" d="M111.883,78.143a.894.894,0,0,1-.006-1.787l18.151-.118h0a.894.894,0,0,1,.006,1.787l-18.151.118Z"/><path class="cls-40" d="M136.591,92.564a.9.9,0,0,1-.818-.531L126.26,70.577a.894.894,0,0,1,1.634-.725l9.513,21.456a.894.894,0,0,1-.816,1.256Z"/><path class="cls-40" d="M127.077,71.108a.894.894,0,0,1,0-1.787l4.735-.031h.005a.894.894,0,0,1,.006,1.787l-4.735.031Z"/><path class="cls-40" d="M103.862,88.451a.894.894,0,0,1-.7-1.442l7.794-10.018a.893.893,0,1,1,1.409,1.1l-7.794,10.018A.892.892,0,0,1,103.862,88.451Z"/><path class="cls-40" d="M116.381,93.71a.892.892,0,0,1-.854-.634l-6.108-20.164a.893.893,0,1,1,1.709-.518l6.108,20.163a.893.893,0,0,1-.595,1.114A.906.906,0,0,1,116.381,93.71Z"/><path class="cls-41" d="M116.4,96.406l-.037,0-16.177-1.713a2.687,2.687,0,0,1,.245-5.358l15.921-.225h0a.352.352,0,0,1,.005.7l-15.921.226a1.982,1.982,0,0,0-.18,3.953L116.44,95.7a.352.352,0,0,1-.037.7Z"/><path class="cls-40" d="M116.382,93.71a.461.461,0,0,1-.052,0l-15.9-.911a.894.894,0,0,1-.654-1.441l3.384-4.347a.893.893,0,1,1,1.409,1.1l-2.338,3,14.2.815a.893.893,0,0,1-.05,1.785Z"/><path class="cls-10" d="M106.048,70.5l8.868-.057a1.32,1.32,0,0,1,1.329,1.312h0a.738.738,0,0,1-.607.73L107.776,73.9a2.375,2.375,0,0,1-2.8-2.321h0A1.075,1.075,0,0,1,106.048,70.5Z"/><circle class="cls-10" cx="116.381" cy="92.757" r="3.297"/><circle class="cls-42" cx="116.381" cy="92.757" r="1.615"/><path class="cls-41" d="M116.405,96.406l-10.056-1.063a.353.353,0,0,1-.313-.387.349.349,0,0,1,.387-.313L116.44,95.7a2.946,2.946,0,0,0-.058-5.892h-.021l-11.376.162h0a.352.352,0,0,1-.005-.7l11.38-.162a3.745,3.745,0,0,1,2.589,1.051,3.65,3.65,0,0,1-2.539,6.247Z"/><path class="cls-43" d="M120.912,97.734a.5.5,0,0,1-.354-.146l-4.531-4.473a.5.5,0,0,1,.708-.717l4.531,4.474a.5.5,0,0,1-.354.862Z"/><rect class="cls-10" x="118.5" y="96.506" width="4.824" height="1.447" rx="0.637" transform="translate(-0.628 0.787) rotate(-0.372)"/><rect class="cls-23" x="99.111" y="196.251" width="2.103" height="41.282"/><polygon class="cls-14" points="100.163 211.364 82.825 211.364 78.763 205.544 82.825 200.164 100.163 200.164 100.163 211.364"/><polygon class="cls-26" points="88.792 202.361 85.388 205.764 88.792 209.168 88.792 207.06 93.537 207.06 93.537 204.468 88.792 204.468 88.792 202.361"/><rect class="cls-23" x="112.836" y="284.192" width="1.617" height="22.054"/><path class="cls-19" d="M113.807,281.8l-5.4,17.506a.931.931,0,0,0,.89,1.206h8.461a.932.932,0,0,0,.9-1.18Z"/><path class="cls-13" d="M112.928,277.485l-4.545,14.731a.873.873,0,0,0,.834,1.13h8.619a.873.873,0,0,0,.841-1.106L114.6,277.51A.872.872,0,0,0,112.928,277.485Z"/><rect class="cls-23" x="200.164" y="222.369" width="1.537" height="20.961"/><path class="cls-19" d="M201.087,220.1l-5.133,16.638a.885.885,0,0,0,.846,1.146h8.042a.885.885,0,0,0,.854-1.121Z"/><path class="cls-13" d="M200.251,216l-4.319,14a.829.829,0,0,0,.792,1.074h8.192a.829.829,0,0,0,.8-1.05l-3.872-14A.829.829,0,0,0,200.251,216Z"/><rect class="cls-23" x="219.961" y="176.849" width="1.617" height="22.054"/><path class="cls-19" d="M220.931,174.458l-5.4,17.5a.932.932,0,0,0,.89,1.207h8.461a.932.932,0,0,0,.9-1.18Z"/><path class="cls-13" d="M220.052,170.143l-4.545,14.731a.873.873,0,0,0,.834,1.13h8.619a.872.872,0,0,0,.841-1.1l-4.075-14.73A.872.872,0,0,0,220.052,170.143Z"/><rect class="cls-23" x="239.265" y="176.642" width="1.617" height="22.054"/><path class="cls-19" d="M240.236,174.251l-5.4,17.5a.932.932,0,0,0,.891,1.207h8.461a.932.932,0,0,0,.9-1.18Z"/><path class="cls-13" d="M239.356,169.936l-4.544,14.731a.873.873,0,0,0,.834,1.13h8.618a.873.873,0,0,0,.841-1.106l-4.074-14.73A.873.873,0,0,0,239.356,169.936Z"/><rect class="cls-23" x="387.249" y="152.067" width="1.588" height="21.658"/><path class="cls-19" d="M388.2,149.719l-5.3,17.19a.915.915,0,0,0,.874,1.185h8.309a.915.915,0,0,0,.882-1.159Z"/><path class="cls-13" d="M387.338,145.481l-4.463,14.466a.857.857,0,0,0,.819,1.11h8.464a.857.857,0,0,0,.826-1.085l-4-14.466A.857.857,0,0,0,387.338,145.481Z"/><rect class="cls-44" x="394.704" y="172.259" width="16.786" height="1.809"/><rect class="cls-45" x="381.815" y="110.796" width="16.786" height="1.809"/><rect class="cls-46" x="463.856" y="131.437" width="16.786" height="1.809"/><rect class="cls-23" x="409.96" y="152.41" width="1.588" height="21.658"/><path class="cls-19" d="M410.913,150.061l-5.3,17.191a.915.915,0,0,0,.874,1.185h8.309a.915.915,0,0,0,.882-1.159Z"/><path class="cls-13" d="M410.049,145.824l-4.462,14.466a.857.857,0,0,0,.819,1.109h8.463a.856.856,0,0,0,.826-1.085l-4-14.466A.857.857,0,0,0,410.049,145.824Z"/><rect class="cls-47" x="293.695" y="440.358" width="16.786" height="1.809"/><rect class="cls-23" x="309.14" y="420.571" width="1.588" height="21.658"/><path class="cls-19" d="M310.093,418.223l-5.3,17.19a.916.916,0,0,0,.874,1.185h8.31a.914.914,0,0,0,.881-1.159Z"/><rect class="cls-48" x="316.596" y="440.763" width="16.786" height="1.809"/><rect class="cls-23" x="331.851" y="420.914" width="1.588" height="21.658"/><path class="cls-19" d="M332.805,418.565l-5.3,17.191a.916.916,0,0,0,.875,1.185h8.309a.915.915,0,0,0,.882-1.159Z"/><rect class="cls-23" x="397.576" y="107.028" width="1.617" height="5.734"/><path class="cls-13" d="M397.667,84l-4.544,14.731a.873.873,0,0,0,.834,1.13h8.619a.873.873,0,0,0,.841-1.106l-4.075-14.73A.873.873,0,0,0,397.667,84Z"/><rect class="cls-23" x="478.64" y="91.964" width="2.103" height="41.282"/><polygon class="cls-14" points="479.692 107.078 462.354 107.078 458.292 101.258 462.354 95.877 479.692 95.877 479.692 107.078"/><polygon class="cls-26" points="468.321 98.074 464.917 101.477 468.321 104.881 468.321 102.773 473.066 102.773 473.066 100.182 468.321 100.182 468.321 98.074"/><rect class="cls-23" x="282.281" y="219.319" width="1.617" height="22.054"/><path class="cls-19" d="M283.251,216.927l-5.4,17.506a.931.931,0,0,0,.89,1.206H287.2a.931.931,0,0,0,.9-1.18Z"/><path class="cls-13" d="M282.372,212.612l-4.545,14.731a.873.873,0,0,0,.834,1.13h8.619a.872.872,0,0,0,.841-1.105l-4.074-14.731A.873.873,0,0,0,282.372,212.612Z"/><rect class="cls-49" x="38.673" y="100.142" width="19.342" height="1.693"/><path class="cls-40" d="M68.262,75.433A10.585,10.585,0,0,0,55.8,67.982a10.288,10.288,0,0,0-7.213,14.757c.634,1.218,1.335,2.4,2.055,3.574.9,1.457,1.863,2.872,2.768,4.324a33.279,33.279,0,0,1,4.319,10.01c.092.394.187.786.283,1.189.5-1.621.922-3.217,1.477-4.766A44.482,44.482,0,0,1,64.234,88.2q1.666-2.6,3.165-5.31A9.67,9.67,0,0,0,68.262,75.433Z"/><circle class="cls-50" cx="58.02" cy="77.622" r="3.795"/><path class="cls-6" d="M380.066,420.7H377.82a.449.449,0,0,1,0-.9h2.246a.449.449,0,0,1,0,.9Zm-9.879,0h-2.245a.449.449,0,0,1,0-.9h2.245a.449.449,0,0,1,0,.9Zm-9.879,0h-2.245a.449.449,0,0,1,0-.9h2.245a.449.449,0,0,1,0,.9Zm-9.879,0h-2.245a.449.449,0,0,1,0-.9h2.245a.449.449,0,0,1,0,.9Zm-9.879,0h-2.245a.449.449,0,0,1,0-.9h2.245a.449.449,0,0,1,0,.9Zm-9.878,0h-2.246a.449.449,0,0,1,0-.9h2.246a.449.449,0,0,1,0,.9Zm-9.879,0h-2.245a.449.449,0,0,1,0-.9h2.245a.449.449,0,0,1,0,.9Zm-9.879,0h-2.245a.449.449,0,1,1,0-.9h2.245a.449.449,0,0,1,0,.9Zm-9.879,0H298.79a.449.449,0,0,1,0-.9h2.245a.449.449,0,0,1,0,.9Zm-9.879,0h-2.245a.449.449,0,0,1,0-.9h2.245a.449.449,0,0,1,0,.9Zm-9.878,0h-2.246a.449.449,0,1,1,0-.9h2.246a.449.449,0,0,1,0,.9Zm-9.879,0h-2.245a.449.449,0,0,1,0-.9H271.4a.449.449,0,0,1,0,.9Zm-9.879,0h-2.245a.449.449,0,1,1,0-.9h2.245a.449.449,0,0,1,0,.9Zm-9.879,0H249.4a.449.449,0,0,1,0-.9h2.245a.449.449,0,0,1,0,.9Z"/><path class="cls-6" d="M518.141,420.7H515.9a.449.449,0,1,1,0-.9h2.246a.449.449,0,1,1,0,.9Zm-9.879,0h-2.245a.449.449,0,0,1,0-.9h2.245a.449.449,0,0,1,0,.9Zm-9.879,0h-2.245a.449.449,0,1,1,0-.9h2.245a.449.449,0,0,1,0,.9Zm-9.879,0h-2.245a.449.449,0,0,1,0-.9H488.5a.449.449,0,0,1,0,.9Zm-9.879,0H476.38a.449.449,0,0,1,0-.9h2.245a.449.449,0,0,1,0,.9Zm-9.878,0H466.5a.449.449,0,1,1,0-.9h2.246a.449.449,0,0,1,0,.9Zm-9.879,0h-2.245a.449.449,0,0,1,0-.9h2.245a.449.449,0,0,1,0,.9Zm-9.879,0h-2.245a.449.449,0,0,1,0-.9h2.245a.449.449,0,0,1,0,.9Zm-9.879,0h-2.245a.449.449,0,0,1,0-.9h2.245a.449.449,0,0,1,0,.9Zm-9.879,0h-2.245a.449.449,0,0,1,0-.9h2.245a.449.449,0,1,1,0,.9Zm-9.878,0h-2.246a.449.449,0,0,1,0-.9h2.246a.449.449,0,0,1,0,.9Zm-9.879,0h-2.245a.449.449,0,0,1,0-.9h2.245a.449.449,0,0,1,0,.9Zm-9.879,0H397.35a.449.449,0,0,1,0-.9H399.6a.449.449,0,0,1,0,.9Zm-9.879,0h-2.245a.449.449,0,0,1,0-.9h2.245a.449.449,0,0,1,0,.9Z"/><path class="cls-13" d="M309.23,413.985l-4.463,14.466a.857.857,0,0,0,.819,1.11h8.464a.857.857,0,0,0,.826-1.085l-4-14.466A.856.856,0,0,0,309.23,413.985Z"/><path class="cls-13" d="M331.941,414.328l-4.463,14.466a.857.857,0,0,0,.819,1.109h8.464a.857.857,0,0,0,.826-1.085l-4-14.466A.857.857,0,0,0,331.941,414.328Z"/></g><rect class="cls-51" x="305.861" y="394.412" width="107.454" height="17.726"/><g class="cls-7"><path class="cls-10" d="M503.89,261.179l.015-.022q1.236-1.812,2.4-3.676l.141-.224q1.12-1.8,2.17-3.651c.065-.116.132-.232.2-.348q1.027-1.821,1.985-3.682l.2-.4q.95-1.861,1.829-3.763c.059-.127.116-.255.174-.383q.884-1.93,1.7-3.9c.038-.092.074-.185.111-.277q.833-2.04,1.587-4.118l.01-.029q.764-2.115,1.44-4.272c.016-.048.032-.1.047-.144q.646-2.064,1.208-4.165c.038-.14.078-.28.116-.421q.535-2.022.994-4.075c.043-.192.087-.382.129-.574q.441-2.013.806-4.055c.039-.216.077-.433.114-.649q.354-2.035.631-4.095c.029-.214.056-.428.083-.642q.269-2.085.46-4.193c.016-.186.03-.373.046-.559.121-1.444.22-2.9.285-4.355.006-.123.008-.248.014-.372.063-1.53.1-3.067.1-4.613h0a108.99,108.99,0,0,0-10.8-47.5q-1.153-2.4-2.419-4.724-.633-1.164-1.292-2.312-2.639-4.588-5.7-8.889a109.584,109.584,0,0,0-178.7,0q-3.055,4.3-5.7,8.889-.66,1.148-1.292,2.312-1.264,2.328-2.42,4.724a108.99,108.99,0,0,0-10.8,47.5h0c0,1.5.035,2.983.094,4.464,0,.122.008.244.013.365.061,1.412.153,2.816.268,4.214.015.183.027.366.044.549q.177,2.041.43,4.061c.027.207.052.415.078.623q.261,2,.593,3.974c.035.208.07.416.107.624q.343,1.985.758,3.943c.038.182.079.364.119.545q.433,2,.938,3.973c.032.127.067.253.1.38.358,1.371.736,2.732,1.145,4.08.008.028.018.056.026.084q.642,2.112,1.364,4.187l.014.04q.707,2.026,1.494,4.014c.034.086.067.173.1.26q.765,1.931,1.6,3.823c.05.114.1.229.151.343q.834,1.874,1.738,3.708c.056.115.113.23.169.344q.915,1.843,1.894,3.647l.153.278q1.006,1.841,2.08,3.637l.083.136a109.779,109.779,0,0,0,65.343,49.467l15.178,94.894c.01.074.029.144.04.218a13.123,13.123,0,0,0,13.016,11.2h.159a13.293,13.293,0,0,0,2.762-.332A13.12,13.12,0,0,0,426,399.785l11.35-93.353A109.336,109.336,0,0,0,489.238,278.5l.042-.041q1.614-1.554,3.166-3.173l.044-.047A110.025,110.025,0,0,0,503.89,261.179Z"/></g><path class="cls-10" d="M412.889,411.6a13.131,13.131,0,0,1-13.056-11.421L382.488,291.732l56.354,2.432L426,399.785A13.134,13.134,0,0,1,413.048,411.6Zm-7.32-99.309,6.466,40.426,4.856-39.937Z"/><path class="cls-52" d="M522.878,199.523a109.563,109.563,0,1,0-128.085,108l14.434,90.238a3.4,3.4,0,0,0,6.776-.079l10.874-89.428A109.578,109.578,0,0,0,522.878,199.523Z"/><path class="cls-53" d="M393.746,300.972l33.839,1.46L416,397.678a3.4,3.4,0,0,1-6.776.079Z"/><rect class="cls-10" x="371.181" y="228.241" width="7.322" height="7.322"/><rect class="cls-10" x="389.916" y="228.241" width="7.322" height="7.322"/><rect class="cls-10" x="408.65" y="228.241" width="7.322" height="7.322"/><rect class="cls-10" x="427.385" y="228.241" width="7.322" height="7.322"/><rect class="cls-10" x="371.181" y="211.32" width="7.322" height="7.322"/><rect class="cls-10" x="389.916" y="211.32" width="7.322" height="7.322"/><rect class="cls-10" x="408.65" y="211.32" width="7.322" height="7.322"/><rect class="cls-10" x="427.385" y="211.32" width="7.322" height="7.322"/><rect class="cls-10" x="446.12" y="211.32" width="7.322" height="7.322"/><rect class="cls-10" x="389.916" y="194.399" width="7.322" height="7.322"/><rect class="cls-10" x="408.65" y="194.399" width="7.322" height="7.322"/><rect class="cls-10" x="427.385" y="194.399" width="7.322" height="7.322"/><rect class="cls-10" x="446.12" y="194.399" width="7.322" height="7.322"/><path class="cls-10" d="M438.8,253.873H366.661a13.742,13.742,0,0,1-13.727-13.727V167.329A13.742,13.742,0,0,1,366.661,153.6h91.3a13.742,13.742,0,0,1,13.727,13.727v48.449a4.5,4.5,0,0,1-9,0V167.329a4.732,4.732,0,0,0-4.727-4.727h-91.3a4.732,4.732,0,0,0-4.727,4.727v72.817a4.732,4.732,0,0,0,4.727,4.727H438.8a4.5,4.5,0,0,1,0,9Z"/><path class="cls-10" d="M440.8,170.577a3.631,3.631,0,0,1-3.631-3.63V150.282a3.631,3.631,0,1,1,7.262,0v16.665A3.631,3.631,0,0,1,440.8,170.577Z"/><path class="cls-10" d="M383.822,171.447a4.5,4.5,0,0,1-4.5-4.5V150.282a4.5,4.5,0,0,1,9,0v16.665A4.5,4.5,0,0,1,383.822,171.447Z"/><path class="cls-10" d="M467.189,184.714H357.434a4.5,4.5,0,0,1,0-9H467.189a4.5,4.5,0,0,1,0,9Z"/><path class="cls-10" d="M464.891,226.943A15.958,15.958,0,1,0,480.849,242.9,15.958,15.958,0,0,0,464.891,226.943Zm7.715,12.864-8.384,9.177a2.216,2.216,0,0,1-1.59.722h-.048a2.214,2.214,0,0,1-1.57-.652l-3.773-3.788a2.217,2.217,0,1,1,3.142-3.129l2.133,2.141,6.817-7.462a2.217,2.217,0,1,1,3.273,2.991Z"/></svg>