<svg xmlns="http://www.w3.org/2000/svg" viewBox="0 0 47.25 47.25"><defs><style>.cls-1{fill:#fff;}</style></defs><g id="Layer_2" data-name="Layer 2"><g id="Layer_1-2" data-name="Layer 1"><circle cx="23.62" cy="23.62" r="23.62"/><path class="cls-1" d="M31,14.69a1.62,1.62,0,1,0,1.62,1.62A1.62,1.62,0,0,0,31,14.69Z"/><path class="cls-1" d="M23.74,16.77a6.82,6.82,0,1,0,6.82,6.82A6.83,6.83,0,0,0,23.74,16.77Zm0,11.19a4.37,4.37,0,1,1,4.37-4.37A4.37,4.37,0,0,1,23.74,28Z"/><path class="cls-1" d="M29.15,37.44H18.09a8.33,8.33,0,0,1-8.32-8.32V18.06a8.33,8.33,0,0,1,8.32-8.32H29.15a8.33,8.33,0,0,1,8.32,8.32V29.12A8.33,8.33,0,0,1,29.15,37.44ZM18.09,12.35a5.71,5.71,0,0,0-5.71,5.71V29.12a5.71,5.71,0,0,0,5.71,5.71H29.15a5.72,5.72,0,0,0,5.72-5.71V18.06a5.72,5.72,0,0,0-5.72-5.71Z"/></g></g></svg>