<svg xmlns="http://www.w3.org/2000/svg" xmlns:xlink="http://www.w3.org/1999/xlink" viewBox="0 0 171.01 244.22"><defs><style>.cls-1{fill:none;}.cls-2{fill:url(#Degradado_sin_nombre_7);}.cls-3{fill:url(#linear-gradient);}.cls-4{fill:url(#Degradado_sin_nombre_2);}</style><linearGradient id="Degradado_sin_nombre_7" x1="-4710.51" y1="-721.84" x2="-4810.79" y2="-539.1" gradientTransform="matrix(-0.12, 1.01, 0.97, 0.12, 96.9, 5003.24)" gradientUnits="userSpaceOnUse"><stop offset="0" stop-color="#ffe2ff"/><stop offset="0.08" stop-color="#ac63ff"/><stop offset="0.21" stop-color="#7863ff"/><stop offset="0.38" stop-color="#ba95ff"/><stop offset="0.49" stop-color="#ffe2ff"/><stop offset="0.61" stop-color="#ac63ff"/><stop offset="0.65" stop-color="#9463ff"/><stop offset="0.7" stop-color="#7f63ff"/><stop offset="0.73" stop-color="#7863ff"/><stop offset="0.85" stop-color="#ba95ff"/><stop offset="0.95" stop-color="#ffe2ff"/><stop offset="1" stop-color="#ac63ff"/></linearGradient><linearGradient id="linear-gradient" x1="-4835.28" y1="-611.52" x2="-4634.75" y2="-611.52" gradientTransform="matrix(-0.12, 1.01, 0.97, 0.12, 96.9, 5003.24)" gradientUnits="userSpaceOnUse"><stop offset="0.43" stop-color="#7863ff"/><stop offset="1" stop-color="#7863ff"/></linearGradient><linearGradient id="Degradado_sin_nombre_2" x1="-4889.16" y1="-562.95" x2="-4834.27" y2="-562.95" gradientTransform="matrix(-0.12, 1.01, 0.97, 0.12, 96.9, 5003.24)" gradientUnits="userSpaceOnUse"><stop offset="0" stop-color="#7863ff"/><stop offset="0.49" stop-color="#7863ff"/><stop offset="1" stop-color="#7863ff"/></linearGradient></defs><g id="Layer_2" data-name="Layer 2"><g id="Layer_1-2" data-name="Layer 1"><path class="cls-1" d="M18.5,242l0,.17Z"/><path class="cls-1" d="M18.45,242.57v0Z"/><path class="cls-1" d="M18.61,241.66a.59.59,0,0,1,.06-.14A.59.59,0,0,0,18.61,241.66Z"/><path class="cls-1" d="M170.65,58.29l-.08-.09Z"/><path class="cls-2" d="M161.56,67.39a25.41,25.41,0,0,0-1.65,8.35c-.15,5.39,1.25,10.37,2.63,15.21a84.79,84.79,0,0,1,2.34,9.5A23.93,23.93,0,0,1,164,113a27.25,27.25,0,0,1-4.48,7.62,33.39,33.39,0,0,1-4,4.17,30.74,30.74,0,0,1-6.9,4.51A40.56,40.56,0,0,1,141,132c-5.28,1.35-11,1.93-16.81,2.76a82.91,82.91,0,0,0-11.71,2.36A39,39,0,0,0,97.52,145a38,38,0,0,0-4.67,4.86,32,32,0,0,0-5.2,8.8A25.6,25.6,0,0,0,86,167c-.16,5.38,1.25,10.37,2.62,15.21A84.33,84.33,0,0,1,91,191.7,23.73,23.73,0,0,1,90,204.23a27,27,0,0,1-4.48,7.61,32.1,32.1,0,0,1-4,4.18,31,31,0,0,1-6.9,4.51,40.81,40.81,0,0,1-7.58,2.68c-5.29,1.34-11,1.92-16.81,2.76a82.91,82.91,0,0,0-11.71,2.36,37.46,37.46,0,0,0-19.61,12.76,2.2,2.2,0,0,0-.27.43.59.59,0,0,0-.06.14c0,.1-.08.2-.11.3l0,.17a2.46,2.46,0,0,0,0,.28v.16a2.33,2.33,0,0,0,.05.28s0,.07,0,.1L.08,185.41a2,2,0,0,1,.43-1.86,38,38,0,0,1,4.67-4.86,39,39,0,0,1,14.93-7.9,84.39,84.39,0,0,1,11.71-2.37c5.81-.83,11.52-1.41,16.81-2.75A40.81,40.81,0,0,0,56.21,163a30.74,30.74,0,0,0,6.9-4.51,32.83,32.83,0,0,0,4-4.18,27.21,27.21,0,0,0,4.48-7.61,23.83,23.83,0,0,0,.93-12.53,80.23,80.23,0,0,0-2.35-9.5c-1.36-4.84-2.77-9.83-2.61-15.22a25.57,25.57,0,0,1,1.63-8.34,32,32,0,0,1,5.2-8.8,38,38,0,0,1,4.68-4.86A38.9,38.9,0,0,1,94,79.54a84,84,0,0,1,11.7-2.37c5.82-.82,11.53-1.4,16.81-2.75a41.65,41.65,0,0,0,7.59-2.68,31,31,0,0,0,6.9-4.51,34,34,0,0,0,4-4.17,26.77,26.77,0,0,0,4.48-7.62,23.83,23.83,0,0,0,.93-12.53,84.79,84.79,0,0,0-2.34-9.5c-1.38-4.84-2.78-9.82-2.63-15.21a25.41,25.41,0,0,1,1.65-8.35A31.61,31.61,0,0,1,148.64.72l18.43,57.54A31.78,31.78,0,0,0,161.56,67.39Z"/><path class="cls-3" d="M19.35,243.94a1.69,1.69,0,0,1-.85-1.09,2.33,2.33,0,0,1-.05-.28v-.16a2.46,2.46,0,0,1,0-.28l0-.17c0-.1.07-.2.11-.3a.59.59,0,0,1,.06-.14,2.2,2.2,0,0,1,.27-.43,37.46,37.46,0,0,1,19.61-12.76A82.91,82.91,0,0,1,50.26,226c5.81-.84,11.52-1.42,16.81-2.76a40.81,40.81,0,0,0,7.58-2.68,31,31,0,0,0,6.9-4.51,32.1,32.1,0,0,0,4-4.18A27,27,0,0,0,90,204.23,23.73,23.73,0,0,0,91,191.7a84.33,84.33,0,0,0-2.35-9.5c-1.37-4.84-2.78-9.83-2.62-15.21a25.6,25.6,0,0,1,1.64-8.35,32,32,0,0,1,5.2-8.8A38,38,0,0,1,97.52,145a39,39,0,0,1,14.93-7.9,82.91,82.91,0,0,1,11.71-2.36c5.81-.83,11.53-1.41,16.81-2.76a40.56,40.56,0,0,0,7.58-2.68,30.74,30.74,0,0,0,6.9-4.51,33.39,33.39,0,0,0,4-4.17A27.25,27.25,0,0,0,164,113a23.93,23.93,0,0,0,.93-12.53,84.79,84.79,0,0,0-2.34-9.5c-1.38-4.84-2.78-9.82-2.63-15.21a25.41,25.41,0,0,1,1.65-8.35,31.78,31.78,0,0,1,5.51-9.13,2.78,2.78,0,0,1,3-.45,2,2,0,0,1,.47.39l.08.09a1.57,1.57,0,0,1,.27.49,2,2,0,0,1-.41,1.89A27.15,27.15,0,0,0,166,68.29a23.83,23.83,0,0,0-.93,12.53,83.33,83.33,0,0,0,2.34,9.51c1.37,4.83,2.78,9.82,2.62,15.2a25.63,25.63,0,0,1-1.63,8.35,32.27,32.27,0,0,1-5.2,8.8,37.89,37.89,0,0,1-4.67,4.85,39,39,0,0,1-14.94,7.9,84,84,0,0,1-11.7,2.37c-5.82.82-11.53,1.41-16.81,2.75a40.94,40.94,0,0,0-7.59,2.69,31,31,0,0,0-6.89,4.5,32.8,32.8,0,0,0-4,4.18,26.73,26.73,0,0,0-4.48,7.61,24,24,0,0,0-.94,12.54,87.68,87.68,0,0,0,2.35,9.5c1.38,4.83,2.77,9.82,2.63,15.21a25.62,25.62,0,0,1-1.65,8.34,32.11,32.11,0,0,1-5.19,8.81,37.19,37.19,0,0,1-4.68,4.84,38.9,38.9,0,0,1-14.94,7.91A82.64,82.64,0,0,1,58,229c-5.82.83-11.53,1.42-16.81,2.76a40.68,40.68,0,0,0-7.59,2.69,30.42,30.42,0,0,0-6.89,4.5,37.58,37.58,0,0,0-4.36,4.52A2.76,2.76,0,0,1,19.35,243.94Z"/><path class="cls-4" d="M170.57,58.2a2,2,0,0,0-.47-.39,2.78,2.78,0,0,0-3,.45L148.64.72a2.74,2.74,0,0,1,3-.45,1.74,1.74,0,0,1,.84,1l18.43,57.54s0,0,0,0a1.57,1.57,0,0,0-.27-.49Z"/></g></g></svg>