<svg xmlns="http://www.w3.org/2000/svg" xmlns:xlink="http://www.w3.org/1999/xlink" viewBox="0 0 1306.13 766.74"><defs><style>.cls-1{fill:url(#linear-gradient);}.cls-2{fill:url(#linear-gradient-2);}.cls-3{fill:url(#linear-gradient-3);}.cls-4{fill:url(#linear-gradient-4);}.cls-5{fill:url(#linear-gradient-5);}.cls-6{fill:url(#linear-gradient-6);}.cls-7{fill:url(#linear-gradient-7);}.cls-8{fill:url(#linear-gradient-8);}.cls-9{fill:url(#linear-gradient-9);}.cls-10{fill:url(#linear-gradient-10);}.cls-11{fill:url(#linear-gradient-11);}.cls-12{fill:url(#linear-gradient-12);}.cls-13{fill:url(#linear-gradient-13);}.cls-14{fill:url(#linear-gradient-14);}.cls-15{fill:url(#linear-gradient-15);}.cls-16{fill:url(#linear-gradient-16);}.cls-17{fill:url(#linear-gradient-17);}.cls-18{fill:url(#linear-gradient-18);}.cls-19{fill:url(#linear-gradient-19);}.cls-20{fill:url(#linear-gradient-20);}.cls-21{fill:url(#linear-gradient-21);}.cls-22{fill:url(#linear-gradient-22);}.cls-23{fill:url(#linear-gradient-23);}.cls-24{fill:url(#linear-gradient-24);}.cls-25{fill:url(#linear-gradient-25);}.cls-26{fill:url(#linear-gradient-26);}.cls-27{fill:url(#linear-gradient-27);}</style><linearGradient id="linear-gradient" x1="-3696.67" y1="2087.88" x2="-4349.35" y2="1576.55" gradientTransform="translate(-1216.26 4758.71) rotate(135)" gradientUnits="userSpaceOnUse"><stop offset="0" stop-color="#a778ff" stop-opacity="0.6"/><stop offset="1" stop-color="#ac63ff" stop-opacity="0"/></linearGradient><linearGradient id="linear-gradient-2" x1="-3715.8" y1="2112.28" x2="-4368.44" y2="1600.97" gradientTransform="translate(-1245.69 4779.44) rotate(135)" xlink:href="#linear-gradient"/><linearGradient id="linear-gradient-3" x1="-3699.53" y1="2091.61" x2="-4352.31" y2="1580.19" gradientTransform="translate(3579.53 3321.47) rotate(64.63)" xlink:href="#linear-gradient"/><linearGradient id="linear-gradient-4" x1="-3692.92" y1="2083.19" x2="-4345.71" y2="1571.77" gradientTransform="translate(3579.53 3321.47) rotate(64.63)" xlink:href="#linear-gradient"/><linearGradient id="linear-gradient-5" x1="-3685.34" y1="2073.52" x2="-4338.12" y2="1562.1" gradientTransform="translate(3579.53 3321.47) rotate(64.63)" xlink:href="#linear-gradient"/><linearGradient id="linear-gradient-6" x1="-3674.13" y1="2059.24" x2="-4326.92" y2="1547.82" gradientTransform="translate(3579.53 3321.47) rotate(64.63)" xlink:href="#linear-gradient"/><linearGradient id="linear-gradient-7" x1="-3220.48" y1="1480.19" x2="-3873.26" y2="968.78" gradientTransform="translate(3579.53 3321.47) rotate(64.63)" xlink:href="#linear-gradient"/><linearGradient id="linear-gradient-8" x1="-3652.17" y1="2031.21" x2="-4304.95" y2="1519.79" gradientTransform="translate(3579.53 3321.47) rotate(64.63)" xlink:href="#linear-gradient"/><linearGradient id="linear-gradient-9" x1="-3466.13" y1="1793.77" x2="-4118.92" y2="1282.35" gradientTransform="translate(3579.53 3321.47) rotate(64.63)" xlink:href="#linear-gradient"/><linearGradient id="linear-gradient-10" x1="-3456.18" y1="1781.08" x2="-4108.97" y2="1269.65" gradientTransform="translate(3579.53 3321.47) rotate(64.63)" xlink:href="#linear-gradient"/><linearGradient id="linear-gradient-11" x1="-3448.82" y1="1771.7" x2="-4101.61" y2="1260.28" gradientTransform="translate(3579.53 3321.47) rotate(64.63)" xlink:href="#linear-gradient"/><linearGradient id="linear-gradient-12" x1="-3440.42" y1="1760.99" x2="-4093.21" y2="1249.57" gradientTransform="translate(3579.53 3321.47) rotate(64.63)" xlink:href="#linear-gradient"/><linearGradient id="linear-gradient-13" x1="-3433.85" y1="1752.63" x2="-4086.64" y2="1241.2" gradientTransform="translate(3579.53 3321.47) rotate(64.63)" xlink:href="#linear-gradient"/><linearGradient id="linear-gradient-14" x1="-3427.27" y1="1744.25" x2="-4080.07" y2="1232.82" gradientTransform="translate(3579.53 3321.47) rotate(64.63)" xlink:href="#linear-gradient"/><linearGradient id="linear-gradient-15" x1="-3424.5" y1="1740.73" x2="-4077.3" y2="1229.3" gradientTransform="translate(3579.53 3321.47) rotate(64.63)" xlink:href="#linear-gradient"/><linearGradient id="linear-gradient-16" x1="-3414.07" y1="1727.42" x2="-4066.86" y2="1216" gradientTransform="translate(3579.53 3321.47) rotate(64.63)" xlink:href="#linear-gradient"/><linearGradient id="linear-gradient-17" x1="-3411.95" y1="1724.73" x2="-4064.75" y2="1213.31" gradientTransform="translate(3579.53 3321.47) rotate(64.63)" xlink:href="#linear-gradient"/><linearGradient id="linear-gradient-18" x1="-3406.58" y1="1717.89" x2="-4059.37" y2="1206.47" gradientTransform="translate(3579.53 3321.47) rotate(64.63)" xlink:href="#linear-gradient"/><linearGradient id="linear-gradient-19" x1="-3191.93" y1="1443.9" x2="-3844.71" y2="932.49" gradientTransform="translate(3579.53 3321.47) rotate(64.63)" xlink:href="#linear-gradient"/><linearGradient id="linear-gradient-20" x1="-3333.22" y1="1624.12" x2="-3985.94" y2="1112.75" gradientTransform="translate(-1123.26 3848.97) rotate(135)" xlink:href="#linear-gradient"/><linearGradient id="linear-gradient-21" x1="-3394.37" y1="1702.03" x2="-4047.02" y2="1190.72" gradientTransform="translate(-1220.64 3913.41) rotate(135.05)" xlink:href="#linear-gradient"/><linearGradient id="linear-gradient-22" x1="-3575.57" y1="1933.59" x2="-4228.35" y2="1422.17" gradientTransform="translate(3579.53 3321.47) rotate(64.63)" xlink:href="#linear-gradient"/><linearGradient id="linear-gradient-23" x1="-3166.71" y1="1411.73" x2="-3819.5" y2="900.31" gradientTransform="translate(-896.24 3636.26) rotate(135)" xlink:href="#linear-gradient"/><linearGradient id="linear-gradient-24" x1="-3606.17" y1="1972.65" x2="-4258.95" y2="1461.24" gradientTransform="translate(3579.53 3321.47) rotate(64.63)" xlink:href="#linear-gradient"/><linearGradient id="linear-gradient-25" x1="-3594.94" y1="1958.12" x2="-4247.63" y2="1446.78" gradientTransform="translate(-1584.15 4068.37) rotate(135)" xlink:href="#linear-gradient"/><linearGradient id="linear-gradient-26" x1="-3614.03" y1="1982.51" x2="-4266.72" y2="1471.16" gradientTransform="translate(3579.53 3321.47) rotate(64.63)" xlink:href="#linear-gradient"/><linearGradient id="linear-gradient-27" x1="-3633.16" y1="2006.86" x2="-4285.83" y2="1495.53" gradientTransform="translate(-1642.91 4109.81) rotate(135)" xlink:href="#linear-gradient"/></defs><g id="Layer_2" data-name="Layer 2"><g id="Layer_1-2" data-name="Layer 1"><rect class="cls-1" x="160.04" y="626.36" width="4.57" height="24.97" transform="translate(-493.92 577.1) rotate(-70.37)"/><rect class="cls-2" x="130.61" y="622.11" width="4.6" height="12.5" transform="translate(-503.57 542.43) rotate(-70.37)"/><polygon class="cls-3" points="52.41 557.48 281.44 639.18 279.91 643.49 50.87 561.81 52.41 557.48"/><polygon class="cls-4" points="29.74 509.67 341.01 620.71 339.47 625.02 28.2 514 29.74 509.67"/><polygon class="cls-5" points="10.07 462.93 400.57 602.24 399.04 606.53 8.53 467.26 10.07 462.93"/><polygon class="cls-6" points="1.54 420.17 460.13 583.76 458.6 588.05 0 424.5 1.54 420.17"/><polygon class="cls-7" points="801.62 665.86 1072.53 762.5 1071.02 766.74 800.1 670.12 801.62 665.86"/><polygon class="cls-8" points="2.65 380.84 543.18 573.68 541.66 577.94 1.11 385.17 2.65 380.84"/><polygon class="cls-9" points="3.55 341.43 1131.28 743.73 1129.77 747.97 2 345.76 3.55 341.43"/><polygon class="cls-10" points="4.4 302.02 1177.61 720.55 1176.11 724.76 2.86 306.35 4.4 302.02"/><polygon class="cls-11" points="5.25 262.59 1215.96 694.5 1214.45 698.72 3.7 266.92 5.25 262.59"/><polygon class="cls-12" points="20.84 228.43 1242.78 664.35 1241.28 668.56 19.3 232.76 20.84 228.43"/><polygon class="cls-13" points="33.39 193.2 1266.98 633.26 1265.48 637.47 31.85 197.5 33.39 193.2"/><polygon class="cls-14" points="45.91 157.94 1291.26 602.19 1289.75 606.41 44.37 162.25 45.91 157.94"/><polygon class="cls-15" points="70.15 126.86 1292.09 562.77 1290.59 566.98 68.62 131.17 70.15 126.86"/><polygon class="cls-16" points="106.13 99.97 1304.78 527.58 1303.28 531.77 104.6 104.28 106.13 99.97"/><polygon class="cls-17" points="127.85 68 1306.13 488.33 1304.63 492.55 126.31 72.3 127.85 68"/><polygon class="cls-18" points="172.66 44.27 1294.4 444.42 1292.9 448.64 171.13 48.55 172.66 44.27"/><polygon class="cls-19" points="872.41 254.16 1271.73 396.61 1270.23 400.83 870.9 258.4 872.41 254.16"/><rect class="cls-20" x="851.78" y="243.76" width="4.5" height="12.47" transform="translate(331.64 970.4) rotate(-70.37)"/><rect class="cls-21" x="757.8" y="210.24" width="4.5" height="12.47" transform="translate(301.4 860.05) rotate(-70.42)"/><polygon class="cls-22" points="220.47 21.6 743.18 208.07 741.67 212.31 218.94 25.88 220.47 21.6"/><rect class="cls-23" x="1116.15" y="168.2" width="4.48" height="272.73" transform="translate(455.77 1255.62) rotate(-70.37)"/><polygon class="cls-24" points="271.28 0 614.79 122.54 613.27 126.8 269.75 4.28 271.28 0"/><rect class="cls-25" x="465.73" y="26.61" width="4.52" height="12.48" transform="translate(279.82 462.6) rotate(-70.37)"/><polygon class="cls-26" points="427.62 16.04 451.12 24.44 449.6 28.7 426.09 20.32 427.62 16.04"/><rect class="cls-27" x="406.95" y="5.65" width="4.55" height="12.48" transform="translate(260.54 393.33) rotate(-70.37)"/></g></g></svg>