<svg xmlns="http://www.w3.org/2000/svg" viewBox="0 0 47.25 47.25"><defs><style>.cls-1{fill:#fff;}</style></defs><g id="Layer_2" data-name="Layer 2"><g id="Layer_1-2" data-name="Layer 1"><path d="M47.25,23.62A23.63,23.63,0,1,0,19.93,47V30.45h-6V23.62h6v-5.2c0-5.92,3.53-9.19,8.92-9.19a36.38,36.38,0,0,1,5.29.46V15.5h-3c-2.93,0-3.85,1.82-3.85,3.69v4.43h6.56l-1,6.83H27.31V47A23.63,23.63,0,0,0,47.25,23.62Z"/><path class="cls-1" d="M32.82,30.45l1-6.83H27.31V19.19c0-1.87.92-3.69,3.85-3.69h3V9.69a36.38,36.38,0,0,0-5.29-.46c-5.39,0-8.92,3.27-8.92,9.19v5.2h-6v6.83h6V47a23.62,23.62,0,0,0,7.38,0V30.45Z"/></g></g></svg>