<svg xmlns="http://www.w3.org/2000/svg" viewBox="0 0 1612.83 978.87"><defs><style>.cls-1{opacity:0.05;}.cls-2{fill:#333;}</style></defs><g id="Layer_2" data-name="Layer 2"><g id="Layer_1-2" data-name="Layer 1"><g class="cls-1"><polygon class="cls-2" points="1142.72 447.32 1143.29 447.11 1143.1 446.81 1142.62 446.98 1142.72 447.32 1142.72 447.32"/><polygon class="cls-2" points="1102.37 439.81 1103.65 439.38 1103.39 438.64 1102.16 439.07 1102.37 439.81 1102.37 439.81"/><path class="cls-2" d="M1062.15,430.5c-.53.63-.05,1.22.93,1.14,1.28-.09,2.31-1.13,1.65-1.66a1,1,0,0,0-.38-.18,2.54,2.54,0,0,0-2.2.7Z"/><path class="cls-2" d="M1023,421.16c-.75.75-.23,1.48,1,1.43,1.65-.07,3.1-1.37,2.33-2a1.19,1.19,0,0,0-.47-.25,3.53,3.53,0,0,0-2.89.87Z"/><path class="cls-2" d="M984.8,411.08c-.81.73-.65,1.62.78,1.66,1.93.07,4-1.43,3.11-2.26a1.11,1.11,0,0,0-.54-.27,4.15,4.15,0,0,0-3.35.87Z"/><path class="cls-2" d="M947.26,400.27c-1.1.88-.86,1.77.53,1.94,2.27.29,5.18-1.48,4.22-2.57a1.13,1.13,0,0,0-.57-.33,5.41,5.41,0,0,0-4.18,1Z"/><path class="cls-2" d="M910.58,388.73c-1.38,1-1.18,2,.4,2.27,2.59.39,6.27-1.61,5.23-2.85a1.35,1.35,0,0,0-.66-.41,6.67,6.67,0,0,0-5,1Z"/><path class="cls-2" d="M875.05,376.51c-1.52,1-1.55,2-.09,2.39,2.68.69,7.35-1.46,6.32-2.92a1.43,1.43,0,0,0-.68-.45,7.68,7.68,0,0,0-5.55,1Z"/><path class="cls-2" d="M840.68,363.62c-1.71,1-1.86,2.05-.36,2.48,2.66.75,7.8-1.39,6.95-2.89a1.16,1.16,0,0,0-.63-.48c-1.91-.63-4.64.15-6,.89Z"/><path class="cls-2" d="M807.39,350c-1.87,1-2.15,2.1-.64,2.56,2.73.85,8.35-1.25,7.62-2.85a1.34,1.34,0,0,0-.64-.52c-1.72-.61-4.64-.07-6.34.81Z"/><path class="cls-2" d="M775.41,335.77c-2,.91-2.37,2.05-.91,2.55,2.7.92,8.58-1,8-2.67a1.13,1.13,0,0,0-.59-.53c-1.69-.66-4.67-.17-6.48.65Z"/><path class="cls-2" d="M744.65,320.82c-2.17.9-2.73,2.07-1.23,2.64,2.85,1.05,9.48-1.08,8.55-2.75a1,1,0,0,0-.47-.4c-1.87-.81-5.13-.19-6.85.51Z"/><path class="cls-2" d="M715.65,305.42c-2.27.85-3,2-1.57,2.56,2.65,1.08,9.62-.93,8.9-2.54a1.06,1.06,0,0,0-.42-.42c-1.61-.74-4.83-.37-6.91.4Z"/><path class="cls-2" d="M688.78,289.77c-2.26.76-3.07,1.83-1.79,2.39,2.53,1.13,9.38-.63,8.82-2.26a1,1,0,0,0-.36-.4c-1.44-.73-4.58-.43-6.67.27Z"/><path class="cls-2" d="M664,273.89c-2.3.67-3.19,1.66-2,2.23,2.24,1.07,9-.47,8.69-2a.58.58,0,0,0-.28-.37c-1.43-.8-4.61-.41-6.41.14Z"/><path class="cls-2" d="M641.17,257.75c-2.27.62-3.21,1.53-2.18,2.07,2.08,1.1,9.16-.44,8.53-1.84a1,1,0,0,0-.21-.24c-1.15-.7-4.08-.54-6.14,0Z"/><path class="cls-2" d="M620.46,241.47c-2.19.53-3.2,1.33-2.29,1.84,1.8,1.05,8.48-.23,8-1.53a.72.72,0,0,0-.17-.23c-1.07-.71-3.9-.48-5.57-.08Z"/><path class="cls-2" d="M601.75,225c-2,.43-3,1.14-2.25,1.63,1.56,1,7.73-.06,7.5-1.27a.4.4,0,0,0-.12-.19c-.89-.67-3.54-.51-5.13-.17Z"/><path class="cls-2" d="M585,208.45c-1.84.34-2.79,1-2.17,1.4,1.26.89,6.93.08,6.82-1a.31.31,0,0,0-.09-.18c-.73-.61-3.11-.51-4.56-.24Z"/><path class="cls-2" d="M570.38,191.82c-1.62.26-2.48.74-2,1.12,1,.74,5.86.15,5.88-.73a.44.44,0,0,0,0-.15c-.55-.5-2.57-.44-3.83-.24Z"/><path class="cls-2" d="M557.72,175.11c-1.27.19-2,.56-1.67.86.75.62,4.86.16,4.68-.54a.11.11,0,0,1,0-.06c-.39-.4-2-.4-3-.26Z"/><polygon class="cls-2" points="545.6 158.91 547.69 159.17 549.17 158.58 547.2 158.34 545.6 158.91 545.6 158.91"/><polygon class="cls-2" points="537.54 141.9 538.63 142.08 539.5 141.76 538.41 141.6 537.54 141.9 537.54 141.9"/><polygon class="cls-2" points="531.39 124.96 531.62 125 531.84 124.93 531.59 124.89 531.39 124.96 531.39 124.96"/><polygon class="cls-2" points="1343.72 510.16 1343.88 510.06 1343.77 509.94 1343.68 510.04 1343.72 510.16 1343.72 510.16"/><polygon class="cls-2" points="1298.43 506.29 1299.33 505.75 1298.73 505.07 1297.84 505.6 1298.43 506.29 1298.43 506.29"/><path class="cls-2" d="M1252.21,500.42c-.2,1,1.17,1.55,2.18.88a1,1,0,0,0-.29-2H1254a1.63,1.63,0,0,0-1.76,1.09Z"/><path class="cls-2" d="M1206.9,494.32c-.42,1.44,1.54,2.28,3.13,1.35,1.3-.76,1.39-2.42-.25-2.8l-.2-.05a2.48,2.48,0,0,0-2.68,1.5Z"/><path class="cls-2" d="M1162,487.4c-.7,1.8,1.53,3,3.73,2,2-.93,2.34-3.05.5-3.71a3.92,3.92,0,0,0-.49-.13,3.5,3.5,0,0,0-3.74,1.86Z"/><path class="cls-2" d="M1117.55,479.65c-1,2.06,1.4,3.59,4.11,2.65s3.6-3.55,1.6-4.56a3.84,3.84,0,0,0-.87-.28,4.75,4.75,0,0,0-4.84,2.19Z"/><path class="cls-2" d="M1073.83,471.09c-1.26,2.18,1,4,4.08,3.22,3.44-.83,5.06-4,2.7-5.31a4.79,4.79,0,0,0-1-.36,6,6,0,0,0-5.8,2.45Z"/><path class="cls-2" d="M1030.74,461.72c-1.69,2.48.7,4.55,4.34,3.75,4-.87,6.14-4.41,3.59-5.93a4,4,0,0,0-1.06-.41,7.23,7.23,0,0,0-6.87,2.59Z"/><path class="cls-2" d="M988.4,451.54c-2,2.58,0,4.85,3.94,4.34,4.39-.56,7.66-4.44,5.39-6.36a3.54,3.54,0,0,0-1.44-.69,8.5,8.5,0,0,0-7.89,2.71Z"/><path class="cls-2" d="M946.87,440.57c-2.34,2.63-.66,5.12,3.33,4.93,5.2-.25,9.71-4.62,7.21-7a3.48,3.48,0,0,0-1.52-.79,10.14,10.14,0,0,0-9,2.84Z"/><path class="cls-2" d="M906.37,428.83c-2.75,2.75-1.16,5.43,3.16,5.32,5.6-.15,10.82-4.68,8.34-7.24a3.55,3.55,0,0,0-1.54-.88,11.59,11.59,0,0,0-10,2.8Z"/><path class="cls-2" d="M866.93,416.33c-2.94,2.64-1.88,5.35,2.2,5.6,5.8.35,12.47-4.53,10-7.36a3.46,3.46,0,0,0-1.54-.94c-4.06-1.12-8.7.91-10.7,2.7Z"/><path class="cls-2" d="M828.6,403.07c-3.27,2.64-2.39,5.47,1.81,5.84,6,.52,13.42-4.4,11.15-7.41a3.53,3.53,0,0,0-1.55-1c-4.1-1.23-9.13.79-11.41,2.6Z"/><path class="cls-2" d="M791.43,389.06c-3.43,2.5-3.13,5.32.67,6,6,1.11,15.1-4,12.91-7.33a3.12,3.12,0,0,0-1.5-1.08c-4.17-1.38-9.57.58-12.08,2.4Z"/><path class="cls-2" d="M755.43,374.27c-3.75,2.49-3.68,5.47.14,6.26,6.18,1.29,16.08-3.85,14.13-7.33a3.05,3.05,0,0,0-1.45-1.16c-4.23-1.52-10,.4-12.82,2.23Z"/><path class="cls-2" d="M721,358.85c-4,2.43-4.25,5.34-.44,6.22,6.44,1.5,17.21-3.91,14.59-7.34a3.69,3.69,0,0,0-1.16-.86c-4-1.59-10,.19-13,2Z"/><path class="cls-2" d="M687.83,342.61c-4.28,2.36-4.75,5.39-1,6.36,6.38,1.66,17.86-3.63,15.55-7.15a3,3,0,0,0-1.07-.88c-4-1.74-10.31-.07-13.49,1.67Z"/><path class="cls-2" d="M656.65,325.94c-4.49,2.25-5.28,5.24-1.69,6.26,6.15,1.74,18.09-3.28,16.18-6.8a2.66,2.66,0,0,0-1-.9c-3.8-1.78-10.2-.23-13.53,1.44Z"/><path class="cls-2" d="M627.83,309c-4.36,2-5.64,4.6-2.88,5.81,5.2,2.29,18.52-2.52,17-6.12a2.43,2.43,0,0,0-.85-.89c-3.45-1.77-9.82-.36-13.23,1.2Z"/><path class="cls-2" d="M601.14,291.81c-4.44,1.85-5.95,4.36-3.39,5.59,4.79,2.29,18.22-2.13,17.11-5.63a1.86,1.86,0,0,0-.73-.87c-3.17-1.8-9.51-.55-13,.91Z"/><path class="cls-2" d="M576.73,274.4c-4.38,1.68-6.09,4-3.79,5.26,4.48,2.33,17.59-1.62,16.9-5.11a1.64,1.64,0,0,0-.59-.84c-2.81-1.73-9.13-.6-12.52.69Z"/><path class="cls-2" d="M554.49,256.79c-4.38,1.54-6.27,3.75-4.21,4.93,4,2.31,17.81-1.73,16.55-4.85a1.68,1.68,0,0,0-.4-.52c-2.5-1.7-8.48-.77-11.94.44Z"/><path class="cls-2" d="M534.5,239.06c-4.5,1.44-6.36,3.62-4,4.68,4.14,1.85,16.25-1.61,15.42-4.4a1.88,1.88,0,0,0-.32-.49c-2.16-1.63-7.79-.85-11.1.21Z"/><path class="cls-2" d="M516.58,221.13c-4.36,1.28-6.35,3.31-4.24,4.34,3.71,1.83,15.55-1.23,15.07-3.9a1.25,1.25,0,0,0-.26-.48c-1.87-1.56-7.31-.91-10.57,0Z"/><path class="cls-2" d="M500.87,203.15c-4.17,1.1-6.22,2.94-4.39,3.91,3.41,1.83,15.24-1.14,14.23-3.57,0-.08-.1-.16-.13-.21-1.56-1.47-6.6-1-9.71-.13Z"/><path class="cls-2" d="M487.35,185.1c-3.78.92-5.76,2.53-4.23,3.45,2.86,1.69,13.68-.77,13-3a1.63,1.63,0,0,0-.09-.19c-1.26-1.35-5.84-1-8.7-.29Z"/><path class="cls-2" d="M476,167c-3.43.75-5.35,2.13-4.09,3,2.36,1.54,12.1-.46,11.7-2.41a.61.61,0,0,0-.07-.17c-.94-1.19-5-.95-7.54-.38Z"/><path class="cls-2" d="M466.71,149c-3.08.62-4.89,1.78-3.88,2.5,1.91,1.34,10.59-.26,10.44-1.92a.38.38,0,0,0,0-.15c-.69-1-4.22-.87-6.51-.43Z"/><path class="cls-2" d="M459.58,130.91c-2.47.44-4.05,1.39-3.3,2,1.4,1.11,8.56-.05,8.62-1.4l0-.12c-.48-.88-3.37-.8-5.29-.47Z"/><path class="cls-2" d="M454.56,113c-2,.31-3.27,1-2.75,1.47.95.87,6.62.07,6.73-1a.25.25,0,0,0,0-.09c-.32-.71-2.62-.64-4-.42Z"/><path class="cls-2" d="M451.61,95c-1.39.19-2.59.71-2,1.09.76.52,4.79.12,4.85-.73-.16-.49-1.79-.51-2.83-.36Z"/><polygon class="cls-2" points="449.34 77.78 450.91 78.04 452.47 77.5 450.92 77.23 449.34 77.78 449.34 77.78"/><polygon class="cls-2" points="451.5 59.77 451.99 59.89 452.63 59.69 452.03 59.61 451.5 59.77 451.5 59.77"/><polygon class="cls-2" points="1435.22 556.58 1435.88 556.05 1435.21 555.4 1434.56 555.99 1435.22 556.58 1435.22 556.58"/><path class="cls-2" d="M1385.19,553.16a1.53,1.53,0,0,0,2.62.75c.59-.65.28-1.93-1.09-2.09a1.35,1.35,0,0,0-1.53,1.34Z"/><path class="cls-2" d="M1335.73,549.33c0,1.93,2.83,2.8,4.31,1.33,1.08-1.07.7-3.11-1.61-3.42a2.34,2.34,0,0,0-2.7,2.09Z"/><path class="cls-2" d="M1286.57,544.59c-.22,2.42,3.21,3.73,5.39,2,1.9-1.45,1.41-4.28-1.51-4.73-2.49-.16-3.77,1.47-3.88,2.68Z"/><path class="cls-2" d="M1237.73,539c-.51,3,3.59,4.73,6.54,2.67,2.65-1.84,2-5.17-1.12-5.85l-.41-.07a4.47,4.47,0,0,0-5,3.25Z"/><path class="cls-2" d="M1189.16,532.38c-.86,3.56,4,5.69,7.63,3.35,3.31-2.13,2.83-6.12-.85-7l-.48-.08a5.69,5.69,0,0,0-6.3,3.74Z"/><path class="cls-2" d="M1141.17,524.93c-1.22,3.82,3.64,6.39,8,4.22,4.11-2,4.46-6.62.6-8a7.43,7.43,0,0,0-1-.27c-4.15-.49-6.92,2.09-7.55,4.08Z"/><path class="cls-2" d="M1093.71,516.6c-1.71,4.29,3.49,7.28,8.55,4.9,4.76-2.22,5.54-7.36,1.38-9a11.35,11.35,0,0,0-1.14-.32c-4.6-.63-7.91,2.22-8.79,4.45Z"/><path class="cls-2" d="M1046.84,507.39c-2.13,4.45,2.77,7.85,8.45,5.87s7.54-7.68,3.45-9.93a7.34,7.34,0,0,0-1.8-.65c-5-.8-9,2.27-10.1,4.71Z"/><path class="cls-2" d="M1000.53,497.28c-2.56,4.61,2,8.5,8.2,6.94,6.84-1.72,10.1-8.4,5.46-11.18a7.29,7.29,0,0,0-1.92-.74,11.59,11.59,0,0,0-11.74,5Z"/><path class="cls-2" d="M955.31,486.34c-3.13,4.93,1.38,9.1,8.21,7.56,7.46-1.67,11.47-8.71,6.67-11.77a7.58,7.58,0,0,0-2-.83,13.06,13.06,0,0,0-12.9,5Z"/><path class="cls-2" d="M911,474.55c-3.54,4.87.3,9.33,7.19,8.4,8.48-1.15,14.12-9,9-12.56a7.66,7.66,0,0,0-2.07-.95A14.68,14.68,0,0,0,911,474.55Z"/><path class="cls-2" d="M867.61,461.93c-4.12,5.07-.42,9.87,7,9,9-1,15.59-9.21,10.51-13.06a8.07,8.07,0,0,0-2.08-1c-6.47-1.61-12.89,2-15.4,5.07Z"/><path class="cls-2" d="M825.44,448.49c-4.4,4.88-1.57,9.81,5.5,9.61,9.57-.26,18.2-9.2,13-13.47a7.57,7.57,0,0,0-2.12-1.1c-6.58-1.8-13.56,1.82-16.41,5Z"/><path class="cls-2" d="M784.43,434.23c-4.94,4.93-2.38,10.1,5,10.07,10,0,19.61-9.11,14.51-13.66a7,7,0,0,0-2.1-1.19c-6.69-2-14.18,1.59-17.37,4.78Z"/><path class="cls-2" d="M744.63,419.16c-5.53,5-3.31,10.47,4.33,10.57,10.26.13,21-9.09,16.18-13.89a7,7,0,0,0-2.06-1.27c-6.79-2.24-14.87,1.34-18.45,4.59Z"/><path class="cls-2" d="M706.36,403.33c-5.58,4.66-4.35,9.95,2.5,10.71,10.26,1.14,23.21-8.4,18.49-13.62a6.9,6.9,0,0,0-2-1.34c-6.69-2.4-15.13,1.05-19,4.25Z"/><path class="cls-2" d="M669.55,386.73c-5.94,4.54-5.11,9.9,1.7,10.83,10.25,1.4,24-7.92,19.59-13.29a5.89,5.89,0,0,0-1.91-1.4c-6.51-2.57-15.25.7-19.38,3.86Z"/><path class="cls-2" d="M634.19,369.33c-6.35,4.46-5.92,9.92.9,11,10.22,1.65,24.8-7.48,20.8-13a5.73,5.73,0,0,0-1.8-1.45c-6.4-2.76-15.5.35-19.9,3.45Z"/><path class="cls-2" d="M601.14,351.51c-6.59,4.25-6.68,9.59-.18,10.77,9.76,1.78,24.77-6.9,21.42-12.37a5.07,5.07,0,0,0-1.61-1.45c-5.95-2.8-15.06.1-19.63,3.05Z"/><path class="cls-2" d="M570.38,333.36c-6.42,3.82-7.46,8.78-2.2,10.39,9,2.77,26.11-5.86,23.17-11.68a4.34,4.34,0,0,0-1.44-1.45c-5.54-2.85-14.76-.12-19.53,2.74Z"/><path class="cls-2" d="M542.11,315c-6.55,3.63-8,8.4-3.12,10,8.28,2.74,25.56-5.35,23.39-10.95a3.46,3.46,0,0,0-1.2-1.44c-5.06-2.84-14.2-.32-19.07,2.35Z"/><path class="cls-2" d="M516.18,296.34c-6.56,3.37-8.42,8-3.91,9.62,8,2.92,26.16-5.46,23.17-10.68a4.15,4.15,0,0,0-.83-.9c-4.51-2.79-13.66-.48-18.43,2Z"/><path class="cls-2" d="M492.57,277.5c-6.57,3.13-8.78,7.51-4.63,9.18,7.33,3,25.48-4.82,23.11-9.91a4.57,4.57,0,0,0-.71-.88c-4.08-2.78-12.85-.73-17.77,1.61Z"/><path class="cls-2" d="M471.39,258.55c-6.42,2.84-8.87,6.92-5.16,8.54,6.5,2.85,24.13-4.16,22.45-8.93a2.7,2.7,0,0,0-.56-.83c-3.56-2.7-11.92-.91-16.73,1.22Z"/><path class="cls-2" d="M452.47,239.42c-6.25,2.57-8.92,6.39-5.62,8,5.88,2.87,23-3.48,21.86-8.09a2.73,2.73,0,0,0-.47-.81c-2.75-2.32-10.33-1.35-15.77.9Z"/><path class="cls-2" d="M435.89,220.22c-6.12,2.35-8.91,5.79-6,7.37,5.43,2.9,22.78-3.43,20.87-7.63-.06-.11-.17-.25-.23-.35-2.57-2.47-10.12-1.12-14.66.61Z"/><path class="cls-2" d="M421.64,201c-6.05,2.17-8.84,5.55-5.64,6.84,5.35,2.16,20.37-3.23,19.13-6.86a1.23,1.23,0,0,0-.17-.32c-2.07-2.28-9.17-1.13-13.32.34Z"/><path class="cls-2" d="M409.63,181.71c-5.65,1.87-8.39,4.82-5.62,6.09,4.6,2.07,18.45-2.55,17.65-5.89,0-.1-.09-.21-.12-.31-1.66-2.1-8-1.2-11.91.11Z"/><path class="cls-2" d="M399.84,162.37c-5.3,1.63-8.07,4.31-5.7,5.49,3.57,1.8,17.56-1.85,16.53-5.44-1.3-1.93-7.11-1.19-10.83,0Z"/><path class="cls-2" d="M392.38,143.13c-4.64,1.33-7.33,3.66-5.4,4.7,2.88,1.55,15.24-1.43,14.7-4.47-.92-1.72-6.09-1.16-9.3-.23Z"/><path class="cls-2" d="M387.13,123.91c-4.24,1.13-6.74,3.07-5.16,4,2.34,1.39,13.35-1,13.19-3.72-.63-1.5-5.17-1.07-8-.31Z"/><path class="cls-2" d="M384.1,104.8c-3.13.77-5.91,2.41-4.61,3.29,1.8,1.23,11.11-.66,11.23-2.93-.39-1.25-4.18-1-6.62-.36Z"/><path class="cls-2" d="M383.31,85.84c-2.92.66-4.86,1.92-4,2.58,1.36,1,8.88-.32,9.2-2.2-.16-1-3.16-.85-5.23-.38Z"/><path class="cls-2" d="M384.73,67c-2.33.49-3.86,1.48-3.05,2,1.16.69,6.53-.35,6.87-1.63,0-.78-2.26-.68-3.82-.36Z"/><path class="cls-2" d="M388.33,48.37c-1.62.31-2.73,1-2.22,1.32.73.51,4.48-.15,4.82-1,.05-.55-1.57-.46-2.6-.27Z"/><polygon class="cls-2" points="392.98 30.49 394 30.69 395.38 30.15 394.27 29.96 392.98 30.49 392.98 30.49"/><polygon class="cls-2" points="402.04 11.85 402.12 11.89 402.34 11.8 402.16 11.78 402.04 11.85 402.04 11.85"/><polygon class="cls-2" points="1538.09 603.39 1538.65 602.85 1537.98 602.36 1537.49 602.84 1538.09 603.39 1538.09 603.39"/><path class="cls-2" d="M1485.17,601.81a1.68,1.68,0,0,0,2.92.76c.55-.78.09-2.12-1.47-2.24-1.09,0-1.57.77-1.45,1.48Z"/><path class="cls-2" d="M1432.79,599.72c.23,2.27,3.4,2.83,4.64,1.27,1.06-1.32.15-3.42-2.09-3.63a2.24,2.24,0,0,0-2.55,2.36Z"/><path class="cls-2" d="M1380.47,596.62c.12,2.78,4.25,4,6.12,1.81,1.36-1.58.72-4.51-2.53-4.87-2.34-.06-3.65,1.52-3.59,3.06Z"/><path class="cls-2" d="M1327.9,592.54c-.05,3.75,5.34,5.46,8.13,2.57,2-2.07,1.39-6-3-6.57-3.46-.15-5,2.25-5.09,4Z"/><path class="cls-2" d="M1275.91,587.49c-.35,4.22,5.39,6.47,9,3.54,2.9-2.34,2.65-7.35-2.7-8.15-4.31-.26-6.16,2.69-6.31,4.61Z"/><path class="cls-2" d="M1223.93,581.46c-.7,5,5.94,7.76,10.45,4.38,4-3,3.25-8.68-2.62-9.68-4.82-.4-7.49,2.86-7.83,5.3Z"/><path class="cls-2" d="M1172.49,574.46c-1.16,5.62,6.22,8.92,11.6,5.18,4.26-3,4.71-9.64-2.36-11-5.44-.54-8.68,3.08-9.24,5.8Z"/><path class="cls-2" d="M1121.43,566.52c-1.61,6,5.7,10,12,6.52s6.11-11-.33-12.72c-.24-.07-.55-.12-.8-.17-6.16-.73-10.09,3.28-10.91,6.37Z"/><path class="cls-2" d="M1071,557.64c-2.2,6.57,5.59,11.08,12.83,7.43s7.5-12,.5-14l-.86-.19c-6.74-.93-11.34,3.41-12.47,6.78Z"/><path class="cls-2" d="M1021.22,547.8c-2.73,6.82,4.57,11.94,12.6,8.83,8.32-3.21,10.29-12.42,3.28-15.39a15.57,15.57,0,0,0-1.8-.54c-7.29-1.16-12.62,3.46-14.08,7.1Z"/><path class="cls-2" d="M972.21,537.06c-3.45,7.36,4.12,13,13,9.8,9.16-3.32,11.93-13.23,4.64-16.56a17.61,17.61,0,0,0-1.9-.63c-7.86-1.41-14,3.47-15.78,7.39Z"/><path class="cls-2" d="M924.11,525.38c-4.19,7.83,3.55,14.11,13.37,10.82,10.11-3.38,13.74-14,6-17.7a14.94,14.94,0,0,0-19.41,6.88Z"/><path class="cls-2" d="M877,512.82c-4.61,7.63,2.19,14.39,12.12,12,11-2.58,16.79-13.61,9.76-18.45a11.37,11.37,0,0,0-2.95-1.33A18.5,18.5,0,0,0,877,512.82Z"/><path class="cls-2" d="M831,499.37c-5.39,7.95,1.35,15.22,12,13,11.68-2.49,18.56-14,11.49-19.22a11.28,11.28,0,0,0-3-1.46c-9-2.23-17.42,3.17-20.48,7.72Z"/><path class="cls-2" d="M786.25,485c-5.84,7.81-.45,15.27,10.14,14,12.87-1.56,22-14.07,14.63-20a10.87,10.87,0,0,0-3-1.58c-9.2-2.52-18.25,2.92-21.75,7.57Z"/><path class="cls-2" d="M742.74,469.84c-6.59,8-1.5,15.84,9.56,14.74,13.4-1.34,23.72-14.16,16.5-20.46a10.17,10.17,0,0,0-3-1.72c-9.36-2.8-19.12,2.67-23,7.44Z"/><path class="cls-2" d="M700.61,453.78c-7.16,8-2.39,16.32,8.82,15.4,13.74-1.12,25.17-14.06,18.26-20.68a10,10,0,0,0-3-1.8c-9.46-3.11-19.81,2.27-24.13,7.08Z"/><path class="cls-2" d="M660.08,436.92c-7.37,7.55-4.1,15.7,6.37,15.87,14,.22,28.18-13.49,21.38-20.67a10.05,10.05,0,0,0-2.86-1.91c-9.34-3.35-20.18,1.92-24.89,6.71Z"/><path class="cls-2" d="M621.06,419.23c-8,7.53-5.24,15.9,5.33,16.3,14.14.53,29.43-13.14,23-20.6a9.18,9.18,0,0,0-2.76-2c-9.19-3.6-20.5,1.53-25.6,6.32Z"/><path class="cls-2" d="M583.72,400.74c-8.5,7.42-6.34,15.94,4.23,16.56,14,.81,30.23-12.6,24.38-20.23a8.29,8.29,0,0,0-2.6-2.07c-9-3.87-20.6,1-26,5.74Z"/><path class="cls-2" d="M548.88,381.83c-8.84,7.14-7.45,15.52,2.7,16.31,14.17,1.09,31.52-13.13,24.75-20.3a9.91,9.91,0,0,0-1.73-1.3c-8.36-3.92-20.08.73-25.72,5.29Z"/><path class="cls-2" d="M516.57,362.61c-8.52,6.4-8.59,14.24-.16,15.83,12.65,2.39,32-10.65,27.52-18.58a6.4,6.4,0,0,0-2.09-2.09c-7.71-3.95-19.42.46-25.27,4.84Z"/><path class="cls-2" d="M486.79,343.12c-8.68,6.07-9.38,13.69-1.44,15.36,12.56,2.66,32.81-10.91,27.44-18.37a7.77,7.77,0,0,0-1.39-1.29c-7.06-4-18.63.11-24.61,4.3Z"/><path class="cls-2" d="M459.53,323.38c-8.74,5.74-10.07,13.08-2.67,14.81,11.65,2.72,32.05-10.06,27.62-17.33a6.45,6.45,0,0,0-1.19-1.26c-5.71-3.54-16.78-.8-23.76,3.78Z"/><path class="cls-2" d="M434.77,303.45c-8.71,5.35-10.58,12.37-3.77,14.16,10.84,2.85,31.17-9.12,27.53-16.2a5.58,5.58,0,0,0-1-1.26c-5.67-3.89-16.7-.42-22.73,3.3Z"/><path class="cls-2" d="M412.52,283.36c-8.62,5-11,11.64-4.76,13.43,10.18,2.92,31.24-9.36,26.83-15.66a6.72,6.72,0,0,0-.51-.57c-4.45-3.4-14.66-1.19-21.56,2.8Z"/><path class="cls-2" d="M392.75,263.19c-8.35,4.54-11.12,10.74-5.56,12.51,9.13,2.9,29.56-8.31,26-14.29-.1-.17-.29-.38-.41-.54-4.24-3.62-14.27-.82-20.05,2.32Z"/><path class="cls-2" d="M375.36,242.86c-8,4.1-11,9.85-6.12,11.6,8.13,2.9,27.83-7.28,25.08-13-.08-.16-.24-.35-.34-.51-3.2-3.1-12.16-1.43-18.62,1.88Z"/><path class="cls-2" d="M360.46,222.55c-7.57,3.65-10.82,8.89-6.55,10.56,7,2.75,25.7-6.33,23.77-11.58a3.2,3.2,0,0,0-.26-.48c-2.6-2.88-10.83-1.47-17,1.5Z"/><path class="cls-2" d="M347.9,202.14c-7.08,3.23-10.44,8-6.8,9.58,6.1,2.67,23.63-5.38,22.34-10.26,0-.13-.14-.31-.2-.45-2.08-2.67-9.59-1.5-15.34,1.13Z"/><path class="cls-2" d="M337.69,181.69c-6.8,2.93-10.23,7.17-7.05,8.73,4.74,2.3,22.58-4.41,21-9.58-1.63-2.49-8.52-1.49-14,.85Z"/><path class="cls-2" d="M329.93,161.35c-6.5,2.65-9.8,6.68-6.45,7.85,4.7,1.61,19.45-4.15,18.62-8.39-1.18-2.25-7.23-1.47-12.17.54Z"/><path class="cls-2" d="M324.48,141c-5.9,2.27-9.17,5.82-6.36,6.91,3.94,1.52,17.32-3.41,17-7.24-.81-2-6.16-1.4-10.65.33Z"/><path class="cls-2" d="M321.41,120.85c-5.14,1.86-8.23,4.87-6,5.83,3.16,1.38,14.87-2.69,15-6-.55-1.93-5.59-1.07-9,.17Z"/><path class="cls-2" d="M320.64,100.72c-4.51,1.56-7.4,4.12-5.63,5,2.53,1.25,12.79-2.11,13.21-5-.27-1.7-4.59-1-7.58,0Z"/><path class="cls-2" d="M322.23,80.81c-3.81,1.23-6.32,3.26-5,4,1.89,1.07,10.4-1.56,11-3.94,0-1.4-3.56-.9-6-.09Z"/><path class="cls-2" d="M326.14,61.12c-3,.92-5.12,2.47-4.19,3.07,1.33.88,8.08-1.1,8.81-3,.08-1-2.33-.81-4.62-.11Z"/><path class="cls-2" d="M332.36,41.62c-2.37.69-4,1.88-3.16,2.29,1.1.52,5.78-.87,6.42-2.14.18-.8-1.79-.57-3.26-.15Z"/><path class="cls-2" d="M340.92,22.4c-1.39.37-2.72,1.14-2.17,1.43s3.65-.5,4.16-1.32c.16-.46-.9-.42-2-.11Z"/><polygon class="cls-2" points="350.51 4.01 351.42 4.12 352.8 3.49 351.87 3.4 350.51 4.01 350.51 4.01"/><polygon class="cls-2" points="1596.79 651.11 1597.28 650.59 1596.65 650.08 1596.07 650.6 1596.79 651.11 1596.79 651.11"/><path class="cls-2" d="M1541.19,650.56a1.88,1.88,0,0,0,3.31.79,1.78,1.78,0,0,0-1.71-2.55,1.51,1.51,0,0,0-1.6,1.76Z"/><path class="cls-2" d="M1486.14,649.41a3,3,0,0,0,5.29,1.34c1-1.4.24-3.89-2.57-4.1a2.45,2.45,0,0,0-2.72,2.76Z"/><path class="cls-2" d="M1431.05,647.18c.3,3.29,5,4.61,7.08,2,1.62-2.06.27-5.34-3.16-5.66-3.12,0-4.06,2.25-3.92,3.69Z"/><path class="cls-2" d="M1375.68,643.92c.18,4.4,6.28,6.23,9.2,2.77,2-2.43,1.14-7-3.79-7.51-4.08-.09-5.48,2.86-5.41,4.74Z"/><path class="cls-2" d="M1320.64,639.61c-.06,5.06,6.48,7.52,10.45,3.93,3.45-3.1,2.07-8.75-3.69-9.51-4.62-.19-6.73,3.14-6.76,5.58Z"/><path class="cls-2" d="M1265.7,634.26c-.37,5.79,7.33,8.86,12.1,4.83,4.21-3.54,2.93-10.16-3.74-11.18-5.46-.32-8.17,3.52-8.36,6.35Z"/><path class="cls-2" d="M1211.05,627.89c-.77,6.61,7.85,10.28,13.57,5.78,5-4,4-11.55-3.61-12.85-6.25-.49-9.58,3.84-10,7.07Z"/><path class="cls-2" d="M1156.7,620.5c-1.29,7.53,8.35,11.89,15.17,6.85,5.84-4.3,5-13.1-3.41-14.72-7-.69-11.12,4.19-11.76,7.87Z"/><path class="cls-2" d="M1102.93,612.11c-1.77,7.89,7.67,13,15.56,8.47s7.25-14.55-1-16.73l-1-.21c-7.85-.92-12.67,4.39-13.59,8.47Z"/><path class="cls-2" d="M1049.83,602.72c-2.42,8.66,7.63,14.5,16.53,9.61s8.71-15.76-.12-18.29c-.33-.09-.78-.18-1.1-.26-8.52-1.16-14.07,4.53-15.31,8.94Z"/><path class="cls-2" d="M997.35,592.34c-3.14,9.36,7.48,15.93,17.46,10.83s10.44-17,.89-19.94c-.35-.11-.83-.2-1.17-.3-9.19-1.44-15.58,4.64-17.18,9.41Z"/><path class="cls-2" d="M945.74,581c-3.75,9.59,6,16.91,16.91,12.63,11.21-4.42,14-17.36,4.58-21.62a19.86,19.86,0,0,0-2.4-.8c-9.83-1.75-17.08,4.67-19.09,9.79Z"/><path class="cls-2" d="M895,568.64c-4.6,10.25,5.47,18.31,17.38,13.92,12.23-4.52,15.92-18.35,6.16-23.13a18.45,18.45,0,0,0-2.52-.91c-10.44-2.09-18.58,4.67-21,10.12Z"/><path class="cls-2" d="M845.36,555.35c-5.44,10.77,4.75,19.52,17.6,15.11,13.17-4.53,17.82-19.09,7.79-24.35a20.52,20.52,0,0,0-2.64-1c-10.88-2.43-19.85,4.54-22.75,10.25Z"/><path class="cls-2" d="M796.78,541.12c-6,10.59,3,20.08,16.05,16.91,15.1-3.67,22.23-20.09,11.37-26.22a17.3,17.3,0,0,0-2.7-1.13c-11.41-2.81-21.33,4.41-24.72,10.44Z"/><path class="cls-2" d="M749.49,525.94c-6.9,11,2,21.22,15.82,18.13,16-3.58,24.41-20.68,13.4-27.32a19.76,19.76,0,0,0-2.77-1.26c-11.76-3.2-22.55,4.18-26.45,10.45Z"/><path class="cls-2" d="M703.64,509.86c-7.76,11.35.83,22.12,15.32,19.2,16.75-3.35,26.43-21,15.45-28.19a19.21,19.21,0,0,0-2.77-1.36c-12-3.58-23.58,3.91-28,10.35Z"/><path class="cls-2" d="M659.19,492.87c-8.73,11.7-.51,23.11,14.68,20.36,17.43-3.16,28.47-21.32,17.62-29a18.52,18.52,0,0,0-2.78-1.48c-12.17-4-24.58,3.52-29.52,10.12Z"/><path class="cls-2" d="M616.4,475c-8.95,11-2.56,22.7,11.78,21.5,18.31-1.54,32.66-21.24,21.63-29.69a19,19,0,0,0-2.73-1.58c-12.18-4.36-25.27,3.08-30.68,9.77Z"/><path class="cls-2" d="M575.34,456.28c-9.71,11.12-4,23.17,10.58,22.25,18.56-1.18,34.27-21,23.67-29.91a15.86,15.86,0,0,0-2.66-1.67c-12-4.73-25.72,2.62-31.59,9.33Z"/><path class="cls-2" d="M536.33,436.82c-10.26,10.89-5.3,23.08,9.14,22.47,18.38-.78,35-20.27,25.15-29.38a16.16,16.16,0,0,0-2.53-1.73c-11.6-5-25.56,2-31.76,8.64Z"/><path class="cls-2" d="M499.74,416.85C489,427.5,492.9,439.65,507,439.28c17.93-.48,35.6-19.58,26.64-28.79a14.48,14.48,0,0,0-2.33-1.75c-10.9-5.12-25,1.66-31.52,8.11Z"/><path class="cls-2" d="M466,396.63c-10.52,9.73-8.76,21,3.42,21.94,17.05,1.28,37.64-18.1,29.39-27.67a13.5,13.5,0,0,0-2.09-1.74c-10.05-5.17-24,1.26-30.72,7.47Z"/><path class="cls-2" d="M435.09,376.2c-10.58,9.18-9.75,20,1.62,21.1,15.88,1.5,36.7-16.85,29.71-26.18a11.23,11.23,0,0,0-1.82-1.69c-9.08-5.12-22.73.87-29.51,6.77Z"/><path class="cls-2" d="M406.73,355.49c-10.63,8.7-10.69,19.14-.1,20.31,15.67,1.73,37.18-17.18,29.15-25.61-.25-.26-.63-.55-.9-.79-8.12-5-21.35.52-28.15,6.09Z"/><path class="cls-2" d="M381,334.61c-10.53,8.13-11.38,18.05-1.67,19.3,14.41,1.87,35.86-15.84,29.06-24-.21-.25-.54-.53-.77-.75-7.15-4.92-19.87.23-26.62,5.44Z"/><path class="cls-2" d="M357.87,313.55c-10.29,7.52-11.83,16.86-3,18.19,13.07,1.95,34.16-14.44,28.55-22.21-.17-.23-.45-.5-.65-.73-6.18-4.75-18.29-.08-24.9,4.75Z"/><path class="cls-2" d="M337.25,292.35c-9.78,6.78-12,15.68-4.16,17,11.78,2,32.35-13.09,27.86-20.48-.14-.22-.38-.48-.54-.68-4.75-4.08-15.72-1-23.16,4.13Z"/><path class="cls-2" d="M319.24,271.1c-9.5,6.25-12.13,14.32-5.11,15.7,9.71,1.91,31.22-11.74,26.29-19.26-4.34-4.23-15.21-.38-21.18,3.56Z"/><path class="cls-2" d="M303.63,249.67c-9.1,5.71-12.12,13.2-5.89,14.59,8.61,1.93,29.22-10.52,25.38-17.6-3.26-3.64-12.65-1.27-19.49,3Z"/><path class="cls-2" d="M290.57,228.26c-8.53,5.09-11.85,11.93-6.45,13.3,7.5,1.89,26.87-9.23,24.05-15.82-2.58-3.39-11.16-1.32-17.6,2.52Z"/><path class="cls-2" d="M280,206.86c-8,4.54-11.48,10.7-6.84,12,6.44,1.81,24.46-8.1,22.55-14.1-2-3.11-9.7-1.33-15.71,2.09Z"/><path class="cls-2" d="M272,185.52c-7.24,3.93-10.79,9.39-6.92,10.61,5.39,1.71,21.76-6.88,20.64-12.26-1.61-3.13-9-.92-13.72,1.65Z"/><path class="cls-2" d="M266.33,164.18c-6.57,3.42-10.12,8.26-6.92,9.41,4.5,1.62,19.38-5.84,18.9-10.73-1.1-2.82-7.66-.93-12,1.32Z"/><path class="cls-2" d="M263.14,142.87c-6,3-9.54,7.3-6.89,8.4,3.71,1.54,17.31-5,17.37-9.42-.6-2.3-5.91-1.26-10.48,1Z"/><path class="cls-2" d="M262.43,121.84c-5.18,2.47-8.51,6.11-6.45,7.08,2.9,1.35,14.67-4,15.15-7.84-.31-2.19-5.26-.87-8.7.76Z"/><path class="cls-2" d="M264.15,100.9c-4.77,2.18-7.83,5.41-5.73,6.06,2.7.83,12.19-3.62,12.92-6.62,0-1.87-4.21-.8-7.19.56Z"/><path class="cls-2" d="M268.33,80.2c-3.94,1.73-6.58,4.27-5,4.84,2,.75,9.8-2.76,10.7-5.24.14-1.36-2.82-.85-5.67.4Z"/><path class="cls-2" d="M274.94,59.7c-3.15,1.31-5.45,3.34-4.32,3.8,1.43.58,7.72-2.13,8.64-4,.3-1.22-2.35-.6-4.32.24Z"/><path class="cls-2" d="M284,39.45c-2.34,1-4.19,2.47-3.47,2.84.93.47,5.69-1.5,6.57-3,.35-.92-1.64-.47-3.1.12Z"/><path class="cls-2" d="M295.37,19.62c-1.54.59-2.76,1.49-2.36,1.73.55.29,3.55-.89,4.23-1.81.26-.53-.83-.28-1.44-.08-.13.05-.3.1-.43.16Z"/><polygon class="cls-2" points="308 0.75 308.75 0.76 310.09 0.02 309.35 0 308 0.75 308 0.75"/><polygon class="cls-2" points="1603.24 702.74 1604.23 701.78 1603.02 700.76 1602.04 701.79 1603.24 702.74 1603.24 702.74"/><path class="cls-2" d="M1544.58,701.8a2.5,2.5,0,0,0,4.38,1c.89-1.28-.11-3.31-2.18-3.44a2.09,2.09,0,0,0-2.2,2.41Z"/><path class="cls-2" d="M1487.13,700.57c.38,3,4.55,4.07,6.29,1.65,1.25-1.74.27-4.85-3-5.1a3.09,3.09,0,0,0-3.29,3.45Z"/><path class="cls-2" d="M1429.29,698.25c.34,4.09,6,5.69,8.55,2.41,2-2.55.39-6.62-3.72-7-3.61,0-5,2.69-4.83,4.62Z"/><path class="cls-2" d="M1371.51,694.83c.19,4.91,6.74,7.25,10.31,3.66,3.09-3.08,1.44-8.76-4-9.39-4.51-.1-6.41,3.29-6.31,5.73Z"/><path class="cls-2" d="M1313.9,690.31c0,5.9,7.55,8.76,12.09,4.58,3.87-3.57,2.21-10.32-4.29-11.2-5.36-.21-7.79,3.74-7.8,6.62Z"/><path class="cls-2" d="M1256.4,684.72c-.35,6.85,8.52,10.45,14,5.67,4.79-4.2,3.25-12-4.43-13.2-6.65-.4-9.38,4.41-9.54,7.53Z"/><path class="cls-2" d="M1199.11,678c-.75,7.8,9.29,12.11,15.81,6.79,5.63-4.61,4.2-13.74-4.43-15.24-7.23-.56-11,4.6-11.38,8.45Z"/><path class="cls-2" d="M1142.5,670.32c-1.26,8.71,9.66,13.72,17.18,7.87,6-4.66,6.17-15-4.19-17-8-.77-12.39,4.9-13,9.17Z"/><path class="cls-2" d="M1086.14,661.51c-1.84,9.77,10.09,15.58,18.79,9.16,7.58-5.6,6.89-16.82-3.75-19.09-8.88-1-14.14,5.18-15,9.93Z"/><path class="cls-2" d="M1030.66,651.69c-2.37,10,9.11,16.74,18.9,11.06s9.21-18.38-.87-21.3c-.36-.1-.86-.19-1.25-.28a14.89,14.89,0,0,0-16.78,10.52Z"/><path class="cls-2" d="M975.83,640.82c-3,10.81,9,18.31,19.86,12.36s10.82-19.7.12-23c-.4-.13-.93-.24-1.33-.34a16.57,16.57,0,0,0-18.65,11Z"/><path class="cls-2" d="M921.75,628.94c-3.89,11.76,8.79,20.17,20.86,13.84,11.89-6.22,12.68-21.21,1.33-25.06-.42-.14-1-.28-1.42-.4a18.55,18.55,0,0,0-20.77,11.62Z"/><path class="cls-2" d="M868.72,616c-4.74,12.53,8.33,21.79,21.51,15.24,12.94-6.42,14.53-22.44,2.65-26.78-.44-.15-1-.3-1.48-.43a20.31,20.31,0,0,0-22.68,12Z"/><path class="cls-2" d="M816.65,602.08c-5.39,12.65,6.52,22.77,20.55,17.49,15.35-5.79,19-24.14,5.76-29.3-.46-.19-1.1-.36-1.57-.52-12.28-2.72-21.86,5.57-24.74,12.33Z"/><path class="cls-2" d="M765.68,587.12c-6.39,13.46,5.78,24.56,21,19.17,16.54-5.88,21.31-25.42,7.62-31.21-.48-.21-1.14-.41-1.63-.59-13-3.18-23.59,5.47-27,12.63Z"/><path class="cls-2" d="M716.22,571.23c-7.24,13.81,5.1,26,20.95,20.67,17.57-5.88,23.55-26.42,9.56-32.81-.49-.22-1.18-.45-1.68-.65-13.37-3.61-24.91,5.29-28.83,12.79Z"/><path class="cls-2" d="M667.9,554.28c-7.93,13.83,2.68,26.73,18.92,23,18.76-4.32,28.37-25.8,15.34-34.29a22.06,22.06,0,0,0-3.27-1.61c-13.89-4.13-26.48,5.08-31,12.93Z"/><path class="cls-2" d="M621.25,536.4c-9,14.45,1.37,28.22,18.49,24.57,19.65-4.19,30.75-26.53,17.73-35.69a23.58,23.58,0,0,0-3.3-1.74c-14.27-4.67-27.84,4.72-32.92,12.86Z"/><path class="cls-2" d="M576.23,517.59c-10.09,14.94-.12,29.6,17.77,26.15,20.54-4,33.21-27.14,20.25-37a24.16,24.16,0,0,0-3.32-1.9c-14.47-5.18-29,4.35-34.7,12.78Z"/><path class="cls-2" d="M532.87,497.8c-11.23,15.42-1.71,31,17,27.78,22.24-3.82,36.35-30,21.28-39.4-.52-.32-1.24-.67-1.77-.95-14.66-5.75-30.17,3.88-36.48,12.57Z"/><path class="cls-2" d="M491.77,477.23c-11.9,15.25-3,31.67,15.57,28.82,22.53-3.47,38.17-29.91,23.58-39.86-.5-.33-1.2-.7-1.73-1-14.44-6.22-30.58,3.31-37.42,12.05Z"/><path class="cls-2" d="M454,456.43c-11.7,14-5.89,29.55,10.73,28.69,21.21-1.09,40.26-26.19,28.7-37.8a17.21,17.21,0,0,0-2.93-2.19c-13.39-6.3-29.41,2.82-36.5,11.3Z"/><path class="cls-2" d="M419.37,435.48C407.6,448.68,412,463.6,427.45,463c20.73-.8,40.34-26.66,28-36.9-.39-.32-1-.69-1.4-1-12-6.19-27.5,2.33-34.65,10.36Z"/><path class="cls-2" d="M387.45,414.23c-11.65,12.34-8.57,26.53,5.68,26.18,19.13-.46,38.87-24.69,28.18-34.56-.35-.31-.86-.67-1.23-1-10.7-6.06-25.52,1.83-32.63,9.34Z"/><path class="cls-2" d="M358.3,392.76c-11.47,11.48-9.64,24.84,3.39,24.65,17.38-.26,37-22.78,28-32.15-.29-.29-.74-.64-1.05-.91-9.36-5.82-23.41,1.42-30.38,8.41Z"/><path class="cls-2" d="M331.64,371c-11.18,10.63-10.4,23.24,1.44,23.26,15.92,0,35.41-20.95,27.79-29.93-.24-.28-.63-.62-.89-.88-7.31-5-20.4,0-28.34,7.55Z"/><path class="cls-2" d="M307.65,349.08c-10.89,9.83-11.06,21.67-.32,21.83,14,.22,34.9-19.32,26.62-28.58-7-5.39-19.59.69-26.3,6.75Z"/><path class="cls-2" d="M286.33,327C275.92,336,275,347,284.54,347.28c12.51.42,32.65-17.46,25.82-26.21-5.29-4.57-16.6-.47-24,5.94Z"/><path class="cls-2" d="M267.53,304.76c-10,8.2-11.65,18.44-3.09,18.86,11.23.58,30.64-15.84,25.13-24.11-4.93-4.83-15.86.16-22,5.25Z"/><path class="cls-2" d="M251.39,282.48c-9.4,7.4-11.63,16.78-4.11,17.31,9.88.69,28.26-14.14,24-21.84-4-4.53-14.05-.07-19.9,4.53Z"/><path class="cls-2" d="M237.79,260.09c-8.89,6.71-11.59,15.34-5,15.93,8.43.74,26-12.94,23-19.88-2.87-3.79-11.57-.9-18,3.95Z"/><path class="cls-2" d="M226.83,237.74c-8.29,6-11.34,13.83-5.64,14.41,7.49.76,23.79-11.31,21.66-17.83-2.21-3.46-10-.93-16,3.42Z"/><path class="cls-2" d="M218.46,215.46c-7.6,5.3-10.89,12.27-6.05,12.87,6.36.77,21.34-9.87,20.06-15.76-1.75-3.48-9.4-.32-14,2.89Z"/><path class="cls-2" d="M212.59,193.15c-7,4.68-10.38,10.94-6.32,11.55,5.24.77,19.19-8.82,18.61-14-1.08-2.86-7.22-1-12.29,2.46Z"/><path class="cls-2" d="M209.32,171c-6.3,4.09-9.65,9.45-6.3,10.07,4.28.79,16.77-7.48,16.76-12.11-.7-2.79-6.65-.43-10.46,2Z"/><path class="cls-2" d="M208.59,148.92c-5.64,3.53-8.94,8.22-6.21,8.81,3.48.73,14.66-6.4,15.1-10.46-.29-2.49-5.48-.49-8.89,1.65Z"/><path class="cls-2" d="M210.42,127.08c-4.8,2.9-7.91,6.85-5.81,7.4,2.67.7,12.27-5.23,13.06-8.71,0-1.91-3.75-.81-7.25,1.31Z"/><path class="cls-2" d="M214.8,105.4c-4.1,2.41-7,5.7-5.38,6.17,2,.61,10.25-4.3,11.25-7.22.23-1.77-3.37-.42-5.87,1.05Z"/><path class="cls-2" d="M221.71,84c-3.36,1.91-5.87,4.51-4.72,4.9,1.5.48,8.07-3.3,9.15-5.67.39-1.43-2.36-.42-4.43.77Z"/><path class="cls-2" d="M231.15,62.88c-2.61,1.45-4.73,3.45-4,3.77,1,.39,6.28-2.58,7.33-4.38.41-1-1.52-.27-1.91-.1a14.92,14.92,0,0,0-1.45.71Z"/><path class="cls-2" d="M243.12,42.09c-1.93,1-3.48,2.44-2.84,2.58s4.15-1.77,5-3c.07-.12.28-.53-.59-.29a7.61,7.61,0,0,0-1.58.68Z"/><path class="cls-2" d="M257.62,21.63c-1.05.54-2.2,1.45-1.84,1.53a7.15,7.15,0,0,0,3.06-1.74c.06-.08.21-.29-.17-.23a3.89,3.89,0,0,0-1.05.44Z"/><polygon class="cls-2" points="274.11 1.96 274.32 1.95 274.92 1.55 274.62 1.62 274.11 1.96 274.11 1.96"/><polygon class="cls-2" points="1608.52 757.42 1609.56 756.32 1608.33 755.23 1607.28 756.34 1608.52 757.42 1608.52 757.42"/><path class="cls-2" d="M1547.74,756.34c.29,1.88,3,2.86,4.19,1a2.3,2.3,0,0,0-2-3.43,2.11,2.11,0,0,0-2.15,2.39Z"/><path class="cls-2" d="M1488,755.08a3.52,3.52,0,0,0,6,2,3.41,3.41,0,0,0-2.72-5.48,3.18,3.18,0,0,0-3.3,3.51Z"/><path class="cls-2" d="M1427.89,752.67a4.85,4.85,0,0,0,8.28,2.86c2.39-2.61,1-7.1-3.4-7.54-3.39,0-5,2.4-4.88,4.68Z"/><path class="cls-2" d="M1368,749.12c.16,5.07,6.52,7.41,10.15,3.72,2.85-2.88,1.95-8.73-4-9.42-4.66-.1-6.28,3.44-6.2,5.7Z"/><path class="cls-2" d="M1308.14,744.44c0,6,7.48,8.95,12,4.65,3.89-3.71,2.26-10.44-4.3-11.32-5.28-.21-7.67,3.77-7.67,6.67Z"/><path class="cls-2" d="M1248.37,738.63c-.29,7.06,8.58,10.74,14,5.78,4.72-4.34,3.11-12.34-4.53-13.52-6.26-.36-9.28,4.31-9.43,7.74Z"/><path class="cls-2" d="M1188.84,731.69c-.65,8.09,9.46,12.51,15.91,7,5.68-4.89,4.17-14.16-4.64-15.69-7.25-.56-10.95,4.77-11.27,8.73Z"/><path class="cls-2" d="M1129.9,723.67c-1.09,9.08,10,14.25,17.48,8.12,6.51-5.35,5.23-15.76-4.53-17.65-8-.76-12.42,5.12-12.95,9.53Z"/><path class="cls-2" d="M1071.6,714.56c-1.6,10,10.39,15.89,18.87,9.32,7.45-5.76,6.48-17.26-4.2-19.57-8.83-1-13.89,5.39-14.67,10.25Z"/><path class="cls-2" d="M1013.67,704.33c-2.09,10.48,9.72,17.44,19.42,11.47s8.78-19.24-1.48-22.22c-.37-.11-.87-.21-1.26-.3a14.67,14.67,0,0,0-16.68,11.05Z"/><path class="cls-2" d="M956.77,693.07c-2.69,11.31,9.7,19.09,20.41,12.81s10.28-20.69-.66-24.12c-.4-.13-.94-.25-1.35-.36a16.2,16.2,0,0,0-18.4,11.67Z"/><path class="cls-2" d="M900.49,680.69c-3.43,12.38,9.7,21.13,21.62,14.39,11.54-6.51,12.79-22.7-1.1-26.61a18,18,0,0,0-20.52,12.22Z"/><path class="cls-2" d="M845.46,667.29c-4.2,13.15,9.37,22.79,22.34,15.85,12.58-6.72,14.6-24-.07-28.54a19.53,19.53,0,0,0-22.27,12.69Z"/><path class="cls-2" d="M791.42,652.84c-5,14,8.93,24.56,23,17.39,13.6-6.92,16.47-25.37,1.16-30.47-12.42-2.73-21.6,6-24.14,13.08Z"/><path class="cls-2" d="M738.7,637.36c-5.61,13.94,6.94,25.34,21.63,19.65,16.1-6.24,19.83-26.54,6-32.43-.48-.2-1.14-.42-1.64-.59-12.94-3.17-23,5.92-25.95,13.37Z"/><path class="cls-2" d="M687.2,620.82c-6.49,14.73,6.17,27,21.83,21.28,17.09-6.29,21.87-27.71,7.65-34.21-.49-.23-1.18-.46-1.69-.67-13.43-3.6-24.34,5.79-27.79,13.6Z"/><path class="cls-2" d="M637.29,603.31c-7.38,15.34,5.15,28.55,21.65,22.79,17.93-6.25,23.83-28.62,9.42-35.7-.5-.25-1.2-.51-1.72-.72-13.74-4.08-25.43,5.52-29.35,13.63Z"/><path class="cls-2" d="M588.94,584.79c-8.17,15.62,4.36,29.93,21.3,24.3,18.67-6.2,25.77-29.42,11.34-37.08-.5-.27-1.21-.56-1.73-.8-14-4.57-26.52,5.19-30.91,13.58Z"/><path class="cls-2" d="M542.29,565.3c-9.11,16.1,3.08,31.28,20.71,25.79,19.47-6,27.81-30.1,13.34-38.43-.51-.29-1.23-.61-1.75-.87-14.13-5-27.39,4.86-32.3,13.51Z"/><path class="cls-2" d="M497.62,544.91c-9.46,15.54.38,31,17.55,27.47,20.63-4.17,32.2-30.56,17.43-39.78-.49-.31-1.2-.66-1.72-.93-14-5.49-27.9,4.43-33.26,13.24Z"/><path class="cls-2" d="M455.07,523.64c-10.15,15.59-1.1,31.42,16.12,28.24,20.63-3.81,33.35-30.28,19.19-39.88-.47-.33-1.16-.69-1.66-1-13.71-5.9-27.93,3.83-33.65,12.62Z"/><path class="cls-2" d="M415.68,502c-10.48,15.07-2.78,30.72,13.73,27.9,19.9-3.39,33.53-29.22,20.55-38.92-.44-.31-1.08-.67-1.52-1-12.69-6-26.8,3.42-32.76,12Z"/><path class="cls-2" d="M379.25,480.11c-10.76,14.55-4.45,29.88,11.26,27.36,18.93-3.06,33.28-28,21.63-37.61-.4-.33-1-.68-1.38-1-11.58-6-25.39,3-31.51,11.23Z"/><path class="cls-2" d="M345.85,458c-10.79,13.79-5.83,28.55,8.84,26.33,17-2.57,33.78-26.76,21-36.71-10.39-5.89-23.74,2.53-29.88,10.38Z"/><path class="cls-2" d="M315.26,435.54c-10.71,13-7,27,6.53,25.14,15.76-2.23,32.58-25,21.5-34.65-9.17-5.73-21.92,2.11-28,9.51Z"/><path class="cls-2" d="M287.46,412.91c-10,11.54-8.52,24.33,2.82,24,14.56-.4,33.39-22.91,23.34-32.74-8-5.53-20.13,1.79-26.16,8.73Z"/><path class="cls-2" d="M262.44,390.08c-9.73,10.7-9.17,22.73,1.07,22.58,13.15-.19,31.54-21.07,23.11-30.43-6.91-5.31-18.3,1.39-24.18,7.85Z"/><path class="cls-2" d="M240.07,367c-9.47,10-9.73,21.34-.48,21.33,11.91,0,29.89-19.49,22.86-28.45-5.9-5.1-16.64,1.09-22.38,7.12Z"/><path class="cls-2" d="M220.58,344c-9,9.08-10,19.56-1.82,19.67,10.49.15,27.62-17.62,22-26-4.87-4.78-14.74.81-20.2,6.31Z"/><path class="cls-2" d="M203.74,320.77c-8.57,8.29-10.15,18-3,18.18,9.24.24,25.62-16,21.25-23.8-4-4.5-13.06.58-18.27,5.62Z"/><path class="cls-2" d="M189.57,297.49c-8.08,7.54-10.16,16.45-3.92,16.71,8.09.36,23.59-14.43,20.34-21.68-3.15-4.2-11.49.39-16.42,5Z"/><path class="cls-2" d="M178.09,274.21c-7.53,6.79-10,14.92-4.65,15.27,7,.46,21.56-12.92,19.26-19.65-2.4-3.89-10,.23-14.61,4.38Z"/><path class="cls-2" d="M169.34,251c-7,6-9.73,13.35-5.18,13.68,5.86.45,19.26-11.43,17.88-17.43-1.73-3.54-8.47.06-12.7,3.75Z"/><path class="cls-2" d="M163.22,227.85c-6.34,5.35-9.29,11.88-5.52,12.26,4.93.51,17.25-10.05,16.58-15.54-1.17-3.17-7.17,0-11.06,3.28Z"/><path class="cls-2" d="M159.81,204.81c-5.67,4.62-8.64,10.31-5.58,10.67,4,.48,15-8.67,15-13.49-.67-2.76-6,0-9.37,2.82Z"/><path class="cls-2" d="M159,181.85c-5,4-8,9-5.56,9.33,3.19.48,13-7.43,13.45-11.68-.27-2.45-4.87-.05-7.89,2.35Z"/><path class="cls-2" d="M160.89,159.09c-4.39,3.39-7.24,7.65-5.36,8,2.47.45,11.09-6.28,11.86-9.94,0-2.13-3.86-.1-6.5,2Z"/><path class="cls-2" d="M165.42,136.59c-3.61,2.73-6.21,6.18-4.88,6.51,1.74.42,9-5.11,10-8.07.22-1.57-2.45-.42-5.07,1.56Z"/><path class="cls-2" d="M172.57,114.33c-3,2.16-5.27,5-4.33,5.22,1.21.34,7.16-4.07,8.21-6.45.36-1.28-1.63-.21-2.25.14s-1.1.7-1.63,1.09Z"/><path class="cls-2" d="M182.35,92.39c-2.25,1.62-4.13,3.67-3.53,3.87s5.14-2.82,6.23-4.76c.07-.18.3-.74-.77-.27a10.7,10.7,0,0,0-1.93,1.16Z"/><path class="cls-2" d="M194.77,70.77c-1.41,1-2.87,2.38-2.52,2.53s3.35-1.92,4.14-3.09c.07-.11.22-.38-.16-.27a6,6,0,0,0-1.46.83Z"/><polygon class="cls-2" points="208.34 50.73 209.11 50.46 210.61 49.22 209.93 49.41 208.34 50.73 208.34 50.73"/><polygon class="cls-2" points="227.12 28.9 227.27 28.85 227.59 28.58 227.5 28.59 227.12 28.9 227.12 28.9"/><polygon class="cls-2" points="1612.67 814.42 1612.84 814.23 1612.64 814.05 1612.47 814.24 1612.67 814.42 1612.67 814.42"/><polygon class="cls-2" points="1552.26 815.38 1553.57 814.06 1552.17 812.71 1550.85 814.02 1552.26 815.38 1552.26 815.38"/><path class="cls-2" d="M1489.08,812.88a2.51,2.51,0,1,0,2.46-2.67,2.44,2.44,0,0,0-2.46,2.67Z"/><path class="cls-2" d="M1427.07,810.39a3.74,3.74,0,0,0,6.47,2.26,3.65,3.65,0,0,0-2.61-6.07,3.59,3.59,0,0,0-3.86,3.81Z"/><path class="cls-2" d="M1365,806.75a5.11,5.11,0,0,0,8.76,3.22c2.7-2.75,1.3-7.78-3.4-8.33a5,5,0,0,0-5.36,5.11Z"/><path class="cls-2" d="M1303.19,801.93c0,5.27,6.5,7.82,10.38,4.08,3.34-3.24,1.89-9.31-3.75-10.07a6.11,6.11,0,0,0-6.63,6Z"/><path class="cls-2" d="M1241.46,795.94c-.19,6.23,7.6,9.47,12.27,5.09a7,7,0,0,0-4-12.08,7.44,7.44,0,0,0-8.25,7Z"/><path class="cls-2" d="M1180,788.81c-.5,7.37,8.55,11.38,14.23,6.31,5-4.47,3.59-13-4.3-14.33a8.88,8.88,0,0,0-9.93,8Z"/><path class="cls-2" d="M1119.18,780.54c-.82,8.22,9.16,12.89,15.7,7.35,5.77-4.9,4.45-14.38-4.34-16.09a10.07,10.07,0,0,0-11.36,8.74Z"/><path class="cls-2" d="M1058.86,771.14c-1.25,9.23,9.67,14.66,17.18,8.54,6.59-5.35,5.5-16-4.16-18.1a11.35,11.35,0,0,0-13,9.56Z"/><path class="cls-2" d="M999.11,760.61c-1.61,9.7,9.16,16.09,17.73,10.52,8.41-5.47,8.09-18.22-3-20.84a12.88,12.88,0,0,0-14.73,10.32Z"/><path class="cls-2" d="M940.32,749c-2.08,10.44,9.3,17.57,18.74,11.75s9.42-19.54-2.5-22.62A14.15,14.15,0,0,0,940.32,749Z"/><path class="cls-2" d="M882.34,736.28c-2.67,11.38,9.34,19.4,19.79,13.2,10.27-6.08,10.92-21.14-1.79-24.72a15.46,15.46,0,0,0-18,11.52Z"/><path class="cls-2" d="M825.47,722.47c-3.25,12.1,9.23,20.92,20.55,14.54,10.89-6.16,12.12-22.54-1-26.58-10.67-2.09-17.85,5.77-19.54,12Z"/><path class="cls-2" d="M769.73,707.58c-3.89,12.84,8.93,22.5,21.11,15.9,11.7-6.34,13.6-23.74-.06-28.3-11.18-2.45-19,5.78-21,12.4Z"/><path class="cls-2" d="M715.4,691.66c-4.56,13.52,8.42,24,21.38,17.18,12.61-6.6,15.25-24.59,1-29.75-11.58-2.79-20,5.66-22.38,12.57Z"/><path class="cls-2" d="M662.41,674.68c-5.23,14.09,7.8,25.29,21.44,18.45,13.28-6.68,16.69-25.46,2.18-31.13-11.86-3.19-20.95,5.5-23.62,12.68Z"/><path class="cls-2" d="M610.89,656.67c-5.63,13.88,5.84,25.74,19.78,20.45,15.37-5.83,19.48-26.21,6.57-32.56-.44-.22-1.08-.46-1.53-.65-12.1-3.58-21.79,5.3-24.82,12.76Z"/><path class="cls-2" d="M561.1,637.66c-6.29,14.29,4.91,26.79,19.34,21.57,15.81-5.73,20.84-26.77,8-33.59-.45-.24-1.06-.49-1.53-.7-12.2-4-22.46,5-25.84,12.72Z"/><path class="cls-2" d="M513.15,617.68c-6.91,14.56,3.87,27.64,18.6,22.55,15.52-5.35,22.91-27.54,7.86-35-12.13-4.31-22.77,4.69-26.46,12.47Z"/><path class="cls-2" d="M467.12,596.73c-7.49,14.68,2.7,28.21,17.58,23.34,15.67-5.14,23.93-27.56,9.25-35.48-11.87-4.63-22.83,4.32-26.83,12.14Z"/><path class="cls-2" d="M423.09,574.86c-8,14.64,1.51,28.51,16.38,23.91,15.67-4.82,24.76-27.26,10.61-35.57-11.54-5-22.73,3.83-27,11.66Z"/><path class="cls-2" d="M382,552.5c-8.33,14.32,0,28.13,14.39,23.82,15.18-4.55,24.95-26.56,11.87-35-10.72-5-21.81,3.51-26.26,11.16Z"/><path class="cls-2" d="M344,529.79c-8.05,13-2.06,26.5,10.7,24,15-2.91,27.3-25.87,14.77-34.73-9.88-5.06-20.83,3.21-25.47,10.71Z"/><path class="cls-2" d="M308.92,506.75c-8.17,12.53-3.26,25.67,8.77,23.43,14.11-2.62,26.83-24.74,15.65-33.48-9-5.09-19.69,2.82-24.42,10.05Z"/><path class="cls-2" d="M276.85,483.45c-8.28,12.06-4.45,24.85,6.84,22.83C296.94,503.9,310,482.62,300,474c-8.06-5-18.41,2.49-23.18,9.44Z"/><path class="cls-2" d="M247.85,460c-8.2,11.36-5.44,23.57,4.93,21.78,12.18-2.11,25.19-22.21,16.65-30.5-7-4.87-16.85,2.18-21.58,8.72Z"/><path class="cls-2" d="M221.66,436.26c-8,10.64-6.19,22.24,3.26,20.69,11.14-1.83,24.08-20.7,16.84-28.7-6.14-4.72-15.45,1.84-20.1,8Z"/><path class="cls-2" d="M198.34,412.4c-7.83,10-6.88,20.94,1.69,19.59,10.14-1.59,22.86-19.27,16.82-26.92-5.23-4.53-14,1.56-18.51,7.33Z"/><path class="cls-2" d="M177.9,388.42c-7.5,9.17-7.32,19.45.32,18.32,9.07-1.34,21.43-17.7,16.51-25-4.34-4.28-12.45,1.31-16.83,6.65Z"/><path class="cls-2" d="M160.3,364.37c-6.84,8.07-7.77,17.17-1.73,17.1,7.86-.09,21-15.93,16.94-23.09-3.53-4-11,1.08-15.21,6Z"/><path class="cls-2" d="M145.49,340.24c-6.48,7.37-7.9,15.78-2.65,15.79,6.84,0,19.34-14.5,16.29-21.17-2.8-3.79-9.66.87-13.64,5.38Z"/><path class="cls-2" d="M133.56,316.18c-6,6.61-7.81,14.18-3.38,14.24,5.81.05,17.41-13,15.3-19-2.1-3.44-8.24.72-11.92,4.77Z"/><path class="cls-2" d="M124.33,292.05c-5.6,6-7.69,12.88-3.92,13,4.91.11,15.75-11.63,14.41-17.17-1.53-3.19-7.06.54-10.49,4.2Z"/><path class="cls-2" d="M117.91,268.05c-5,5.24-7.31,11.36-4.24,11.48,4,.17,13.85-10.17,13.22-15.13-1-2.84-5.86.43-9,3.65Z"/><path class="cls-2" d="M114.28,244.18c-4.49,4.53-6.83,9.86-4.39,10,3.22.19,12-8.79,11.9-13.16-.57-2.47-4.74.36-7.51,3.15Z"/><path class="cls-2" d="M113.39,220.43c-3.91,3.86-6.23,8.42-4.35,8.59,2.5.2,10.18-7.44,10.51-11.22-.2-2.15-3.73.24-6.16,2.63Z"/><path class="cls-2" d="M115.26,196.8c-3.43,3.29-5.69,7.21-4.26,7.38,1.85.2,8.67-6.44,9.3-9.59.06-1.87-2.93.17-5,2.21Z"/><path class="cls-2" d="M119.87,173.53c-2.77,2.59-4.73,5.63-3.77,5.8,1.27.21,6.73-5,7.52-7.54.19-1.16-1.25-.26-1.89.18a14.64,14.64,0,0,0-1.86,1.56Z"/><path class="cls-2" d="M127.21,150.47c-2.15,2-3.84,4.33-3.2,4.43.86.14,5.06-3.78,5.91-5.73.06-.2.22-.75-.62-.31a13,13,0,0,0-2.09,1.61Z"/><path class="cls-2" d="M137.29,127.71c-1.53,1.38-2.87,3-2.5,3.13s3.45-2.53,4.28-4c.06-.16.19-.46-.21-.28a7.86,7.86,0,0,0-1.57,1.2Z"/><path class="cls-2" d="M150.08,105.28c-1,.9-1.87,1.91-1.61,1.89a10.42,10.42,0,0,0,2.66-2.5s.08-.09.07-.16c-.17-.07-1,.69-1.12.77Z"/><polygon class="cls-2" points="165.13 83.74 165.32 83.63 165.82 83.14 165.6 83.27 165.13 83.74 165.13 83.74"/><polygon class="cls-2" points="1491.08 874.52 1492.02 873.7 1491.1 872.74 1490.24 873.65 1491.08 874.52 1491.08 874.52"/><path class="cls-2" d="M1426.57,871.21a1.94,1.94,0,1,0,2-2.06,2,2,0,0,0-2,2.06Z"/><path class="cls-2" d="M1362.76,867.49a3.13,3.13,0,0,0,5.4,2,3.13,3.13,0,1,0-5.4-2Z"/><path class="cls-2" d="M1299.14,862.56a4.18,4.18,0,1,0,4.56-4.25,4.25,4.25,0,0,0-4.56,4.25Z"/><path class="cls-2" d="M1235.55,856.42c-.1,4.69,5.71,7.12,9.14,3.84a5.33,5.33,0,0,0-3-9.17,5.58,5.58,0,0,0-6.13,5.33Z"/><path class="cls-2" d="M1172.38,849.13a6.55,6.55,0,1,0,7.56-6.4,6.87,6.87,0,0,0-7.56,6.4Z"/><path class="cls-2" d="M1110,840.67c-.53,6.6,7.12,10.21,12.21,5.75a7.3,7.3,0,0,0-3.51-12.8,7.78,7.78,0,0,0-8.7,7Z"/><path class="cls-2" d="M1047.88,831.05c-.81,7.43,7.88,11.77,13.68,6.84,5-4.27,4-13-3.5-14.67a9,9,0,0,0-10.18,7.83Z"/><path class="cls-2" d="M986.5,820.26c-1.13,8.24,8.44,13.31,15.07,8,5.79-4.66,4.91-14.5-3.48-16.49a10.12,10.12,0,0,0-11.59,8.53Z"/><path class="cls-2" d="M926,808.36c-1.54,9.16,8.79,15,16.25,9.11,6-4.69,6.63-15.75-3.33-18.34A11.28,11.28,0,0,0,926,808.36Z"/><path class="cls-2" d="M866.54,795.34c-1.86,9.39,8,16,16.21,10.84,8-5,8.15-17.72-2-20.61-8.21-1.42-13.27,4.85-14.23,9.77Z"/><path class="cls-2" d="M808.1,781.2c-2.29,10.1,8,17.37,16.89,12s9.4-18.79-1.47-22.14c-8.69-1.69-14.25,4.92-15.42,10.17Z"/><path class="cls-2" d="M750.79,766c-2.72,10.7,7.91,18.69,17.5,13.15,9.29-5.37,10.31-20-.88-23.68-9.11-2-15.21,5-16.62,10.53Z"/><path class="cls-2" d="M694.94,749.65c-3.16,11.18,7.61,19.79,17.74,14.17,9.8-5.44,11.34-20.71-.12-24.86-9.43-2.29-16,4.88-17.62,10.69Z"/><path class="cls-2" d="M640.46,732.27c-3.7,11.78,7.14,21.05,17.85,15.24,10.49-5.68,12.61-21.48.71-26.16-9.64-2.57-16.66,4.84-18.56,10.92Z"/><path class="cls-2" d="M587.63,713.85c-4.11,12,6.61,21.84,17.64,16.12s13.55-21.91,1.56-27c-9.71-2.86-17.08,4.64-19.2,10.87Z"/><path class="cls-2" d="M536.34,694.37c-4.63,12.5,6,22.88,17.44,17.1,11.18-5.66,14.46-22.46,2.53-28-9.84-3.18-17.61,4.44-20,10.85Z"/><path class="cls-2" d="M487,673.91c-4.81,12,4.16,22.71,15.46,18.41,12.08-4.58,17.07-23.05,4.88-29.12-9.71-3.44-17.75,4.2-20.34,10.71Z"/><path class="cls-2" d="M439.59,652.48c-5.12,12,3.34,22.89,14.61,18.87,12.09-4.33,17.64-22.82,5.76-29.22-9.42-3.67-17.59,3.84-20.37,10.35Z"/><path class="cls-2" d="M394.09,630c-5.5,12,2.47,23.28,13.77,19.43,12.07-4.12,18.2-22.71,6.74-29.44-9.19-3.94-17.54,3.48-20.51,10Z"/><path class="cls-2" d="M351.44,607c-5.81,11.87,1.31,23.19,12.29,19.52,11.75-3.93,18.47-22.36,7.78-29.24-8.61-4-16.92,3.26-20.07,9.72Z"/><path class="cls-2" d="M312.08,583.62c-6,11.52.15,22.64,10.54,19.2,11.2-3.71,18.36-21.65,8.68-28.49-7.87-4-16,3-19.22,9.29Z"/><path class="cls-2" d="M275.72,559.9c-6.11,11.19-.94,22.1,8.94,18.82,10.53-3.51,18-20.87,9.41-27.59-7.15-4-15,2.7-18.35,8.77Z"/><path class="cls-2" d="M242.36,535.86c-5.9,10.24-2.44,20.56,6.27,18.69,10.16-2.16,19.25-20,11.17-27-6.42-4-14.06,2.45-17.44,8.31Z"/><path class="cls-2" d="M212.1,511.59c-5.91,9.8-3.28,19.75,4.77,18.07,9.4-2,18.63-19.08,11.6-25.91-5.67-3.92-13,2.23-16.37,7.84Z"/><path class="cls-2" d="M184.79,487.1C179,496.24,181,506,188.22,504.47c8.62-1.81,17.91-18.07,11.88-24.67-5-3.84-11.95,1.95-15.31,7.3Z"/><path class="cls-2" d="M160.53,462.46c-5.77,8.8-4.6,17.88,2.11,16.48,7.81-1.61,17-16.95,12-23.27-4.23-3.68-10.78,1.76-14.08,6.79Z"/><path class="cls-2" d="M139.27,437.75c-5.48,8-5,16.46.95,15.3,6.94-1.38,15.79-15.49,11.7-21.46-3.47-3.45-9.5,1.53-12.65,6.16Z"/><path class="cls-2" d="M120.89,412.9c-5.23,7.38-5.25,15.22,0,14.21,6.11-1.19,14.63-14.18,11.43-19.78-2.83-3.27-8.36,1.28-11.38,5.57Z"/><path class="cls-2" d="M105.45,388c-4.93,6.73-5.45,13.95-.94,13.08,5.33-1,13.46-12.93,11.06-18.14-2.23-3-7.27,1.13-10.12,5.06Z"/><path class="cls-2" d="M92.92,363.13c-4.53,6-5.42,12.52-1.61,11.78,4.51-.88,12-11.53,10.38-16.25-1.66-2.75-6.12,1-8.77,4.47Z"/><path class="cls-2" d="M83.3,338.3c-4.13,5.31-5.3,11.07-2.14,10.45,3.75-.74,10.66-10.15,9.62-14.35-1.16-2.46-5.08.8-7.48,3.9Z"/><path class="cls-2" d="M76.53,313.49c-3.45,4.36-4.93,9.24-2.77,9.18,2.83-.08,9.58-8.68,9-12.53-.74-2.15-4.18.74-6.28,3.35Z"/><path class="cls-2" d="M72.62,288.79c-3.11,3.81-4.64,8-2.94,8,2.24,0,8.27-7.47,8.16-10.91-.42-1.9-3.3.56-5.22,2.91Z"/><path class="cls-2" d="M71.59,264.25C69,267.39,67.42,271,68.68,271c1.68,0,6.84-6.25,7.07-9.17-.14-1.62-2.52.42-4.16,2.4Z"/><path class="cls-2" d="M73.4,240c-2.07,2.44-3.46,5.25-2.62,5.29,1.11.05,5.29-4.92,5.7-7.15,0-1.19-1.57.28-1.88.59A14.41,14.41,0,0,0,73.4,240Z"/><path class="cls-2" d="M78,215.94c-1.6,1.83-2.75,3.87-2.21,3.87s3.79-3.47,4.33-5.27c0-.14.1-.59-.55-.14A10.36,10.36,0,0,0,78,215.94Z"/><path class="cls-2" d="M85.51,192.09c-1.08,1.21-1.94,2.6-1.67,2.64s2.55-2.41,3-3.57c0-.1.11-.33-.13-.21a5.16,5.16,0,0,0-1.23,1.14Z"/><polygon class="cls-2" points="94.93 169.77 95.41 169.45 96.4 168.16 95.87 168.53 94.93 169.77 94.93 169.77"/><polygon class="cls-2" points="108.82 145.57 108.83 145.57 109 145.38 108.91 145.47 108.82 145.57 108.82 145.57"/><polygon class="cls-2" points="1361.49 931.66 1362.11 931.11 1361.58 930.59 1361.05 931.04 1361.49 931.66 1361.49 931.66"/><polygon class="cls-2" points="1297.16 927.72 1298.95 926.19 1297.46 924.49 1295.78 925.92 1297.16 927.72 1297.16 927.72"/><path class="cls-2" d="M1230.9,919.85a2.47,2.47,0,0,0,4.23,1.81,2.54,2.54,0,0,0-1.44-4.32,2.58,2.58,0,0,0-2.79,2.51Z"/><path class="cls-2" d="M1166.16,912.44a3.52,3.52,0,0,0,6,2.71,3.64,3.64,0,0,0-1.91-6.24,3.72,3.72,0,0,0-4,3.53Z"/><path class="cls-2" d="M1101.87,903.8a4.55,4.55,0,0,0,7.67,3.66,4.68,4.68,0,0,0-2.32-8.13,4.85,4.85,0,0,0-5.35,4.47Z"/><path class="cls-2" d="M1038.34,894a5.32,5.32,0,0,0,8.94,4.56c3.28-2.91,2.57-8.64-2.39-9.73a5.78,5.78,0,0,0-6.55,5.17Z"/><path class="cls-2" d="M975.6,883a6.09,6.09,0,0,0,10.14,5.46c3.51-3,3.57-9.85-2.57-11.31A6.6,6.6,0,0,0,975.6,883Z"/><path class="cls-2" d="M913.59,870.87c-.93,6.62,6.11,10.61,11.25,6.38,4.47-3.69,3.89-11.28-2.54-13a7.63,7.63,0,0,0-8.71,6.59Z"/><path class="cls-2" d="M852.7,857.59a7.44,7.44,0,0,0,11.45,7.68c5.44-3.57,5.33-12.65-1.77-14.67a8.34,8.34,0,0,0-9.68,7Z"/><path class="cls-2" d="M792.85,843.17c-1.42,7.44,5.8,12.61,12.09,8.63,6.1-3.88,6.25-13.6-1.51-16-6.44-1.25-9.91,3.86-10.58,7.37Z"/><path class="cls-2" d="M734.17,827.64c-1.7,7.87,6,13.67,12.64,9.54s7-14.63-1.16-17.37c-6.45-1.39-10.6,3.74-11.48,7.83Z"/><path class="cls-2" d="M676.86,811c-2,8.33,5.89,14.63,13,10.37s7.68-15.28-.68-18.31c-6.78-1.63-11.26,3.66-12.28,7.94Z"/><path class="cls-2" d="M621.05,793.27c-2.28,8.65,5.67,15.43,13.08,11.15s8.47-15.92-.17-19.32c-6.94-1.84-11.73,3.67-12.91,8.17Z"/><path class="cls-2" d="M566.74,774.46c-2.63,9.1,5.37,16.4,13.16,12s9.12-16.56.34-20.29c-7.07-2.07-12.15,3.6-13.5,8.28Z"/><path class="cls-2" d="M514.22,754.62c-2.91,9.27,4.95,16.94,12.94,12.65,7.75-4.18,9.62-17,1-20.95-7.5-2.41-12.52,3.81-13.94,8.3Z"/><path class="cls-2" d="M463.53,733.73c-3.16,9.4,4.44,17.37,12.51,13.13,7.81-4.1,10-17.09,1.6-21.28-7-2.47-12.46,3.28-14.11,8.15Z"/><path class="cls-2" d="M414.71,711.78c-3.43,9.5,3.86,17.76,12,13.61,7.87-4,10.46-17.16,2.24-21.6-6.86-2.66-12.46,3.07-14.23,8Z"/><path class="cls-2" d="M367.92,688.82c-3.68,9.54,3.23,18.11,11.39,14.1,7.93-3.89,10.93-17.2,2.94-21.9-6.69-2.85-12.41,2.85-14.33,7.8Z"/><path class="cls-2" d="M323.93,665.22c-3.7,9,1.75,17.45,9.4,14.59,8.3-3.1,12.48-17.11,4.58-22.2-6.27-2.92-12,2.69-14,7.61Z"/><path class="cls-2" d="M283.2,641.24c-3.83,8.77.92,17.13,8.2,14.41,7.89-2.94,12.37-16.63,5.17-21.71-5.74-2.94-11.28,2.49-13.37,7.3Z"/><path class="cls-2" d="M245.62,616.91c-4,8.52.11,16.75,7,14.2,7.48-2.77,12.25-16.12,5.75-21.2-5.22-2.94-10.61,2.31-12.77,7Z"/><path class="cls-2" d="M211.16,592.26c-4.07,8.39-.76,16.27,5.8,13.82,7-2.6,11.94-15.45,6.2-20.41-4.66-2.9-9.82,2.11-12,6.59Z"/><path class="cls-2" d="M179.9,567.37c-4,7.77-1.28,15.37,4.61,13.13,6.35-2.42,11.34-14.56,6.44-19.31-4-2.78-8.9,1.94-11,6.18Z"/><path class="cls-2" d="M151.62,542.21c-3.7,7-2.11,14,2.89,12.74,6-1.57,11.7-13.56,7.29-18.36-3.52-2.73-8.07,1.64-10.18,5.62Z"/><path class="cls-2" d="M126.43,516.89c-3.58,6.51-2.51,13.14,2,12,5.25-1.33,11-12.73,7.34-17.28-3-2.59-7.23,1.52-9.3,5.27Z"/><path class="cls-2" d="M104.28,491.42c-3.51,6.12-2.9,12.38,1.09,11.34,4.85-1.25,10.34-11.8,7.29-16.19-2.46-2.46-6.39,1.35-8.38,4.85Z"/><path class="cls-2" d="M85.2,465.89c-3.29,5.53-3.09,11.25.34,10.38,4.07-1,9.39-10.78,7.1-14.77-2-2.3-5.55,1.18-7.44,4.39Z"/><path class="cls-2" d="M69.14,440.31c-3,4.91-3.14,10-.27,9.27,3.38-.89,8.26-9.47,6.59-13-1.51-2.07-4.6.95-6.32,3.76Z"/><path class="cls-2" d="M56.05,414.69c-2.71,4.32-3.14,8.89-.76,8.29,2.85-.72,7.38-8.4,6.2-11.68-1.12-1.85-3.86.87-5.44,3.39Z"/><path class="cls-2" d="M46,389.16c-2.43,3.73-3,7.69-1.12,7.16,2.28-.63,6.31-7.24,5.59-10.06-.79-1.7-3.17.87-4.47,2.9Z"/><path class="cls-2" d="M38.85,363.64c-2.08,3.15-2.83,6.48-1.35,6.06,1.79-.52,5.3-6.08,5-8.47-.42-1.23-2.21.29-3.6,2.41Z"/><path class="cls-2" d="M34.69,338.33c-1.56,2.32-2.33,4.78-1.48,4.73,1.15-.08,4.18-4.59,4.09-6.56-.23-1.05-1.66.45-2.61,1.83Z"/><path class="cls-2" d="M33.47,313.07c-1.23,1.78-2,3.73-1.37,3.67.77-.09,3.15-3.54,3.25-5-.06-.76-.93.17-1.2.47s-.46.58-.68.89Z"/><path class="cls-2" d="M35.19,288.11c-.75,1.05-1.4,2.4-1,2.32s2-2.25,2.15-3.22c0-.09,0-.36-.41,0a5.41,5.41,0,0,0-.71.86Z"/><polygon class="cls-2" points="39.29 264.27 39.7 263.98 40.28 262.94 39.87 263.26 39.29 264.27 39.29 264.27"/><polygon class="cls-2" points="1160.74 978.88 1160.97 978.7 1160.8 978.47 1160.58 978.64 1160.74 978.88 1160.74 978.88"/><polygon class="cls-2" points="1095.93 970.86 1097.04 970.09 1096.21 969.04 1095.21 969.82 1095.93 970.86 1095.93 970.86"/><path class="cls-2" d="M1030.2,960a1.78,1.78,0,0,0,3,1.48,1.93,1.93,0,0,0-.81-3.28,2,2,0,0,0-2.16,1.8Z"/><path class="cls-2" d="M966.1,948.8a2.46,2.46,0,0,0,4.07,2.19,2.56,2.56,0,1,0-4.07-2.19Z"/><path class="cls-2" d="M902.81,936.47a3.14,3.14,0,0,0,5.15,2.89,3.36,3.36,0,0,0-1.32-5.88,3.3,3.3,0,0,0-3.83,3Z"/><path class="cls-2" d="M840.47,923c-.47,3.49,3,5.87,5.78,3.92s2.58-6.52-1-7.55a4.1,4.1,0,0,0-4.8,3.63Z"/><path class="cls-2" d="M779.19,908.3c-.62,4.05,3.43,6.92,6.67,4.72,3-2,3.44-7.49-1-8.87a4.83,4.83,0,0,0-5.64,4.15Z"/><path class="cls-2" d="M719.47,892.54c-.79,4.44,3.35,7.58,6.91,5.23s3.55-8.13-.89-9.61c-3.46-.76-5.6,2.12-6,4.38Z"/><path class="cls-2" d="M660.69,875.6c-1,5,3.55,8.66,7.63,6.12,3.92-2.45,4.17-9.19-.69-11-4.14-1-6.46,2.45-6.94,4.84Z"/><path class="cls-2" d="M603.6,857.58c-1.17,5.23,3.61,9.29,7.87,6.69s4.66-9.7-.48-11.72c-4.31-1.15-6.83,2.47-7.39,5Z"/><path class="cls-2" d="M548.12,838.44c-1.34,5.55,3.43,9.85,8,7.21s5-10.19-.21-12.42c-4.18-1.22-7,2.32-7.75,5.21Z"/><path class="cls-2" d="M494.31,818.23c-1.52,5.77,3.34,10.49,8,7.78,4.17-2.42,5.74-10.46.12-13-4.53-1.46-7.4,2.45-8.13,5.26Z"/><path class="cls-2" d="M442.34,796.94c-1.67,5.9,3.09,10.86,7.85,8.16s5.67-10.81.47-13.41c-4.52-1.59-7.5,2.37-8.32,5.25Z"/><path class="cls-2" d="M392.34,774.6c-1.86,6.14,2.65,11.24,7.56,8.54,4.71-2.61,6-11,.84-13.78-4.2-1.62-7.45,2.1-8.4,5.24Z"/><path class="cls-2" d="M344.42,751.23c-1.94,6,2.41,11.3,7.18,8.73s6.09-10.88,1.18-13.76c-4.07-1.74-7.34,1.9-8.36,5Z"/><path class="cls-2" d="M299.19,727.12c-2.11,6.09,1.79,11.35,6.52,8.79,4.52-2.44,6.19-10.77,1.61-13.7-3.8-1.79-7.05,1.79-8.13,4.91Z"/><path class="cls-2" d="M257.3,702.62c-2,5.54.94,10.59,5.21,8.86,4.62-1.87,6.89-10.41,2.46-13.53-3.46-1.78-6.57,1.66-7.67,4.67Z"/><path class="cls-2" d="M218.63,677.77c-2.06,5.27.52,10.26,4.44,8.63,4.28-1.78,6.69-10,2.78-13.08-3.28-1.85-6.17,1.75-7.22,4.45Z"/><path class="cls-2" d="M183.16,652.59c-2,5,0,9.66,3.66,8.18,3.83-1.58,6.32-9.49,3-12.38-2.84-1.77-5.57,1.63-6.63,4.2Z"/><path class="cls-2" d="M150.84,627.11c-2,4.74-.38,9.16,2.88,7.75,3.52-1.52,6-8.83,3.13-11.63-2.32-1.59-4.9,1.32-6,3.88Z"/><path class="cls-2" d="M121.65,601.38c-2,4.39-.69,8.53,2.24,7.29,3.15-1.37,5.65-8.17,3.22-10.81-2.09-1.63-4.46,1.3-5.46,3.52Z"/><path class="cls-2" d="M95.59,575.42c-1.76,3.8-1,7.62,1.36,6.92,2.84-.83,5.66-7.59,3.57-10.22-1.67-1.45-3.89,1.06-4.93,3.3Z"/><path class="cls-2" d="M72.75,549.39c-1.44,3-1.26,6.66.81,6,2.4-.74,4.89-6.45,3.26-8.79-1.28-1.28-3.15.85-4.07,2.75Z"/><path class="cls-2" d="M53,523.23c-1.43,2.87-1.21,5.79.38,5.28,1.89-.61,4.23-5.69,3.08-7.7-1-1.14-2.63.72-3.46,2.42Z"/><path class="cls-2" d="M36.26,497c-1.19,2.31-1.37,5.09,0,4.6s3.68-4.78,2.79-6.65c-.72-1-2.1.61-2.83,2.05Z"/><path class="cls-2" d="M22.67,470.78c-1,2-1.13,3.92-.18,3.63,1.12-.36,2.85-3.89,2.33-5.29-.46-.78-1.54.51-2.15,1.66Z"/><path class="cls-2" d="M12.14,444.6c-.72,1.33-1,2.95-.32,2.7s2.08-2.83,1.82-3.88c-.28-.58-1.06.35-1.5,1.18Z"/><polygon class="cls-2" points="4.2 419.99 4.96 419.41 5.49 417.81 4.72 418.38 4.2 419.99 4.2 419.99"/><polygon class="cls-2" points="0 393.04 0.28 392.86 0.55 392.13 0.23 392.43 0 393.04 0 393.04"/><polygon class="cls-2" points="767.52 976.53 767.73 976.46 767.59 976.21 767.36 976.37 767.52 976.53 767.52 976.53"/><polygon class="cls-2" points="706.72 960.99 707.39 960.62 707 959.85 706.39 960.35 706.72 960.99 706.72 960.99"/><polygon class="cls-2" points="647.23 944.53 648.49 943.71 647.84 942.18 646.55 943.12 647.23 944.53 647.23 944.53"/><polygon class="cls-2" points="589.15 926.62 590.82 925.61 589.96 923.67 588.25 924.77 589.15 926.62 589.15 926.62"/><polygon class="cls-2" points="532.62 907.48 534.51 906.37 533.59 904.14 531.76 905.38 532.62 907.48 532.62 907.48"/><path class="cls-2" d="M476.63,885c-.33,1.61,1,3.21,2.46,2.32s1.51-3.26-.06-4a2,2,0,0,0-2.4,1.67Z"/><path class="cls-2" d="M423.59,863.39c-.44,1.92,1,3.46,2.5,2.58s1.68-3.55,0-4.38c-1.35-.47-2.29.77-2.54,1.8Z"/><path class="cls-2" d="M372.39,840.67c-.53,2.08,1.06,3.84,2.61,2.88,1.38-.85,1.94-3.78.12-4.77-1.42-.54-2.44.78-2.73,1.89Z"/><path class="cls-2" d="M323.46,817c-.52,1.91.77,3.87,2.42,2.92s1.91-3.78.26-4.77c-1.35-.56-2.39.74-2.68,1.85Z"/><path class="cls-2" d="M277.11,792.42c-.55,1.9.61,3.88,2.21,2.93s1.92-3.75.39-4.74c-1.28-.58-2.29.7-2.6,1.81Z"/><path class="cls-2" d="M234.14,767.47c-.59,1.91.52,3.53,1.89,2.74,1.21-.69,1.89-3.36.43-4.38-1.09-.55-2,.63-2.32,1.64Z"/><path class="cls-2" d="M194.42,742.12c-.47,1.46.24,3.13,1.4,2.58s1.82-3.13.69-4c-.95-.53-1.81.53-2.09,1.43Z"/><path class="cls-2" d="M158,716.45c-.49,1.43.12,2.73,1.09,2.31s1.67-2.76.68-3.62c-.78-.49-1.5.53-1.77,1.31Z"/><polygon class="cls-2" points="124.86 692.43 126.32 691.56 126.2 689.27 124.74 690.27 124.86 692.43 124.86 692.43"/><polygon class="cls-2" points="94.8 665.73 95.86 665.11 95.84 663.37 94.75 664.07 94.8 665.73 94.8 665.73"/><polygon class="cls-2" points="67.89 638.88 68.62 638.39 68.7 637.09 67.93 637.68 67.89 638.88 67.89 638.88"/><polygon class="cls-2" points="44.33 611.59 44.6 611.45 44.63 610.93 44.36 611.17 44.33 611.59 44.33 611.59"/></g></g></g></svg>