<svg xmlns="http://www.w3.org/2000/svg" viewBox="0 0 47.25 47.25"><defs><style>.cls-1{fill:#fff;}</style></defs><g id="Layer_2" data-name="Layer 2"><g id="Layer_1-2" data-name="Layer 1"><circle cx="23.62" cy="23.62" r="23.62"/><path class="cls-1" d="M36.27,20.25a5.67,5.67,0,0,0-5.67-5.67H16.09a5.67,5.67,0,0,0-5.67,5.67V27a5.67,5.67,0,0,0,5.67,5.67H30.6A5.67,5.67,0,0,0,36.27,27Zm-8.53,3.88-6.51,3.22c-.25.13-1.12-.05-1.12-.34V20.4c0-.29.88-.47,1.13-.33l6.23,3.39C27.73,23.61,28,24,27.74,24.13Z"/></g></g></svg>