<svg xmlns="http://www.w3.org/2000/svg" viewBox="0 0 2122.89 2102.91"><defs><style>.cls-1{opacity:0.05;}.cls-2{fill:#333;}</style></defs><g id="Layer_2" data-name="Layer 2"><g id="Layer_1-2" data-name="Layer 1"><g class="cls-1"><path class="cls-2" d="M747.11.75c-.56,0-1.09-.06-1.67-.05.25.08,7.72.37,7.78.37a2.42,2.42,0,0,0-.47-.05q-2.82-.17-5.64-.27Z"/><path class="cls-2" d="M684.15,3.2a8.62,8.62,0,0,0-2.54.57.49.49,0,0,1,0,.1c1.21.5,11.64-.33,12.51-1a.15.15,0,0,1,0-.08,1.85,1.85,0,0,0-.81-.13,61.47,61.47,0,0,0-9.16.51Z"/><path class="cls-2" d="M649.43,2.7a12.46,12.46,0,0,0-2.73.47.08.08,0,0,1,0,0c1.15.27,11.64-.86,12.7-1.21-.1-.08-.1-.08-.69-.05-2.43.05-6.69.43-9.24.75Z"/><path class="cls-2" d="M615.94,5.11c-.57.08-1.16.14-1.73.23,1.7,0,3.35-.38,5-.58L625.4,4l-9.24,1c-.08,0-.17,0-.22,0Z"/><path class="cls-2" d="M622.5,15.58c-2.74.86-3.92,1.67-3,2,2.7,1.08,17.89-2.22,17.11-3.71-.13-.29-.9-.33-1.37-.37a46.08,46.08,0,0,0-12.76,2Z"/><path class="cls-2" d="M585.93,15.29c-2.37.71-3.56,1.25-3.59,1.66,1,1.09,17.42-2.5,17.6-3.89-.16-.15-.4-.18-1.22-.19a62.73,62.73,0,0,0-12.79,2.42Z"/><path class="cls-2" d="M551.47,17.92c-1.56.46-3.45,1.06-3.64,1.38.51.63,16.08-3.11,16.65-4-.19-.1-.21-.11-1,0a89.41,89.41,0,0,0-12,2.66Z"/><path class="cls-2" d="M519.12,23.59c-1.2.36-3.28.95-3.62,1.14.79.14,15.4-4.08,15.51-4.12a2.7,2.7,0,0,0-.8.15c-2.71.58-7.69,1.88-11.09,2.83Z"/><path class="cls-2" d="M563.09,37.64c-3.63,1.86-4.81,3.53-2.9,4.07C565,43,582.66,36.51,581.25,34c-.28-.5-1.29-.6-1.94-.65-5.25-.07-12.66,2.47-16.22,4.31Z"/><path class="cls-2" d="M524.83,37.7c-3.46,1.72-4.89,3.13-3.65,3.62,3.44,1.33,22.66-5.81,21.68-8-.21-.39-1.16-.41-1.77-.43-5.11.31-12.59,3-16.26,4.86Z"/><path class="cls-2" d="M488.85,40.74c-3.34,1.62-4.91,2.89-3.91,3.17,2.86.83,21.33-6.39,20.81-8.13-.1-.3-1-.23-1.47-.21-4.19.62-11.26,3.16-15.43,5.17Z"/><path class="cls-2" d="M455.05,46.93c-2.66,1.25-4.08,2.1-4.21,2.54.74,1,19-6.37,19.57-7.87-.1-.13-.36-.13-1.2,0a90,90,0,0,0-14.16,5.29Z"/><path class="cls-2" d="M423.41,56.47a26.52,26.52,0,0,0-4.29,2.21c.84.22,17.73-7.33,18.51-8-.13,0-.14,0-.95.23-3.2,1.16-9,3.6-13.27,5.55Z"/><path class="cls-2" d="M506.81,69.17c-4.42,3.29-5.3,6.15-2,6.67,7.45,1.14,26.33-9.14,24.05-13.08-.43-.78-1.75-.91-2.53-1-6.61,0-15.39,4.32-19.49,7.39Z"/><path class="cls-2" d="M467.3,69.65c-4.23,3.07-5.51,5.59-3.12,6.12,6,1.34,26.73-9.83,24.88-13.47-.35-.66-1.59-.67-2.34-.7-6.41.48-15.23,5-19.42,8.05Z"/><path class="cls-2" d="M430,73.23c-4.13,3-5.55,5.18-3.44,5.44,5.12.63,25.23-10.67,23.93-13.41-.26-.56-1.37-.49-2-.43-5.37.86-13.6,4.94-18.46,8.4Z"/><path class="cls-2" d="M394.84,80.06c-3.7,2.57-5.39,4.51-4.21,4.78,3.2.79,24.25-11.28,23.48-13.43-.16-.42-1.13-.23-1.76-.1-4.88,1.26-12.73,5.42-17.51,8.75Z"/><path class="cls-2" d="M362.05,90.27c-3,2-4.54,3.37-4.63,4,1.07,1.33,21.67-10.79,22.27-13.08-.14-.17-.42-.14-1.43.18-4.34,1.63-11.67,5.81-16.21,8.91Z"/><path class="cls-2" d="M331.67,104.12a33.16,33.16,0,0,0-4.79,3.56C328,108,347.2,95.49,348,94.48c-.14,0-.15,0-1.09.42-3.62,1.88-10.45,6-15.25,9.22Z"/><path class="cls-2" d="M454.52,109.81c-5.28,5.41-5.43,9.76-.34,9.91,10.46.29,30.59-15.53,25.62-20.18a4.59,4.59,0,0,0-2.93-.9c-7.31.15-17.13,5.81-22.35,11.17Z"/><path class="cls-2" d="M414.12,110.92c-5.41,5.42-5.8,9.48-.91,9.26,10-.48,30.21-16.7,25.8-20.66a3.77,3.77,0,0,0-2.72-.65c-7.78.73-17.64,7.49-22.17,12Z"/><path class="cls-2" d="M376,115.07c-4.82,4.77-5.82,8.35-2.28,8.32,8.24-.08,29.6-17,25.66-20.34a3.29,3.29,0,0,0-2.42-.33c-6.47,1.16-15.75,7.2-21,12.35Z"/><path class="cls-2" d="M339.88,122.6c-4.38,4.26-5.76,7.31-3.34,7.42,6.1.32,28.61-17.57,25.34-20.13-.47-.38-1.29-.2-2.14,0-5.92,1.66-14.73,7.78-19.86,12.76Z"/><path class="cls-2" d="M306.17,133.54c-3.88,3.71-5.57,6.38-4.17,6.61,3.9.65,25.84-16.81,24.69-19.65-.21-.53-1.23-.19-1.94,0-5.33,2.13-13.62,8.29-18.58,13Z"/><path class="cls-2" d="M274.86,148.22c-3.81,3.54-5.59,5.92-4.48,5.89,3.14-.13,24.62-18.21,23.45-19.76-.36,0-.53,0-1.53.49-4.76,2.6-12.74,9-17.44,13.38Z"/><path class="cls-2" d="M246.42,166.67c-2.12,2-4.67,4.43-5,5.17,1.46.2,21.6-18,22.36-19.36-.21,0-.24,0-1.24.7-3.91,2.82-11.13,8.89-16.12,13.49Z"/><path class="cls-2" d="M220.82,189c1.33-1.28,2.65-2.53,4-3.78l-4.54,4.31.56-.53Z"/><path class="cls-2" d="M407.21,159.53c-6.09,8.46-4.38,14.67,3.56,13,13.53-2.83,30.92-23.4,23.55-27.86a7.06,7.06,0,0,0-2.85-.72c-9.29.4-19.78,9.33-24.26,15.57Z"/><path class="cls-2" d="M366.24,161.29c-5.75,7.94-5,13.61,1.73,12.43,12.51-2.27,32.1-24.68,24.94-28.54a6,6,0,0,0-2.68-.47c-8.17.95-18.62,9.17-24,16.58Z"/><path class="cls-2" d="M327.55,166.15c-5.23,7.12-5.29,12.29-.14,11.54,10.66-1.59,31-23.61,25.9-28.06a3.73,3.73,0,0,0-3-.51c-7.58,1.53-17.53,9.89-22.79,17Z"/><path class="cls-2" d="M291,174.36c-4.7,6.34-5.39,10.84-1.6,10.43,8.86-1,30.21-23.95,25.64-27.64a3.08,3.08,0,0,0-2.64-.18c-6.87,2.07-16.28,10.47-21.4,17.39Z"/><path class="cls-2" d="M256.59,186.11c-4.23,5.65-5.42,9.68-2.82,9.58,6.74-.27,29.29-24.75,25.39-27.58-.55-.4-1.4-.13-2.32.17-6.29,2.66-15.24,11.18-20.25,17.83Z"/><path class="cls-2" d="M224.72,201.59c-4.17,5.47-5.55,9.09-3.31,8.63,5.79-1.23,27.39-25.54,24.29-27.38-.4-.23-1.18.12-2,.49-5.68,3.26-14.11,11.85-19,18.26Z"/><path class="cls-2" d="M195.66,220.93c-3.72,4.83-5.37,7.94-4.11,7.76,3.11-.46,23.55-23.86,23.5-26.92-.45-.16-.53-.18-1.77.67-5,3.81-13,12.56-17.62,18.49Z"/><path class="cls-2" d="M169.57,244.45c-2.09,2.66-4.6,6-4.75,6.91,1.82-.15,22-25.19,22.57-26.91-.25,0-.29,0-1.34,1-4.13,4.16-11.54,12.65-16.48,19Z"/><path class="cls-2" d="M143.09,276.87c.26-.35,6.53-8.79,13.63-17.75L143.06,276.9l0,0Z"/><path class="cls-2" d="M365.83,217.22c-5.92,11.37-2.09,19.11,7.76,15.66,14.92-5.25,29.68-29.82,21.08-35a7.89,7.89,0,0,0-3.39-.83c-10.64.66-21.29,12.22-25.45,20.22Z"/><path class="cls-2" d="M324.81,219.71c-5.58,10.72-2.87,17.93,5.67,15.14,14.45-4.74,31-31.28,22.48-36a6.35,6.35,0,0,0-3.19-.56c-10.3,1.42-20.79,13.36-25,21.39Z"/><path class="cls-2" d="M286.11,225.32c-5,9.63-3.38,16.07,3.56,14,13-3.86,30.85-31.73,22.81-35.49a6,6,0,0,0-2.92-.26c-9.5,2.16-19.41,14-23.45,21.77Z"/><path class="cls-2" d="M249.32,234.29c-4.57,8.81-3.87,14.58,1.63,13.11,11.06-3,29.79-30.59,23.84-35.21-1-.73-2.09-.51-3.28-.27-8.77,2.88-18.24,14.81-22.19,22.37Z"/><path class="cls-2" d="M214.91,246.76c-4.07,7.77-4,12.92,0,12,9.33-2.15,28.92-31.05,23.56-34.75-.84-.55-1.84-.24-2.91.11-7.2,3.26-16.15,14.09-20.66,22.68Z"/><path class="cls-2" d="M182.85,263c-4,7.61-4.29,12.26-.66,10.87,8.27-3.16,27-31.94,22.55-34.59-.66-.42-1.57,0-2.52.48-6.52,3.92-15,14.9-19.37,23.24Z"/><path class="cls-2" d="M153.6,283.08c-3.53,6.62-4.32,10.77-1.9,9.86,6-2.25,25.42-32.56,21.88-34.13-.53-.24-1.31.27-2.15.82-5.69,4.53-13.69,15.69-17.83,23.45Z"/><path class="cls-2" d="M127.34,307.33c-3.22,5.94-4.39,9.6-2.93,9.07,3.71-1.29,22.06-30.64,21.36-34.14-.54-.07-.61-.07-1.91,1.11-5.07,5.29-12.54,16.57-16.52,24Z"/><path class="cls-2" d="M104.85,335.29c-4.13,7.5-3.79,8.06-3.7,8.27,2.24-1.46,20.21-31.91,19.84-33.58-.32.22-.45.37-1.3,1.48a273.23,273.23,0,0,0-14.84,23.83Z"/><path class="cls-2" d="M82.23,374.44c.07-.16,10.12-19.21,16.2-29.66L82.28,374.34s0,.1,0,.1Z"/><path class="cls-2" d="M1910,1968.16c-.66.44-1.32.92-2,1.41l2-1.47a.12.12,0,0,1-.06.06Z"/><path class="cls-2" d="M333.07,279.28c-5.15,14.27,1.22,23.22,12.4,17.41,15.93-8.31,26.66-37,15.28-41a10.07,10.07,0,0,0-2.69-.41c-11.6.95-21.59,14.59-25,24Z"/><path class="cls-2" d="M292.4,282.51c-4.76,13.5.29,21.91,10.25,17,15.77-7.78,28-38.83,16.62-42a10,10,0,0,0-2.56-.19c-11.22,1.78-21,15.85-24.31,25.27Z"/><path class="cls-2" d="M253.94,288.86c-4.28,12.32-.53,20,7.92,16.06,14.31-6.65,27.89-37.51,18.38-41.78a6.84,6.84,0,0,0-3.41-.31c-9.36,2.35-19.17,15.35-22.89,26Z"/><path class="cls-2" d="M217.59,298.49c-3.84,11.2-1.24,18.08,5.65,15.05,13-5.68,27.65-38.26,18.69-41.47a5.55,5.55,0,0,0-3.08,0c-8.68,3.1-17.63,15.85-21.26,26.39Z"/><path class="cls-2" d="M183.32,311.69c-3.45,10.17-1.8,16.35,3.76,14.05,11.54-4.75,27.29-39.27,18.94-41.48a5,5,0,0,0-2.79.34c-8,3.84-16.39,16.8-19.91,27.09Z"/><path class="cls-2" d="M151.54,328.56c-3.32,9.79-2,15.49,2.93,12.73,10.45-5.88,25.4-40,18-41a4.94,4.94,0,0,0-2.5.67c-7.13,4.53-15.13,17.87-18.41,27.64Z"/><path class="cls-2" d="M122.43,349.32c-3,8.84-2.44,13.93,1.29,11.82,8.48-4.79,23.83-38.93,18.43-41-.83-.33-1.74.28-2.73.92-6.37,5.29-13.77,18.78-17,28.25Z"/><path class="cls-2" d="M96.39,374.09c-2.67,7.76-2.72,12.34-.11,10.83,6.44-3.68,22.2-39.81,17.76-40.67-.63-.13-1.42.59-2.28,1.37-5.56,6-12.32,19.48-15.37,28.47Z"/><path class="cls-2" d="M74,402.64c-2.39,6.93-2.94,11-1.36,10.13,4.1-2.36,18.84-37.18,17.14-40.52-.45-.15-.84.16-2,1.64-4.71,6.71-10.84,20.17-13.8,28.75Z"/><path class="cls-2" d="M55.73,434.46c-1.71,4.83-2.58,8-2.55,9.19a.94.94,0,0,0,.23.16c2.66-2.4,15.37-35.59,15.79-39.7a.77.77,0,0,0-.15-.16,8.46,8.46,0,0,0-1.28,2,263.74,263.74,0,0,0-12,28.49Z"/><path class="cls-2" d="M39.36,476.09c-.25.7-.49,1.43-.68,2.14.28-.54.89-2.22,4.41-12.22,2-5.83,7.44-21.19,9.66-26.69L39.41,476a.58.58,0,0,1,0,.14Z"/><path class="cls-2" d="M1820.75,2021.91c-4.34,2.19-10.55,5.25-11.23,5.56a7,7,0,0,1,.67-.33l15-7.52c-1.48.74-3,1.52-4.46,2.29Z"/><path class="cls-2" d="M1853.13,2002.64c-4.42,2.32-10.89,5.87-11.48,6.65.65.31,11.87-5.66,16.35-8.59a4.77,4.77,0,0,0,.83-.65c-.09,0-.31-.2-5.7,2.59Z"/><path class="cls-2" d="M308.29,344.75c-3.71,16.5,4.48,26.66,15.91,19.8,16.41-9.85,24.39-43.16,11.39-47.56a12.85,12.85,0,0,0-3-.41c-12.66,1.28-21.83,17.24-24.28,28.17Z"/><path class="cls-2" d="M268.44,348.73c-3.54,16.61,4.38,26,15.37,18.37,15.68-11,23.29-44.47,10.86-47.78a12.76,12.76,0,0,0-2.9-.22c-12.24,2.23-21,18.68-23.33,29.63Z"/><path class="cls-2" d="M230.83,355.71c-3.08,15.2,3.27,23.86,12.78,17.49,15.19-10.15,23.7-45.39,11.52-47.71a9.41,9.41,0,0,0-2.7,0c-11.32,3.09-19.42,19.53-21.6,30.18Z"/><path class="cls-2" d="M195.07,366c-2.64,13.87,2.32,21.81,10.45,16.6,13.84-8.83,23.57-44,13.18-47.62a6.43,6.43,0,0,0-3.57,0c-9.4,3.6-17.72,18.89-20.06,31Z"/><path class="cls-2" d="M161.62,379.75c-2.31,12.62,1.45,19.78,8.18,15.63,12.64-7.73,23.1-45,13.36-47.43a6,6,0,0,0-3.21.41c-8.68,4.43-16.13,19.45-18.33,31.39Z"/><path class="cls-2" d="M130.46,397.14c-2.19,12.31,1.15,18.68,7.27,13.91,11.4-8.83,21.12-45.56,12.39-46.77a5.06,5.06,0,0,0-2.89.78c-7.88,5.26-14.72,20.43-16.77,32.08Z"/><path class="cls-2" d="M102,418.29c-1.86,10.89.5,16.74,5.29,13,10.17-8,20.41-46.67,12.31-46.55a5.67,5.67,0,0,0-2.56,1.13c-6.9,6-13.17,21.48-15,32.4Z"/><path class="cls-2" d="M76.45,443.46c-1.68,9.84-.16,15,3.55,12.08,8.35-6.67,18.89-45.41,12.69-46.57-.93-.21-1.82.61-2.76,1.49-6.14,6.9-11.68,22.22-13.48,33Z"/><path class="cls-2" d="M54.58,472.11c-1.46,8.64-.67,13.42,1.86,11.37,6.43-5.22,17-46.17,11.94-46.12-.72,0-1.48,1-2.21,1.88-5.05,7.55-9.88,22.62-11.59,32.87Z"/><path class="cls-2" d="M36.66,504.14c-1.3,7.7-1.1,12,.53,10.68,4.21-3.49,14-42.91,11.34-45.88-.55,0-.94.41-2,2.21-4.06,8.16-8.29,23.49-9.91,33Z"/><path class="cls-2" d="M22.88,539.28C22,544.67,21.64,548,22,549.1a1.67,1.67,0,0,0,.35.07c2.91-3.69,10.73-41,10.15-44.95a.89.89,0,0,0-.28-.07,10.12,10.12,0,0,0-1.14,2.52,243.52,243.52,0,0,0-8.21,32.61Z"/><path class="cls-2" d="M13.19,577.74a84,84,0,0,0-1.32,9c1.28-2.49,8.69-44.06,8.78-44.48-.15.53-.29,1.07-.42,1.59l-5.67,26.57q-.69,3.66-1.37,7.32Z"/><path class="cls-2" d="M1716.52,2065.08c-.09,0-6.48,2.06-6.86,2.27.4-.06,5.87-1.83,9.27-3a2.31,2.31,0,0,0,.58-.19c-.19,0-.35.1-.52.15l-2.47.78Z"/><path class="cls-2" d="M1753,2049.73c-2.34.78-7.19,2.5-7.75,3a.13.13,0,0,0,0,.12c1,0,7.78-2.29,10.77-3.71a3.34,3.34,0,0,0,.6-.35l0,0a18.31,18.31,0,0,0-3.62.95Z"/><path class="cls-2" d="M1785.42,2030.8c-4.13,1.37-8.9,3.59-8.05,3.93s8.64-2.29,11.78-4.27c.33-.23.76-.57.47-.65s-2,.26-4.2,1Z"/><path class="cls-2" d="M291.72,412.58c-2,19.77,9.16,30.75,21,20.64,16.6-14.16,18.88-50.61,3.29-52.73-.5-.07-1.19,0-1.71-.06-13.46,1.65-21.34,19.8-22.63,32.15Z"/><path class="cls-2" d="M253.06,417.25c-1.61,18.63,8.12,29.08,19,20.33,16.31-13.17,19.33-53.11,4.09-54.06a11.1,11.1,0,0,0-1.63.05c-11.64,2.38-20.19,19.33-21.43,33.68Z"/><path class="cls-2" d="M216.59,424.84c-1.3,18.15,7.88,27.47,17.84,18.15,15-14,17.4-52.84,3.2-52.54a10.3,10.3,0,0,0-1.52.18c-10.93,3.27-18.5,20-19.52,34.21Z"/><path class="cls-2" d="M181.94,435.7c-.95,16.7,6.69,25.36,15.43,17.47,14-12.59,17.77-51.65,5.09-52.85a9.4,9.4,0,0,0-2.73.32c-10.12,4.16-17,21.09-17.79,35.06Z"/><path class="cls-2" d="M149.51,449.84c-.65,15.15,5.59,23,13.09,16.49,13.08-11.34,17.31-52.61,5.38-52.55a8.32,8.32,0,0,0-2.49.6c-9.12,4.94-15.39,22.26-16,35.46Z"/><path class="cls-2" d="M119.35,467.56c-.45,13.87,4.55,21.05,10.91,15.72,11.82-9.89,17-51.32,6.62-52.76a5.85,5.85,0,0,0-3.28.86c-8.28,5.84-13.83,23.34-14.25,36.18Z"/><path class="cls-2" d="M91.79,489c-.29,13.46,4.24,19.78,9.9,13.81,10.56-11.17,14.89-51.83,5.54-51.85a5.83,5.83,0,0,0-3,1.25C96.93,459,92,476.57,91.79,489Z"/><path class="cls-2" d="M67.14,514.25c-.19,11.9,3.37,17.69,7.89,12.89,9.44-10.11,13.91-53.07,5.35-51.65a5.57,5.57,0,0,0-2.51,1.62c-6.43,7.59-10.57,25.18-10.73,37.14Z"/><path class="cls-2" d="M46,543c-.07,10.71,2.44,16,5.86,12.27,7.46-8.11,12.22-51.52,5.67-51.64-1,0-1.86,1-2.73,2.1-5.4,8.41-8.71,25.56-8.8,37.27Z"/><path class="cls-2" d="M28.8,574.69c0,9.41,1.71,14.27,4.13,11.6,6.19-6.78,10.51-52.13,4.89-51.09-.78.15-1.45,1.34-2.12,2.48-4.2,8.9-6.85,26.16-6.9,37Z"/><path class="cls-2" d="M15.5,609.63c0,8.36,1.1,12.7,2.73,10.85,4.15-4.65,8-50.08,4.34-50.65-.67-.12-1.4,1.74-1.84,2.87-3.23,9.73-5.18,26.44-5.23,36.93Z"/><path class="cls-2" d="M6.28,647.49c0,4.53.19,10,1.34,10.18,3.29-2.46,5.35-46.42,3.62-49.87l-.39.09a10.62,10.62,0,0,0-1,3.11,212.24,212.24,0,0,0-3.61,36.49Z"/><path class="cls-2" d="M1.14,688.3c-.06,8.83.45,9.15.66,9.29,1.7-3.47,2.53-47.18,2.05-49.13-.21.32-.24.43-.61,3.68-1,9.45-2,25.36-2.1,36.16Z"/><path class="cls-2" d="M.13,739.76a.67.67,0,0,1,0,.29c0-.59.1-1.87.08-12.7,0-12.76,0-22.43.22-30.71L0,728.85l.14,10.49c0,.12,0,.28,0,.42Z"/><polygon class="cls-2" points="1605.63 2092.44 1606.07 2092.43 1607.99 2092.07 1607.46 2092.08 1605.63 2092.44 1605.63 2092.44"/><polygon class="cls-2" points="1644.53 2081.51 1645.22 2081.58 1647.92 2081.05 1647.13 2080.96 1644.53 2081.51 1644.53 2081.51"/><path class="cls-2" d="M1683,2066.14c-2,.31-4,1-3.74,1.2s3.8-.3,5.4-1c.11-.08.39-.21.17-.31a6.81,6.81,0,0,0-1.83.15Z"/><path class="cls-2" d="M1715.15,2047.82c-2.41.42-4.75,1.33-4.31,1.71s4.82-.39,6.45-1.37c.16-.11.52-.37.06-.47a7.64,7.64,0,0,0-2.2.13Z"/><path class="cls-2" d="M809.29,8.38c-1.73-.35-1.75-.46-1.78-.49a33.46,33.46,0,0,1,7.7,1.37c-.06,0-.07.05-.42,0a53,53,0,0,1-5.5-.91Z"/><path class="cls-2" d="M779.06,7.89c-1.71-.37-1.87-.5-1.93-.55s0,0,0-.07c.94-.27,7.23.77,7.8,1.3,0,0,0,.06,0,.06a1.12,1.12,0,0,1-.32,0,37.45,37.45,0,0,1-5.57-.77Z"/><path class="cls-2" d="M751,10a5,5,0,0,1-1.72-.57c.22-.48,6.2.42,6.43.94,0,.06-.06.06-.25.09A21.32,21.32,0,0,1,751,10Z"/><path class="cls-2" d="M724.73,14.63c-.85-.17-1.65-.42-1.45-.58.45-.38,5.42.36,5.26.8,0,.06-.11.05-.16.09a14.4,14.4,0,0,1-3.65-.31Z"/><polygon class="cls-2" points="699.6 21.52 701.98 21.62 703.14 22.13 700.84 22.04 699.6 21.52 699.6 21.52"/><polygon class="cls-2" points="678.02 31.97 679.59 31.95 680.46 32.36 678.9 32.35 678.02 31.97 678.02 31.97"/><polygon class="cls-2" points="659.12 45.5 659.67 45.45 660.03 45.64 659.48 45.64 659.12 45.5 659.12 45.5"/><polygon class="cls-2" points="642.4 62.11 642.7 62.08 642.88 62.17 642.59 62.2 642.4 62.11 642.4 62.11"/><polygon class="cls-2" points="627.71 81.79 628.96 81.61 629.85 82.05 628.62 82.18 627.71 81.79 627.71 81.79"/><polygon class="cls-2" points="616.34 104.24 618.63 103.82 620.35 104.61 618.21 105.02 616.34 104.24 616.34 104.24"/><path class="cls-2" d="M611.12,130.49c-1.88-.19-2.65-.84-2.09-1.28,1-.77,5.25-.55,5.22.62-.22.71-2,.78-3.13.66Z"/><path class="cls-2" d="M607.78,158.84c-2.46-.22-4-1.18-3-2,1.45-1.12,6.9-.8,7.06.85-.18.88-2.23,1.25-4.09,1.1Z"/><path class="cls-2" d="M608.15,189.69c-2.95-.2-4.83-1.39-3.76-2.41,1.52-1.48,8.11-1.19,8.53.87-.11,1.24-2.84,1.63-4.77,1.54Z"/><path class="cls-2" d="M612.16,223.13c-3.89-.12-6.4-1.8-4.76-3.16,2.1-1.8,9.57-1.48,10.3.94.07,1.77-3.34,2.31-5.54,2.22Z"/><path class="cls-2" d="M619.9,259.05c-4.57,0-7.71-2.06-6-3.87,2.23-2.4,11.08-2.23,12.28.92.28,2.07-3.53,3-6.32,2.95Z"/><path class="cls-2" d="M631.33,297.16c-5.48.1-9.19-2.42-6.86-4.67,2.8-2.71,11.91-2.56,13.49,1,.51,2.41-3.57,3.61-6.63,3.67Z"/><path class="cls-2" d="M646.45,337.57c-6.17.34-10.64-2.57-8.23-5.37,2.81-3.3,13.32-3.45,15.44.69,1,3.08-3.92,4.53-7.21,4.68Z"/><path class="cls-2" d="M665.24,379.92c-6.66.6-11.89-2.67-9.52-5.9,2.9-4,14.15-4.44,16.9.3,1.29,3.47-3.83,5.29-7.38,5.6Z"/><path class="cls-2" d="M687.72,424.22c-7.57.94-13.54-3-10.45-7,3.26-4.2,14.72-4.77,18,.28,1.61,3.76-3.42,6.17-7.51,6.69Z"/><path class="cls-2" d="M713.85,470.31c-8.2,1.37-15.26-3.1-12.18-7.69,3.27-4.95,15.8-6,19.73-.36,2.26,4.55-3.44,7.37-7.55,8.05Z"/><path class="cls-2" d="M743.48,517.78c-9.2,2-17.07-3.31-13.18-8.83,3.68-5.21,16.23-6.33,20.64-.43,2.63,4.73-2.8,8.27-7.46,9.26Z"/><path class="cls-2" d="M776.69,566.74c-9.7,2.57-18.63-3.14-14.94-9.56,3.52-6.09,16.94-7.78,22.21-1.2,3.38,5.57-2.65,9.56-7.27,10.76Z"/><path class="cls-2" d="M813.3,616.85c-10.15,3.21-20.37-3-16.79-10.21,3.52-7,17.54-9.46,23.69-2.25,3.87,5.85-1.69,10.8-6.9,12.46Z"/><path class="cls-2" d="M853.17,667.66c-10.35,3.89-21.45-2.53-18.31-10.58,3-7.74,17.79-10.93,24.69-3.36,4.43,6.27-1,11.92-6.38,13.94Z"/><path class="cls-2" d="M896.31,719.26c-11.41,5.11-24-2.58-19.83-12.09,3.62-8.18,17.94-11.53,25.55-3.59,5.43,7.15-.63,13.41-5.72,15.68Z"/><path class="cls-2" d="M942.37,771.12c-11.42,6-25-1.87-21.41-12.36,3.07-8.88,18-13.17,26.29-5,6.14,7.58.29,14.66-4.88,17.36Z"/><path class="cls-2" d="M991.53,823.33c-11.63,7.06-26.51-1.05-23.41-12.76,2.69-10.12,17.77-15.38,27.24-6.55,6.65,7.71,1.75,15.92-3.83,19.31Z"/><path class="cls-2" d="M1043.36,875.32c-11.77,8.3-27.82.06-25.27-13,2.19-11.15,17.59-17.56,28.05-8.33,7.4,8.14,2.84,17.36-2.78,21.29Z"/><path class="cls-2" d="M1097.55,926.72C1086,936.2,1069,928,1070.8,913.89c1.54-12,16.9-19.55,28.12-10.16,8.61,8.91,3.74,18.83-1.37,23Z"/><path class="cls-2" d="M1154.19,977.57c-11.1,10.49-29.51,2.28-28.54-12.79a17.36,17.36,0,0,1,28.53-12.21c9.48,9.26,5,20.25,0,25Z"/><path class="cls-2" d="M1212.73,1027.24c-10.29,11.3-28.39,4.9-29.77-10.56-1.35-14.81,14.47-26.34,28.18-16a18.73,18.73,0,0,1,1.59,26.56Z"/><path class="cls-2" d="M1273.25,1075.76c-9.89,12.7-28.91,6.64-31.26-10-2.27-15.84,13.24-29,27.94-18.57a21,21,0,0,1,3.32,28.59Z"/><path class="cls-2" d="M1335.12,1122.5c-9.33,14.08-29,8.59-32.34-9-3.23-16.8,11.78-31.59,27.34-21.22,11.17,9.17,9.65,23.25,5,30.25Z"/><path class="cls-2" d="M1396.35,1166.05c-8.09,14.55-26.5,11.45-31.75-5.33-5.72-18.14,9.24-35.06,23.86-27.06.5.28,1.14.71,1.63,1,11.42,8.92,10.54,23.74,6.26,31.39Z"/><path class="cls-2" d="M1456.83,1206.37c-7.22,15.55-26,13.44-31.86-3.54-6.42-18.75,7.62-37.59,22.48-30.1.5.27,1.13.71,1.64,1,11.82,8.72,11.64,24.34,7.74,32.65Z"/><path class="cls-2" d="M1516,1243.24c-6.13,15.88-23.28,16.08-30.64.39-8.4-18.11,3-40.34,18.2-35.55a23.51,23.51,0,0,1,3.34,1.54c12,8.34,12.56,24.65,9.1,33.62Z"/><path class="cls-2" d="M1573.67,1276.51c-5.29,16.85-22.06,18.19-29.93,2.37-9-18.22,1.1-42,16.22-38a17.27,17.27,0,0,1,3.36,1.42c12.09,7.84,13.33,24.73,10.35,34.21Z"/><path class="cls-2" d="M1629.76,1306.42c-4.2,16.89-19.5,20.44-28.19,6.51-11.06-17.69-2.33-46.12,13.13-42.88a16.58,16.58,0,0,1,3.31,1.21c12.3,7.42,14.27,25,11.75,35.16Z"/><path class="cls-2" d="M1683.92,1332.71c-3.39,17.87-18.23,22.63-27.36,8.75-11.65-17.69-4.28-48,11.12-45.76a15.65,15.65,0,0,1,3.28,1c12.33,6.9,15,25.21,13,36Z"/><path class="cls-2" d="M1735.79,1355.38c-2.42,17.81-15.16,24.37-24.77,12.74-13.48-16.29-8.19-51.2,7.54-49.81a24.92,24.92,0,0,1,3.22.83c12.21,6.33,15.54,25,14,36.24Z"/><path class="cls-2" d="M1785.48,1374.52c-1.61,18.73-13.74,26.43-23.58,15-13.68-15.9-10-52.61,5.29-52.38a15.7,15.7,0,0,1,3.16.65c12.15,5.67,16.16,24.9,15.13,36.73Z"/><path class="cls-2" d="M1832.64,1390.09c-.83,19.1-12.38,28.13-22.12,17.25-14.56-16.31-11.25-56.4,4.5-54.28.49.09,1.11.27,1.56.39,12,5,16.58,24.42,16.06,36.64Z"/><path class="cls-2" d="M1877.24,1402.2c0,19.86-10.83,30-20.64,19.53-14.17-15.25-12.53-57.55,2.18-56.61.47,0,1.06.15,1.52.23,10.5,3.81,17,22.13,16.94,36.85Z"/><path class="cls-2" d="M1919,1410.87c.71,19.25-8.18,31-17.59,23.25-15.5-12.72-16.75-59.92-1.62-60.15a9.09,9.09,0,0,1,1.47.11c10.25,3.12,17.2,21.54,17.74,36.79Z"/><path class="cls-2" d="M1957.87,1416.11c1.4,19.59-6.57,32.3-15.79,25.22-15.22-11.78-18.25-60.09-3.84-61.61.41,0,1,0,1.38,0,9.82,2.35,17.13,20.69,18.25,36.36Z"/><path class="cls-2" d="M1993.82,1418.05c2.09,20-5,33.86-14,27.33-14.24-10.3-19.07-60.5-6.06-63.17a5.3,5.3,0,0,1,1.31-.13c9.45,1.59,17.09,19.92,18.74,36Z"/><path class="cls-2" d="M2026.63,1416.71c2.73,20.4-3.38,35.21-12,29.34-13.7-9.28-20.19-60.43-8.19-64.39a8.43,8.43,0,0,1,1.22-.22c8.92.77,16.82,18.9,19,35.27Z"/><path class="cls-2" d="M2056.39,1412.19c3.37,20.74-1.74,36.61-10.12,31.41-11.82-7.38-22.72-61.67-9.09-65.93,8.42-.09,16.53,17.82,19.21,34.52Z"/><path class="cls-2" d="M2083,1404.57c3.89,20.7-.31,37.92-8.12,33.5-11.24-6.35-23.55-61.3-11.15-67.19,7.58-.91,16.08,16.67,19.27,33.69Z"/><path class="cls-2" d="M2106.25,1393.91c4.63,21.93.74,40.64-7.19,34.49-10.81-8.38-22.13-60.09-11.89-67,6.92-1.81,15.44,15.33,19.08,32.51Z"/><path class="cls-2" d="M714.54.16A8.41,8.41,0,0,1,712.67,0c.35-.1,7.1.08,7.93.22,0,0,0,0,0,0l-.36,0c-1.49,0-4.36-.08-5.67-.15Z"/><path class="cls-2" d="M684.11,2.23c-1.32-.06-1.49-.13-1.52-.16a26.73,26.73,0,0,1,6.43.06v0a.76.76,0,0,1-.26.06,45,45,0,0,1-4.65,0Z"/><path class="cls-2" d="M655.64,7.11a4.55,4.55,0,0,1-1.42-.21c.09-.33,5.11-.35,5.31,0,0,.08-.12.06-.18.09a21.34,21.34,0,0,1-3.71.13Z"/><polygon class="cls-2" points="628.51 14.6 630.82 14.43 632.02 14.71 629.56 14.87 628.51 14.6 628.51 14.6"/><polygon class="cls-2" points="604.7 25.48 606.29 25.28 607.11 25.53 605.54 25.72 604.7 25.48 604.7 25.48"/><polygon class="cls-2" points="583.75 39.67 584.32 39.56 584.66 39.67 584.13 39.73 583.75 39.67 583.75 39.67"/><polygon class="cls-2" points="565.15 57.23 565.43 57.17 565.61 57.22 565.31 57.29 565.15 57.23 565.15 57.23"/><polygon class="cls-2" points="548.71 78.19 549.95 77.86 550.83 78.15 549.58 78.48 548.71 78.19 548.71 78.19"/><polygon class="cls-2" points="535.93 102.17 538.09 101.45 539.87 102.03 537.6 102.71 535.93 102.17 535.93 102.17"/><path class="cls-2" d="M529.18,129.84c-1.87,0-2.61-.53-2-1.07,1.08-1,5.13-1.08,5.2-.09,0,0,0,0,0,.08-.26.76-2,1.06-3.15,1.08Z"/><path class="cls-2" d="M524.77,160c-2.25.1-3.66-.67-2.92-1.56,1.29-1.56,6.8-1.76,7.08-.26,0,0,0,.08,0,.13-.24,1.08-2.59,1.66-4.18,1.69Z"/><path class="cls-2" d="M524.27,192.93c-2.67.14-4.88-.79-3.69-2.1,1.62-1.79,8.09-2.3,8.44-.13-.12,1.44-3,2.12-4.75,2.23Z"/><path class="cls-2" d="M527.7,228.66c-3.82.32-6.22-1.22-4.59-2.92,2.11-2.21,9.5-2.73,10.21-.13.06,1.8-3.25,2.86-5.62,3Z"/><path class="cls-2" d="M535.12,267.08c-4.61.44-7.71-1.42-6-3.6,2.26-2.82,11.08-3.61,12.22-.36.3,2.36-3.69,3.67-6.27,4Z"/><path class="cls-2" d="M546.47,307.83c-5.36.71-9-1.71-6.75-4.44,2.71-3.23,11.92-4.05,13.49-.33.53,2.63-3.6,4.36-6.74,4.77Z"/><path class="cls-2" d="M561.83,351.14c-6.17,1-10.65-1.83-8.3-5.16,2.79-3.93,13.33-5.16,15.5-.79,1,3.33-3.9,5.42-7.2,5.95Z"/><path class="cls-2" d="M581.18,396.54c-6.55,1.26-11.82-1.91-9.56-5.72,2.72-4.61,14.21-6.26,17-1.26,1.34,3.77-3.85,6.28-7.46,7Z"/><path class="cls-2" d="M604.54,444.07c-7.65,1.71-13.74-2.2-10.7-6.9,3.23-5,14.81-6.6,18.15-1.25,1.72,4.08-3.33,7.22-7.45,8.15Z"/><path class="cls-2" d="M631.81,493.55c-8.13,2.15-15.35-2.31-12.42-7.69,3.19-5.86,15.93-8,20.09-2,2.24,4.7-3.12,8.49-7.67,9.66Z"/><path class="cls-2" d="M663,544.56c-9.32,2.86-17.48-2.51-13.62-8.95,3.66-6.13,16.43-8.26,21-2,2.76,5.14-2.69,9.52-7.43,10.95Z"/><path class="cls-2" d="M698,597.22c-9.84,3.46-19.14-2.39-15.49-9.78,3.47-7,17.22-9.8,22.78-2.79,3.38,5.7-2.21,10.8-7.29,12.57Z"/><path class="cls-2" d="M736.75,651.07c-10.42,4.15-21.06-2.2-17.52-10.46,3.38-7.91,18.09-11.49,24.49-3.92,4.11,6.35-1.61,12.22-7,14.38Z"/><path class="cls-2" d="M779,705.73c-10.61,4.85-22.25-1.78-19.16-10.88,3-8.77,18.26-13.1,25.55-5,4.76,6.8-.88,13.36-6.39,15.86Z"/><path class="cls-2" d="M824.93,761.27C813.91,767,801,760,803.69,749.8c2.62-9.82,18.69-15.11,27.1-6.28,5.5,7.34-.11,14.81-5.86,17.75Z"/><path class="cls-2" d="M874.07,817.08c-11.93,7-26.33-1.28-22.66-13,3.2-10.16,18.53-15.42,27.56-6.46,6.61,8.2.51,16.27-4.9,19.43Z"/><path class="cls-2" d="M926.58,873.26c-12.14,8-27.92-.6-24.83-13.49,2.64-11,18.84-17.36,28.82-8,7.12,8.35,2,17.63-4,21.52Z"/><path class="cls-2" d="M982,929.2c-12.48,9.25-29.6.51-26.95-13.73,2.28-12.27,18.67-19.64,29.81-9.74,8,8.78,3.13,19-2.86,23.47Z"/><path class="cls-2" d="M1040,984.43c-12.28,10.32-30.46,1.63-28.57-13.65,1.59-12.92,18.36-21.49,30.2-11.55,8.77,9.11,4.35,20.21-1.63,25.2Z"/><path class="cls-2" d="M1100.75,1039.09c-12.34,11.7-31.82,3.06-30.67-13.63,1-14.24,17.72-24,30.9-13.56,10.2,10,5.27,22-.23,27.19Z"/><path class="cls-2" d="M1163.56,1092.39c-11.92,12.81-32.4,4.45-32.17-13.17.19-14.85,17.14-26,31-15.64,10.38,9.65,6.94,22.63,1.18,28.81Z"/><path class="cls-2" d="M1228.57,1144.42c-11.09,13.47-31.69,6.95-33.89-10.75-2.16-17,15.11-31.13,31-20,11.31,9.89,8.5,23.89,2.92,30.7Z"/><path class="cls-2" d="M1295,1194.47c-10.64,14.79-32,8.88-35.16-9.73-3-17.51,14.27-33.45,30.73-22.56,12,9.89,9.83,24.83,4.43,32.29Z"/><path class="cls-2" d="M1360.8,1241c-10,16-31.47,11.14-35.28-8-3.62-18.07,13-35.63,29.71-25.32,12.24,9.57,10.62,25.25,5.57,33.31Z"/><path class="cls-2" d="M1425.78,1284.05c-9,16.45-29.27,14.07-35-4.12-6.3-19.8,10.21-39.43,26.36-31.41.55.31,1.24.74,1.78,1,12.66,9.29,11.66,25.75,6.89,34.5Z"/><path class="cls-2" d="M1489.36,1323.22c-8.29,17.62-28.45,16.41-34.78-2.12-6.87-20.08,8.74-41.46,25-34.13.55.26,1.25.66,1.78,1,12.86,8.86,12.46,26,8,35.29Z"/><path class="cls-2" d="M1551.29,1358.51c-7,17.31-25.74,18.47-33.38,2.11-9.3-19.89,5.61-45.6,22.45-38.76.54.22,1.25.65,1.81.91,12.93,8.3,13.09,25.91,9.12,35.74Z"/><path class="cls-2" d="M1611.49,1390.08c-6.37,18.45-24.81,20.84-32.88,4.29-9.75-20,4.06-47.67,20.82-41.74.56.2,1.24.57,1.81.78,13.08,7.88,13.88,26.2,10.25,36.67Z"/><path class="cls-2" d="M1669.61,1417.74c-5.7,19.56-23.8,23.27-32.22,6.63-10.24-20.06,2.48-49.64,19.12-44.55.56.18,1.26.49,1.8.72,13.14,7.23,14.53,26.12,11.3,37.2Z"/><path class="cls-2" d="M1725.24,1441.39c-4.68,19.38-20.62,25.14-29.93,10.93-12.41-18.94-1.12-53.24,16-48.9a17.68,17.68,0,0,1,1.78.59c13,6.56,14.9,25.82,12.12,37.38Z"/><path class="cls-2" d="M1778.49,1461.27c-3.92,20-19.58,27.26-28.9,13.36-12.54-18.62-2.62-54.73,14.14-51.51.53.11,1.21.34,1.74.49,12.91,5.87,15.39,25.56,13,37.66Z"/><path class="cls-2" d="M1829,1477.26c-3.18,20.65-18.1,29.08-27.51,15.6-12.68-18.11-4.17-55.66,12.13-53.54.51.07,1.18.25,1.68.36,12.66,5.11,15.62,25,13.7,37.58Z"/><path class="cls-2" d="M1876.64,1489.51c-2.48,21.44-16.66,31.29-26.13,18.18-11.93-16.56-6-58.45,11.8-55.68,12.4,4.27,15.83,24.51,14.33,37.5Z"/><path class="cls-2" d="M1921.29,1498c-1.67,20.67-13.87,32.28-23.28,22.18-13.79-14.72-8.66-59.4,6.85-59.72.47,0,1.09.09,1.57.11,10.8,3.11,16.12,21.85,14.86,37.43Z"/><path class="cls-2" d="M1962.74,1502.77c-1.07,21.16-12.3,33.94-21.5,24.47-12.94-13.29-11.3-61.19,6.36-61.2,10.35,2.27,15.88,20.84,15.14,36.73Z"/><path class="cls-2" d="M2001,1504c-.4,21.64-10.74,35.67-19.72,26.83-12.62-12.48-12.39-61.48,4.37-63,9.88,1.43,15.65,19.9,15.35,36.18Z"/><path class="cls-2" d="M2035.92,1501.76c.18,22-9.1,37.17-17.76,29-11.63-11-12.52-61.33,2.39-64.31,9.32.52,15.23,18.77,15.37,35.36Z"/><path class="cls-2" d="M2067.54,1496.07c.75,21.93-7.66,38.6-15.8,31.25-11.14-10.07-13.3-61.22.5-65.75,8.72-.42,14.71,17.6,15.3,34.5Z"/><path class="cls-2" d="M2095.71,1487.08c1.27,22.23-6.06,40-13.78,33.5-10.54-9-13.95-61-1.33-67.16,7.83-1.27,14.14,16.36,15.11,33.66Z"/><path class="cls-2" d="M2120.32,1474.87c1.75,22.41-4.43,41.34-11.6,35.56-9.74-7.91-14.27-60.1-3-67.81,7.11-2.25,13.32,14.85,14.65,32.25Z"/><path class="cls-2" d="M616.84,5c-.21,0-.49,0-.68.07l9.24-1,.43,0c-.21,0-.41,0-.61.07-2.8.3-5.58.6-8.38.94Z"/><path class="cls-2" d="M586.44,10.22a10.21,10.21,0,0,1-2.53.17c.6-.38,9.55-1.5,10.19-1.39,0,0,0,0,0,.05s-.26.07-.41.13c-1.68.34-5.33.81-7.22,1Z"/><path class="cls-2" d="M558.12,18.53a7.17,7.17,0,0,1-2.38,0c.25-.52,8.6-1.81,9-1.39,0,.06-.1.09-.33.19a44.51,44.51,0,0,1-6.34,1.16Z"/><path class="cls-2" d="M532.32,30c-1.46.17-2.31.14-2.11-.11.62-.7,7.63-1.81,7.51-1.19,0,.12-.12.12-.2.19a22.52,22.52,0,0,1-5.2,1.11Z"/><path class="cls-2" d="M509.08,44.94c-1.37.16-2.11.05-1.83-.24.71-.78,6.24-1.73,6.22-1.07,0,.1-.1.14-.14.2a12.76,12.76,0,0,1-4.25,1.11Z"/><path class="cls-2" d="M488.77,63.41c-1.13.14-1.73,0-1.42-.35.64-.69,4.52-1.37,4.67-.81,0,.06,0,.11-.08.16a7.14,7.14,0,0,1-3.17,1Z"/><polygon class="cls-2" points="470.67 85.07 472.62 84.28 473.98 84.57 471.93 85.36 470.67 85.07 470.67 85.07"/><polygon class="cls-2" points="457.75 110.27 458.98 109.67 459.98 109.89 458.66 110.44 457.75 110.27 457.75 110.27"/><polygon class="cls-2" points="448.93 138.48 449.28 138.28 449.74 138.32 449.22 138.59 448.93 138.48 448.93 138.48"/><polygon class="cls-2" points="443.34 169.89 443.75 169.61 444.18 169.71 443.67 170.02 443.34 169.89 443.34 169.89"/><polygon class="cls-2" points="440.82 204.5 442.16 203.63 443.64 203.88 442.17 204.8 440.82 204.5 440.82 204.5"/><polygon class="cls-2" points="442.73 241.88 444.6 240.48 446.8 240.89 444.82 242.39 442.73 241.88 442.73 241.88"/><path class="cls-2" d="M451.39,283c-2,.43-3.64-.25-2.78-1.57,1.12-1.59,5.32-2.46,5.86-.79.12,1.15-1.72,2.07-3.08,2.36Z"/><path class="cls-2" d="M462.38,326.14c-2.76.67-4.66-.56-3.48-2.25,1.39-2,6.18-3,7-.86.3,1.5-1.87,2.71-3.54,3.11Z"/><path class="cls-2" d="M477.66,372c-3.5.94-6.16-.66-4.8-2.9,1.65-2.74,7.62-4,8.93-1.29.58,2.14-2.16,3.66-4.13,4.19Z"/><path class="cls-2" d="M497.21,420.24c-4.23,1.21-7.61-.78-6.17-3.6,1.73-3.39,9.08-5.16,10.89-1.78.87,2.5-2.24,4.66-4.72,5.38Z"/><path class="cls-2" d="M521,470.61c-5,1.59-9.08-1-7.16-4.62,2.07-3.87,9.75-5.64,12-1.81,1.23,3-2.13,5.56-4.88,6.43Z"/><path class="cls-2" d="M549,523.15c-5.69,2-10.8-1.11-8.82-5.41,2.16-4.67,11.08-7,14.07-2.49,1.67,3.58-2,6.78-5.25,7.9Z"/><path class="cls-2" d="M581.17,577.32c-6.28,2.45-12.11-1-10.23-6,2-5.39,11.76-8.16,15.44-3,2.11,4-1.77,7.71-5.21,9.06Z"/><path class="cls-2" d="M617.52,633.23c-7.35,3.16-14.41-1.27-11.82-7.4,2.52-6,12.84-8.77,17.16-3.22,2.66,4.59-1.53,9-5.34,10.62Z"/><path class="cls-2" d="M657.91,690.48c-7.91,3.78-16.23-1.21-13.7-8.2,2.46-6.76,13.76-10.25,18.86-4.1,3.32,5.2-1,10.35-5.16,12.3Z"/><path class="cls-2" d="M702.11,748.59c-8.54,4.48-17.72-.72-15.35-8.7,2.24-7.54,14.32-11.72,20.23-5,3.91,5.65-.5,11.45-4.88,13.72Z"/><path class="cls-2" d="M750.21,807.66c-9,5.23-19.39-.34-17.38-9.32,1.9-8.61,14.88-13.59,21.88-6.15,4.86,6.55-.19,13-4.5,15.47Z"/><path class="cls-2" d="M801.8,867c-9.17,5.87-20.82,0-19.16-9.67,1.63-9.43,15.25-15.24,23.1-7.42,5.3,6.69.87,14-3.94,17.09Z"/><path class="cls-2" d="M857.1,926.77c-10.11,7.07-23.54-.22-21.14-11.49,2.1-9.76,15.74-15.58,24.29-7.51,6.17,7.27,1.87,15.47-3.15,19Z"/><path class="cls-2" d="M915.4,986c-10.45,8.1-25,.69-22.88-11.64,1.67-9.78,15-18,25.24-8.86,6.86,7.58,2.74,16.57-2.36,20.5Z"/><path class="cls-2" d="M976.7,1044.77c-10.48,8.92-26.12,1.45-24.62-11.78,1.32-11.28,15.71-18.93,25.94-10.31,8,8.39,3.47,18-1.32,22.09Z"/><path class="cls-2" d="M1040.9,1102.77c-10.59,10-27.55,2.39-26.69-11.88.73-12.33,15.58-21,27-12,8.45,8.31,4.93,19-.28,23.86Z"/><path class="cls-2" d="M1107.59,1159.52a16.6,16.6,0,0,1-28.82-11.81c.23-13.29,15.54-23.19,28-13.88,9.31,8.65,6.11,20.23.84,25.69Z"/><path class="cls-2" d="M1176.26,1214.53c-10.58,12.24-29.87,5-30.35-11.43-.41-14,14.88-25,28.16-15.63,10.08,8.77,7.36,21.13,2.19,27.06Z"/><path class="cls-2" d="M1246.71,1267.6c-9.94,12.78-29.25,7.38-31.78-8.92-2.43-15.58,13.65-29.59,28.47-19.81,10.8,8.88,8.45,22.14,3.31,28.73Z"/><path class="cls-2" d="M1316.73,1316.94c-9.58,13.74-29.21,9.16-32.28-7.56-3-16,12.73-31.34,28-22,11.18,8.62,9.24,22.47,4.3,29.54Z"/><path class="cls-2" d="M1385.78,1362.4c-9.38,15-29.38,11.36-33-6.06-3.39-16.56,12.07-33.59,27.73-24.7,11.6,8.46,10.06,23.06,5.25,30.76Z"/><path class="cls-2" d="M1453.45,1403.79c-8.52,15.37-27.58,14-32.86-2.44-5.86-18.08,9.84-37,25-30.14.52.26,1.19.63,1.71.9,11.88,8.13,10.75,23.41,6.13,31.68Z"/><path class="cls-2" d="M1519.25,1440.93c-8.08,16.32-27,16-32.65-.52-6-17.61,8.62-39.85,25.77-31.7,12,7.62,11.24,23.42,6.88,32.22Z"/><path class="cls-2" d="M1583.25,1474c-7.69,17.43-26.58,18.24-32.63,1.48-6.41-17.84,7.62-41.77,24.87-34.41,12.21,7.18,11.87,23.59,7.76,32.93Z"/><path class="cls-2" d="M1644.81,1502.79c-6.66,17-24.14,20.06-31.18,5.44-8.67-17.92,5.37-44,21.14-39.29a16.82,16.82,0,0,1,1.69.61c12.14,6.56,12.19,23.37,8.35,33.24Z"/><path class="cls-2" d="M1704.07,1527.47c-6.18,17.85-23.4,22.13-30.73,7.59-8.67-17.24,3.78-47,21.74-41.16,12.13,5.94,12.55,23.19,9,33.57Z"/><path class="cls-2" d="M1760.62,1547.93c-5.67,18.76-22.52,24.28-30.06,9.88-8.82-17.1,2.71-48.45,20.44-43.67,12.09,5.31,12.92,23,9.62,33.79Z"/><path class="cls-2" d="M1814.13,1564.21c-5.16,19.48-21.37,26.27-28.91,12.14-8.87-16.72,1.69-49.34,18.94-45.79,11.82,4.57,12.95,22.46,10,33.65Z"/><path class="cls-2" d="M1864.78,1576.56c-4.35,18.87-18.92,27.6-26.89,16.08-10.24-14.75-.69-52.13,16.5-49.68,11.63,3.83,13.08,21.93,10.39,33.6Z"/><path class="cls-2" d="M1912,1584.8c-3.83,19.49-17.66,29.42-25.47,18.36-9.94-14.12-1.48-52.68,14.91-51.55,11.25,3,13,21.19,10.56,33.19Z"/><path class="cls-2" d="M1956.05,1589.19c-3.39,20.06-16.5,31.27-24.17,20.68-9.83-13.51-2.33-53.33,13.45-53.49,9.74,1.88,13.14,18.5,10.72,32.81Z"/><path class="cls-2" d="M1996.5,1589.74c-2.87,20.47-15.08,32.92-22.49,22.9-9.44-12.76-3-53.49,11.92-55.05,9.19,1.05,12.64,17.52,10.57,32.15Z"/><path class="cls-2" d="M2033.56,1586.6c-2.43,21.05-13.78,34.73-20.91,25.26-9-12-3.51-53.8,10.38-56.75,8.76.21,12.27,16.5,10.53,31.49Z"/><path class="cls-2" d="M2066.91,1579.83c-1.95,20.93-12.47,36.06-19,27.45-8.5-11.16-3.92-53.62,8.89-58,8.12-.65,11.57,15.36,10.16,30.58Z"/><path class="cls-2" d="M2096.72,1569.59c-1.59,21.22-11.09,37.65-17.26,29.73-8-10.25-4.29-53.55,7.47-59.42,7.53-1.61,10.92,14.15,9.79,29.69Z"/><path class="cls-2" d="M2122.75,1555.94c-1.18,21.56-9.6,39.12-15.27,31.9-6.91-8.87-4.14-53.28,6.05-60.41,6.61-2.49,10.1,12.74,9.22,28.51Z"/><path class="cls-2" d="M489.15,32.46c-3.11.84-3.42.87-3.54.9,1-.63,13.13-4.06,14-4.1,0,.07,0,.07-.57.27-2.85,1-9.16,2.72-9.86,2.93Z"/><path class="cls-2" d="M461.53,44.72c-2.15.59-3.33.81-3.49.69.27-.82,12.25-4.57,12.93-4.09,0,.12-.09.16-.46.36a69.08,69.08,0,0,1-9,3Z"/><path class="cls-2" d="M436.7,60.52c-2.3.61-3.6.72-3.31.28.85-1.26,11.53-4.67,11.44-3.66,0,.1-.18.24-.33.34a36.14,36.14,0,0,1-7.8,3Z"/><path class="cls-2" d="M414.75,80.09c-2.31.62-3.54.59-3.1,0,1.15-1.66,10-4.59,10.15-3.38,0,.12-.1.26-.21.37-1.31,1.22-4.9,2.52-6.84,3Z"/><path class="cls-2" d="M396.31,103.21c-2.11.58-3.32.45-2.83-.27,1.12-1.67,8.19-4.08,8.61-2.93a.48.48,0,0,1-.09.36c-.83,1-3.59,2.27-5.69,2.84Z"/><path class="cls-2" d="M381.76,129.67c-2,.55-3.1.33-2.54-.52,1.12-1.72,7.19-3.72,7.31-2.41,0,.11,0,.2,0,.29-.65,1.08-3.14,2.19-4.73,2.64Z"/><path class="cls-2" d="M371.32,159.19c-1.62.48-2.62.24-2.25-.48.71-1.49,5.49-3.11,5.84-2a2.09,2.09,0,0,0,0,.24c-.4,1-2.41,1.91-3.58,2.25Z"/><path class="cls-2" d="M364.84,192c-1.34.4-2.19.13-1.84-.55.65-1.28,4.14-2.47,4.51-1.52,0,.05,0,.14,0,.18-.2.83-1.69,1.59-2.68,1.89Z"/><polygon class="cls-2" points="361.19 227.48 362.71 226.24 364.22 226.41 362.69 227.68 361.19 227.48 361.19 227.48"/><polygon class="cls-2" points="363.52 266.38 364.41 265.61 365.27 265.73 364.5 266.53 363.52 266.38 363.52 266.38"/><polygon class="cls-2" points="380.28 353.28 380.86 352.57 381.57 352.74 381.08 353.32 380.28 353.28 380.28 353.28"/><polygon class="cls-2" points="394.25 401.11 395.45 399.46 397.36 399.74 396.13 401.38 394.25 401.11 394.25 401.11"/><path class="cls-2" d="M415.4,452c-1.6.64-3.18,0-2.54-1.41.71-1.63,3.57-2.62,4.36-1.09.36,1.15-.92,2.14-1.82,2.5Z"/><path class="cls-2" d="M439.38,505c-2.45,1-4.5-.06-3.8-2,.85-2.39,5-3.87,6.23-1.66.61,1.56-1.05,3.1-2.43,3.7Z"/><path class="cls-2" d="M467.77,560.06c-3.09,1.42-5.92-.26-4.88-2.89,1.12-2.85,5.89-4.49,7.53-1.95.9,2-.7,3.94-2.65,4.84Z"/><path class="cls-2" d="M500.69,617.18c-3.81,1.83-7.42-.26-6.4-3.67,1.17-3.71,7.1-5.91,9.44-2.57,1.22,2.37-.64,5.08-3,6.24Z"/><path class="cls-2" d="M537.86,675.81c-4.6,2.36-9.12-.44-7.55-4.72s7.84-6.38,10.67-2.65c1.73,3.06-.77,6.13-3.12,7.37Z"/><path class="cls-2" d="M579.45,736c-5.21,2.92-10.85-.42-9.27-5.48s9-7.78,12.52-3.51c2.3,3.68-.52,7.47-3.25,9Z"/><path class="cls-2" d="M625.12,797.14c-5.63,3.38-12.17-.34-10.78-6.13,1.28-5.18,9.36-9.3,13.86-4.11,3,4.32-.31,8.57-3.08,10.24Z"/><path class="cls-2" d="M675,859.25c-6.43,4.15-14.05.06-12.73-6.83,1.29-6.71,10.4-10.66,15.66-5,3.22,4.42.89,9.4-2.93,11.85Z"/><path class="cls-2" d="M728.7,921.85c-7,4.87-15.82.36-14.75-7.49,1-7.55,11.26-12.35,17.38-6.18,4.39,5.6.71,11.37-2.63,13.67Z"/><path class="cls-2" d="M786.06,984.49c-7.7,5.75-18.13.07-16.4-8.92,1.49-7.81,11.91-12.61,18.58-6.23,4.83,5.72,1.65,12.29-2.18,15.15Z"/><path class="cls-2" d="M847,1047c-8.21,6.61-20,.57-18.48-9.48,1.28-8.68,12.48-14.25,20.1-7.41,5.61,6.24,2.43,13.62-1.62,16.89Z"/><path class="cls-2" d="M911,1108.72c-8.6,7.45-21.5,1.27-20.28-9.7,1-9.55,12.56-15.84,21.1-8.59,6.34,6.63,3.31,14.67-.82,18.29Z"/><path class="cls-2" d="M978.1,1169.65c-8.86,8.34-23.13,2-22.41-10,.6-10.32,13-17.61,22.59-10,7.15,7,4.19,16-.18,20Z"/><path class="cls-2" d="M1047.72,1229.07a14,14,0,0,1-24.17-10c.23-11.24,12.86-19.24,23.48-11.28,7.81,7.21,5.13,16.75.69,21.28Z"/><path class="cls-2" d="M1119.85,1286.92a15.05,15.05,0,0,1-26.27-10c-.25-11.88,13.13-21.11,24.58-13.09a16,16,0,0,1,1.69,23.09Z"/><path class="cls-2" d="M1193.77,1342.48c-9.4,11.27-27.18,5.16-28-9.55-.69-12.66,13-23.06,25.44-14.88,9.45,7.69,7.21,18.92,2.6,24.43Z"/><path class="cls-2" d="M1267.17,1394.09c-8.79,11.52-26.17,7.42-28.61-6.77-2.32-13.79,12-26.75,25.49-18.55,9.75,7.53,7.7,19.33,3.12,25.32Z"/><path class="cls-2" d="M1339.82,1441.67c-8.77,12.56-26.78,9.07-29.64-5.71-2.73-14.29,11.64-28.59,25.67-20.72,10.31,7.41,8.55,19.92,4,26.43Z"/><path class="cls-2" d="M1410.76,1484.64c-8.66,13.53-26.9,11-30-4.21-3-14.56,11.25-30.16,25.56-22.8,10.48,7.08,8.9,20.09,4.44,27Z"/><path class="cls-2" d="M1480.14,1523.39c-8.5,14.42-27,12.8-30.54-2.67-3.39-15,10.78-32,25.5-25.07,10.75,6.75,9.42,20.3,5,27.74Z"/><path class="cls-2" d="M1547.26,1557.54c-7.89,14.58-25.23,15-30,.84-5.07-15.31,8.91-35.48,24.45-29,10.87,6.31,9.77,20.26,5.53,28.16Z"/><path class="cls-2" d="M1612.19,1587.36c-7.66,15.45-25.09,17-30.09,2.57-5.38-15.44,8.35-37,24.09-31.21,11,5.8,10.13,20.23,6,28.64Z"/><path class="cls-2" d="M1674.33,1612.58c-7.34,16.21-24.5,18.86-29.64,4.56-5.51-15.34,7.76-38.08,23.36-33.19,10.9,5.24,10.25,19.89,6.28,28.63Z"/><path class="cls-2" d="M1733.78,1633.48c-7.07,17.08-24.11,20.87-29.36,6.56-5.61-15.37,7.23-39.51,22.75-35.53,10.94,4.64,10.45,19.77,6.61,29Z"/><path class="cls-2" d="M1790.14,1650c-6.32,16.56-22,22.29-28,10.22-7.13-14.31,5.23-42.22,21.14-39.08,10.79,4,10.46,19.27,6.82,28.86Z"/><path class="cls-2" d="M1843.31,1662.18c-6,17.24-21.3,24.21-27.26,12.42-7.06-14,4.76-43.27,20.33-41.22,10.58,3.28,10.43,18.82,6.93,28.8Z"/><path class="cls-2" d="M1893.11,1670.21c-5.79,18-20.63,26.25-26.47,14.65-6.89-13.68,4.41-44.14,19.45-43.32,10.36,2.51,10.34,18.27,7,28.67Z"/><path class="cls-2" d="M1939.24,1674c-5.42,18.43-19.54,27.85-25.19,16.76-6.69-13.08,3.93-44.52,18.36-44.88,8.88,1.51,10.47,15.8,6.83,28.12Z"/><path class="cls-2" d="M1981.88,1673.87c-5.16,19.12-18.65,29.84-24.08,19.1-6.38-12.63,3.68-45.17,17.45-46.77,8.49.72,10.06,14.91,6.63,27.67Z"/><path class="cls-2" d="M2020.67,1669.82c-4.45,18.09-16.3,30.21-21.84,22.38-7.15-10.07,2.31-46.35,15.58-49.34,8-.09,9.47,13.91,6.26,27Z"/><path class="cls-2" d="M2055.82,1662c-4.19,18.5-15.29,31.85-20.44,24.61-6.65-9.3,2.21-46.48,14.6-50.91,7.48-.88,8.86,12.94,5.84,26.3Z"/><path class="cls-2" d="M2087.1,1650.48c-3.95,19-14.23,33.63-18.94,27-6.06-8.54,2.25-46.74,13.66-52.59,6.93-1.74,8.13,11.93,5.28,25.62Z"/><path class="cls-2" d="M2114.47,1635.49c-3.6,18.78-13.11,34.75-17.2,28.93-5.12-7.21,2.61-46.29,12.55-53.39,6.11-2.6,7.32,10.53,4.65,24.46Z"/><path class="cls-2" d="M394.26,69.53c-3.82,1.71-4.13,1.81-4.33,1.89,1.21-.87,16-7.7,17.34-8.05a3.9,3.9,0,0,1-.71.42c-2.89,1.47-9.57,4.48-12.3,5.74Z"/><path class="cls-2" d="M368,86.2c-3.51,1.57-4.07,1.57-4.25,1.57,0,0-.06-.08-.06-.1,1.31-1.58,15.15-8.33,15.94-7.79,0,.17-.11.23-.56.58A92.74,92.74,0,0,1,368,86.2Z"/><path class="cls-2" d="M344.57,106.86c-2.72,1.19-4.36,1.61-4.3,1.08.22-1.78,14-8.92,14.77-7.65.08.17-.15.43-.38.67-2.13,2-7.32,4.66-10.09,5.9Z"/><path class="cls-2" d="M324.86,131.12c-3,1.3-4.68,1.52-4.18.48,1.3-2.54,12.89-8.52,13.22-6.79a1.08,1.08,0,0,1-.23.61c-1.6,2-6.25,4.57-8.81,5.7Z"/><path class="cls-2" d="M309.11,158.85c-2.75,1.2-4.47,1.32-4.18.27.74-2.8,11.33-8.47,12-6.47a.89.89,0,0,1-.11.63c-1.13,2-5.2,4.45-7.75,5.57Z"/><path class="cls-2" d="M297.55,189.78c-2.67,1.17-4.38,1.12-4-.14.88-2.89,9.56-7.58,10.57-5.69a.92.92,0,0,1,0,.59c-.81,2.07-4.46,4.31-6.57,5.24Z"/><path class="cls-2" d="M290.14,224.08c-2.56,1.13-4.26.88-3.81-.52.9-2.79,8.26-6.74,9.4-5.07a1,1,0,0,1,.09.62c-.48,1.88-3.6,4-5.68,5Z"/><path class="cls-2" d="M287,261.56c-2.25,1-4.25.94-3.63-.78,1-3,7.46-6.27,8.31-4.23a2.22,2.22,0,0,1,.06.44c-.22,1.87-3,3.79-4.74,4.57Z"/><path class="cls-2" d="M288.23,302.06c-2.16,1-3.67.45-3.1-1.07.89-2.47,5.86-4.92,6.72-3.31a3.58,3.58,0,0,1,.11.35c0,1.69-2.3,3.37-3.73,4Z"/><path class="cls-2" d="M293.87,345.62c-1.76.82-3.41.43-2.78-1.15.89-2.32,5-4.12,5.58-2.47a.56.56,0,0,1,.07.16c.09,1.4-1.66,2.9-2.87,3.46Z"/><path class="cls-2" d="M303.94,391.89c-1.46.71-2.53.15-2.09-1.09.63-1.67,3.47-2.83,4-1.64a.53.53,0,0,1,.06.14c.15,1-1.11,2.16-2,2.59Z"/><polygon class="cls-2" points="316.83 440.8 317.97 438.95 319.77 439.13 318.63 440.95 316.83 440.8 316.83 440.8"/><polygon class="cls-2" points="336.87 492.45 337.24 491.63 338.11 491.7 337.62 492.59 336.87 492.45 336.87 492.45"/><polygon class="cls-2" points="388.69 603.87 389.12 602.75 390.37 602.76 389.85 604.06 388.69 603.87 388.69 603.87"/><polygon class="cls-2" points="420.92 663.14 421.69 660.96 423.84 661.11 423.04 663.28 420.92 663.14 420.92 663.14"/><path class="cls-2" d="M460.76,724.59c-2,1.2-4-.13-3.44-2.24.52-1.85,3.31-3.27,4.71-1.38.8,1.47-.27,3-1.27,3.62Z"/><path class="cls-2" d="M503.11,787.29c-2.61,1.66-5.51.12-5-2.68s4.61-5,6.59-2.55c1.28,2.1-.15,4.31-1.57,5.23Z"/><path class="cls-2" d="M549.79,850.92c-3.22,2.14-6.93,0-6.23-3.6s5.32-5.59,7.79-2.7c1.7,2.48.09,5.19-1.56,6.3Z"/><path class="cls-2" d="M600.87,915.56c-4,2.86-8.83.23-8.06-4.36s6.39-7.23,9.75-3.53c2.24,3.06.34,6.49-1.69,7.89Z"/><path class="cls-2" d="M655.91,980.54c-4.42,3.29-10.1.34-9.54-4.95s6.9-8.42,11-4.24c2.93,3.72.67,7.62-1.45,9.19Z"/><path class="cls-2" d="M715.1,1045.88a7,7,0,0,1-11.52-6.45c.87-5.61,8-9.08,12.78-4.51a7.56,7.56,0,0,1-1.26,11Z"/><path class="cls-2" d="M777.93,1110.93c-5.89,4.86-14.49.37-13.57-7.08.83-6.6,8.75-10.68,14.51-5.49a8.63,8.63,0,0,1-.94,12.57Z"/><path class="cls-2" d="M844,1175.1c-6.21,5.47-15.91.71-15.26-7.45.56-7.23,9.26-12.05,15.75-6.55a9.57,9.57,0,0,1-.49,14Z"/><path class="cls-2" d="M913.17,1238.2c-6.61,6.19-17.43,1.29-17-7.72.35-7.25,9.06-13.79,17-7.42,5.75,5.65,3.06,12.3,0,15.14Z"/><path class="cls-2" d="M985.41,1300a11.19,11.19,0,0,1-19.15-8.08,11.32,11.32,0,1,1,19.15,8.08Z"/><path class="cls-2" d="M1059.93,1359.87c-7.36,7.73-20.65,2.61-20.85-8.1a12.13,12.13,0,1,1,20.85,8.1Z"/><path class="cls-2" d="M1136.62,1417.42c-7.7,8.62-22.18,3.61-22.76-7.91a13.12,13.12,0,1,1,22.76,7.91Z"/><path class="cls-2" d="M1213,1470.91c-7.86,9.44-23,4.85-23.8-7.21-.73-10.43,10.9-19.34,21.48-12.91,8.08,6.18,6.22,15.49,2.32,20.12Z"/><path class="cls-2" d="M1288.42,1520c-8.14,10.35-24.09,6.25-25.1-6.45-.91-11,11.12-21.09,22.32-14.83,8.61,6.16,6.81,16.13,2.78,21.28Z"/><path class="cls-2" d="M1362.4,1564.54c-7.87,10.72-23.68,8.29-26-4-2.26-12,10.56-24.43,22.84-18.13,9,6,7.27,16.56,3.18,22.13Z"/><path class="cls-2" d="M1434.36,1604.25c-7.85,11.41-23.88,9.69-26.44-2.75-2.47-12.13,10.41-25.54,23-19.72,9.17,5.62,7.56,16.54,3.46,22.47Z"/><path class="cls-2" d="M1504.4,1639.4c-8,12.39-24.47,11.59-27.09-1.34-2.54-12.44,10.53-27.17,23.32-21.89,9.49,5.32,7.93,16.8,3.77,23.23Z"/><path class="cls-2" d="M1571.83,1669.72c-7.92,13.06-24.45,13.13-27.18.19-2.65-12.53,10.34-28.21,23.22-23.56,9.55,4.91,8.06,16.62,4,23.37Z"/><path class="cls-2" d="M1636.72,1695.49c-7.54,13.19-23.24,15.11-27.1,3.31-4.14-12.76,9.14-31.4,23.05-27.18,9.65,4.5,8.18,16.65,4,23.87Z"/><path class="cls-2" d="M1698.65,1716.59c-7.51,13.93-23.26,16.88-27.15,5.09-4.24-12.74,9-32.65,22.92-29.17,9.73,4,8.34,16.45,4.23,24.08Z"/><path class="cls-2" d="M1757.35,1733.06c-7.35,14.45-22.88,18.43-26.8,6.9-4.16-12.28,9.07-33.43,22.56-30.9,9.63,3.34,8.27,16.06,4.24,24Z"/><path class="cls-2" d="M1812.74,1745.06c-7.33,15.24-22.69,20.42-26.47,8.92-4.11-12.44,8.77-34.55,22.33-32.93,9.51,2.73,8.14,15.7,4.14,24Z"/><path class="cls-2" d="M1864.47,1752.58c-7,15.46-22.15,21.8-25.7,10.84-3.81-11.76,9-35.09,21.75-34.51,9.23,2,7.86,15.06,4,23.67Z"/><path class="cls-2" d="M1912.67,1755.91c-6.58,15.29-20.37,23.26-24.56,14.22-5-10.84,7.53-37.17,20.89-37.66,9,1.28,7.54,14.46,3.67,23.44Z"/><path class="cls-2" d="M1957.11,1755c-6.46,15.81-19.75,25-23.73,16.33-4.63-10.09,7.94-37.88,20.47-39.5,8.5.47,7,14.1,3.26,23.17Z"/><path class="cls-2" d="M1997.6,1750.06c-6.36,16.27-19,26.58-22.59,18.37-4.16-9.49,8-38,19.74-40.83,7.29-.31,7.13,11.43,2.85,22.46Z"/><path class="cls-2" d="M2034.13,1741.21c-6.16,16.58-18.07,28-21.21,20.35-3.67-8.89,8.14-38.15,19-42.13,6.75-1.06,6.42,10.47,2.19,21.78Z"/><path class="cls-2" d="M2066.81,1728.51c-6,16.82-17.38,29.69-20,22.66-2.8-7.45,7.71-38.09,18.48-43.7,6.25-1.89,5.7,9.48,1.55,21Z"/><path class="cls-2" d="M2095.41,1712.28c-5.42,15.82-15.44,29.82-18.19,25.33-3.44-5.59,8.05-38.82,17.38-45.52,6-2.91,4.35,9.83.81,20.19Z"/><path class="cls-2" d="M304.16,121.7c-4,2.63-4.55,3-4.81,3.09,1.74-1.53,18-12.37,19.55-13a6,6,0,0,1-.87.69c-1.56,1.1-3.92,2.73-13.87,9.25Z"/><path class="cls-2" d="M279.54,143.37c-4.06,2.65-4.7,2.7-4.9,2.73,0,0,0-.14,0-.17,1.53-2.44,16.35-12.87,18.41-13,0,0,0,.09.07.15a5.66,5.66,0,0,1-.62.75c-2.83,2.69-9.45,7.26-12.94,9.5Z"/><path class="cls-2" d="M258.74,168.77c-3.1,2-5,2.75-5,2.07,0-2.39,15.75-14,16.87-12.37.13.19-.11.54-.37.93-2.18,2.78-8,7.15-11.47,9.37Z"/><path class="cls-2" d="M242,197.66c-3.27,2-5.37,2.69-5.23,1.58.3-3.23,14.16-13.73,15.75-12,.24.25.07.64-.1,1.06-1.68,2.95-7.11,7.21-10.42,9.32Z"/><path class="cls-2" d="M229.44,229.88c-3.32,2.07-5.47,2.44-5.25.93.51-3.71,12.38-12.88,14.25-11,.28.27.19.68.07,1.08-1.17,3-6,7.09-9.07,9Z"/><path class="cls-2" d="M221.18,265.5c-3.36,2.11-5.62,2.24-5.29.32.76-4.44,11.69-12.66,13.28-10a1.78,1.78,0,0,1,.1,1c-.76,3-5.2,6.95-8.09,8.77Z"/><path class="cls-2" d="M217.28,304.43c-3.38,2.13-5.68,2-5.23-.34.88-4.68,10.26-11.7,12.08-9.08a1.59,1.59,0,0,1,.22.94c-.39,3-4.36,6.78-7.07,8.48Z"/><path class="cls-2" d="M217.87,346.45c-3.25,2-5.61,1.59-5.06-1,1-4.52,8.78-10.25,10.73-7.85a2,2,0,0,1,.31.89c0,2.92-3.54,6.4-6,7.95Z"/><path class="cls-2" d="M223,391.62c-3.19,2-5.52,1.26-4.92-1.55,1-4.55,8.19-9.39,9.76-6.56a4.49,4.49,0,0,1,.21.65c.23,3-3,6.12-5.05,7.46Z"/><path class="cls-2" d="M232.64,439.53c-3,1.89-5.19,1-4.52-1.82.92-4,6.81-7.82,8.37-5.36a2.26,2.26,0,0,1,.23.57c.41,2.5-2.14,5.36-4.08,6.61Z"/><path class="cls-2" d="M246.94,490.4c-2.62,1.71-4.83.85-4.38-1.69.67-3.76,5.79-7.11,7.41-4.83a3,3,0,0,1,.24.51c.6,2.45-1.69,5-3.27,6Z"/><path class="cls-2" d="M265.89,543.79c-2,1.31-4.17.63-3.72-1.85.54-3,4.47-5.45,5.94-3.62a1.94,1.94,0,0,1,.24.43c.61,2-1.06,4.13-2.46,5Z"/><path class="cls-2" d="M289.53,599.71c-2,1.31-3.74.28-3.29-1.85.57-2.55,4-4.36,5.08-2.63a1,1,0,0,1,.11.2c.62,1.64-.77,3.52-1.9,4.28Z"/><polygon class="cls-2" points="315.49 657.31 316.41 654.56 318.9 654.58 317.93 657.51 315.49 657.31 315.49 657.31"/><polygon class="cls-2" points="349.07 717.57 349.64 715.6 351.47 715.61 350.81 717.63 349.07 717.57 349.07 717.57"/><polygon class="cls-2" points="387.47 779.46 387.63 778.45 388.59 778.5 388.27 779.47 387.47 779.46 387.47 779.46"/><polygon class="cls-2" points="430.16 842.89 430.14 842.6 430.48 842.61 430.41 842.99 430.16 842.89 430.16 842.89"/><polygon class="cls-2" points="476.42 908.48 476.62 907.14 477.98 907.07 477.65 908.5 476.42 908.48 476.42 908.48"/><polygon class="cls-2" points="526.95 974.98 527.19 972.17 529.89 972.23 529.5 975.05 526.95 974.98 526.95 974.98"/><path class="cls-2" d="M585.4,1042.28a2.76,2.76,0,0,1-4.57-2.43c.19-2.47,3.29-4.21,5.22-2.2a3.25,3.25,0,0,1-.65,4.63Z"/><path class="cls-2" d="M645.49,1109.36a3.7,3.7,0,0,1-6-3.48,3.82,3.82,0,0,1,6.46-2.4,4.13,4.13,0,0,1-.51,5.88Z"/><path class="cls-2" d="M709.53,1176.26a4.79,4.79,0,0,1-7.87-4.24c.36-3.46,4.78-6.48,8.35-3.23a5.21,5.21,0,0,1-.48,7.47Z"/><path class="cls-2" d="M777,1242.21a5.74,5.74,0,1,1,.13-8.69,5.89,5.89,0,0,1-.13,8.69Z"/><path class="cls-2" d="M847.94,1307.26a6.9,6.9,0,1,1-.07-10.28,6.92,6.92,0,0,1,.07,10.28Z"/><path class="cls-2" d="M921.87,1370.77c-5,4.84-13.58,1.11-13.62-6,0-6.1,7.16-10.36,13.18-5.81a7.93,7.93,0,0,1,.44,11.78Z"/><path class="cls-2" d="M998.22,1432.07c-5.4,5.4-15,1.58-15.25-6.15-.25-6.64,7.5-11.47,14.29-6.72,5.41,4.68,3.47,10.39,1,12.87Z"/><path class="cls-2" d="M1076.92,1491.1c-5.92,6.18-16.9,2.22-17.29-6.2-.34-7.33,8.33-13.07,16-8.05,5.82,4.68,4.26,11.16,1.32,14.25Z"/><path class="cls-2" d="M1155.39,1545.84c-6.41,7-18,3.34-18.53-5.78-.47-8,8.51-14.26,16.87-9.19,6.29,4.75,4.77,11.63,1.66,15Z"/><path class="cls-2" d="M1232.93,1596.07c-6.69,7.64-19.44,4.17-20-5.4-.53-8.33,9.28-15.63,18.15-10.72,6.85,4.85,5.24,12.37,1.9,16.12Z"/><path class="cls-2" d="M1308.85,1641.34c-7,8.39-20.09,5.44-20.88-4.64-.71-8.64,9.45-16.67,18.78-11.94,7.16,4.64,5.53,12.51,2.1,16.58Z"/><path class="cls-2" d="M1383.13,1682c-7.34,9.22-21.19,6.84-22.09-3.76-.8-9.16,10-18.26,19.93-13.72,7.52,4.54,5.81,12.93,2.16,17.48Z"/><path class="cls-2" d="M1455.28,1717.63c-7.13,9.29-21.07,8.29-22.91-1.62-1.8-9.75,9.77-20.91,20.53-16.49,7.92,4.3,6.15,13.17,2.38,18.11Z"/><path class="cls-2" d="M1524.76,1748.3c-7.28,9.91-21.43,9.7-23.31-.34-1.82-9.85,10-22,21-18.06,8,4,6.16,13.16,2.32,18.4Z"/><path class="cls-2" d="M1591.5,1774.14c-7.37,10.4-21.67,11-23.54.93-1.68-9,9.42-23,21.27-19.43,8,3.61,6.17,13,2.27,18.5Z"/><path class="cls-2" d="M1655.4,1795.22c-7.62,11.23-22.23,12.72-24,2.51-1.76-10.06,10.55-24,21.76-21.36,8.23,3.2,6.26,12.94,2.26,18.85Z"/><path class="cls-2" d="M1716,1811.56c-7.65,11.64-22.21,14.06-23.94,4s10.62-24.74,21.82-22.73c8.17,2.68,6.19,12.58,2.12,18.75Z"/><path class="cls-2" d="M1773.19,1823.22c-7.54,11.89-21.3,15.86-23.82,6.86-2.69-9.75,10.17-27,22-25.75,8.17,2.17,6,12.37,1.87,18.89Z"/><path class="cls-2" d="M1826.74,1830.36c-7.61,12.46-21.32,17.49-23.64,8.63-2.49-9.31,10.73-27.89,22.06-27.46,8.08,1.58,5.79,11.94,1.58,18.83Z"/><path class="cls-2" d="M1876.45,1833c-7.65,13-21,19.06-23.11,10.44-2.16-9,11.05-28.44,22-28.94,7.78.91,5.32,11.39,1.11,18.5Z"/><path class="cls-2" d="M1922.42,1831.42c-7.72,13.44-20.83,20.65-22.62,12.39-1.93-8.73,11.35-29.15,22-30.62,7.41.18,4.74,11,.62,18.23Z"/><path class="cls-2" d="M1964.31,1825.64c-7.17,12.86-19.22,21.35-21.53,15.11-2.67-7.34,10.89-30.16,21.43-32.76,7-.53,4.22,10.24.1,17.65Z"/><path class="cls-2" d="M2002.29,1815.86c-7.29,13.45-18.93,23.11-20.81,17.19-2.14-6.93,11.51-30.81,21.42-34.49,6.65-1.32,3.58,9.56-.61,17.3Z"/><path class="cls-2" d="M2036.16,1802.16c-7.14,13.6-18.48,24.59-19.87,19.27-1.66-6.35,12-31.14,21.25-36,6-2.08,2.92,8-.4,14.88-.3.53-.69,1.3-1,1.86Z"/><path class="cls-2" d="M2065.86,1784.8c-6.65,13-16.9,25-18.55,21.77-2.12-4.12,12-31.56,20.74-37.79,3.88-2,3,2.65,2.15,5.67a59.56,59.56,0,0,1-4.34,10.35Z"/><path class="cls-2" d="M220.9,189.32c-3.7,3.38-4.75,4.32-5.11,4.59.27-.26.58-.67,4.47-4.36l4.54-4.31c8.27-7.74,11.48-10.4,12-10.75a6.21,6.21,0,0,1-.89,1c-2,2-5,4.75-15,13.83Z"/><path class="cls-2" d="M199.23,215.71c-4.35,3.89-5.07,4.06-5.3,4.1-.6-1.53,16.77-18.62,19.36-19.06a.74.74,0,0,0,.08.22,4.53,4.53,0,0,1-.6,1c-2.89,3.77-9.85,10.42-13.54,13.75Z"/><path class="cls-2" d="M181.63,245.65c-3.45,3.06-5.65,4.39-5.75,3.53-.29-2.89,17-20.38,18.35-18.56.2.24,0,.78-.29,1.32-2.32,4.12-8.78,10.6-12.31,13.71Z"/><path class="cls-2" d="M168.33,279c-3.5,3.07-5.87,4.15-5.85,2.66,0-4.24,14.84-19.63,16.85-17.51.29.31.14.84,0,1.41-1.61,4.07-7.37,10.32-11,13.44Z"/><path class="cls-2" d="M159.36,315.76c-3.74,3.23-6.29,4-6.19,1.88.26-5.4,13.22-19.08,15.76-16.64.39.37.32.92.23,1.52-1.12,4.44-6.6,10.46-9.8,13.24Z"/><path class="cls-2" d="M154.83,355.93c-3.84,3.28-6.61,3.67-6.4.91.4-6,11.83-18.09,14.74-15.58a2,2,0,0,1,.45,1.57c-.57,4.34-5.49,10.26-8.79,13.1Z"/><path class="cls-2" d="M154.82,399.11c-3.92,3.33-6.77,3.31-6.47-.05.54-6.58,11.11-17.24,13.63-13.75a2.71,2.71,0,0,1,.37,1.31c-.1,4.28-4.46,9.88-7.53,12.49Z"/><path class="cls-2" d="M159.43,445.51c-4,3.36-7,2.92-6.62-.93.6-6.61,10-15.79,12.72-12.46a3.52,3.52,0,0,1,.51,1.31c.28,4.24-3.7,9.61-6.61,12.08Z"/><path class="cls-2" d="M168.64,494.75c-3.88,3.26-7,2.46-6.54-1.71.7-6.57,8.63-14,11.46-10.76a3,3,0,0,1,.6,1.27c.6,4-2.86,9-5.52,11.2Z"/><path class="cls-2" d="M182.62,546.93c-3.86,3.25-7.11,2-6.57-2.45.79-6.49,8.29-12.79,10.83-9.11a3.21,3.21,0,0,1,.43.87c.88,3.9-2.22,8.6-4.69,10.69Z"/><path class="cls-2" d="M201.3,601.67c-3.48,2.92-6.62,1.69-6.39-2.43.32-5.56,6.54-11.12,9.38-8.4A3.67,3.67,0,0,1,205,592c1.07,3.64-1.51,7.87-3.71,9.69Z"/><path class="cls-2" d="M224.75,658.94c-3.26,2.74-6.49,1.21-6.16-2.9.43-5.34,6.24-9.87,8.77-6.82a7.2,7.2,0,0,1,.48.77c1.09,3-.75,7-3.09,9Z"/><path class="cls-2" d="M252.91,718.26c-3,2.5-6.1.82-5.66-3,.54-4.77,5.72-8.19,7.8-5.2.08.13.15.28.22.4,1.26,3-.62,6.37-2.36,7.85Z"/><path class="cls-2" d="M285.88,779.72c-2.59,2.17-5.44.69-5.26-2.76.23-4.06,4.36-7,6.6-4.71a5.24,5.24,0,0,1,.44.61c1.27,2.62-.28,5.58-1.78,6.86Z"/><path class="cls-2" d="M323.54,842.9c-2.54,2.18-5,.18-4.77-2.75.34-3.59,4-5.67,5.84-3.36a2.77,2.77,0,0,1,.22.29,4.85,4.85,0,0,1-1.29,5.82Z"/><path class="cls-2" d="M365.73,907.28c-1.76,1.51-3.9.31-3.77-2.13.16-2.68,2.93-4.29,4.43-2.56l.16.2a3.54,3.54,0,0,1-.82,4.49Z"/><polygon class="cls-2" points="409.94 972.88 410.29 969.55 413.06 969.69 412.81 972.94 409.94 972.88 409.94 972.88"/><polygon class="cls-2" points="462.23 1039.25 462.28 1037.36 463.95 1037.45 463.82 1039.27 462.23 1039.25 462.23 1039.25"/><polygon class="cls-2" points="518.52 1106.27 518.62 1105.51 519.26 1105.45 519.23 1106.25 518.52 1106.27 518.52 1106.27"/><polygon class="cls-2" points="578.52 1173.88 578.54 1173.06 579.28 1173.07 579.26 1173.89 578.52 1173.88 578.52 1173.88"/><polygon class="cls-2" points="641.82 1241.88 641.75 1239.66 643.85 1239.63 643.93 1241.88 641.82 1241.88 641.82 1241.88"/><polygon class="cls-2" points="708.76 1308.92 708.66 1305.6 711.8 1305.56 712.09 1308.9 708.76 1308.92 708.76 1308.92"/><path class="cls-2" d="M783.46,1374.92a3.22,3.22,0,0,1-5.29-2.52,3.05,3.05,0,0,1,5.14-2.13,3.13,3.13,0,0,1,.15,4.65Z"/><path class="cls-2" d="M858.26,1439.45a4.43,4.43,0,0,1-7.34-3.26c0-3,3.47-5.54,7-2.87a4.06,4.06,0,0,1,.33,6.13Z"/><path class="cls-2" d="M935.65,1501.63c-3.28,3.16-9.19.43-8.9-4.12.19-3.51,4.54-5.8,8.28-3.15,3.14,2.71,2,5.91.62,7.27Z"/><path class="cls-2" d="M1015.45,1561.46c-4,3.89-11.15.9-10.93-4.55.16-4.28,5.38-7,10.06-4,3.32,2.64,3,6.43.87,8.56Z"/><path class="cls-2" d="M1095.44,1617.16c-4.65,4.59-13.09,1.4-12.8-4.83.25-4.39,6-8.47,11.76-5,3.85,2.88,3.54,7.38,1,9.86Z"/><path class="cls-2" d="M1174.09,1667.77c-4.77,4.85-13.64,2.38-14-3.89-.31-5.56,6.45-10.06,12.72-6.66,4.74,3.34,3.6,8.15,1.25,10.55Z"/><path class="cls-2" d="M1251.54,1713.64c-5.28,5.53-15.14,3.23-15.54-3.63-.35-6,7.41-11.37,14.28-7.87,5.54,3.52,3.74,8.95,1.26,11.5Z"/><path class="cls-2" d="M1327.05,1754.39c-5.79,6.19-16.15,4.28-16.53-3-.34-6.4,7.78-12.3,15.26-8.92,5.52,3.28,4.06,9,1.27,12Z"/><path class="cls-2" d="M1400.58,1790.27c-6.14,6.71-17.45,5.17-17.82-2.44-.31-6.65,8.66-13.45,16.54-10.33,6,3.24,4.36,9.38,1.28,12.77Z"/><path class="cls-2" d="M1471.63,1821.11c-6.58,7.4-18.56,6.37-18.83-1.59-.24-7,9.33-14.58,17.62-11.67,6.31,3,4.51,9.58,1.21,13.26Z"/><path class="cls-2" d="M1539.76,1846.88c-7.06,8.08-19.19,7.75-19.35-.55-.18-7.1,9.83-15.46,18.36-13,6.39,2.71,4.43,9.54,1,13.52Z"/><path class="cls-2" d="M1605,1867.76c-6.94,8.11-19.14,9-20.11,1.49s10-17.5,19.19-15.34c6.67,2.52,4.54,9.62.92,13.85Z"/><path class="cls-2" d="M1666.94,1883.79c-7.19,8.6-19.6,10.26-20.41,2.75-.8-7.35,10.47-18.16,19.69-16.57,6.73,2.07,4.45,9.35.72,13.82Z"/><path class="cls-2" d="M1725.45,1895.11c-7.58,9.21-20.21,11.75-20.8,4.12-.54-6.74,10.55-19.21,20.51-18.18,6.77,1.64,4.23,9.22.29,14.06Z"/><path class="cls-2" d="M1780.16,1901.7c-7.41,9.22-19.35,13-20.61,6.43-1.35-7,11-20.55,20.68-20.26,6.67,1.15,4,8.78-.07,13.83Z"/><path class="cls-2" d="M1831.21,1903.84c-7.62,9.67-19.61,14.36-20.69,8.1-1.14-6.75,11.84-21.44,21.34-22,6.59.67,3.57,8.5-.65,13.91Z"/><path class="cls-2" d="M1878.36,1901.56c-7.94,10.28-19.89,16-20.62,9.86-.8-6.55,12.57-22.2,21.87-23.54,6.39,0,3.13,8-1.25,13.68Z"/><path class="cls-2" d="M1921.39,1895c-8.07,10.65-19.68,17.31-20.05,11.52-.44-6.21,13.06-22.58,21.93-24.79,6.15-.68,2.57,7.39-1.88,13.27Z"/><path class="cls-2" d="M1960.33,1884.49c-7.64,10.3-18.5,18.06-19.38,13.8-1-4.93,13.25-23.3,22-26.61,6-1.4.76,7.66.15,8.66a47.94,47.94,0,0,1-2.79,4.15Z"/><path class="cls-2" d="M1995.32,1869.93c-7.72,10.56-18.48,19.49-18.89,15.73-.46-4.07,13.46-23.52,22.33-28.16,3.69-1.39,2.47,2.22,1.39,4.54a46,46,0,0,1-4.83,7.89Z"/><path class="cls-2" d="M2026,1851.68c-7.31,10.14-17.19,20-18,17.85-1-2.7,14.44-24.15,22.21-29.63.8-.47,2.74-1.59,1.91,1.2-.66,2.2-2.93,6.12-6.16,10.58Z"/><path class="cls-2" d="M147.29,271.79c-1.71,2.13-3.36,4.36-5.15,6.42.28-.44.61-.86.92-1.31l13.66-17.78c1.3-1.63,5.61-7,6.51-7.77a9.68,9.68,0,0,1-.91,1.38c-2.17,2.9-2.17,2.9-15,19.06Z"/><path class="cls-2" d="M129.2,302.53c-4.37,5.4-5.11,5.66-5.36,5.77-.74-1.93,16.61-25.48,19.33-26.25.15.32.18.37-.43,1.61-3.09,5.56-10.81,15.5-13.54,18.87Z"/><path class="cls-2" d="M115.32,336.83c-3.51,4.27-5.71,6.17-5.87,5-.6-3.95,16.52-27.84,18.32-25.55.23.29,0,1-.21,1.7-2.12,5.49-8.63,14.49-12.24,18.84Z"/><path class="cls-2" d="M105.87,374.42c-3.58,4.26-6.09,5.86-6.21,3.93-.39-5.47,14.51-26.73,16.94-24.2.36.34.24,1.06.14,1.8-1.44,5.71-7.42,14.35-10.87,18.47Z"/><path class="cls-2" d="M100.81,415.48c-3.83,4.48-6.55,5.67-6.68,2.86-.28-7,12.82-26,15.94-23.06a2.61,2.61,0,0,1,.42,2c-.74,5.65-6.1,14.07-9.68,18.25Z"/><path class="cls-2" d="M100.33,459.56c-3.89,4.45-6.88,5.14-7,1.53-.2-7.71,11.24-24.18,14.73-21.24a2.9,2.9,0,0,1,.71,2c-.17,5.7-5,13.78-8.46,17.72Z"/><path class="cls-2" d="M104.46,506.83c-3.81,4.33-7,4.82-7.43,1.18-1-7.89,9.83-23.77,13.86-20.45a3,3,0,0,1,.91,2.06c.37,5.73-4.07,13.52-7.34,17.21Z"/><path class="cls-2" d="M113.27,556.92c-3.87,4.33-7.23,4.32-7.66,0-.82-8.27,8.54-21.7,12.8-18.43a3.58,3.58,0,0,1,1.12,2c.83,5.58-3.17,13-6.26,16.41Z"/><path class="cls-2" d="M126.8,610c-4,4.38-7.71,3.85-8.08-1.18-.62-8.42,7.73-19.95,12.1-16.75a3.86,3.86,0,0,1,1.28,2.08c1.23,5.57-2.34,12.6-5.3,15.85Z"/><path class="cls-2" d="M145.11,665.55c-4,4.33-8,3.26-8.25-2.21-.46-8.52,7.57-18.44,11.63-14.33a4.48,4.48,0,0,1,1,1.65c1.57,5.33-1.63,11.92-4.37,14.89Z"/><path class="cls-2" d="M168.2,723.66c-3.93,4.15-8.17,2.53-8.39-3.19-.3-8,7-16.28,10.93-12.49a5,5,0,0,1,1.07,1.6c1.84,5.14-1,11.32-3.61,14.08Z"/><path class="cls-2" d="M196.05,783.73c-3.89,4.06-8.24,2-8.28-3.85-.08-7.3,6.2-13.92,10-10.59a6,6,0,0,1,1.09,1.49c2,4.79-.41,10.46-2.84,13Z"/><path class="cls-2" d="M228.79,846c-3.8,3.88-8.36,1.37-8.28-4.57.12-7,6.2-12.31,9.72-8.43.26.28.51.71.74,1,2.28,4.75-.15,9.86-2.18,12Z"/><path class="cls-2" d="M266.24,909.83c-3.55,3.54-7.91,1.22-8.1-4.3-.2-6.54,5.46-11.31,9.06-7.64a9.94,9.94,0,0,1,.73,1c2.23,4.14.36,8.91-1.69,11Z"/><path class="cls-2" d="M308.21,974.89c-3.25,3.27-7.54.77-7.51-4.41.05-5.42,4.83-9,8-6a5.1,5.1,0,0,1,.68.84,8,8,0,0,1-1.13,9.54Z"/><path class="cls-2" d="M355,1041.35c-2.87,2.76-7.41.61-7.15-4.61.21-4.88,4.75-7.52,7.6-4.39a2,2,0,0,1,.31.38,7,7,0,0,1-.76,8.62Z"/><path class="cls-2" d="M406,1108.16c-2.55,2.47-6.29.19-6.24-3.82s3.83-6.12,6.36-3.49c.1.11.2.25.29.34a5.49,5.49,0,0,1-.41,7Z"/><path class="cls-2" d="M461.45,1175.56c-2.21,2.14-5.53.23-5.52-3.13s3.31-5.06,5.44-3a1.6,1.6,0,0,1,.26.26,4.46,4.46,0,0,1-.18,5.9Z"/><path class="cls-2" d="M520.85,1242.78c-1.68,1.59-4.32,0-4.19-2.55.1-2.18,2.42-3.49,4.22-1.7a3.12,3.12,0,0,1,0,4.25Z"/><polygon class="cls-2" points="581.77 1309.69 581.58 1306.7 584.35 1306.7 584.43 1309.62 581.77 1309.69 581.77 1309.69"/><polygon class="cls-2" points="649.78 1375.86 649.63 1374.12 651.34 1374.06 651.61 1375.97 649.78 1375.86 649.78 1375.86"/><polygon class="cls-2" points="721.42 1440.83 721.38 1440.42 721.79 1440.41 721.82 1440.8 721.42 1440.83 721.42 1440.83"/><polygon class="cls-2" points="795.33 1505.08 795.11 1504.04 796.27 1504.03 796.32 1505.06 795.33 1505.08 795.33 1505.08"/><polygon class="cls-2" points="871.61 1567.53 871.27 1565.44 873.55 1565.32 873.88 1567.43 871.61 1567.53 871.61 1567.53"/><path class="cls-2" d="M953.82,1627.48c-1.76,1.59-5,0-4.73-2.31.22-1.75,2.61-2.48,4.45-1.29a2.31,2.31,0,0,1,.28,3.6Z"/><path class="cls-2" d="M1034,1683.1c-2.26,2-6.42.37-6.21-2.38.17-2,2.86-3.8,5.68-2.07a2.78,2.78,0,0,1,.53,4.45Z"/><path class="cls-2" d="M1113.28,1734c-2.91,2.58-8.19.76-8-2.78.15-2.53,3.77-4.91,7.35-2.94,2.88,2,1.89,4.57.61,5.72Z"/><path class="cls-2" d="M1191.27,1779.76c-3.38,3-10,1.71-9.72-2.87.23-3.33,5-5.81,9-3.75,3.3,2,2.38,5.11.69,6.62Z"/><path class="cls-2" d="M1267.28,1820.4c-4.14,3.75-11.24,1.95-10.85-2.71.28-3.31,5.38-6.72,10.31-4.52,3.62,2.08,2.49,5.49.54,7.23Z"/><path class="cls-2" d="M1341.44,1856.12c-4.5,4.05-12.33,2.85-12.32-1.92,0-4.25,6.29-8.26,11.74-6.11,4.36,2.28,2.67,6.11.58,8Z"/><path class="cls-2" d="M1413,1886.63c-4.89,4.48-13.32,3.61-13.28-1.39,0-4,6.7-9.08,12.84-6.94,4.59,2.15,2.73,6.22.44,8.33Z"/><path class="cls-2" d="M1481.75,1912.11c-5.45,5-14.25,4.58-14.07-.72.17-4.11,7.38-9.81,13.93-7.94,4.54,1.88,2.81,6.2.14,8.66Z"/><path class="cls-2" d="M1547.82,1932.72c-5.94,5.47-15.63,5.51-15.26,0,.33-4.36,8.24-10.72,15.19-9.14,5,1.74,3,6.36.07,9.11Z"/><path class="cls-2" d="M1610.58,1948.36c-6.15,5.76-16,6.73-16.22,1.6s9.34-12.26,16.55-11.07c5.18,1.49,2.91,6.43-.33,9.47Z"/><path class="cls-2" d="M1669.7,1959.14c-6.59,6.21-16.5,7.8-16.56,2.66-.06-5,9.93-12.79,17.31-12.06,5.17,1.16,2.67,6.2-.75,9.4Z"/><path class="cls-2" d="M1725.34,1965.31c-7,6.63-17.38,9-17.12,3.91s10.92-13.71,18.36-13.54c5.32.79,2.51,6.14-1.24,9.63Z"/><path class="cls-2" d="M1777.07,1966.9c-6.94,6.66-16.93,10-17.21,5.66-.29-4.56,11.37-14.67,19-15.06,5.23.32,2.11,5.7-1.77,9.4Z"/><path class="cls-2" d="M1825.05,1964.09c-7.34,7.07-17.51,11.25-17.52,7.11s11.81-15.36,20-16.56c5-.15,1.68,5.16-1.55,8.55l-.92.9Z"/><path class="cls-2" d="M1868.91,1957c-7.69,7.52-17.77,12.48-17.39,8.57.45-4.19,13.13-15.85,20.48-17.66,4.51-.64,1.33,4,.25,5.4a35.47,35.47,0,0,1-3.34,3.69Z"/><path class="cls-2" d="M1908.77,1945.81c-7.51,7.44-17.22,13.36-17.32,10.56-.16-3.3,13.82-16.74,21.3-19.51,2.23-.64,2.67.29,1.3,2.66a33.77,33.77,0,0,1-5.28,6.29Z"/><path class="cls-2" d="M1944.5,1930.65c-7.75,7.77-17.56,14.79-17.23,12.3s14.67-17.14,22.06-21c.72-.32,2.22-.92,1.74.52-.37,1.16-2.3,3.92-6.57,8.16Z"/><path class="cls-2" d="M1976,1911.74c-6.19,6.27-15.3,14.2-16.72,14.17,0-2.05,16.65-18.39,22.39-22.41.94-.61,1.11-.66,1.44-.65.14,1.23-3.75,5.51-7.11,8.89Z"/><path class="cls-2" d="M86.45,366.83c-1.39,2.5-2.73,5-4.17,7.51l16.15-29.56c1.36-2.3,1.75-2.94,2.18-3.56a6.68,6.68,0,0,1-.74,1.66c-4.33,8.06-9,15.95-13.42,23.95Z"/><path class="cls-2" d="M72.35,401.65c-3.35,5.87-4.15,6.6-4.44,6.89a.52.52,0,0,1-.21,0c.06-3,14-31.52,16.91-32.57.16.41.17.45-.35,2-2.64,6.94-9.49,19.48-11.91,23.71Z"/><path class="cls-2" d="M62.55,439.93c-3,5.19-5,7.41-5.18,5.9C56.65,440.7,70.24,413.1,73,414.09c.49.18.27,1.52.1,2.32-1.66,6.81-7.33,18-10.54,23.52Z"/><path class="cls-2" d="M57.18,481.41c-2.9,4.87-5.06,6.83-5.61,5.16-1.81-5.52,10.57-32.25,14.26-30.74.67.27.61,1.67.57,2.49-.88,6.79-5.92,17.59-9.22,23.09Z"/><path class="cls-2" d="M56.33,526.1c-3.1,5-5.59,6.61-6.24,4-1.81-7.45,9-31.36,13.27-29.38.84.36.92,1.79,1,2.67-.18,7-4.78,17.53-8,22.74Z"/><path class="cls-2" d="M60.07,573.84c-3.31,5.21-6.14,6.26-6.9,2.65-1.81-8.54,7.84-30,12.44-27.73,1,.47,1.19,2,1.33,2.8.45,7.18-3.75,17.37-6.87,22.28Z"/><path class="cls-2" d="M68.45,624.5c-3.51,5.4-6.73,5.92-7.62,1.28-1.87-9.66,6.76-28.64,11.8-26,1.1.56,1.46,2.07,1.69,3,1.06,7.22-2.81,17.09-5.87,21.79Z"/><path class="cls-2" d="M81.53,677.72c-3.66,5.41-7.26,5.3-8.27-.24C71.41,667,79.88,650,84.89,654.14a5.19,5.19,0,0,1,1.49,2.63c1.56,7.16-1.9,16.53-4.85,21Z"/><path class="cls-2" d="M99.41,733.71c-3.78,5.44-7.9,4.64-9-1.74-1.76-10.69,6-25.29,11.18-21.16a5.74,5.74,0,0,1,1.69,2.68c2.1,7.14-1,16.13-3.9,20.22Z"/><path class="cls-2" d="M122,791.83c-3.87,5.39-8.4,3.93-9.48-3.06-1.57-10.37,5.41-22.57,10.72-18.65a6.17,6.17,0,0,1,1.83,2.62c2.45,6.84-.32,15.3-3.07,19.09Z"/><path class="cls-2" d="M149.37,852.26c-3.92,5.22-9,3-10-4.42-1.38-9.88,5.11-20.17,10.34-16.41a6.72,6.72,0,0,1,2,2.58c2.83,6.72.36,14.71-2.32,18.25Z"/><path class="cls-2" d="M181.49,914.34c-4,5.12-9.42,2.29-10.3-5.37-1.1-9.55,5.43-18,10.44-13.54a7.51,7.51,0,0,1,1.5,2c3,6.34.86,13.72-1.64,16.93Z"/><path class="cls-2" d="M218.35,978.21c-4.07,5-9.84,1.61-10.59-6.3-.86-8.75,5.19-15.59,10.12-11.45a9.06,9.06,0,0,1,1.6,1.94c3.21,6,1.29,12.87-1.13,15.81Z"/><path class="cls-2" d="M259.82,1043.33c-4,4.65-10.13.64-10.6-7s5-13,9.58-9.36a8.6,8.6,0,0,1,1.6,1.79c3.32,5.56,1.62,12-.58,14.58Z"/><path class="cls-2" d="M305.91,1109.51c-4,4.51-10.33.06-10.58-7.48-.25-7.18,5.31-11.24,9.73-7.12a15.24,15.24,0,0,1,1,1.21c3.42,5.22,2,11-.18,13.39Z"/><path class="cls-2" d="M356.3,1176.08c-3.64,4-9.69,0-10.08-6.66-.38-6.37,4.77-9.93,9-6.19a11.43,11.43,0,0,1,1,1.08c3.26,4.58,2,9.75.06,11.77Z"/><path class="cls-2" d="M411.12,1243.24c-3.52,3.67-9.66-.59-9.69-6.74,0-5.55,5.11-8.11,8.85-4.4a5.85,5.85,0,0,1,.45.54c3.26,4.15,2.19,8.72.39,10.6Z"/><path class="cls-2" d="M469.88,1310.07c-3.15,3.14-8.75-.53-8.83-5.75-.08-4.75,4.54-6.91,7.95-3.72.15.13.3.29.46.44,2.94,3.57,2,7.4.42,9Z"/><path class="cls-2" d="M532.7,1376.59c-3,2.9-8.33-.77-8.12-5.45.15-3.42,3.89-5.76,7.6-2.24,2.72,3,1.93,6.36.52,7.69Z"/><path class="cls-2" d="M599.1,1442.21c-2.51,2.3-7.14-.64-7-4.43.1-2.7,3.23-4.66,6.37-1.91,2.55,2.67,1.72,5.29.64,6.34Z"/><path class="cls-2" d="M668.94,1506.61c-2.2,1.92-6.32-.75-6-3.84.22-2,2.8-3.37,5.4-1.15,2.07,2,1.58,4.13.59,5Z"/><path class="cls-2" d="M741.86,1569.34c-1.76,1.51-5.19-.55-4.92-2.93.17-1.4,2.14-2.76,4.52-.93,1.64,1.49,1.22,3.17.4,3.86Z"/><polygon class="cls-2" points="814.97 1629.52 814.4 1627.34 816.98 1627.4 817.44 1629.7 814.97 1629.52 814.97 1629.52"/><polygon class="cls-2" points="893.96 1687.78 893.7 1686.63 895.2 1686.52 895.38 1687.78 893.96 1687.78 893.96 1687.78"/><polygon class="cls-2" points="1050.99 1791.83 1050.85 1791.06 1051.93 1790.91 1052.12 1791.84 1050.99 1791.83 1050.99 1791.83"/><polygon class="cls-2" points="1127.24 1837.23 1126.79 1835.47 1129.41 1835.24 1129.78 1837.08 1127.24 1837.23 1127.24 1837.23"/><path class="cls-2" d="M1205.37,1877.34c-1.78,1.3-4.64.29-4.48-1.24.08-1.09,2.11-2.42,4.34-1.39,1.54.87.88,2.08.14,2.63Z"/><path class="cls-2" d="M1279.33,1912.54c-2.32,1.67-6.41.73-6.17-1.43.14-1.55,3.13-3.15,5.88-2,2.18,1.08,1.37,2.66.29,3.47Z"/><path class="cls-2" d="M1350.89,1942.62c-3,2.19-8.12,1.31-7.66-1.31.39-2.11,4.41-3.94,7.58-2.91,2.5,1.15,1.56,3.17.08,4.22Z"/><path class="cls-2" d="M1419.61,1967.59c-3.52,2.53-9.24,1.83-8.63-1,.48-2.1,4.88-4.58,8.74-3.46,2.76,1.1,1.61,3.29-.11,4.51Z"/><path class="cls-2" d="M1485.64,1987.66c-4.1,2.94-10.41,2.71-10-.32.3-2.62,6-5.69,10.35-4.71,3.4,1.09,1.59,3.68-.31,5Z"/><path class="cls-2" d="M1548.4,2002.81c-4.5,3.2-11.41,3.29-10.89.22.43-2.49,6.44-6.23,11.41-5.44,3.44,1,1.77,3.64-.52,5.22Z"/><path class="cls-2" d="M1607.87,2013.2c-5.27,3.68-12.74,4.29-12,1,.71-2.94,7.92-7,13-6.49,3.63.71,1.53,3.71-1,5.51Z"/><path class="cls-2" d="M1663.75,2018.94c-5.47,3.79-13.25,5.11-12.8,2.15s8.72-8,14.24-7.88c3.78.46,1.6,3.39-.78,5.24l-.66.49Z"/><path class="cls-2" d="M1715.8,2020.07c-5.92,4.15-14,6.1-13.25,3.11s9.7-8.47,15.28-8.73c4.11.14.36,3.65-.08,4.08s-1.3,1.06-2,1.54Z"/><path class="cls-2" d="M1764.15,2016.79c-6.12,4.35-14.18,7-13.89,4.62s10.56-9.34,16.56-10.24c3-.14,1.62,1.8.55,3a22.11,22.11,0,0,1-3.22,2.65Z"/><path class="cls-2" d="M1808.43,2009.37c-6.57,4.66-14.74,8-14.09,5.74.72-2.4,11.59-9.8,17.42-11.22.62-.09,2.46-.45,1.27,1.34a20.92,20.92,0,0,1-4.6,4.14Z"/><path class="cls-2" d="M1848.8,1997.78c-6.54,4.71-14.62,8.81-14.45,7.34s12.23-10.33,18.57-12.68c.6-.18,1.87-.57,1.42.37-.31.72-1.93,2.39-5.54,5Z"/><path class="cls-2" d="M1885,1982.31c-5.32,3.84-13,8.64-14.32,8.75a.47.47,0,0,0-.07-.21c1.15-1.69,13.79-10.78,19.23-13.56a2.7,2.7,0,0,1,1.29-.42c.13.65-3.28,3.34-6.13,5.44Z"/><path class="cls-2" d="M1917.09,1963.08c-2.32,1.7-4.68,3.35-7,5l-2,1.47c-4.1,2.83-5,3.36-5.24,3.5.92-.82,16.45-12.31,20-14.71a7.31,7.31,0,0,1,1.08-.64c-.25.47-4.85,3.9-6.82,5.36Z"/><path class="cls-2" d="M41.6,469.7c-.75,2.09-1.48,4.16-2.19,6.25l13.34-36.63c.07-.12.14-.3.2-.42a15.49,15.49,0,0,1-.73,2.24c-3.5,9.55-7.17,19-10.62,28.56Z"/><path class="cls-2" d="M31.77,508.11c-2.51,6.85-3.05,7.53-3.3,7.84-1-3.4,10.51-36.54,12.5-38.56.06.05.15.1.2.15a8,8,0,0,1-.34,2.51c-2.31,9.85-9,27.89-9.06,28.06Z"/><path class="cls-2" d="M26.3,549.87c-2.51,6.51-3.36,7-3.67,7.13-1.57-1.28,2-15.09,3.46-20.3,2.78-9.58,6.1-17.52,7.46-17.74.72-.11.58,1.75.51,3-1,8.26-5.32,21.5-7.76,27.91Z"/><path class="cls-2" d="M25.26,594.52c-2.05,5.13-3.72,7.38-4.49,6.08C18,595.94,26.68,563.81,30.61,564c.92.06,1,1.94,1.05,3.23-.21,8.64-4,21.28-6.4,27.25Z"/><path class="cls-2" d="M28.72,642.23c-2.22,5.36-4.25,7.23-5.28,4.91-3.12-7.33,4.95-37.81,9.3-35.1.85.51,1.09,2.28,1.23,3.34.59,8.45-2.71,20.8-5.25,26.85Z"/><path class="cls-2" d="M36.75,692.57c-2.39,5.42-4.83,6.85-6.08,3.5-3.55-9.32,3.43-36.12,8.59-32.93,1,.61,1.39,2.38,1.63,3.48,1.27,8.5-1.65,20.3-4.14,26Z"/><path class="cls-2" d="M49.4,745.71c-2.6,5.72-5.43,6.48-7,1.95-3.71-10.69,2.52-34.3,8.15-30.83,1.13.71,1.69,2.48,2,3.56,1.92,8.63-.66,20-3.14,25.32Z"/><path class="cls-2" d="M66.74,801.21c-2.75,5.62-6.16,5.72-8,.29-3.75-11.18,2-31.7,7.82-28.19,1.26.77,1.92,2.56,2.35,3.61,2.51,8.57.22,19.37-2.2,24.29Z"/><path class="cls-2" d="M88.75,859.08c-2.94,5.7-6.91,5.08-9-1.43C76,846,81.31,828.25,87.44,832a8.3,8.3,0,0,1,2.71,3.73c3,8.49,1,18.79-1.4,23.39Z"/><path class="cls-2" d="M115.42,918.79c-3.15,5.65-7.68,4.27-9.92-3C102,904.35,107,889.47,113.16,893a8.76,8.76,0,0,1,2.9,3.59c3.45,8.26,1.69,17.95-.64,22.2Z"/><path class="cls-2" d="M146.79,980.46c-3.53,5.93-9.07,3.06-11.18-5.81-2.58-10.94,2.23-22.24,8.07-18.88a9.57,9.57,0,0,1,3.15,3.55c3.84,8.07,2.3,17.2,0,21.14Z"/><path class="cls-2" d="M182.72,1043.44c-3.73,5.82-9.8,2.2-11.85-7-2.25-10.1,2.35-19.36,8.08-16.18a9.89,9.89,0,0,1,3.3,3.52c4.14,7.61,2.74,16,.47,19.68Z"/><path class="cls-2" d="M223.35,1107.88c-3.85,5.59-10.67,1.13-12.6-8.25-2-9.8,3.07-17.38,8.93-13.33a10.8,10.8,0,0,1,2.66,3c4.45,7.41,3.27,15.37,1,18.62Z"/><path class="cls-2" d="M268.43,1173.2c-4,5.44-11.51.22-13.17-9.16-1.57-8.9,3.36-15,9.07-11.16a11.63,11.63,0,0,1,2.81,2.85c4.62,7,3.53,14.43,1.29,17.47Z"/><path class="cls-2" d="M317.87,1239.06c-4.11,5.16-12.19-.72-13.53-9.88-1.21-8.18,4.23-12.83,9.85-8.5a14.71,14.71,0,0,1,2.12,2.19c4.71,6.59,3.74,13.39,1.56,16.19Z"/><path class="cls-2" d="M371.38,1304.88c-4.23,4.92-12.6-1.36-13.4-10-.69-7.31,5-10.65,10.31-6a16.17,16.17,0,0,1,1.36,1.39c4.68,6.08,3.84,12.24,1.73,14.65Z"/><path class="cls-2" d="M429.06,1370.82c-4.24,4.59-13-2.11-13.26-10.06-.16-6.59,5.78-8.71,10.78-3.93.21.2.47.48.67.68,4.88,5.86,3.72,11.23,1.81,13.31Z"/><path class="cls-2" d="M490.42,1436c-4,4-12.3-2-12.56-8.94-.21-5.76,5.42-7.57,10.2-3.31.18.2.44.43.63.61,4.38,4.86,3.64,9.7,1.73,11.64Z"/><path class="cls-2" d="M555.66,1500.52c-4,3.66-12.49-2.5-12.16-8.79.19-4.1,4.89-6.53,10.29-1.7,4.53,4.72,3.56,8.92,1.87,10.49Z"/><path class="cls-2" d="M624,1563.46c-3.67,3.14-11.48-2.08-11.11-7.49.21-3.47,4.54-5.48,9.43-1.38,3.88,3.73,3.34,7.42,1.68,8.87Z"/><path class="cls-2" d="M695.45,1624.85c-3.49,2.8-10.62-1.65-10.28-6.44.2-3.29,4.5-4.42,8.75-1.09,3.59,3.16,3.05,6.33,1.53,7.53Z"/><path class="cls-2" d="M769.51,1684c-3.07,2.33-9.6-1.75-8.83-5.49.46-2.38,4-3.11,7.51-.62,3.26,2.72,2.54,5.18,1.32,6.11Z"/><path class="cls-2" d="M846,1740.66c-2.6,1.84-8-1-7.64-4,.22-2.15,3.38-3,6.58-.87,2.42,1.86,2.43,4,1.06,4.91Z"/><path class="cls-2" d="M922.7,1793.16c-2.11,1.38-6.22-.65-5.89-2.86.2-1.38,2.5-2.32,5.14-.7,2,1.45,1.66,3,.75,3.56Z"/><path class="cls-2" d="M998.73,1841.1c-1.68,1.05-4.87-.32-4.53-2,.23-1.11,2.11-1.6,3.93-.6s1.28,2.12.6,2.56Z"/><polygon class="cls-2" points="1071.38 1884.12 1071.03 1882.74 1073.17 1882.73 1073.51 1884.13 1071.38 1884.12 1071.38 1884.12"/><polygon class="cls-2" points="1145.84 1922.65 1145.7 1921.96 1146.74 1921.99 1146.87 1922.58 1145.84 1922.65 1145.84 1922.65"/><polygon class="cls-2" points="1218.25 1956.3 1218.2 1956.11 1218.59 1956.1 1218.63 1956.31 1218.25 1956.3 1218.25 1956.3"/><polygon class="cls-2" points="1287.73 1985.69 1287.72 1984.96 1289.06 1984.86 1289.16 1985.52 1287.73 1985.69 1287.73 1985.69"/><polygon class="cls-2" points="1354.81 2010.14 1354.68 2009.01 1357.16 2008.72 1357.26 2009.88 1354.81 2010.14 1354.81 2010.14"/><path class="cls-2" d="M1422.48,2029.45c-1.84,1-4.82.63-4.4-.48.34-.86,2.69-1.66,4.45-1.29,1.51.5.77,1.34,0,1.77Z"/><path class="cls-2" d="M1484.77,2044.09c-2.33,1.17-6.2,1.29-5.83-.14.3-1.18,3.87-2.34,6.15-2,1.76.45.9,1.47-.07,2a.61.61,0,0,1-.25.15Z"/><path class="cls-2" d="M1543.63,2054c-3.23,1.6-7.18,1.52-6.74.26.37-1.1,4.3-2.85,7.37-2.56,2.12.38.46,1.63.27,1.75a8.48,8.48,0,0,1-.9.55Z"/><path class="cls-2" d="M1599.22,2059.38c-3.48,1.72-8.3,2.3-7.91,1s5.61-3.62,9-3.53c1.83.2,1.16,1,.63,1.49a8.37,8.37,0,0,1-1.68,1.07Z"/><path class="cls-2" d="M1651.08,2060.24c-3.91,1.93-9.11,2.85-8.57,1.56s6.28-3.91,10-4.09c1.67,0,1.17.76.68,1.17a8.06,8.06,0,0,1-2.15,1.36Z"/><path class="cls-2" d="M1699.36,2056.77c-4.43,2.18-9.87,3.6-9.55,2.52s7.25-4.48,11.56-5.08c.45,0,1.66-.13,1,.68a10.65,10.65,0,0,1-3,1.88Z"/><path class="cls-2" d="M1743.79,2049.14c-4.56,2.27-10.37,4.24-10.33,3.52s8.56-5,13-6.08c.46-.1,1.36-.26,1.1.16s-1.31,1.17-3.79,2.4Z"/><path class="cls-2" d="M1784.23,2037.46c-4.27,2.15-10.24,4.72-10.8,4.52.48-.78,10-5.42,14.08-6.88.68-.23.92-.28,1.07-.22-.06.1-.25.54-4.35,2.58Z"/><path class="cls-2" d="M1810.19,2027.14c11.84-6.08,14-7.14,14.7-7.48.31-.13.61-.32.92-.46-.18.14-.39.26-.6.42l-15,7.52Z"/><path class="cls-2" d="M20.23,543.85c-.08.41-.2.95-.28,1.33-2.13,9.55-3.95,18.05-5.39,25.24l5.67-26.57Z"/><path class="cls-2" d="M7.81,619c-1.26,6.66-1.55,7.57-1.7,8.08-1-4.09,6-41.89,7-43.26.19.33.25.45,0,3.34C12,596.67,8.76,614,7.81,619Z"/><path class="cls-2" d="M6.72,663.46c-1.26,6.22-1.81,7-2.07,7.43H4.32c-1.48-3.8,2.38-41,5.73-42.66.5.24.61,1.28.63,3.63-.15,10.57-3,26.76-4,31.61Z"/><path class="cls-2" d="M10.05,710.67c-.66,3-1.92,7.85-3,6.63-3.49-3.92.62-42.49,4.45-41.65.82.18,1.11,2.57,1.29,4,.71,10-1.32,24.36-2.76,31Z"/><path class="cls-2" d="M17.8,760.59c-1.25,5.29-2.69,7.33-3.81,5.39-4-6.69-.88-41.59,3.59-40.14,1.08.35,1.58,2.82,1.89,4.29,1.49,9.84,0,23.7-1.67,30.46Z"/><path class="cls-2" d="M30.06,812.8c-1.44,5.46-3.28,7-4.83,4-4.72-9.18-2.28-39.92,3-37.79,1.3.48,2,3,2.41,4.43,2.27,9.93,1,23.16-.59,29.37Z"/><path class="cls-2" d="M46.88,867.59c-1.48,5.14-3.61,6.37-5.52,3.17-5.56-9.15-4.21-37.2,1.73-36.63,1.81.2,3,3.33,3.49,4.82,3,10.09,2,22.82.3,28.64Z"/><path class="cls-2" d="M68.16,924.26c-1.62,5.1-4.29,5.76-6.65,1.65-5.87-10.37-4.73-35.09,1.56-33.89,2,.36,3.42,3.58,4,5,3.6,9.93,2.81,21.93,1.08,27.26Z"/><path class="cls-2" d="M94.08,983c-2,5.61-5.72,5.1-8.58-1.23-5.64-12.23-3.56-32.94,3-29.88,1.86.85,3.1,3.28,3.81,4.76,4.21,9.91,3.59,21.39,1.81,26.35Z"/><path class="cls-2" d="M124.42,1043.25c-2.24,5.53-6.56,4.16-9.83-3.09-5.61-12.42-3.45-29.85,3.29-26.58,2,.94,3.37,3.37,4.19,4.83,4.65,9.63,4.18,20.3,2.35,24.84Z"/><path class="cls-2" d="M159.34,1105c-2.65,5.86-8.27,2.93-11.78-6.13-4.78-12.29-2.14-25.47,4.45-22.33,2.17,1,3.66,3.38,4.53,4.83,5.09,9.33,4.71,19.43,2.8,23.63Z"/><path class="cls-2" d="M198.66,1167.81c-3.07,5.91-10.09,1.14-13.47-9.13-3.57-10.94-.59-20.51,5.49-17.7,2.24,1.07,3.78,3.31,4.73,4.63,5.45,9.06,5.18,18.41,3.25,22.2Z"/><path class="cls-2" d="M242.34,1231.51c-3.54,6.08-12.07-.63-15-11.79-2.64-10.16,1.14-17,7.32-13.21a14.66,14.66,0,0,1,4.17,4.11c5.69,8.6,5.44,17.55,3.48,20.89Z"/><path class="cls-2" d="M290.13,1295.5c-3.76,5.68-13.1-1.85-15.6-12.63-2-8.58,1.9-13.93,7.77-10.57a16.65,16.65,0,0,1,4.29,4c5.77,8.06,5.52,16.22,3.54,19.24Z"/><path class="cls-2" d="M342.16,1359.81c-4.29,5.71-15.17-3.79-16.42-14.33-.89-7.71,4.2-10.78,10.11-6.14a16.69,16.69,0,0,1,2.56,2.57c6,7.75,5.82,15.12,3.75,17.9Z"/><path class="cls-2" d="M397.93,1423.67c-4.59,5.44-15.89-4.45-16.36-14.24-.34-6.73,5.25-8.56,11.05-3.56.54.43,1.2,1.14,1.71,1.65,5.92,7,5.66,13.73,3.6,16.15Z"/><path class="cls-2" d="M457.68,1487.31c-4.66,4.81-16.05-4.44-16.48-13.41-.31-6.49,6.1-7.67,12-2.26.26.26.6.6.86.81,6,6.62,5.7,12.66,3.6,14.86Z"/><path class="cls-2" d="M520.66,1549.61c-4.71,4.34-16.46-5.17-15.94-12.84.31-4.44,5.71-6.53,12.52-.34,5.78,6,5.49,11.29,3.42,13.18Z"/><path class="cls-2" d="M587.09,1610.84c-4.69,3.81-16.2-4.84-15.61-11.72.41-4.45,6-5.45,12.37-.06,5.62,5.37,5.28,10.1,3.24,11.78Z"/><path class="cls-2" d="M656.29,1670.12c-4.45,3.19-15.27-4.37-14.64-10.21.37-3.41,5.48-4.9,11.81.07,5.23,4.65,4.81,8.71,2.83,10.14Z"/><path class="cls-2" d="M728.58,1727.68c-4.79,3.06-15.92-4.54-14.29-9.83.87-2.93,6.12-3.3,11.53.64,5.17,4.27,4.71,8,2.76,9.19Z"/><path class="cls-2" d="M802.67,1782.3c-4.49,2.53-14.49-3.82-12.89-8.19.76-2.18,5.33-3,10.66.54,4.62,3.52,4.07,6.59,2.23,7.65Z"/><path class="cls-2" d="M877.3,1833.08c-4,2.06-12.67-2.67-11.72-6.38.56-2.13,4.74-3.14,9.88,0,4.16,2.89,3.58,5.47,1.84,6.36Z"/><path class="cls-2" d="M950.93,1879.15c-3.53,1.62-10.86-2-9.9-4.92.53-1.68,4.37-2.5,8.54-.13,3.55,2.26,2.92,4.31,1.36,5.05Z"/><path class="cls-2" d="M1023.74,1920.72c-3.3,1.39-9.52-1.37-8.53-3.78.53-1.38,3.94-2,7.58-.19,3,1.73,2.33,3.38,1,4Z"/><path class="cls-2" d="M1094.93,1957.53c-2.64,1-7.58-.91-6.69-2.68.52-1,3.25-1.55,6.22-.21,2.27,1.19,1.66,2.41.47,2.89Z"/><path class="cls-2" d="M1164.61,1989.75c-2.16.83-5.88-.34-5.39-1.68.36-.91,3-1.32,5.08-.45,1.93.91,1.26,1.81.31,2.13Z"/><polygon class="cls-2" points="1229.29 2017.17 1228.94 2015.88 1232.1 2015.94 1232.37 2017.23 1229.29 2017.17 1229.29 2017.17"/><polygon class="cls-2" points="1295.65 2040.2 1295.55 2039.48 1297.6 2039.42 1297.7 2040.17 1295.65 2040.2 1295.65 2040.2"/><polygon class="cls-2" points="1359.55 2058.49 1359.65 2058.3 1360.26 2058.21 1360.28 2058.45 1359.55 2058.49 1359.55 2058.49"/><polygon class="cls-2" points="1420.28 2072.41 1420.29 2072.3 1420.67 2072.26 1420.64 2072.38 1420.28 2072.41 1420.28 2072.41"/><polygon class="cls-2" points="1477.14 2082.11 1477.16 2081.7 1478.84 2081.52 1478.74 2081.91 1477.14 2082.11 1477.14 2082.11"/><polygon class="cls-2" points="1530.7 2087.38 1530.97 2086.82 1533.84 2086.32 1533.56 2086.98 1530.7 2087.38 1530.7 2087.38"/><path class="cls-2" d="M1584.58,2087.72c-1.7.5-4.19.87-4.09.52s3.08-1.17,4.86-1.24c.19,0,.64,0,.48.18a3.93,3.93,0,0,1-1.25.54Z"/><path class="cls-2" d="M1632.3,2084.2c-2.1.64-5,1.24-5.24,1,.09-.34,4.2-1.55,6.55-1.85.45,0,.56-.07.6,0a5.79,5.79,0,0,1-1.91.78Z"/><path class="cls-2" d="M1676.24,2076.63a50.83,50.83,0,0,1-6,1.57c.17-.28,5.42-1.81,7.66-2.32a2,2,0,0,1,.63-.12c0,.06,0,.14-2.33.87Z"/><path class="cls-2" d="M.17,731.77c-.05,2.52-.05,5.06,0,7.57L0,728.85l.44-32.21a35.57,35.57,0,0,1,.29-4.17c.13.37.16.45.16,4C.84,708.2.34,720,.17,731.77Z"/><path class="cls-2" d="M3.47,778c-.19,6.61-.39,7.19-.54,7.56C1.22,783.8.34,741.87,2,738.84a.64.64,0,0,0,.29.12,17.82,17.82,0,0,1,.69,4.29c1,13.1.54,33.92.54,34.77Z"/><path class="cls-2" d="M11,826.65c-.25,6.13-.75,6.53-1,6.73-3.21-2.84-5.33-43-2.4-45.19.74.12,1.19,1.8,1.75,4.8,1.93,12.21,1.84,28.79,1.65,33.66Z"/><path class="cls-2" d="M22.87,877.77c-.17,2.59-.6,6.8-1.78,5.88-4.27-3.25-7.41-43.92-3.39-43.92,1.12,0,2.09,3.6,2.48,5.14,2.81,11.88,3,27.31,2.69,32.9Z"/><path class="cls-2" d="M39.06,931c-.37,4.6-1.37,6.27-2.74,4.64-5.52-6.67-9-42.49-4-41.65,1.4.22,2.65,3.87,3.18,5.42A100.63,100.63,0,0,1,39.06,931Z"/><path class="cls-2" d="M59.68,986.27c-.55,4.7-2,5.94-3.91,3.31C49.38,980.69,46,948.5,51.55,950c1.68.47,3.21,4.12,3.86,5.69,4.06,11.15,4.94,24.59,4.27,30.6Z"/><path class="cls-2" d="M84.56,1043.12c-.67,4.31-2.37,5.22-4.61,2.45-6.79-8.48-10.87-37.53-5.24-37.46,2.1,0,4.12,4.13,5,5.89,4.71,11.06,5.71,23.72,4.88,29.12Z"/><path class="cls-2" d="M113.87,1101.66c-.92,4.7-3.64,4.71-6.72,0-7.39-11.33-10.3-34.5-4.3-33.91,2.42.2,4.65,4.3,5.61,6,5.35,11,6.38,22.93,5.41,27.91Z"/><path class="cls-2" d="M147.41,1161.37c-1.26,5-5.07,3.63-9-3.21-7-12.24-8.82-30.23-2.83-29.22,2.61.47,5.06,4.45,6.09,6.17,5.81,10.55,6.88,22,5.77,26.26Z"/><path class="cls-2" d="M185.3,1222.19c-1.67,5.22-7,2.19-11.66-6.6-6.35-12-6.94-25.79-1.07-24.56,2.88.61,5.48,4.48,6.59,6.18,6.31,10.33,7.37,21,6.14,25Z"/><path class="cls-2" d="M227.3,1283.7c-2.26,5.68-9.9-.18-14.81-11.41s-3.81-20.59,2.2-18.09c2.78,1.2,5.27,4.53,6.32,6,6.75,10.14,7.73,19.86,6.29,23.55Z"/><path class="cls-2" d="M273.35,1345.57c-3,6.07-13.27-3.16-17.46-15.7-3.18-9.47-.64-15.06,5.34-11.77a20.54,20.54,0,0,1,5.79,5.42c7,9.63,7.91,18.88,6.33,22Z"/><path class="cls-2" d="M323.18,1407.34c-3.54,5.87-15.83-5.69-18.74-17.64-1.87-7.65,1.63-11,7.51-7.23a25.08,25.08,0,0,1,5,4.6c7.23,9.2,8,17.39,6.26,20.27Z"/><path class="cls-2" d="M376.92,1469c-4.07,5.45-17.55-7-19.5-18-1.21-6.74,3.12-8.86,9.28-4.53a26.44,26.44,0,0,1,4.11,3.76c7.38,8.69,8,16.18,6.11,18.77Z"/><path class="cls-2" d="M434.15,1530c-4.44,4.84-19-8.35-19.77-17.86-.47-6.11,5.28-6.65,11.8-1.09.66.55,1.47,1.36,2.08,2,7.4,8.08,7.89,14.8,5.89,17Z"/><path class="cls-2" d="M494.83,1590c-5,4.48-20.48-9.09-19.92-17.51.33-4.87,6.62-5,14.25,1.94,7.38,7.5,7.75,13.7,5.67,15.57Z"/><path class="cls-2" d="M558.45,1648.53c-5.2,3.84-20.29-8.48-19.49-15.91.42-3.81,6.07-4.81,14.28,2.21,7.19,6.78,7.39,12.09,5.21,13.7Z"/><path class="cls-2" d="M625.14,1705.56c-5.4,3.27-20.32-8-19.24-14.57.62-3.76,7.05-3.57,14.45,2.34,7.06,6.11,7,10.83,4.79,12.23Z"/><path class="cls-2" d="M694.21,1760.34c-5.45,2.72-19.71-7.32-18.37-12.92.64-2.84,6.48-3.34,14.09,2.26,6.66,5.4,6.5,9.53,4.28,10.66Z"/><path class="cls-2" d="M765.61,1812.74c-5.46,2.3-19.14-6.59-17.63-11.44.75-2.42,6.56-2.76,13.88,2.24,6.4,4.8,6,8.28,3.75,9.2Z"/><path class="cls-2" d="M837.08,1861.16c-5.35,1.86-17.73-5.54-15.92-9.52.89-2,6.39-2.24,13,1.86,5.71,4,5.14,6.92,2.94,7.66Z"/><path class="cls-2" d="M908.09,1905.28c-5.25,1.5-16.62-4.64-14.67-8,1-1.65,6.24-1.86,12.28,1.52,5.28,3.4,4.6,5.79,2.39,6.44Z"/><path class="cls-2" d="M977.94,1944.82c-4.71,1.2-14.33-3.28-13-6,.73-1.61,5.85-1.91,11.36.93,4.61,2.66,3.74,4.56,1.67,5.1Z"/><path class="cls-2" d="M1046.68,1980c-4.41,1-13-2.6-11.63-4.83.78-1.27,5.55-1.5,10.53.76,3.88,2,3,3.5,1.53,4a3,3,0,0,0-.43.08Z"/><path class="cls-2" d="M1113.66,2010.62c-4.1.76-11.29-1.8-9.83-3.57.8-1,5.1-1.2,9.19.5,3.2,1.45,2.37,2.5,1.37,2.85a2,2,0,0,1-.73.22Z"/><path class="cls-2" d="M1179,2036.86c-3.5.58-9.59-1.2-8.69-2.53.58-.87,4.64-1.13,8.35.19,3.08,1.21,1.48,2,1.28,2.08a3.07,3.07,0,0,1-.94.26Z"/><path class="cls-2" d="M1242,2058.55c-3,.48-7.82-.69-6.9-1.69.58-.61,4-.83,7,0,2,.71,1.25,1.22.94,1.38a2.92,2.92,0,0,1-1,.26Z"/><path class="cls-2" d="M1302.91,2076c-2.61.38-6.61-.32-6-1,.41-.5,3.66-.79,6.24-.17,1.46.39,1.28.74.88.93a6.27,6.27,0,0,1-1.1.28Z"/><path class="cls-2" d="M1360.89,2088.93c-1.92.24-4.68-.06-4.39-.5s3-.58,4.8-.27c.24.08,1,.23.64.46a2.13,2.13,0,0,1-1,.31Z"/><polygon class="cls-2" points="1413.58 2097.72 1413.69 2097.33 1416.66 2097.25 1416.38 2097.68 1413.58 2097.72 1413.58 2097.72"/><polygon class="cls-2" points="1466.98 2102.36 1467.17 2102.21 1468.81 2102.09 1468.64 2102.29 1466.98 2102.36 1466.98 2102.36"/><polygon class="cls-2" points="1517.24 2102.91 1517.23 2102.9 1517.91 2102.82 1517.81 2102.9 1517.24 2102.91 1517.24 2102.91"/><polygon class="cls-2" points="1563.59 2099.52 1563.62 2099.53 1564.29 2099.44 1564.06 2099.48 1563.59 2099.52 1563.59 2099.52"/></g></g></g></svg>