<svg xmlns="http://www.w3.org/2000/svg" viewBox="0 0 1050.99 2000.06"><defs><style>.cls-1{opacity:0.05;}.cls-2{fill:#333;}</style></defs><g id="Layer_2" data-name="Layer 2"><g id="Layer_1-2" data-name="Layer 1"><g class="cls-1"><path class="cls-2" d="M720.27,336.26c-6.07,2.86-10.07,4.6-11.18,5a38.3,38.3,0,0,1,4.4-2.07l22.82-10.91c-6.39,3.28-11,5.59-16,7.95Z"/><path class="cls-2" d="M634.66,369.59c-6.08,2-9.49,3-10.42,3.28a13.09,13.09,0,0,1,1.89-.63L650.94,364c-5.39,1.9-10.81,3.77-16.28,5.57Z"/><path class="cls-2" d="M651,365.93c-.86.31-8.55,3.07-10.48,3.26.7-1.11,28.28-10.75,28.54-10.82a1.28,1.28,0,0,1,.23-.06c-.55.73-10.95,5-18.29,7.62Z"/><path class="cls-2" d="M557.46,392.67c-.75.19-7.2,1.81-8.88,1.95,1.18-.87,23.58-6.31,23.77-6.33s.18,0,.23,0c-1,.67-11.23,3.43-15.12,4.42Z"/><path class="cls-2" d="M576.22,391.51c-1.74.48-7.56,2.05-9.15,1.95a1.5,1.5,0,0,0-.11-.13c1.61-1.32,21.18-7,24.59-7.34h.23s.05.09.07.14c-1,.85-8.63,3.47-15.63,5.38Z"/><path class="cls-2" d="M453.8,413.84c-2.24.4-4.48.89-6.74,1.09.8-.38,17.44-3.31,17.61-3.33a.55.55,0,0,1,.18,0c-.56.27-8.42,1.76-11.05,2.25Z"/><path class="cls-2" d="M475.31,412.59c-.67.14-6.63,1.3-7.35,1.1.64-.72,16.3-4,19.22-4.15a.39.39,0,0,1,.26.07c-.79.52-7.17,2-12.13,3Z"/><path class="cls-2" d="M496.38,413.7c-.72.15-7,1.46-7.78,1,.74-1.24,17.11-5,20.1-4.93a.66.66,0,0,1,.32.1c-.52.91-8.61,3-12.64,3.83Z"/><path class="cls-2" d="M341.31,431.08c-1.28.19-2.55.36-3.82.51.91-.16,1.84-.25,2.76-.38l6.34-.88c.28,0,.52-.08.79-.1l.17,0c-2.08.33-4.15.6-6.24.89Z"/><path class="cls-2" d="M365.14,429.34a44.55,44.55,0,0,1-4.54.5c.36-.31,9.89-1.74,11.85-1.88a.9.9,0,0,1,.19,0c-.47.22-4.42.89-7.5,1.34Z"/><path class="cls-2" d="M388.62,430c-1.11.16-4.81.7-5.31.48.43-.64,11.4-2.49,13.65-2.46l.2.07c-.29.47-5.71,1.46-8.54,1.91Z"/><path class="cls-2" d="M411.8,433.1c-.87.13-5.18.83-5.76.41.48-1,12.39-3.25,14.81-3a1.29,1.29,0,0,1,.26.08c-.35.76-6.24,2-9.31,2.51Z"/><polygon class="cls-2" points="245.77 443.53 246.95 443.35 249.12 443.11 247.81 443.31 245.77 443.53 245.77 443.53"/><polygon class="cls-2" points="270.85 443.35 272.48 443 275.56 442.69 273.78 443.06 270.85 443.35 270.85 443.35"/><path class="cls-2" d="M297.82,445.56a12.41,12.41,0,0,1-2.7.14c.17-.37,5.89-1.18,7-1.08l.1,0c-.16.31-3.27.76-4.4.9Z"/><path class="cls-2" d="M322.88,450.36c-.49.06-2.88.36-3.23.09.19-.63,6.84-1.66,8.25-1.43.05,0,.16,0,.17.11-.27.39-3.24,1-5.19,1.23Z"/><path class="cls-2" d="M972.86,104.5c-2.59,6.26-3.85,10.1-4.62,12.4q7.56-15.65,14-32.33a206.19,206.19,0,0,0-9.39,19.93Z"/><path class="cls-2" d="M935.91,164c-5.41,8.8-11.08,19.19-7.4,18.7l.25-.08a411.79,411.79,0,0,0,29-45.41c-5-.15-19.11,22.29-21.87,26.79Z"/><path class="cls-2" d="M891.85,216.38c-10.68,12.31-10.26,13.46-10,14.07,4,1.73,31-24.59,33.08-34.57-.06-2.82-4.6.51-13.5,9.91-2.9,3.05-6.48,7-9.56,10.59Z"/><path class="cls-2" d="M833.65,274.94c-7.52,5.64-9.61,7.66-10.3,8.33q14.25-9.76,27.56-20.33c-5.66,3.47-12.51,8.44-17.26,12Z"/><path class="cls-2" d="M841.05,262.11c-9.52,8-10.62,9.36-11.06,10.19a2.41,2.41,0,0,0,.24.21c5.07-1.11,29.72-19.57,33.42-26.72a1.88,1.88,0,0,0,0-.58c-.63-.18-1.94-.54-22.61,16.9Z"/><path class="cls-2" d="M773.13,311.34c-10.55,6-11.23,6.69-11.72,7.2a.93.93,0,0,0,.07.2c1.37-.1,5.48-1.89,8.69-3.36q11.08-5.92,21.77-12.19a22.14,22.14,0,0,0,3.15-2.53,1.16,1.16,0,0,0,.2-.47c-.7-.08-2-.23-22.16,11.15Z"/><path class="cls-2" d="M783.68,301.9c-10.81,6.78-10.81,6.78-11.43,7.33C775,309,800.64,293.74,805.38,289c.07-.08.12-.17.18-.25a.76.76,0,0,1-.16-.11c-1.3.43-1.3.43-21.72,13.26Z"/><path class="cls-2" d="M706.73,342.66c-9.16,3.95-10.35,4.46-11.24,5,1.51.28,25.74-9.62,31.33-13.09l.24-.16c-.64-.17-2.11.48-20.33,8.29Z"/><path class="cls-2" d="M713.49,339.22c16.64-7.53,24.24-11.49,26.75-12.86a.62.62,0,0,0,.21-.13c-1.43.6-2.76,1.39-4.14,2.08l-22.82,10.91Z"/><path class="cls-2" d="M617.74,375.43c-8.84,2.66-9.6,3-10.1,3.21a.23.23,0,0,0,.11.07q13.93-4,27.54-8.22c-.74.1-2.12.31-17.55,4.94Z"/><path class="cls-2" d="M626.13,372.24c9.72-3.11,18.94-6.05,26.44-8.78l.24-.08c-.62.17-1.23.42-1.87.64l-24.81,8.22Z"/><path class="cls-2" d="M538,396.1c-2.86.67-5.76,1.3-8.63,2,1.76-.28,17.2-3.76,23.2-5.38a2.07,2.07,0,0,1,.22,0c-5,.74-9.84,2.3-14.79,3.44Z"/><path class="cls-2" d="M340.25,431.21l6.34-.88-6.34.88Z"/><path class="cls-2" d="M236.06,1811.89c-3.47.55-5.56,2.2-4.12,3.21,1.63,1.1,6.64.65,8.8-1.21,1.32-1.43-.6-2.28-3.23-2.15a10.19,10.19,0,0,0-1.45.15Z"/><path class="cls-2" d="M281.12,1766.8c-3.92.65-6.43,2.73-4.69,3.93s7.75.89,10.35-1.45c1.59-1.84-1.08-2.9-4.53-2.61-.33,0-.79.08-1.13.13Z"/><path class="cls-2" d="M324.86,1720.33c-4.84.78-7.76,3.32-5.56,4.83,2.42,1.67,9.45,1,12.31-1.7,1.95-2.36-1.3-3.62-5.38-3.32-.41.06-1,.12-1.37.19Z"/><path class="cls-2" d="M367.35,1672.72c-5.51.9-8.91,4-6.36,5.82,2.77,2,11.15,1.25,14.4-2,2.26-2.94-2.12-4.53-7.28-3.9-.21,0-.53.07-.76.12Z"/><path class="cls-2" d="M408.54,1624.3c-6.26,1-9.81,4.4-6.88,6.56,3.15,2.34,12.19,1.53,15.77-2.27,2.48-3.38-2.91-5.28-8.89-4.29Z"/><path class="cls-2" d="M448.48,1574.93c-6.83,1.16-10.82,5.1-7.61,7.56,3.53,2.67,13.83,1.79,17.71-2.5,3-4.22-4-6.08-10.1-5.06Z"/><path class="cls-2" d="M487.14,1525c-7.47,1.22-11.68,5.55-8,8.26s14.57,2.39,19-2.66c3.16-4.74-4.48-6.66-11-5.6Z"/><path class="cls-2" d="M524.61,1474.55c-8,1.39-12.33,6-8.42,9.07,4.19,3.25,16,2.26,20.31-2.86,3-4.76-4.12-7.53-11.89-6.21Z"/><path class="cls-2" d="M560.77,1423.57c-8.65,1.47-13.39,6.72-9.08,10.06s17.1,3,22-3.08c3.21-5.28-4.54-8.41-12.93-7Z"/><path class="cls-2" d="M595.73,1372.4c-9,1.54-13.94,7.18-9.38,10.79,5,3.91,18.52,2.83,23.22-3.25,3.29-5.65-5-9-13.84-7.54Z"/><path class="cls-2" d="M629.4,1320.87c-10.21,1.75-15.18,8.4-9.13,12.25,5.89,3.77,19.33,2.3,24.07-4,3.65-6.57-6.41-9.66-14.94-8.22Z"/><path class="cls-2" d="M661.8,1269.25c-10.29,1.78-15.7,8.4-10.3,12.62,6,4.68,21.1,3.51,26.29-3.71,3.52-6.65-6-10.67-16-8.91Z"/><path class="cls-2" d="M693,1217.65c-11.33,2-16.58,9.55-9.67,13.91,6.11,3.89,21.23,3.13,26.53-4.52,3.52-7-6.5-11.2-16.86-9.39Z"/><path class="cls-2" d="M723,1165.94c-12,2.14-17.42,10.22-10,14.88,6.51,4.12,22.26,3.52,27.88-4.92,3.68-7.61-7-11.91-17.91-10Z"/><path class="cls-2" d="M751.61,1114.42c-12.05,2.22-17.59,10.81-10,15.58,6.81,4.31,23.29,3.41,28.79-5.19,3.86-8.36-8.59-12.26-18.75-10.39Z"/><path class="cls-2" d="M779,1062.8c-12.77,2.52-18.33,11.5-10.28,16.58s24.76,2.87,30-5.68c3.63-8.33-8-13.2-19.74-10.9Z"/><path class="cls-2" d="M805.13,1011.39c-13.28,2.75-18.92,12.2-10.4,17.46,7.62,4.69,25.55,3.41,31.22-6.22,3.59-8.74-8.69-13.75-20.82-11.24Z"/><path class="cls-2" d="M830,960.28c-13.57,3-19.16,12.79-10.31,18.13s26.38,2.89,31.74-6.7c3.64-9.32-9-14.14-21.43-11.43Z"/><path class="cls-2" d="M853.43,909.23c-14,3.27-19.57,13.6-10.34,19,8.25,4.88,27,3.4,32.77-7.46,3.83-10.51-11-14.27-22.43-11.59Z"/><path class="cls-2" d="M875.59,858.54c-14.11,3.59-19.62,14.27-10.17,19.68,8.49,4.87,27.51,3,33.18-8.23,3.4-10-10-14.75-23-11.45Z"/><path class="cls-2" d="M896.32,808c-14.41,4-19.88,15.18-10.08,20.58,8.85,4.89,28.38,2.6,34-9.19,3.29-10.48-10.63-15.09-23.87-11.39Z"/><path class="cls-2" d="M915.6,757.62c-14.61,4.5-20,16.12-9.84,21.42,9.14,4.81,29,2,34.49-10.34,3.36-11.67-12.63-14.77-24.65-11.08Z"/><path class="cls-2" d="M933.44,707.68c-14.92,5.08-20,16.81-9.48,22.06,9.38,4.66,29.43,1.18,34.67-11.57,2.9-11-11.68-15-25.19-10.49Z"/><path class="cls-2" d="M949.75,658c-15,5.73-19.9,17.95-9.17,22.92,9.65,4.45,29.95.22,35-13,2.66-11.47-12.2-15.08-25.79-9.9Z"/><path class="cls-2" d="M964.52,608.58c-14.91,6.41-19.52,18.95-8.65,23.58s30.49-1.87,34.85-14.61c2.42-11.9-12.38-14.89-26.2-9Z"/><path class="cls-2" d="M977.66,559.63c-14.72,7.12-19,20-8,24.18,9.92,3.79,30.17-2.31,34.48-16.39,2.06-12.07-12.81-14.37-26.44-7.79Z"/><path class="cls-2" d="M989,511c-15,8.17-18.86,21.21-7.44,24.94,10.16,3.32,30.39-3.91,34.31-18.42,1.85-13.31-14.78-13.13-26.87-6.52Z"/><path class="cls-2" d="M998.65,463c-14.6,9.06-18.15,22.44-6.78,25.55s30.8-6.75,34.05-20.81c1.35-12.85-13.8-13.1-27.27-4.74Z"/><path class="cls-2" d="M1006.92,416.42c-14.5,10.2-17.66,23.34-6.14,25.57,10.59,2,30.11-7.74,33.24-23.15,1-12.6-14-11.63-27.1-2.42Z"/><path class="cls-2" d="M1013.71,371.26c-14.05,11.26-16.86,24.51-5.45,25.77,11.78,1.28,30-11.26,32.55-25.86.7-13.78-15.58-9.15-27.1.09Z"/><path class="cls-2" d="M1019.09,327.6c-13.73,12.62-16.09,25.63-4.7,25.78,11.69.15,29.33-13.95,31.35-28.6.28-13.49-15.59-7.35-26.65,2.82Z"/><path class="cls-2" d="M1022.87,285.4c-12.54,13.29-15,25.64-5.22,25.9,10.39.26,29.93-15.35,31.61-31.81-.18-13.25-15.74-5.37-26.39,5.91Z"/><path class="cls-2" d="M1025.07,244.72c-12.09,14.8-14.09,27-4.3,26.11,11.39-1,29.26-19.79,30.22-35.27-.57-11.24-12-6.09-22.61,5.38-1,1.09-2.35,2.6-3.31,3.78Z"/><path class="cls-2" d="M1025.77,205.6c-11.2,16-12.68,28.16-3.24,26.1,11.44-2.5,28-23,28.36-38.77-1.05-11-11.31-4.32-20.42,6.52-1.18,1.42-3.23,4.05-4.7,6.15Z"/><path class="cls-2" d="M1024.73,168.1c-9.9,16.62-11.36,28.3-3.33,26.52,11.05-2.4,28.07-26.32,27.63-43-1.41-9.93-10.23-3.39-18.36,7.49a104.64,104.64,0,0,0-5.94,9Z"/><path class="cls-2" d="M1022,132.35c-9,18.15-9.89,29.55-2,26.54,10.81-4.14,26.5-30.52,25.27-47-2.4-12.2-14,4.7-16.3,8.22a126.76,126.76,0,0,0-7,12.23Z"/><path class="cls-2" d="M1017.54,98.42c-7.57,18.49-8.27,29.65-1.72,27.09,9.64-3.73,26.21-33.61,23.82-51.87-2.46-9.51-10,1.37-13.08,6.48a140.07,140.07,0,0,0-9,18.3Z"/><path class="cls-2" d="M1011.26,66.51c-6.56,20.09-6.65,31-.18,27.24,10.37-6.09,24.2-39.82,20.94-56.63-3-9.08-9.91,3.4-12.73,9.2a170.45,170.45,0,0,0-8,20.19Z"/><path class="cls-2" d="M1003.27,36.75c-5.06,20.23-4.87,30.86.54,27.71,9-5.23,23.33-43.73,18.58-61.78-3.15-7.59-8.38,2.65-11.22,9.42a182.72,182.72,0,0,0-7.9,24.65Z"/><path class="cls-2" d="M225.52,1714.89c-4.89.8-7.85,3.35-5.63,4.89,2.41,1.69,9.76,1,12.62-1.68,2.08-2.54-1.88-3.67-5.65-3.38-.41,0-.94.11-1.34.17Z"/><path class="cls-2" d="M268.61,1666.83c-5.78,1-9.19,4-6.51,5.89s11.14,1.53,14.74-2.06c2.51-3.2-2.82-4.5-7.44-4l-.79.12Z"/><path class="cls-2" d="M310.53,1618c-6.35,1.06-9.94,4.47-7,6.62,3.16,2.34,12.59,1.49,16.2-2.31,2.51-3.37-3.15-5.34-9.2-4.31Z"/><path class="cls-2" d="M351.06,1568.09c-7,1.17-11,5.18-7.74,7.63,3.64,2.7,14.21,1.78,18.19-2.55,3-4.27-4.14-6.12-10.45-5.08Z"/><path class="cls-2" d="M390.52,1517.72c-7.56,1.27-11.83,5.66-8.15,8.37s15.1,2.3,19.56-2.75c3.16-4.68-4.63-6.74-11.41-5.62Z"/><path class="cls-2" d="M428.76,1466.81c-8.22,1.43-12.66,6.11-8.63,9.15,4.33,3.25,16.52,2.2,20.88-3,3.1-4.8-4.27-7.54-12.25-6.17Z"/><path class="cls-2" d="M465.76,1415.43c-8.79,1.53-13.64,6.83-9.27,10.15,4.79,3.61,18.05,2.5,22.74-3.2,3.29-5.36-4.8-8.45-13.47-7Z"/><path class="cls-2" d="M501.54,1363.94c-9.31,1.6-14.33,7.27-9.64,10.85,5.13,3.9,19.13,2.74,24-3.39,3.35-5.67-5.24-9-14.34-7.46Z"/><path class="cls-2" d="M536.11,1312.18c-9.87,1.7-15.19,7.87-10.14,11.8,5.51,4.29,20.45,3,25.59-3.68,3.74-6.57-6.67-9.6-15.45-8.12Z"/><path class="cls-2" d="M569.42,1260.41c-10.63,1.85-16.19,8.48-10.62,12.68,6.08,4.55,22.05,3.26,27.32-3.84,3.62-6.68-6.34-10.63-16.7-8.84Z"/><path class="cls-2" d="M601.64,1208.83c-11,1.91-16.65,8.9-10.84,13.33,6.34,4.83,22.92,3.47,28.3-4.06,3.66-7-6.76-11.14-17.46-9.27Z"/><path class="cls-2" d="M632.58,1157.25c-11.53,2-17.4,9.48-11.22,14.23,6.76,5.19,24.34,3.69,29.92-4.4,3.72-7.41-7.36-11.85-18.7-9.83Z"/><path class="cls-2" d="M662.35,1106c-12,2.13-17.93,9.9-11.39,14.85,7.12,5.36,25.18,3.81,30.82-4.6,4.13-8.57-8.94-12.13-19.43-10.25Z"/><path class="cls-2" d="M690.91,1054.9c-12.62,2.39-18.63,10.47-11.71,15.71,7.54,5.7,26.47,4,32.28-5,3.78-8.26-8.36-13.05-20.57-10.75Z"/><path class="cls-2" d="M718.2,1004.15c-13.27,2.58-19.4,11.05-12,16.51s27.17,4.78,33.52-5.4c3.8-8.62-8.92-13.58-21.57-11.11Z"/><path class="cls-2" d="M744.3,953.92c-13.49,2.75-19.61,11.52-11.95,17.07,8.3,6,28.49,3.9,34.3-5.76,4-9.58-10.66-13.69-22.35-11.31Z"/><path class="cls-2" d="M769,904c-13.71,2.93-20,12.28-12.09,17.88s29.08,4.66,35.46-6.42c4.1-10.25-11.36-14-23.37-11.46Z"/><path class="cls-2" d="M792.59,854.62c-14.07,3.23-20.25,12.69-12,18.38,9,6.22,30.3,3.48,36.13-7,3.8-10.17-11.87-14.14-24.14-11.34Z"/><path class="cls-2" d="M814.79,805.61c-14.52,3.57-20.69,13.43-12,19.16,9.63,6.38,31.14,3.28,37-7.84,3.59-10.12-11-14.75-25-11.32Z"/><path class="cls-2" d="M835.68,757.13c-14.78,4-20.92,14.15-11.95,19.85s31.59,3.53,37.73-8.78c3.7-11.22-13.08-14.47-25.78-11.07Z"/><path class="cls-2" d="M855.21,709.31c-14.88,4.32-20.88,14.78-11.69,20.34,10.29,6.21,32.48,2,38.09-9.8,3.22-10.58-12.07-14.71-26.4-10.54Z"/><path class="cls-2" d="M873.28,662c-15,4.84-20.9,15.65-11.45,21,9.62,5.5,32.75,2,38.54-11.06,3.06-10.88-12.61-14.66-27.09-10Z"/><path class="cls-2" d="M890,615.25c-15.29,5.5-20.87,16.37-11.11,21.57,10.88,5.8,33.51.13,38.66-12.42,2.81-11.08-13.07-14.33-27.55-9.15Z"/><path class="cls-2" d="M905.12,569.24c-15.15,6-20.49,17.18-10.59,22,10.05,4.92,33.29-.24,38.49-14,2.74-12.23-14.75-13.3-27.9-8.06Z"/><path class="cls-2" d="M918.66,523.8c-15.11,6.77-20.24,18.22-10.1,22.64,10.32,4.54,33.77-1.67,38.58-15.77,2.41-12.45-15.3-12.76-28.48-6.87Z"/><path class="cls-2" d="M930.74,479.53c-15.27,7.67-20.06,19-9.71,23,10.55,4,34-3.49,38.51-17.86,2.08-12.35-15.75-11.61-28.8-5.09Z"/><path class="cls-2" d="M941.66,437c-15,8.4-19.51,19.73-9.19,22.88,10.59,3.23,33.79-5.6,37.95-20,1.67-11.51-14.37-11-28.76-2.9Z"/><path class="cls-2" d="M951.18,396.1c-14.95,9.49-19.18,20.68-8.69,23,12.06,2.69,33.87-8.65,37.5-22.4,1.52-12.48-16-8.71-28.81-.63Z"/><path class="cls-2" d="M959.49,356.82c-14.45,10.39-18.37,21.56-8,23,11,1.52,33.16-10.21,36.57-24.9,1.15-12.16-16.15-7-28.54,1.92Z"/><path class="cls-2" d="M966.27,319.18c-13.45,11-17.43,21.45-8.68,22.88,10.61,1.75,34-12.31,37.08-27.66.74-12-16-5.29-28.4,4.78Z"/><path class="cls-2" d="M971.75,283.13c-12.9,12-16.52,22.55-7.93,23.05,10.65.64,33.49-15.49,36-30.87.3-11.62-16.15-3.27-28.08,7.82Z"/><path class="cls-2" d="M975.8,248.81c-12.42,13.19-15.55,23.52-7,23,11.72-.67,32.56-19.41,34.35-34.06-.13-10.14-13.39-3.1-25.61,9.22-.53.55-1.23,1.27-1.75,1.83Z"/><path class="cls-2" d="M978.31,216.13c-11.23,13.77-14.25,23.55-7.21,23.23,10-.44,32.66-21.77,33.92-37.8-.56-9.5-12.15-1.88-23.29,10.59-1.05,1.17-2.42,2.77-3.42,4Z"/><path class="cls-2" d="M979.35,185.3c-10.53,15-13.05,24.57-6.08,23.23,10.17-1.95,31.36-25.47,31.85-41.49-1-8.8-11.2-.44-20.9,11.73-1.48,1.88-3.46,4.55-4.87,6.53Z"/><path class="cls-2" d="M978.78,156.3c-9.18,15.34-11.49,24.58-5.91,23.59,9.42-1.72,31.08-29.48,30.67-45.87-1.38-8.25-10.54,1.2-18.62,12.76-2.64,3.8-4.78,7.26-6.14,9.52Z"/><path class="cls-2" d="M976.59,129.32C968.29,145.89,966.53,155,972,153c9.66-3.43,29.63-33.94,28.24-50.32-2.16-8.82-12.25,6.57-16.49,13.61-1.12,1.85-4.08,6.85-7.18,13Z"/><path class="cls-2" d="M968.24,116.9c-1.07,3.57-4.34,14.46,1.5,11.21,9.47-5.27,27.66-38.9,25.25-54.51-1.64-5-5.93-1.29-12.74,11q-6.45,16.71-14,32.33Z"/><path class="cls-2" d="M251.59,1563.18c-4.33.71-6.72,3-4.65,4.51s8.54,1,10.91-1.52c1.86-2.57-2.52-3.59-6.26-3Z"/><path class="cls-2" d="M291.72,1512.36c-5.06.85-7.88,3.7-5.41,5.46s10.1,1.45,13-1.82c2-3.07-3.13-4.38-7.62-3.64Z"/><path class="cls-2" d="M330.76,1461.11c-5.53,1-8.66,4.23-6,6.24s11.15,1.7,14.38-2.08c2.1-3.21-3-5.1-8.41-4.16Z"/><path class="cls-2" d="M368.48,1409.43c-6.46,1.12-9.88,4.81-6.68,7.18,3.45,2.56,13.07,1.76,16.44-2.29,2.55-4.07-4.07-5.87-9.76-4.89Z"/><path class="cls-2" d="M405.09,1357.68c-6.85,1.18-10.58,5.32-7.12,7.91,3.78,2.82,14.14,1.93,17.74-2.54,2.68-4.45-4.51-6.42-10.62-5.37Z"/><path class="cls-2" d="M440.47,1305.7c-7.72,1.34-11.71,5.87-7.74,8.83,4.25,3.2,15.78,2.23,19.73-2.81,2.61-4.54-4.65-7.28-12-6Z"/><path class="cls-2" d="M474.71,1253.78c-8.31,1.45-12.66,6.55-8.31,9.71,4.74,3.47,17.27,2.44,21.43-3,3.06-5.49-5.74-8-13.12-6.7Z"/><path class="cls-2" d="M507.8,1202.15c-9,1.52-13.44,6.86-8.64,10.35,5.08,3.73,18.42,2.65,22.74-3.22,2.92-5.41-5.48-8.61-14.1-7.13Z"/><path class="cls-2" d="M539.66,1150.64c-9.38,1.59-14.16,7.47-9.14,11.2,5.53,4.11,19.84,2.92,24.45-3.51,3.28-6.27-6.92-9.15-15.31-7.69Z"/><path class="cls-2" d="M570.43,1099.61c-9.87,1.73-14.81,7.92-9.41,11.81,5.91,4.29,21,3,25.64-3.69,3.35-6.62-7.44-9.66-16.23-8.12Z"/><path class="cls-2" d="M600.06,1048.8c-10.61,1.92-15.68,8.45-9.83,12.67,6.28,4.6,22.24,3.21,27.14-4,3.45-7.13-8-10.33-17.31-8.65Z"/><path class="cls-2" d="M628.5,998.69c-10.92,2-16.17,8.91-10,13.19s23,3.72,28.24-4.28c3.43-7.38-8.57-10.68-18.23-8.91Z"/><path class="cls-2" d="M655.8,949.14c-11.22,2.13-16.55,9.3-10.17,13.72,7,4.82,24.14,3.18,29.09-4.56,3.46-7.68-9-11-18.92-9.16Z"/><path class="cls-2" d="M681.83,900.08c-11.85,2.35-17.2,9.78-10.38,14.42,7.36,5,25.26,3.18,30.37-5,3.46-8-9.6-11.43-20-9.37Z"/><path class="cls-2" d="M706.64,851.66C694.22,854.24,688.73,862,696,866.79c7.84,5.18,26.58,3,31.78-5.59,3.43-8.38-10.34-11.77-21.16-9.54Z"/><path class="cls-2" d="M730.31,804.1c-12.63,2.77-18.09,10.77-10.61,15.55,8.1,5.21,27.22,2.8,32.36-6.08,3.51-8.89-10.76-11.89-21.75-9.47Z"/><path class="cls-2" d="M752.65,757.13c-13.19,3.07-18.69,11.4-10.74,16.19s28,3.23,33.59-6.8c3.42-9.18-11.51-12-22.85-9.39Z"/><path class="cls-2" d="M773.81,711c-13.26,3.37-18.73,11.93-10.65,16.61s28.5,2.79,34-7.56c3-8.74-10.54-12.34-23.39-9.05Z"/><path class="cls-2" d="M793.54,665.67c-13.61,3.77-19.07,12.61-10.64,17.21,9.47,5.17,29.87,1.52,35-8.47,3-9-11.16-12.38-24.34-8.74Z"/><path class="cls-2" d="M811.93,621.18c-13.86,4.18-19.27,13.32-10.54,17.78,9.82,5,30.67.73,35.67-9.62,2.8-9.2-11.71-12.23-25.13-8.16Z"/><path class="cls-2" d="M829,577.67c-14.17,4.69-19.34,13.84-10.22,18.12,10.06,4.73,31.12-.23,35.94-10.81,2.55-9.22-12.25-11.76-25.72-7.31Z"/><path class="cls-2" d="M844.48,535.07c-14.29,5.26-19.31,14.62-10,18.53,9.5,4,31.46-.6,36.37-12.16,2.61-10.29-14-11-26.38-6.37Z"/><path class="cls-2" d="M858.9,494.21c-13.4,5.44-18.73,14.15-10.95,17.92,9.13,4.43,32.69-1.06,37.59-13.14,2.39-10-14.26-9.81-26.64-4.78Z"/><path class="cls-2" d="M872.16,455.12c-13.62,6.16-18.73,14.77-10.73,18.08,9.31,3.85,33-2.86,37.71-15,2.17-9.83-14.62-8.65-27-3.08Z"/><path class="cls-2" d="M884.28,417.88c-13.52,6.8-18.48,15.47-10.45,18.18,9.43,3.21,33.13-4.82,37.62-17,2-10-15-7.36-27.17-1.21Z"/><path class="cls-2" d="M895.21,382.49c-13.44,7.59-18.1,16-10,18.1,10.44,2.64,33.28-7.77,37.19-19,1.73-9.64-15.22-5.82-27.2.95Z"/><path class="cls-2" d="M905,348.73c-12.5,8-17.3,16-10.71,18,9,2.64,33.83-8.5,37.89-21.21C933.6,336,917,341.05,905,348.73Z"/><path class="cls-2" d="M913.45,316.83c-12.34,8.82-16.78,16.73-10.11,18,9,1.7,33.41-11.21,37-23.71,1.13-9.21-14.9-2.87-26.91,5.74Z"/><path class="cls-2" d="M920.61,286.63c-12.12,9.81-16.2,17.6-9.53,18.13,9.32.75,33-13.9,36.2-26.62.82-9.1-15.25-.76-26.67,8.49Z"/><path class="cls-2" d="M926.48,258.28c-11,10.07-15,17.49-9.74,18.06,8.39.91,33.13-16.53,35.88-29.5.46-8.62-14.9,1.1-26.14,11.44Z"/><path class="cls-2" d="M930.94,231.73c-10.55,11.06-14.15,18.38-8.93,18.2,8.67-.28,32.35-19.8,34.55-32.77,0-7.29-11.49.67-22.21,11.14-1.05,1-2.4,2.38-3.41,3.43Z"/><path class="cls-2" d="M934.07,207.11c-7.38,8.87-13.57,18.32-8.85,18.33,7.69,0,32-22.88,33.66-36.25-.36-6.66-11,2.48-19.94,12.33-1.65,1.82-3.29,3.69-4.87,5.59Z"/><path class="cls-2" d="M935.69,184.52c-9,12.43-11.78,19.18-7.84,18.47,7.77-1.36,31-27.18,31.82-40-.74-6.07-10.5,4-19.39,15.43q-2.32,3-4.59,6.14Z"/><path class="cls-2" d="M928.76,182.64c7.68-2.15,30-31.2,30-43.88-.13-.6-.31-1.5-1-1.53a413.2,413.2,0,0,1-29,45.41Z"/><path class="cls-2" d="M230.14,1455.62c-3,.46-4.66,2.13-3.12,3.2s6,.88,7.67-1.1c1.07-1.62-1.65-2.56-4.55-2.1Z"/><path class="cls-2" d="M268.59,1403.78c-3.57.59-5.57,2.7-3.74,4,2,1.4,7.34,1,9.22-1.28,1.45-2.28-2.29-3.21-5.48-2.69Z"/><path class="cls-2" d="M305.93,1351.68c-4.4.76-6.72,3.28-4.49,4.89,2.39,1.78,9,1.22,11.34-1.55,1.54-2.55-2.64-4-6.85-3.34Z"/><path class="cls-2" d="M342.11,1299.67c-5,.83-7.61,3.75-5,5.61s10,1.63,12.78-1.84c1.71-2.88-2.92-4.55-7.77-3.77Z"/><path class="cls-2" d="M377.17,1247.6c-5.72,1-8.69,4.35-5.66,6.48,3.3,2.3,11.93,1.61,14.77-2,1.93-3.4-3.5-5.37-9.11-4.45Z"/><path class="cls-2" d="M411.17,1195.91c-6.14,1-9.39,4.82-6.11,7.14s12.78,2,16.06-2.28c2.28-4.1-4.47-5.79-9.95-4.86Z"/><path class="cls-2" d="M443.92,1144.4c-7.07,1.21-10.51,5.31-6.68,8s14.23,2.41,17.89-2.56c2.39-4.42-5.07-6.46-11.21-5.43Z"/><path class="cls-2" d="M475.63,1093.36c-7.6,1.28-11.42,5.9-7.28,8.82,4.54,3.2,16.13,2.24,19.77-2.79,2.54-4.92-5.73-7.18-12.49-6Z"/><path class="cls-2" d="M506.26,1042.92c-8.32,1.44-12.27,6.29-7.66,9.46,4.91,3.39,17.31,2.34,21.1-3,2.67-5.28-6.23-7.69-13.44-6.44Z"/><path class="cls-2" d="M535.7,993c-8.79,1.52-13,6.85-8.09,10.19,5.37,3.63,18.72,2.47,22.7-3.28,2.79-5.7-6.85-8.25-14.61-6.91Z"/><path class="cls-2" d="M564,944c-9.26,1.65-13.64,7.25-8.35,10.7s19.35,3,23.78-3.52c2.82-6-7.31-8.61-15.43-7.18Z"/><path class="cls-2" d="M591.23,895.64c-10,1.84-14.48,7.69-8.73,11.4,6.15,4,21.13,2.56,25.4-3.88,2.7-5.93-7.08-9.25-16.67-7.52Z"/><path class="cls-2" d="M617.29,848.24c-10.45,1.93-15,8-8.92,11.85s21.66,3,26.38-4.25c2.78-6.25-7.44-9.47-17.46-7.6Z"/><path class="cls-2" d="M642.2,801.6c-11,2.15-15.69,8.56-9.21,12.48,6.94,4.2,23.34,2.4,27.81-4.66,3.06-7.14-9.18-9.65-18.6-7.82Z"/><path class="cls-2" d="M665.89,755.93c-10.7,2.22-15.78,8.39-10.26,12.45,6.75,5,25.16,3.12,29.9-4.63,2.84-6.88-8.62-10.1-19.64-7.82Z"/><path class="cls-2" d="M688.36,711.38c-11,2.39-16.12,8.73-10.34,12.81,7.1,5,26.13,2.78,30.9-5.21,2.75-7-9.2-10.08-20.56-7.6Z"/><path class="cls-2" d="M709.7,667.69c-11.37,2.7-16.6,9.32-10.54,13.37,7.45,5,27.15,2.42,32-5.87,2.76-7.32-9.68-10.29-21.42-7.5Z"/><path class="cls-2" d="M729.74,625.25c-11.63,3-16.85,9.73-10.52,13.67,8,5,27.88,2,32.71-6.65,2.6-7.36-10.23-10-22.19-7Z"/><path class="cls-2" d="M748.47,583.85c-11.84,3.3-17.08,10.29-10.54,14.12,8.33,4.89,28.77,1.35,33.57-7.64,2.52-7.51-10.77-9.89-23-6.48Z"/><path class="cls-2" d="M766,543.9c-12.25,3.69-17.32,10.58-10.44,14.16,8.64,4.55,29.41.42,34-8.55,2.61-8.16-12.28-9-23.59-5.61Z"/><path class="cls-2" d="M782.48,505.89C770,510,764.94,517,772,520.18c8.14,3.75,29.78-.23,34.68-9.85,2.53-8-12.7-8.24-24.17-4.44Z"/><path class="cls-2" d="M798,470c-11.74,4.26-17.06,10.7-11.33,13.75,8.24,4.43,31-1.21,35.76-10.68,2.36-7.77-12.95-7.23-24.43-3.07Z"/><path class="cls-2" d="M812.49,436c-11.83,4.78-17.12,11.25-11.32,13.89,8.52,3.86,31.63-2.85,36.25-12.31,2.31-7.92-13.48-6.18-24.93-1.58Z"/><path class="cls-2" d="M826,404c-11.94,5.33-17,11.69-11.1,13.85,8.68,3.17,31.78-4.67,36.21-14,2-7-12.12-5.69-25.11.13Z"/><path class="cls-2" d="M838.31,373.82c-12.07,6-17,12.26-10.9,13.93,8.87,2.41,32-6.7,36.25-15.95,1.94-7.42-13.73-3.77-25.35,2Z"/><path class="cls-2" d="M849.52,345.56c-11.37,6.32-16.33,12.25-11.56,13.8,7.43,2.4,32.48-7.48,37-17.87,1.72-7.12-13.93-2.34-25.46,4.07Z"/><path class="cls-2" d="M859.68,319.17c-9.61,6-16.53,12.65-11.08,13.78,7.48,1.61,32.17-9.93,36.39-20.09,1.44-6.76-13.77-.88-25.31,6.31Z"/><path class="cls-2" d="M868.57,294.67c-10.43,7.26-15,12.81-11.46,13.8,6.48,1.78,32.63-12,36.67-22.61,1.19-6.59-13.85.87-25.21,8.81Z"/><path class="cls-2" d="M876.27,272.09c-10.08,7.94-14.33,13.36-10.81,13.83,6.57.85,32.07-15,35.64-25.24.82-5.42-10.5.76-21.36,8.78-1,.77-2.43,1.81-3.47,2.63Z"/><path class="cls-2" d="M882.74,251.45c-9.92,8.84-13.75,14.05-10.22,13.94,6.87-.21,31.54-18.11,34.64-28.2.62-5.77-13.26,5-17.54,8.44-3.25,2.63-6.09,5.13-6.88,5.82Z"/><path class="cls-2" d="M887.91,232.87c-6.38,6.42-13.3,14.08-10.18,14.12,5.6.09,31.46-21.31,34.14-31.54.22-4.52-9.65,3.92-15.55,9.33-1.61,1.45-4.78,4.43-8.41,8.09Z"/><path class="cls-2" d="M206.5,1347.16l.12,0-.14-.14a.88.88,0,0,0,0,.16Z"/><path class="cls-2" d="M241.21,1293.74c-2.29.38-3.54,1.75-2.34,2.59s4.63.74,5.93-.9c.79-1.31-1.36-2.07-3.59-1.69Z"/><path class="cls-2" d="M277,1241.56c-3.22.52-4.85,2.34-3.11,3.48s6.57.8,8.09-1.1c1.14-2-2.21-2.84-5-2.38Z"/><path class="cls-2" d="M311.73,1189.8c-3.73.64-5.57,2.76-3.61,4.13,2.14,1.45,7.71,1,9.51-1.33,1.23-2.17-2.29-3.41-5.9-2.8Z"/><path class="cls-2" d="M345.33,1138.28c-4.63.74-6.85,3.33-4.34,5s9.31,1.44,11.67-1.65c1.53-2.78-3.34-4-7.33-3.38Z"/><path class="cls-2" d="M377.92,1087.42c-5,.82-7.52,3.78-4.77,5.62,3,2,10.57,1.41,13-1.78,1.74-3.24-3.77-4.57-8.19-3.84Z"/><path class="cls-2" d="M409.43,1037c-5.77,1-8.62,4.39-5.45,6.54,3.47,2.32,12.25,1.6,15-2.1,1.93-3.68-4.37-5.3-9.51-4.44Z"/><path class="cls-2" d="M439.8,987.39c-6.64,1.14-9.72,4.88-6,7.28,4.08,2.61,13.77,1.81,16.78-2.36,1.94-3.81-4.43-6-10.75-4.92Z"/><path class="cls-2" d="M469.07,938.77c-6.89,1.19-10.21,5.25-6.29,7.76,4.3,2.78,15,1.91,18.1-2.5,2.19-4.4-5.59-6.34-11.81-5.26Z"/><path class="cls-2" d="M497.33,891.05c-7,1.19-10.64,5.18-7.18,7.88,4.25,3.36,16.44,2.52,19.86-2.39,2.26-4.61-6.07-6.62-12.68-5.49Z"/><path class="cls-2" d="M524.5,844.21c-7.56,1.31-11.44,5.62-7.72,8.52,4.67,3.64,18,2.66,21.69-2.71,2.36-5-6.79-7.07-14-5.81Z"/><path class="cls-2" d="M550.57,798.57c-8.18,1.47-12.13,5.9-8,8.94,5,3.69,19,2.6,22.8-3,2.39-5.18-7.22-7.33-14.79-6Z"/><path class="cls-2" d="M575.51,753.94c-8.55,1.6-12.77,6.36-8.37,9.45,5.46,3.86,20.48,2.58,24.43-3.33,2.44-5.47-8-7.61-16.06-6.12Z"/><path class="cls-2" d="M599.41,710.57c-9.09,1.78-13.35,6.64-8.63,9.81,5.78,3.89,21.41,2.39,25.42-3.7,2.46-5.66-8.41-7.75-16.79-6.11Z"/><path class="cls-2" d="M622.09,668.39c-9.57,2-14,7.11-9,10.31,6.22,4,22.79,2.18,26.9-4.2,2.35-5.55-8.14-8.14-17.95-6.11Z"/><path class="cls-2" d="M643.57,627.53c-10.06,2.21-14.64,7.52-9.22,10.74,6.77,4,23.94,2,28.22-4.83,2.31-5.71-8.74-8.14-19-5.91Z"/><path class="cls-2" d="M663.93,588.1c-10.27,2.42-14.86,7.83-9.24,11,7,3.94,24.64,1.47,28.9-5.49,2.31-5.87-9.07-8-19.66-5.48Z"/><path class="cls-2" d="M683.17,550.41c-10.1,2.55-15,7.63-10.29,10.64,6.58,4.23,26.49,1.42,30.93-5.77,2.5-6.36-10.81-7.32-20.64-4.87Z"/><path class="cls-2" d="M701.68,515.08c-10.44,2.85-15.27,7.79-10.4,10.62,6.77,3.87,27,.48,31.45-6.69,2.44-6.16-11.09-6.64-21.05-3.93Z"/><path class="cls-2" d="M719.18,481.87c-10.7,3.15-15.66,8.14-10.59,10.68,7.26,3.62,27.91-.42,32.5-7.78,2.4-6.14-11.41-6-21.91-2.9Z"/><path class="cls-2" d="M735.84,450.78c-10.28,3.33-15.44,8-11.45,10.37,6.41,3.87,29.15-1,33.91-8.58,2.35-6-11.77-5.25-22.46-1.79Z"/><path class="cls-2" d="M751.61,421.8c-10.26,3.65-15.36,8.3-11.41,10.39,6.57,3.38,29.51-2.39,34.26-10,2.26-5.78-12.09-4.25-22.85-.42Z"/><path class="cls-2" d="M766.37,394.84c-10.59,4.15-15.59,8.73-11.45,10.42,6.21,2.53,29.82-3.59,34.74-11.52,2.2-5.71-12.57-3.13-23.29,1.1Z"/><path class="cls-2" d="M780.23,369.89c-9.89,4.33-14.9,8.57-11.9,10.14,5,2.62,30.24-4.58,35.35-12.89,2.08-5.44-12.51-2-23.45,2.75Z"/><path class="cls-2" d="M793,346.89c-10.08,4.88-14.94,9.1-11.84,10.27,5.21,2,30.63-6.78,35.53-14.85,1.84-5-11.59-1-22,3.79l-1.73.79Z"/><path class="cls-2" d="M804.79,325.89c-10.1,5.43-14.79,9.56-11.68,10.34,5.66,1.39,30.78-9,35.58-17,1.47-4.13-8.65-.81-18.64,4-1.77.86-3.54,1.74-5.26,2.68Z"/><path class="cls-2" d="M815.53,306.89c-9.37,5.6-13.92,9.52-11.88,10.25,4.29,1.47,30.83-11,35.52-19,1.37-4-9.66,1.25-13,3-2.38,1.17-6.14,3.14-10.59,5.81Z"/><path class="cls-2" d="M825.19,289.88c-9.29,6.2-13.45,9.95-11.4,10.25,4.54.66,30.34-13.55,34.79-21.38.56-1.81-1.75-1.42-6.89,1.19a181.33,181.33,0,0,0-16.5,9.94Z"/><path class="cls-2" d="M823.35,283.27c-1.31,1.28-1.31,1.62-1.31,1.91,2.69,1.82,30.55-16.19,34.77-23.94a1.85,1.85,0,0,0,.05-.7c-.23-.17-1-.67-6,2.4q-13.3,10.57-27.56,20.33Z"/><polygon class="cls-2" points="208.88 1184.55 209.59 1185.17 211.21 1184.73 210.33 1184.1 208.88 1184.55 208.88 1184.55"/><polygon class="cls-2" points="242.38 1133.45 243.78 1134.73 246.87 1133.77 245.26 1132.54 242.38 1133.45 242.38 1133.45"/><path class="cls-2" d="M277.41,1081.61c-2.3.35-3.59,1.67-2.51,2.58,1.32,1.1,5.48.84,6.68-.76.92-1.63-2.22-2.12-4.17-1.82Z"/><path class="cls-2" d="M309.79,1031.43c-3,.55-4.49,2.26-2.87,3.38,1.79,1.2,6.5.78,7.93-1.13,1-1.86-2.38-2.71-5.06-2.25Z"/><path class="cls-2" d="M341,982c-3.68.6-5.58,2.57-3.81,4,2,1.54,8.36,1.44,10.32-1.17,1.13-2.15-2.78-3.41-6.51-2.78Z"/><path class="cls-2" d="M371.28,933.65c-4.12.68-6.29,3-4.28,4.49,2.43,1.91,9.6,1.48,11.64-1.31,1.43-2.66-3.45-3.83-7.36-3.18Z"/><path class="cls-2" d="M400.42,886.2c-4.86.78-7.37,3.42-4.95,5.21,2.94,2.21,11.39,1.67,13.76-1.57,1.56-3-4.21-4.38-8.81-3.64Z"/><path class="cls-2" d="M428.58,839.91c-5.54.92-8.3,3.83-5.56,5.87,3.34,2.48,12.93,1.84,15.61-1.86,1.7-3.43-4.87-4.88-10.05-4Z"/><path class="cls-2" d="M455.76,795c-6,1-8.91,4.12-5.92,6.26,3.64,2.67,14,1.94,16.79-2,1.8-3.65-5.3-5.19-10.87-4.25Z"/><path class="cls-2" d="M481.78,751.16c-6.6,1.13-9.85,4.57-6.48,6.84,4.2,2.79,15.71,1.91,18.74-2.31,1.91-4-6.05-5.57-12.26-4.53Z"/><path class="cls-2" d="M506.85,708.84c-7.26,1.29-10.57,4.78-6.83,7.18,4.64,3,16.7,2,19.93-2.58,1.84-3.89-5.81-5.9-13.1-4.6Z"/><path class="cls-2" d="M530.8,667.87c-7.29,1.35-11,4.84-7.78,7.32,4.4,3.41,18.56,2.43,22.12-2.58,1.94-4.18-6.43-6.19-14.34-4.74Z"/><path class="cls-2" d="M553.73,628.5c-7.54,1.45-11.38,5-8,7.55,4.64,3.47,19.49,2.26,23.13-2.95,2.09-4.54-7.66-6-15.11-4.6Z"/><path class="cls-2" d="M575.4,590.63c-8,1.61-12.07,5.36-8.44,7.87,5.07,3.56,21,2.06,24.84-3.45,2.21-4.83-8.44-6-16.4-4.42Z"/><path class="cls-2" d="M596.35,555.07c-8.51,1.81-12.72,5.63-8.86,8,5.43,3.35,22.25,1.48,26.19-4,2.27-4.87-9-5.77-17.33-4Z"/><path class="cls-2" d="M616.57,522c-8.25,1.87-12.7,5.35-9.64,7.62,4.73,3.54,23.5,1.42,27.72-4.29,2.23-4.72-9.41-5.27-18.08-3.33Z"/><path class="cls-2" d="M636.09,491.24c-8.46,2.05-13,5.51-9.85,7.61,4.89,3.27,24.14.61,28.41-5.05,2.23-4.55-9.73-4.69-18.56-2.56Z"/><path class="cls-2" d="M654.7,462.71c-9,2.34-13.58,5.8-10.21,7.69,5.4,3.05,25.25-.25,29.68-6,2.29-4.54-10-4.2-19.47-1.73Z"/><path class="cls-2" d="M672.65,436.41c-9.09,2.6-13.71,6-10.31,7.65,5.52,2.65,25.68-1.32,30.13-6.92,2.25-4.35-10.28-3.47-19.82-.73Z"/><path class="cls-2" d="M689.64,412.25c-8.84,2.77-13.63,6-11.11,7.46,4,2.38,26.75-1.81,31.71-7.9,2.19-4.14-10.81-2.6-20.6.44Z"/><path class="cls-2" d="M705.82,390.23c-9,3.08-13.85,6.32-11.27,7.51,4.84,2.23,27.62-3.56,32.36-9.25,2.11-3.84-9.45-1.85-17.92.73-1,.28-2.25.69-3.17,1Z"/><path class="cls-2" d="M721.15,370.31c-8.64,3.27-13.36,6.19-11.67,7.29,3.47,2.28,28.16-4.74,33.07-10.49,1.65-2.95-6.08-1.59-13.2.5-1.24.34-4.52,1.34-8.2,2.7Z"/><path class="cls-2" d="M735.57,352.45c-8.81,3.67-13.42,6.55-11.74,7.35,3.15,1.5,28.19-6.17,33.45-12.2,1.22-2.13-3.25-1.3-7.23-.22a125.53,125.53,0,0,0-14.48,5.07Z"/><path class="cls-2" d="M749.09,336.66c-8.79,4-13.23,6.86-11.55,7.32,3.48,1,28.1-8.13,33.24-13.86.31-.52,1-1.55-2.68-.73-4.37,1-12.7,4.35-19,7.27Z"/><path class="cls-2" d="M761.61,323c-11.56,5.87-11.85,6.84-12,7.2,3.1,1.37,29.38-10.86,33.91-15.76a2,2,0,0,0,.2-.56c-1.33-1.43-20,8-22.15,9.12Z"/><path class="cls-2" d="M770.17,315.38a158.85,158.85,0,0,0,21.77-12.19q-10.68,6.27-21.77,12.19Z"/><polygon class="cls-2" points="173.89 1076.03 174.35 1076.31 175.13 1076.12 174.71 1075.77 173.89 1076.03 173.89 1076.03"/><polygon class="cls-2" points="207.13 1026.33 207.57 1026.66 208.38 1026.4 207.95 1026.08 207.13 1026.33 207.13 1026.33"/><polygon class="cls-2" points="238.31 977.42 239.51 978.32 241.74 977.63 240.53 976.73 238.31 977.42 238.31 977.42"/><polygon class="cls-2" points="268.64 929.59 270.5 930.89 273.73 929.91 272.04 928.56 268.64 929.59 268.64 929.59"/><path class="cls-2" d="M300.8,881.58c-2.27.38-3.43,1.56-2.32,2.37,1.36,1,5.32.74,6.42-.72.69-1.3-1.7-2-4.1-1.65Z"/><path class="cls-2" d="M329.78,835.67c-3,.46-4.59,2-3.08,3.09,1.73,1.24,7,1.13,8.56-1,.89-1.69-2.34-2.57-5.48-2.1Z"/><path class="cls-2" d="M357.91,791.24c-3.44.52-5.25,2.35-3.53,3.56,2.18,1.51,8.36,1.11,10-1.13,1.11-2.13-3.18-2.94-6.51-2.43Z"/><path class="cls-2" d="M385,748.13c-4.27.67-6.33,2.73-4.2,4.15,2.72,1.79,10,1.29,12-1.39,1.15-2.22-3.44-3.43-7.81-2.76Z"/><path class="cls-2" d="M411.07,706.49c-4.66.75-7.09,2.91-5.09,4.53,2.75,2.2,11.9,1.71,14.29-1.43,1.29-2.59-4.07-3.93-9.2-3.1Z"/><path class="cls-2" d="M436.2,666.6c-5.19.86-7.84,3.17-5.56,4.84,3.08,2.29,13.08,1.7,15.6-1.58,1.44-2.84-4.42-4.17-10-3.26Z"/><path class="cls-2" d="M460.28,628.3c-5.75,1-8.67,3.47-6.12,5.29,3.49,2.46,14.72,1.72,17.51-1.93,1.61-3.18-5.76-4.31-11.39-3.36Z"/><path class="cls-2" d="M483.43,592.05c-6.25,1.08-9.27,3.6-6.48,5.41,3.77,2.45,15.8,1.5,18.72-2.24,1.57-3.08-5.52-4.34-12.24-3.17Z"/><path class="cls-2" d="M505.9,558.28c-6.28,1.13-9.69,3.57-7.45,5.35,3.44,2.71,17.56,1.7,20.86-2.36,1.84-3.42-6.86-4.18-13.41-3Z"/><path class="cls-2" d="M527.71,527.07c-6.72,1.28-10.35,3.79-7.94,5.5,3.7,2.62,18.86,1.26,22.4-2.85,1.91-3.43-7.44-4-14.46-2.65Z"/><path class="cls-2" d="M548.9,498.42c-7,1.38-10.84,3.89-8.3,5.48,4,2.42,19.91.71,23.56-3.36,2-3.32-7.9-3.57-15.26-2.12Z"/><path class="cls-2" d="M569.36,472.12c-7,1.49-11,3.84-9.15,5.32,3.32,2.62,21.29.53,25.32-3.76,2-3.3-8.41-3.21-16.17-1.56Z"/><path class="cls-2" d="M589.2,448.19c-7.26,1.68-11.42,4-9.46,5.32,3.59,2.36,21.93-.2,26.17-4.48,2-3.06-7.79-2.69-15.41-1.13l-1.3.29Z"/><path class="cls-2" d="M608.29,426.52c-7.71,1.92-11.94,4.24-9.84,5.36,3.3,1.8,22.89-1,27.42-5.4,1.91-2.71-6.74-2.15-13.47-.86-1.38.26-2.74.57-4.11.9Z"/><path class="cls-2" d="M626.67,407.14c-7.32,2-11.69,4.14-10.38,5.13,2.65,2,23.77-1.92,28.38-6.13,1.77-2.39-5.78-1.43-8.14-1.08a89.83,89.83,0,0,0-9.86,2.08Z"/><path class="cls-2" d="M644.21,389.93c-7.58,2.25-11.94,4.36-10.62,5.16,2.75,1.68,24.65-3.21,29.43-7.33.32-.4,1.29-1.62-3.82-1.08a92.36,92.36,0,0,0-15,3.25Z"/><path class="cls-2" d="M661,374.91c-8,2.59-12.35,4.62-10.94,5.18,2.56,1.05,25.06-4.43,30.3-8.66.31-.35.92-1-1.4-.9-3.67.2-11.87,2.4-18,4.38Z"/><path class="cls-2" d="M677.1,362c-7,2.48-10.78,4.14-11.21,4.91,2.07,1.46,26-6.13,30.86-9.78a1.66,1.66,0,0,0,.3-.43c-1.64-1.13-18.07,4.63-19.95,5.3Z"/><path class="cls-2" d="M692.35,351.26c-9.75,3.81-10.75,4.52-11.19,4.84a1.34,1.34,0,0,1,0,.2c3.09.2,25.84-7.9,30.91-11.4l.25-.2a.92.92,0,0,1,0-.23c-1.9-.14-14.58,4.7-20,6.79Z"/><polygon class="cls-2" points="227.67 831.84 228.19 832.27 229.39 831.92 228.69 831.54 227.67 831.84 227.67 831.84"/><polygon class="cls-2" points="255.89 788.1 257.14 788.89 259.29 788.27 258.08 787.48 255.89 788.1 255.89 788.1"/><path class="cls-2" d="M285.19,744.91c-1.86.28-2.75,1.14-1.84,1.77,1.21.82,4.55.45,5.41-.6.5-.94-1.61-1.47-3.57-1.17Z"/><path class="cls-2" d="M312.33,704c-2.36.37-3.59,1.4-2.57,2.16,1.25.92,5.82.87,7.06-.68.67-1.23-2-1.86-4.49-1.48Z"/><path class="cls-2" d="M338.42,664.81c-2.94.46-4.5,1.75-3.23,2.69,1.72,1.24,7.7.92,9.15-.87.9-1.66-2.93-2.3-5.92-1.82Z"/><path class="cls-2" d="M363.54,627.43c-3.31.54-5.71,2-3.94,3.17,2.21,1.48,9.4,1.06,11.17-1.09,1-1.82-3.24-2.68-7.23-2.08Z"/><path class="cls-2" d="M388,592.55c-3.85.59-6,2.06-4.63,3.18,2.06,1.72,10.74,1.3,12.87-1.16,1.14-2-4.16-2.66-8.24-2Z"/><path class="cls-2" d="M411.84,560.32c-4.52.71-7,2.29-5.35,3.43,2.55,1.78,12.39,1.19,14.78-1.39,1.35-2.22-4.79-2.78-9.43-2Z"/><path class="cls-2" d="M435.13,530.87c-4.74.74-7.43,2.4-5.77,3.52,2.6,1.75,13.44,1,16.05-1.7,1.44-2.23-5.24-2.64-10.28-1.82Z"/><path class="cls-2" d="M457.87,504c-4.89.82-7.72,2.31-6.46,3.4,2.19,1.87,14.73,1,17.67-1.87,1.52-2.21-5.78-2.44-11.21-1.53Z"/><path class="cls-2" d="M480,479.6c-5.36.95-8.47,2.51-7.08,3.56,2.42,1.79,16.1.54,19.3-2.33,1.45-1.92-4.26-2.36-10.3-1.54-.58.08-1.34.2-1.92.31Z"/><path class="cls-2" d="M501.55,457.68c-5.87,1.12-9.23,2.7-7.71,3.66,2.66,1.65,17.62,0,21.09-2.89,1.37-1.72-3.68-2-9.15-1.39-1.43.17-2.84.37-4.23.62Z"/><path class="cls-2" d="M522.55,438.25c-5.7,1.14-9.16,2.59-8.25,3.45,1.84,1.69,18.32-.27,22.24-3.31,1.36-1.52-3.22-1.43-5.24-1.3a64.65,64.65,0,0,0-8.75,1.16Z"/><path class="cls-2" d="M542.86,421.14c-6,1.3-9.69,2.77-8.72,3.49,1.93,1.4,19.73-1.24,23.7-4.06.3-.3,1.15-1.18-2.93-1.1a74.26,74.26,0,0,0-12,1.67Z"/><path class="cls-2" d="M562.6,406.35c-6.37,1.48-10.08,2.88-9.05,3.44,2.13,1.11,20.34-2.12,24.53-4.83.27-.26.85-.76-1-.82-2.56-.1-8.52.82-14.5,2.21Z"/><path class="cls-2" d="M581.65,393.79c-3.32.86-9,2.39-9.66,3.26,1.27,1.3,21.67-3.12,26-5.65a1,1,0,0,0,.31-.32c-1.26-1.12-16.51,2.7-16.66,2.71Z"/><path class="cls-2" d="M600.05,383.53c-6.14,1.66-9.45,2.75-9.91,3.22,1.52.78,22.17-4.4,26.62-6.68a1.69,1.69,0,0,0,.32-.27c-1.14-.62-15.41,3.26-17,3.73Z"/><path class="cls-2" d="M607.75,378.71c3.77-.55,22.28-5.76,27.38-8a2.8,2.8,0,0,1,.25-.14.16.16,0,0,1-.09-.09q-13.6,4.25-27.54,8.22Z"/><polygon class="cls-2" points="262.48 627.07 263.82 627.79 266.3 627.15 264.83 626.43 262.48 627.07 262.48 627.07"/><path class="cls-2" d="M289.47,592.76c-1.77.25-2.47.87-2,1.27.76.65,4.56.59,5.54-.46.52-.79-1.79-1.06-3.57-.81Z"/><path class="cls-2" d="M314.57,561.82c-2.18.31-3.48,1.08-2.72,1.65,1.12.85,6.28.57,7.56-.67.77-1.13-2.73-1.29-4.84-1Z"/><path class="cls-2" d="M339.15,533.68c-2.75.41-4.32,1.19-3.64,1.82,1.21,1.06,8.21.73,9.88-.8.83-1.09-2.91-1.5-6.24-1Z"/><path class="cls-2" d="M363.32,508.34c-3.06.45-4.9,1.31-4.11,2,1.27,1.08,9.33.56,11.23-1,.95-1.2-3.31-1.42-6.58-1l-.54.08Z"/><path class="cls-2" d="M386.91,485.6c-3.69.54-5.84,1.48-4.89,2.13,1.64,1.09,11.07.39,13.32-1.33,1-1.17-3-1.29-5.78-1.09-.88.07-1.76.15-2.65.29Z"/><path class="cls-2" d="M410.15,465.47c-4,.65-6.38,1.6-5.37,2.21,1.77,1,12.05.09,14.55-1.64,1-1-2.06-1.08-3.41-1.07a44.76,44.76,0,0,0-5.77.5Z"/><path class="cls-2" d="M432.76,447.9c-3.69.61-7,1.55-6.25,2.15,1.32,1.11,13.64-.1,16.66-2,.23-.19.84-.78-2-.88a47.09,47.09,0,0,0-8.4.72Z"/><path class="cls-2" d="M454.88,432.77c-4.71.82-7.57,1.74-6.83,2.23,1.44.9,15-.69,18.25-2.52.2-.18.66-.53-.68-.66a50.73,50.73,0,0,0-10.74.95Z"/><path class="cls-2" d="M476.51,420.09c-2,.38-6.87,1.35-7.4,2,.92,1.14,16.64-1.47,19.61-2.92A1.23,1.23,0,0,0,489,419c-.73-.86-10,.66-12.49,1.12Z"/><path class="cls-2" d="M497.6,409.77c-2.74.53-7.4,1.54-8,2.05.89.74,17.46-2.15,21.06-3.66.08-.05.2-.12.29-.19-.85-.66-13.26,1.77-13.38,1.8Z"/><path class="cls-2" d="M518.13,401.78c-8.07,1.73-8.25,2-8.32,2.07,1.6.14,17.94-3.06,22.05-4.47a.78.78,0,0,0,.28-.2c-1.34-.13-13.49,2.49-14,2.6Z"/><polygon class="cls-2" points="264.21 512.47 265.65 512.85 268.12 512.37 266.65 511.98 264.21 512.47 264.21 512.47"/><path class="cls-2" d="M290.64,490.68c-1.63.22-2.68.63-2.24.89.68.45,4.88.18,5.92-.53.43-.41-.79-.5-1.34-.5a14.2,14.2,0,0,0-2.34.14Z"/><path class="cls-2" d="M315.17,472.05c-1.83.24-3.53.67-3.15,1,.64.57,6.75.17,8.24-.73.31-.26,0-.41-.95-.5a22.44,22.44,0,0,0-4.14.23Z"/><path class="cls-2" d="M339.33,456.08c-2.42.34-3.93.79-3.63,1.08.59.55,7.9-.06,9.64-1,.11-.08.37-.26-.33-.37a24.52,24.52,0,0,0-5.68.27Z"/><path class="cls-2" d="M363,442.67c-.95.14-4.09.63-4.48,1.07.47.76,9.94-.39,11.8-1.21a1.43,1.43,0,0,0,.18-.15c-.38-.6-6,.09-7.5.29Z"/><path class="cls-2" d="M386.43,431.81c-1.35.21-4.52.72-4.93,1.09.4.6,11.05-.86,13-1.59l.19-.13c-.45-.47-6.62.37-8.27.63Z"/><path class="cls-2" d="M409.3,423.42a43,43,0,0,0-5.7,1.12c.58.4,12.51-1.41,14.87-2.12l.21-.1c-.52-.31-9.3,1.07-9.38,1.1Z"/><path class="cls-2" d="M431.76,417.43c-2.11.36-4.2.65-6.28,1.12.86.09,14.06-2.16,16.53-2.71l.16,0c-.19,0-.52-.06-10.41,1.62Z"/><polygon class="cls-2" points="241.43 463.54 242.41 463.64 244.12 463.36 243.13 463.28 241.43 463.54 241.43 463.54"/><polygon class="cls-2" points="265.85 451.72 267.59 451.77 270.69 451.31 268.85 451.24 265.85 451.72 265.85 451.72"/><path class="cls-2" d="M292.53,442.06a15.82,15.82,0,0,0-2.49.45c.23.22,5.43-.38,6.46-.68l.12-.05a21.16,21.16,0,0,0-4.09.28Z"/><path class="cls-2" d="M317.08,435.32a14.46,14.46,0,0,0-3.27.5c.59.11,7.3-.78,8.56-1l.12-.05c-.21-.09-4.08.39-5.41.58Z"/><polygon class="cls-2" points="0 1999.87 0.27 2000.06 1.15 1999.87 0.76 1999.74 0 1999.87 0 1999.87"/><polygon class="cls-2" points="47.99 1967.98 48.15 1968.08 48.58 1967.98 48.44 1967.88 47.99 1967.98 47.99 1967.98"/><polygon class="cls-2" points="94.57 1933.37 95.24 1933.88 97.19 1933.43 96.53 1932.9 94.57 1933.37 94.57 1933.37"/><polygon class="cls-2" points="140.68 1896.07 141.98 1897.12 145.55 1896.21 144.33 1895.22 140.68 1896.07 140.68 1896.07"/><path class="cls-2" d="M189.87,1855c-2.4.35-4,1.42-3.21,2.13,1,.87,5,.55,6.7-.76,1.1-1.09-.66-1.48-2.1-1.47a7.29,7.29,0,0,0-1.39.1Z"/><polygon class="cls-2" points="43.36 1892.77 44.51 1893.86 48.13 1892.96 46.78 1891.92 43.36 1892.77 43.36 1892.77"/><path class="cls-2" d="M91.19,1851c-2.47.33-4.08,1.55-3,2.25s4.86.46,6.42-.81c1.1-1.15-.73-1.59-2.39-1.53a5.8,5.8,0,0,0-1,.09Z"/><path class="cls-2" d="M136.54,1807.16c-3.42.56-5.44,2.19-4,3.23s6.68.68,8.74-1.13c1.43-1.59-1-2.33-3.31-2.25-.47,0-.94.07-1.39.15Z"/><path class="cls-2" d="M181.31,1761.77c-4.08.65-6.54,2.7-4.73,3.94s7.81,1,10.4-1.42c1.74-2-1.46-2.89-4.56-2.64-.34,0-.78.08-1.11.12Z"/><polygon class="cls-2" points="38.56 1803.53 38.72 1803.83 39.59 1803.58 39.25 1803.29 38.56 1803.53 38.56 1803.53"/><polygon class="cls-2" points="81.04 1758.17 81.94 1759.03 84.41 1758.39 83.38 1757.51 81.04 1758.17 81.04 1758.17"/><polygon class="cls-2" points="123.41 1711.65 124.76 1712.92 128.34 1711.93 126.9 1710.59 123.41 1711.65 123.41 1711.65"/><path class="cls-2" d="M168.17,1662.46c-2.79.45-4.37,1.89-3.09,2.8s5.65.63,7.24-.94c1.14-1.51-1.5-2.2-3.77-1.91a2.47,2.47,0,0,0-.38,0Z"/><path class="cls-2" d="M210.29,1613.33c-3.37.55-5.35,2.41-3.78,3.55s6.73,1,8.87-1.25c1.45-1.93-2.11-2.79-5.09-2.3Z"/><polygon class="cls-2" points="148.88 1558.72 150.04 1559.84 152.81 1559 151.62 1557.89 148.88 1558.72 148.88 1558.72"/><path class="cls-2" d="M190.63,1507.13c-2.21.35-3.37,1.5-2.29,2.28,1.27.91,4.33.48,5.44-.77.81-1.17-1.09-1.81-3.15-1.51Z"/><polygon class="cls-2" points="165.71 1398.58 166.38 1399.19 168 1398.74 167.23 1398.03 165.71 1398.58 165.71 1398.58"/><path class="cls-2" d="M202.59,1346.82l1.26,1.17,2.65-.83a.88.88,0,0,1,0-.16l-1.14-1-2.75.85Z"/></g></g></g></svg>