<svg xmlns="http://www.w3.org/2000/svg" xmlns:xlink="http://www.w3.org/1999/xlink" viewBox="0 0 280.74 278.95"><defs><style>.cls-1{fill:none;}.cls-2{fill:url(#Degradado_sin_nombre_10);}.cls-3{fill:url(#Degradado_sin_nombre_9);}.cls-4{fill:url(#Degradado_sin_nombre_8);}</style><linearGradient id="Degradado_sin_nombre_10" x1="235.8" y1="180.59" x2="136.76" y2="70.55" gradientUnits="userSpaceOnUse"><stop offset="0" stop-color="#657afa"/><stop offset="0.49" stop-color="#5cf0ff"/><stop offset="1" stop-color="#5cf0ff"/></linearGradient><linearGradient id="Degradado_sin_nombre_9" x1="-50.19" y1="74.55" x2="228.99" y2="273.44" gradientUnits="userSpaceOnUse"><stop offset="0" stop-color="#5cf0ff"/><stop offset="0.51" stop-color="#657afa"/><stop offset="1" stop-color="#0000f9"/></linearGradient><linearGradient id="Degradado_sin_nombre_8" x1="167.39" y1="-14.93" x2="130.73" y2="254.94" gradientUnits="userSpaceOnUse"><stop offset="0" stop-color="#e3fcff"/><stop offset="0.3" stop-color="#5cf0ff"/><stop offset="0.69" stop-color="#657afa"/><stop offset="1" stop-color="#ac63ff"/></linearGradient></defs><g id="Layer_2" data-name="Layer 2"><g id="Layer_1-2" data-name="Layer 1"><path class="cls-1" d="M15.46,117.2c0-1.21,0-2.42,0-3.62C15.45,114.78,15.45,116,15.46,117.2Z"/><path class="cls-1" d="M15.68,123.35c-.08-1.25-.14-2.49-.18-3.73C15.54,120.86,15.6,122.1,15.68,123.35Z"/><path class="cls-1" d="M15.54,111.19c.05-1.23.13-2.44.22-3.65C15.67,108.75,15.59,110,15.54,111.19Z"/><path class="cls-1" d="M15.92,105.29c.12-1.33.28-2.64.45-4C16.2,102.65,16,104,15.92,105.29Z"/><path class="cls-1" d="M16.24,129.8c-.16-1.37-.31-2.75-.41-4.11C15.93,127.05,16.08,128.43,16.24,129.8Z"/><path class="cls-1" d="M183.48,252.23c-1.89.34-3.79.64-5.72.9C179.69,252.87,181.59,252.57,183.48,252.23Z"/><path class="cls-1" d="M177,253.23c-2,.27-4.08.5-6.15.67C172.87,253.73,174.92,253.5,177,253.23Z"/><path class="cls-1" d="M190,250.87q-2.74.65-5.54,1.17Q187.29,251.52,190,250.87Z"/><path class="cls-1" d="M17.39,138q-.54-3.09-.93-6.15Q16.85,134.86,17.39,138Z"/><path class="cls-1" d="M25,69.85c.47-1.07,1-2.13,1.45-3.18C25.94,67.72,25.45,68.78,25,69.85Z"/><path class="cls-1" d="M27.36,64.74c.57-1.16,1.17-2.29,1.78-3.42C28.53,62.45,27.93,63.58,27.36,64.74Z"/><path class="cls-1" d="M70.62,45.2c.83-.7,1.68-1.39,2.53-2.07C72.3,43.81,71.45,44.5,70.62,45.2Z"/><path class="cls-1" d="M22.84,75.12q.6-1.61,1.26-3.18Q23.44,73.51,22.84,75.12Z"/><path class="cls-1" d="M17.59,93.51c.35-1.79.75-3.56,1.18-5.32C18.34,90,17.94,91.72,17.59,93.51Z"/><path class="cls-1" d="M20.94,80.58c.36-1.11.72-2.22,1.11-3.31C21.66,78.36,21.3,79.47,20.94,80.58Z"/><path class="cls-1" d="M19.26,86.36c.32-1.24.65-2.46,1-3.68C19.91,83.9,19.58,85.12,19.26,86.36Z"/><path class="cls-1" d="M16.59,99.49q.4-2.88.94-5.7Q17,96.61,16.59,99.49Z"/><path class="cls-1" d="M196.51,249.18q-2.74.8-5.55,1.47Q193.77,250,196.51,249.18Z"/><path class="cls-1" d="M248.42,218.33q-1.84,1.89-3.79,3.71Q246.58,220.23,248.42,218.33Z"/><path class="cls-1" d="M256.23,209.45q-1.61,2-3.28,4Q254.63,211.48,256.23,209.45Z"/><path class="cls-1" d="M259.9,204.55c-1,1.41-2,2.8-3.1,4.17C257.86,207.35,258.9,206,259.9,204.55Z"/><path class="cls-1" d="M263.28,199.5c-1,1.52-2,3-3,4.49C261.32,202.51,262.32,201,263.28,199.5Z"/><path class="cls-1" d="M244.33,222.32c-1.3,1.21-2.65,2.39-4,3.54C241.68,224.71,243,223.53,244.33,222.32Z"/><path class="cls-1" d="M252.36,214.08q-1.74,2-3.58,3.89Q250.63,216.07,252.36,214.08Z"/><path class="cls-1" d="M213.89,242.68q-2.44,1.13-4.95,2.16Q211.45,243.81,213.89,242.68Z"/><path class="cls-1" d="M208.08,245.18q-2.58,1-5.24,2Q205.5,246.23,208.08,245.18Z"/><path class="cls-1" d="M219.6,239.85c-1.58.83-3.19,1.64-4.83,2.41C216.41,241.49,218,240.68,219.6,239.85Z"/><path class="cls-1" d="M239.66,226.42q-2,1.67-4.09,3.24Q237.66,228.09,239.66,226.42Z"/><path class="cls-1" d="M234.81,230.23q-2.12,1.58-4.3,3.06Q232.7,231.81,234.81,230.23Z"/><path class="cls-1" d="M225.11,236.74c-1.59,1-3.21,1.87-4.86,2.75C221.9,238.61,223.52,237.7,225.11,236.74Z"/><path class="cls-1" d="M229.87,233.71c-1.54,1-3.1,2-4.7,3C226.77,235.75,228.33,234.74,229.87,233.71Z"/><path class="cls-1" d="M202.35,247.32c-1.77.61-3.57,1.19-5.38,1.72C198.78,248.51,200.58,247.93,202.35,247.32Z"/><path class="cls-1" d="M253.31,168.85c-.21.59-.43,1.19-.66,1.78C252.88,170,253.1,169.44,253.31,168.85Z"/><path class="cls-1" d="M251.6,173.29c-.24.59-.48,1.17-.73,1.75C251.12,174.46,251.36,173.88,251.6,173.29Z"/><path class="cls-1" d="M249.65,177.69c-.25.54-.5,1.08-.77,1.61C249.15,178.77,249.4,178.23,249.65,177.69Z"/><path class="cls-1" d="M257.08,155.05c0,.07,0,.14,0,.21S257.07,155.12,257.08,155.05Z"/><path class="cls-1" d="M247.39,182.16c-.23.43-.45.86-.69,1.29C246.94,183,247.16,182.59,247.39,182.16Z"/><path class="cls-1" d="M254.79,164.32c-.17.59-.36,1.17-.55,1.76C254.43,165.49,254.62,164.91,254.79,164.32Z"/><path class="cls-1" d="M256.05,159.73c-.13.51-.27,1-.41,1.52C255.78,160.74,255.92,160.24,256.05,159.73Z"/><path class="cls-1" d="M241.78,142.77C231.32,84.44,173.87,41,113.71,46,85.33,48.32,61.37,61,45,79.92A98,98,0,0,0,39,136.17c10.45,58.33,67.9,101.76,128.07,96.8,28.31-2.34,52.25-15,68.58-33.79A98.11,98.11,0,0,0,241.78,142.77Z"/><path class="cls-1" d="M66.65,48.8c.76-.73,1.54-1.44,2.33-2.15C68.19,47.36,67.41,48.07,66.65,48.8Z"/><path class="cls-1" d="M51.85,66.89q1.41-2.23,2.94-4.38Q53.26,64.66,51.85,66.89Z"/><path class="cls-1" d="M258.06,148.75c-.07.51-.12,1-.19,1.54C257.94,149.78,258,149.26,258.06,148.75Z"/><path class="cls-1" d="M55.8,61.16c.71-1,1.43-1.94,2.18-2.88C57.23,59.22,56.51,60.19,55.8,61.16Z"/><path class="cls-1" d="M62.87,52.63c.72-.77,1.45-1.53,2.2-2.28C64.32,51.1,63.59,51.86,62.87,52.63Z"/><path class="cls-1" d="M59.28,56.7c.7-.83,1.4-1.66,2.12-2.47C60.68,55,60,55.87,59.28,56.7Z"/><path class="cls-1" d="M74.79,41.82c.95-.72,1.93-1.41,2.9-2.1C76.72,40.41,75.74,41.1,74.79,41.82Z"/><path class="cls-1" d="M95.4,29.78c1-.46,2.1-.91,3.16-1.33C97.5,28.87,96.45,29.32,95.4,29.78Z"/><path class="cls-1" d="M100.71,27.64c1.05-.38,2.11-.76,3.17-1.11C102.81,26.88,101.76,27.26,100.71,27.64Z"/><path class="cls-1" d="M106.13,25.81c1.08-.33,2.17-.64,3.27-.94C108.3,25.17,107.21,25.48,106.13,25.81Z"/><path class="cls-1" d="M90.07,32.28c1.11-.56,2.22-1.12,3.36-1.64C92.29,31.16,91.18,31.72,90.07,32.28Z"/><path class="cls-1" d="M258.57,143.57c-.05.63-.09,1.25-.14,1.88C258.48,144.82,258.52,144.2,258.57,143.57Z"/><path class="cls-1" d="M83.72,35.74q2.34-1.4,4.76-2.67Q86.07,34.35,83.72,35.74Z"/><path class="cls-1" d="M79.16,38.67q2.13-1.44,4.34-2.78Q81.3,37.23,79.16,38.67Z"/><path class="cls-1" d="M111.68,24.26c1.14-.28,2.3-.54,3.46-.78C114,23.72,112.82,24,111.68,24.26Z"/><path class="cls-1" d="M258.8,138.52c0,.67,0,1.34-.06,2C258.77,139.86,258.79,139.19,258.8,138.52Z"/><path class="cls-1" d="M258.51,128.41c.05.66.08,1.3.12,2C258.59,129.71,258.56,129.07,258.51,128.41Z"/><path class="cls-1" d="M117.36,23c1.29-.25,2.59-.46,3.9-.66C120,22.55,118.65,22.76,117.36,23Z"/><path class="cls-1" d="M258.78,133.48c0,.68,0,1.35,0,2C258.81,134.83,258.8,134.16,258.78,133.48Z"/><path class="cls-1" d="M123.18,22.05c2-.27,3.94-.5,5.95-.66C127.12,21.55,125.14,21.78,123.18,22.05Z"/><path class="cls-1" d="M258,123.31c.07.56.12,1.11.19,1.67C258.1,124.42,258.05,123.87,258,123.31Z"/><path class="cls-2" d="M65.07,50.35c-.75.75-1.48,1.51-2.2,2.28-.49.53-1,1.06-1.47,1.6-.72.81-1.42,1.64-2.12,2.47-.43.53-.88,1-1.3,1.58-.75.94-1.47,1.91-2.18,2.88-.34.45-.68.89-1,1.35q-1.53,2.15-2.94,4.38a93.74,93.74,0,0,0-6.81,13C61.37,61,85.33,48.32,113.71,46c60.16-5,117.61,38.46,128.07,96.79a98.11,98.11,0,0,1-6.15,56.41,94,94,0,0,0,11.07-15.73c.24-.43.46-.86.69-1.29.51-.95,1-1.89,1.49-2.86.27-.53.52-1.07.77-1.61.42-.88.83-1.76,1.22-2.65.25-.58.49-1.16.73-1.75.37-.88.72-1.76,1.05-2.66.23-.59.45-1.19.66-1.78.33-.92.63-1.85.93-2.77.19-.59.38-1.17.55-1.76.31-1,.58-2,.85-3.07.14-.51.28-1,.41-1.52q.54-2.22,1-4.47c0-.07,0-.14,0-.21.31-1.57.56-3.16.79-4.76.07-.51.12-1,.19-1.54.13-1.1.27-2.2.37-3.3.05-.63.09-1.25.14-1.88.07-1,.13-2,.17-3,0-.66.05-1.33.06-2,0-1,0-2,0-3,0-.67,0-1.34,0-2,0-1-.08-2.07-.15-3.11,0-.66-.07-1.3-.12-2-.09-1.14-.21-2.28-.34-3.43-.07-.56-.12-1.11-.19-1.67-.22-1.7-.47-3.41-.78-5.13C246.75,59.86,189.29,16.43,129.13,21.39c-2,.16-4,.39-5.95.66-.65.09-1.28.2-1.92.3-1.31.2-2.61.41-3.9.66-.75.14-1.48.31-2.22.47-1.16.24-2.32.5-3.46.78-.77.19-1.53.4-2.28.61-1.1.3-2.19.61-3.27.94q-1.12.35-2.25.72c-1.06.35-2.12.73-3.17,1.11-.72.27-1.44.53-2.15.81-1.06.42-2.11.87-3.16,1.33-.66.28-1.32.56-2,.86-1.14.52-2.25,1.08-3.36,1.64-.53.26-1.07.51-1.59.79q-2.42,1.27-4.76,2.67l-.22.15q-2.2,1.34-4.34,2.78c-.5.34-1,.7-1.47,1-1,.69-2,1.38-2.9,2.1l-1.64,1.31c-.85.68-1.7,1.37-2.53,2.07-.56.48-1.1,1-1.64,1.45-.79.71-1.57,1.42-2.33,2.15C66.11,49.31,65.59,49.83,65.07,50.35Z"/><path class="cls-3" d="M263.28,199.5c-1,1.52-2,3-3,4.49-.13.18-.25.37-.39.56-1,1.41-2,2.8-3.1,4.17l-.57.73q-1.61,2-3.28,4l-.59.67q-1.74,2-3.58,3.89l-.36.36q-1.84,1.89-3.79,3.71l-.3.28c-1.3,1.21-2.65,2.39-4,3.54l-.66.56q-2,1.67-4.09,3.24l-.76.57q-2.12,1.58-4.3,3.06c-.21.15-.43.28-.64.42-1.54,1-3.1,2-4.7,3l-.06,0c-1.59,1-3.21,1.87-4.86,2.75l-.65.36c-1.58.83-3.19,1.64-4.83,2.41l-.88.42q-2.44,1.13-4.95,2.16l-.86.34q-2.58,1-5.24,2l-.49.16c-1.77.61-3.57,1.19-5.38,1.72l-.46.14q-2.74.8-5.55,1.47l-.92.22q-2.74.65-5.54,1.17l-1,.19c-1.89.34-3.79.64-5.72.9l-.81.1c-2,.27-4.08.5-6.15.67C98.73,259.84,29.92,207.82,17.39,138q-.54-3.09-.93-6.15c-.09-.67-.15-1.33-.22-2-.16-1.37-.31-2.75-.41-4.11-.07-.78-.11-1.56-.15-2.34-.08-1.25-.14-2.49-.18-3.73,0-.81,0-1.62,0-2.42,0-1.21,0-2.42,0-3.62,0-.8,0-1.6.06-2.39.05-1.23.13-2.44.22-3.65.05-.75.1-1.51.16-2.25.12-1.33.28-2.64.45-4,.07-.62.13-1.24.22-1.85q.4-2.88.94-5.7a2.3,2.3,0,0,0,.06-.28c.35-1.79.75-3.56,1.18-5.32.15-.62.33-1.22.49-1.83.32-1.24.65-2.46,1-3.68.21-.71.44-1.4.66-2.1.36-1.11.72-2.22,1.11-3.31.26-.72.52-1.44.79-2.15q.6-1.61,1.26-3.18c.29-.7.58-1.4.88-2.09.47-1.07,1-2.13,1.45-3.18.31-.65.61-1.29.93-1.93.57-1.16,1.17-2.29,1.78-3.42.28-.51.55-1,.83-1.54.91-1.62,1.84-3.21,2.83-4.78L17.37,79.59C2.67,103-3.5,132,2,162.53c12.52,69.88,81.34,121.9,153.41,116,40.55-3.35,73.63-24.35,92.56-54.54l15.42-24.59,0,0Z"/><path class="cls-4" d="M27.36,64.74c-.32.64-.62,1.28-.93,1.93-.49,1-1,2.11-1.45,3.18-.3.69-.59,1.39-.88,2.09q-.66,1.57-1.26,3.18c-.27.71-.53,1.43-.79,2.15-.39,1.09-.75,2.2-1.11,3.31-.22.7-.45,1.39-.66,2.1-.37,1.22-.7,2.44-1,3.68-.16.61-.34,1.21-.49,1.83-.43,1.76-.83,3.53-1.18,5.32a2.3,2.3,0,0,1-.06.28q-.54,2.82-.94,5.7c-.09.61-.15,1.23-.22,1.85-.17,1.31-.33,2.62-.45,4-.06.74-.11,1.5-.16,2.25-.09,1.21-.17,2.42-.22,3.65,0,.79,0,1.59-.06,2.39,0,1.2,0,2.41,0,3.62,0,.8,0,1.61,0,2.42,0,1.24.1,2.48.18,3.73,0,.78.08,1.56.15,2.34.1,1.36.25,2.74.41,4.11.07.67.13,1.33.22,2q.39,3.06.93,6.15c12.53,69.87,81.34,121.89,153.41,116,2.07-.17,4.12-.4,6.15-.67l.81-.1c1.93-.26,3.83-.56,5.72-.9l1-.19q2.79-.53,5.54-1.17l.92-.22q2.81-.68,5.55-1.47L197,249c1.81-.53,3.61-1.11,5.38-1.72l.49-.16q2.66-.93,5.24-2l.86-.34q2.51-1,4.95-2.16l.88-.42c1.64-.77,3.25-1.58,4.83-2.41l.65-.36c1.65-.88,3.27-1.79,4.86-2.75l.06,0c1.6-1,3.16-2,4.7-3,.21-.14.43-.27.64-.42q2.19-1.48,4.3-3.06l.76-.57q2.09-1.57,4.09-3.24l.66-.56c1.36-1.15,2.71-2.33,4-3.54l.3-.28q2-1.81,3.79-3.71l.36-.36q1.84-1.91,3.58-3.89l.59-.67q1.68-1.93,3.28-4l.57-.73c1.06-1.37,2.1-2.76,3.1-4.17.14-.19.26-.38.39-.56,1-1.48,2-3,3-4.49l.06-.1c14.72-23.44,20.9-52.44,15.43-83C266.25,46.53,197.43-5.48,125.38.46,82.71,4,48.32,27,30,59.78c-.28.5-.55,1-.83,1.54C28.53,62.45,27.93,63.58,27.36,64.74ZM70.62,45.2c.83-.7,1.68-1.39,2.53-2.07l1.64-1.31c.95-.72,1.93-1.41,2.9-2.1.49-.35,1-.71,1.47-1q2.13-1.44,4.34-2.78l.22-.15q2.34-1.4,4.76-2.67c.52-.28,1.06-.53,1.59-.79,1.11-.56,2.22-1.12,3.36-1.64.65-.3,1.31-.58,2-.86,1-.46,2.1-.91,3.16-1.33.71-.28,1.43-.54,2.15-.81,1.05-.38,2.1-.76,3.17-1.11q1.13-.37,2.25-.72c1.08-.33,2.17-.64,3.27-.94.75-.21,1.51-.42,2.28-.61,1.14-.28,2.3-.54,3.46-.78.74-.16,1.47-.33,2.22-.47,1.29-.25,2.59-.46,3.9-.66.64-.1,1.27-.21,1.92-.3,2-.27,3.94-.5,5.95-.66,60.16-5,117.62,38.47,128.07,96.79.31,1.72.56,3.43.78,5.13.07.56.12,1.11.19,1.67.13,1.15.25,2.29.34,3.43.05.66.08,1.3.12,2,.07,1,.12,2.08.15,3.11,0,.68,0,1.35,0,2,0,1,0,2,0,3,0,.67,0,1.34-.06,2,0,1-.1,2-.17,3-.05.63-.09,1.25-.14,1.88-.1,1.1-.24,2.2-.37,3.3-.07.51-.12,1-.19,1.54-.23,1.6-.48,3.19-.79,4.76,0,.07,0,.14,0,.21q-.45,2.25-1,4.47c-.13.51-.27,1-.41,1.52-.27,1-.54,2.06-.85,3.07-.17.59-.36,1.17-.55,1.76-.3.92-.6,1.85-.93,2.77-.21.59-.43,1.19-.66,1.78-.33.9-.68,1.78-1.05,2.66-.24.59-.48,1.17-.73,1.75-.39.89-.8,1.77-1.22,2.65-.25.54-.5,1.08-.77,1.61-.48,1-1,1.91-1.49,2.86-.23.43-.45.86-.69,1.29a94,94,0,0,1-11.07,15.73C219.3,218,195.36,230.63,167.05,233c-60.17,5-117.62-38.47-128.07-96.8A98,98,0,0,1,45,79.92a93.74,93.74,0,0,1,6.81-13q1.41-2.23,2.94-4.38c.33-.46.67-.9,1-1.35.71-1,1.43-1.94,2.18-2.88.42-.53.87-1.05,1.3-1.58.7-.83,1.4-1.66,2.12-2.47.48-.54,1-1.07,1.47-1.6.72-.77,1.45-1.53,2.2-2.28.52-.52,1-1,1.58-1.55.76-.73,1.54-1.44,2.33-2.15C69.52,46.17,70.06,45.68,70.62,45.2Z"/></g></g></svg>