<svg xmlns="http://www.w3.org/2000/svg" viewBox="0 0 46.77 46.77"><defs><style>.cls-1{fill:#fff;}</style></defs><g id="Layer_2" data-name="Layer 2"><g id="Layer_1-2" data-name="Layer 1"><path d="M23.38,46.77h0A23.39,23.39,0,0,1,0,23.38H0A23.38,23.38,0,0,1,23.38,0h0A23.39,23.39,0,0,1,46.77,23.38h0A23.39,23.39,0,0,1,23.38,46.77Z"/><rect class="cls-1" x="12.78" y="18.17" width="4.84" height="15.63"/><path class="cls-1" d="M15.18,16.12a2.89,2.89,0,1,0-2.86-2.88A2.87,2.87,0,0,0,15.18,16.12Z"/><path class="cls-1" d="M25.36,25.6c0-2.2,1-3.51,2.95-3.51,1.77,0,2.63,1.26,2.63,3.51v8.21h4.82v-9.9c0-4.19-2.38-6.22-5.69-6.22a5.44,5.44,0,0,0-4.71,2.59V18.17H20.71V33.81h4.65Z"/></g></g></svg>