<svg xmlns="http://www.w3.org/2000/svg" viewBox="0 0 2542.38 1610.22"><defs><style>.cls-1{opacity:0.05;}.cls-2{fill:#333;}</style></defs><g id="Layer_2" data-name="Layer 2"><g id="Layer_1-2" data-name="Layer 1"><g class="cls-1"><path class="cls-2" d="M1142,1605.43c13.15-1.83,24.45-3.26,25.52-3.38-.52.09-1,.14-1.57.21l-28.17,4c-3.28.45-6.55.92-9.86,1.36a9.53,9.53,0,0,1-1.21.14c.79-.21,9.59-1.49,15.29-2.29Z"/><path class="cls-2" d="M1093.5,1610.21c8.07-.36,36.18-4.11,37.63-5-2.2-.69-37.19,3.67-39,4.92.38.13.38.13,1.35.11Z"/><path class="cls-2" d="M1056.88,1609.66c8.48.27,35-3.14,35.94-4.61-1.44-1.67-36,2.23-37.38,4.24.11.15.2.3,1.44.37Z"/><path class="cls-2" d="M1018.42,1605.86c8.77.9,33.46-2.17,33.88-4.18-1.79-2.26-35,1.12-35.48,3.6.18.22.32.4,1.6.58Z"/><path class="cls-2" d="M977.85,1598.79c9.79,1.63,32.73-1.65,32-3.84-1-3.11-32.74-.43-33.64,2.85-.16.53,1,.85,1.61,1Z"/><path class="cls-2" d="M935.53,1588.39c9.53,2.22,30.67-.91,29.62-3.47-1.29-3.21-29-1.42-31.21,2-.37.59.18,1.07,1.59,1.45Z"/><path class="cls-2" d="M891.21,1574.72c9.29,2.69,29-.35,27.77-3.23-1.66-3.81-27.88-2.45-29.52,1.54-.25.64.31,1.2,1.75,1.69Z"/><path class="cls-2" d="M844.85,1557.66c9.2,3.15,27.55.22,25.95-3-1.92-4-26.54-2.92-27.75,1.13-.19.71.39,1.33,1.8,1.88Z"/><path class="cls-2" d="M796.82,1537.17c8.91,3.52,25.93.66,24.15-2.85-2.19-4.28-25.28-3.59-26,.8-.1.74.53,1.45,1.89,2.05Z"/><path class="cls-2" d="M747,1513.28c8.66,3.87,24.35,1.06,22.35-2.66-2.37-4.47-22.48-4.39-24.18.1-.18.53-.23,1.55,1.83,2.56Z"/><path class="cls-2" d="M695.52,1485.88c7.62,3.73,21.68,1.54,20.78-2.17-1.15-4.75-20.11-5.52-22.55-.92-.74,1.42.79,2.54,1.77,3.09Z"/><path class="cls-2" d="M642.28,1454.93c7.38,4,20.24,1.84,19.09-2-1.48-4.86-18.84-5.79-20.89-1.14-.63,1.45.85,2.62,1.8,3.16Z"/><path class="cls-2" d="M588,1420.69c6.8,4,18.42,1.88,17.31-2-1.37-4.62-16.42-5.87-18.92-1.56-.66,1.15-.09,2.43,1.61,3.53Z"/><path class="cls-2" d="M533.5,1383.68c6.15,3.91,16.33,1.94,15.16-1.81-1.37-4.36-14.48-5.59-16.63-1.56-.61,1.09,0,2.32,1.47,3.37Z"/><path class="cls-2" d="M478.83,1344.18c5.31,3.56,14,2,13.58-1.38-.47-4.06-12.2-5.81-14.72-2.18-.78,1.12-.35,2.47,1.14,3.56Z"/><path class="cls-2" d="M424.18,1302.34c4.73,3.35,12.34,1.87,12-1.37-.51-3.76-10.09-5.51-12.81-2.37-1,1.12-.67,2.57.84,3.74Z"/><path class="cls-2" d="M369.69,1258.14c4.26,3.18,10.79,1.82,10.41-1.29-.45-3.49-8.85-5.11-11.23-2.18-.84,1-.53,2.38.82,3.47Z"/><path class="cls-2" d="M315.53,1211.76c3.53,2.76,8.94,1.51,8.54-1.18-.51-3.07-7.39-4.49-9.23-1.89-.67.91-.39,2.12.69,3.07Z"/><path class="cls-2" d="M261.68,1163.37c2.94,2.43,7.37,1.34,7-1.08-.36-2.69-5.74-4-7.59-1.86-.69.83-.48,2,.58,2.94Z"/><path class="cls-2" d="M208,1113.06c2.3,2,5.83,1.21,5.77-.75-.12-2.25-4.29-3.61-6-1.93a1.82,1.82,0,0,0,.23,2.68Z"/><path class="cls-2" d="M155,1060.93c1.73,1.51,4.46,1.14,4.31-.59s-3.26-2.93-4.55-1.59a1.56,1.56,0,0,0,.24,2.18Z"/><polygon class="cls-2" points="102.6 1007.21 105.06 1007.63 105.28 1005.75 102.77 1005.27 102.6 1007.21 102.6 1007.21"/><polygon class="cls-2" points="50.92 951.82 52.38 952.11 52.47 950.92 50.99 950.61 50.92 951.82 50.92 951.82"/><polygon class="cls-2" points="0 895.01 0.58 895.2 0.59 894.63 0.04 894.57 0 895.01 0 895.01"/><path class="cls-2" d="M1235.12,1592.35c10.94-1.52,24.66-3.32,25.83-3.43-.53.1-1,.13-1.55.22l-28.16,3.95c-3.3.45-6.62.93-10,1.38-.43.07-.87.08-1.31.16,1.67-.41,12-1.84,15.15-2.28Z"/><path class="cls-2" d="M1148,1596.61c8.64.29,35.19-3.09,36-4.59-1.52-1.64-36.6,2.32-37.53,4.25.15.12.26.25,1.56.34Z"/><path class="cls-2" d="M1108.19,1592.71c9,.9,33.72-2.13,34-4.18-2-2.27-34.65.84-35.67,3.39,0,0,0,.14,0,.19.2.21.37.44,1.69.6Z"/><path class="cls-2" d="M1066.21,1585.43c9.77,1.65,33.06-1.64,32.13-3.82-1.21-2.78-33.19-.14-33.86,2.81-.13.52,1,.85,1.73,1Z"/><path class="cls-2" d="M1022.58,1574.68c9.82,2.25,31-.87,29.72-3.46-1.55-3.29-29.45-1.55-31.41,2-.35.6.25,1.12,1.69,1.5Z"/><path class="cls-2" d="M976.7,1560.58c9.6,2.78,29.45-.26,28-3.22-1.85-3.76-28.35-2.44-29.87,1.48-.24.66.39,1.24,1.87,1.74Z"/><path class="cls-2" d="M929,1543c9.48,3.25,27.84.32,26-3-2.16-4-27-3-28,1-.15.73.49,1.38,1.92,2Z"/><path class="cls-2" d="M879.22,1521.82c9,3.55,26.3.7,24.29-2.79-2.53-4.38-25.57-3.79-26.24.71-.1.77.56,1.48,2,2.08Z"/><path class="cls-2" d="M827.9,1497.16c8.31,3.71,23.63,1.45,22.61-2.25-1.21-4.68-21.49-5.29-24.35-.73-.9,1.39.71,2.46,1.74,3Z"/><path class="cls-2" d="M774.64,1468.89c8,3.95,22.07,1.77,20.89-2.09-1.47-4.83-20.38-5.73-22.74-1.06-.73,1.44.86,2.58,1.85,3.15Z"/><path class="cls-2" d="M719.8,1436.94c7.61,4.15,20.47,2,19.16-2-1.64-5-19.2-6-21.11-1.29-.58,1.48,1,2.69,1.95,3.25Z"/><path class="cls-2" d="M663.72,1401.6c7.11,4.19,18.69,2.12,17.31-1.87-1.62-4.6-16.75-6-19.08-1.75-.62,1.2,0,2.5,1.77,3.62Z"/><path class="cls-2" d="M607.48,1363.42c6,3.83,15.84,2.26,15.31-1.35-.65-4.45-13.75-6.38-16.67-2.45-.89,1.18-.4,2.6,1.36,3.8Z"/><path class="cls-2" d="M550.92,1322.68c5.54,3.72,14.24,2.21,13.69-1.29-.68-4.23-12.38-6.09-14.9-2.35-.8,1.13-.35,2.51,1.21,3.64Z"/><path class="cls-2" d="M494.62,1279.51c4.86,3.44,12.42,2.06,12-1.33-.52-3.86-10.25-5.76-13-2.48-1,1.1-.58,2.59,1,3.81Z"/><path class="cls-2" d="M438.27,1233.91c4.29,3.23,11,1.85,10.46-1.24-.58-3.58-9-5.3-11.35-2.32-.87,1.05-.51,2.43.89,3.56Z"/><path class="cls-2" d="M382.44,1186c3.53,2.81,9,1.63,8.54-1.07-.46-3.13-7.58-4.65-9.36-2-.64.92-.32,2.12.82,3.1Z"/><path class="cls-2" d="M326.75,1136.14c2.8,2.31,7.18,1.44,7.11-.79-.1-2.73-5.81-4.44-7.68-2.26-.75.88-.53,2.08.57,3.05Z"/><path class="cls-2" d="M271.48,1084.2c2.17,1.89,5.81,1.42,5.73-.73s-4.39-3.72-6-2a1.88,1.88,0,0,0,.32,2.78Z"/><path class="cls-2" d="M216.74,1030.37c1.75,1.58,4.51,1.22,4.37-.55s-3.4-3-4.65-1.68a1.58,1.58,0,0,0,.28,2.23Z"/><polygon class="cls-2" points="162.65 974.95 165.13 975.38 165.33 973.5 162.77 972.96 162.65 974.95 162.65 974.95"/><polygon class="cls-2" points="109.25 917.82 110.77 918.11 110.86 916.88 109.33 916.54 109.25 917.82 109.25 917.82"/><polygon class="cls-2" points="56.63 859.22 57.3 859.36 57.32 858.81 56.73 858.74 56.63 859.22 56.63 859.22"/><path class="cls-2" d="M1328.29,1579.25c12.69-1.77,24.91-3.33,26-3.44-.46.07-.92.12-1.39.18l-28.09,4c-3.34.47-6.73,1-10.1,1.38-.45.06-.91.12-1.36.15,1.38-.36,10.92-1.68,15-2.25Z"/><path class="cls-2" d="M1154.67,1572c10,1.71,33.34-1.6,32.22-3.79-1.51-3-33.7-.32-34.1,2.77-.06.52,1.16.87,1.88,1Z"/><path class="cls-2" d="M1109.52,1561c9.74,2.22,31.34-.88,29.93-3.5-1.78-3.31-30-1.58-31.74,2-.29.59.29,1.12,1.81,1.55Z"/><path class="cls-2" d="M1062.31,1546.43c9.61,2.76,29.67-.23,28-3.17-2.21-3.8-28.81-2.55-30,1.4-.2.67.48,1.25,2,1.77Z"/><path class="cls-2" d="M1013,1528.27c9.42,3.27,28.19.33,26.26-3-2.59-4.41-27.42-3.53-28.31,1-.13.74.55,1.41,2.05,2Z"/><path class="cls-2" d="M961.76,1506.47c8.91,3.57,25.53,1.19,24.52-2.37-1.26-4.61-24.5-4.73-26.46-.13-.23.52-.28,1.53,1.94,2.5Z"/><path class="cls-2" d="M908.71,1481.07c8.56,3.83,24,1.56,22.85-2.21-1.42-4.67-22-5.38-24.71-.88-.87,1.44.81,2.57,1.86,3.09Z"/><path class="cls-2" d="M853.89,1451.89c8.11,4,22.18,1.86,21-2-1.54-4.76-20.87-5.78-23-1.18-.67,1.47,1,2.65,2,3.22Z"/><path class="cls-2" d="M797.3,1419c7.74,4.2,20.65,2.12,19.26-1.89-1.71-4.94-19.62-6.11-21.3-1.41-.53,1.48,1,2.7,2,3.3Z"/><path class="cls-2" d="M739.37,1382.58c7.22,4.22,18.91,2.19,17.47-1.87-1.69-4.69-17-6.18-19.29-1.86-.65,1.17,0,2.54,1.82,3.73Z"/><path class="cls-2" d="M681.46,1343.18c6.09,3.87,15.93,2.36,15.38-1.31-.7-4.41-14.1-6.49-16.9-2.59-.85,1.21-.32,2.67,1.52,3.9Z"/><path class="cls-2" d="M623.14,1301.18c5.65,3.82,14.41,2.35,13.76-1.23-.8-4.34-12.67-6.31-15.11-2.54-.76,1.19-.28,2.59,1.35,3.77Z"/><path class="cls-2" d="M565.06,1256.65c5,3.56,12.59,2.15,12-1.23-.77-4.18-11.23-6-13.34-2.37-.63,1.1-.12,2.46,1.36,3.6Z"/><path class="cls-2" d="M506.94,1209.67c4.43,3.3,11.11,1.94,10.53-1.2-.69-3.68-9.18-5.51-11.55-2.48-.81,1.1-.43,2.48,1,3.68Z"/><path class="cls-2" d="M449.36,1160.25c3.95,3.17,9.08,1.58,8.6-1-.57-3.18-7.78-4.82-9.54-2.15-.6,1-.23,2.14.94,3.19Z"/><path class="cls-2" d="M391.92,1108.85c2.87,2.41,7.28,1.57,7.18-.74-.18-2.89-6-4.63-7.85-2.37-.75.86-.49,2.1.67,3.11Z"/><path class="cls-2" d="M334.9,1055.28c2.45,2.13,6,1.41,5.73-.62-.25-2.48-4.83-3.93-6.3-2a1.94,1.94,0,0,0,.57,2.6Z"/><path class="cls-2" d="M278.35,999.86c1.81,1.65,4.7,1.26,4.51-.55-.22-2-3.73-3.17-4.89-1.56a1.63,1.63,0,0,0,.38,2.11Z"/><polygon class="cls-2" points="222.64 942.71 225.18 943.18 225.28 941.3 222.74 940.66 222.64 942.71 222.64 942.71"/><polygon class="cls-2" points="167.53 883.82 169.13 884.12 169.18 882.86 167.64 882.53 167.53 883.82 167.53 883.82"/><polygon class="cls-2" points="113.33 823.38 114 823.56 113.92 823 113.45 822.91 113.33 823.38 113.33 823.38"/><path class="cls-2" d="M1421.3,1566.18c11.32-1.59,25.24-3.37,26.42-3.51-.44.08-.87.12-1.3.21l-28.19,3.92c-3.45.51-6.88,1-10.31,1.42a13.39,13.39,0,0,1-1.45.16c1.4-.32,12.58-1.91,14.83-2.2Z"/><path class="cls-2" d="M1370.15,1571.14c8.26-.38,35.1-3.9,37.79-5-2.29-1.11-36.58,3.54-39.38,4.74,0,.06,0,.12.06.19a12.83,12.83,0,0,0,1.53.05Z"/><path class="cls-2" d="M1196.59,1547.26c10.34,2.39,31.52-.69,29.92-3.42-2.07-3.42-30.36-1.75-31.89,1.87-.24.63.4,1.16,2,1.55Z"/><path class="cls-2" d="M1147.94,1532.26c10.1,3,29.89,0,28-3.16-2.44-4-29.18-2.85-30.18,1.36-.15.67.58,1.3,2.16,1.8Z"/><path class="cls-2" d="M1097.06,1513.58c10,3.47,28.39.54,26.19-2.91-2.61-4.2-27.82-3.4-28.35.89-.1.5.23,1.26,2.16,2Z"/><path class="cls-2" d="M1044.31,1491.11c9,3.61,25.67,1.32,24.58-2.32-1.25-4.43-23.61-4.93-26.54-.61-.92,1.39.85,2.43,2,2.93Z"/><path class="cls-2" d="M989.65,1465c8.74,3.93,24.12,1.69,22.82-2.16-1.65-4.88-22.36-5.71-24.91-1-.77,1.44,1,2.55,2.09,3.13Z"/><path class="cls-2" d="M933.12,1434.9c8.32,4.16,22.45,2,21.06-2-1.77-5.11-21.34-6.2-23.26-1.33-.58,1.52,1.12,2.73,2.2,3.31Z"/><path class="cls-2" d="M874.71,1401c8,4.4,21,2.32,19.34-1.85-2-5.2-20-6.51-21.56-1.56-.46,1.54,1.2,2.77,2.22,3.41Z"/><path class="cls-2" d="M815.1,1363.51c7,4.14,18.34,2.53,17.68-1.37-.82-4.93-16.31-7.19-19.5-2.83-.91,1.28-.24,2.85,1.82,4.2Z"/><path class="cls-2" d="M755.29,1323c6.41,4,16.29,2.55,15.55-1.27-.94-4.65-14.41-6.78-17.18-2.73-.79,1.21-.2,2.71,1.63,4Z"/><path class="cls-2" d="M695.33,1279.67c5.76,3.89,14.6,2.45,13.84-1.19-.88-4.37-13.09-6.49-15.33-2.64-.73,1.19-.13,2.61,1.49,3.83Z"/><path class="cls-2" d="M635.39,1233.84c5.11,3.63,12.84,2.23,12.12-1.22-.76-4-10.77-6.12-13.34-2.81-.91,1.19-.45,2.73,1.22,4Z"/><path class="cls-2" d="M575.59,1185.39c4.61,3.48,11.24,2.18,10.6-1.15-.72-3.73-9.5-5.66-11.72-2.56-.77,1.09-.34,2.51,1.12,3.71Z"/><path class="cls-2" d="M516.16,1134.55c3.55,2.84,8.91,2,8.74-.7-.23-3.28-7.34-5.39-9.52-2.83-.84,1-.52,2.4.78,3.53Z"/><path class="cls-2" d="M457.07,1081.56c3,2.51,7.36,1.7,7.22-.68-.19-2.85-6.23-4.73-8-2.48-.7.87-.39,2.13.78,3.16Z"/><path class="cls-2" d="M398.22,1026.45c2.51,2.18,6.1,1.43,5.87-.63-.27-2.56-5-4.06-6.44-2.07a2.07,2.07,0,0,0,.57,2.7Z"/><path class="cls-2" d="M340.09,969.34c1.77,1.56,4.44,1.4,4.43-.31,0-2-3.5-3.47-4.81-2-.54.6-.37,1.54.38,2.33Z"/><polygon class="cls-2" points="282.58 910.48 285.13 911 285.29 909.04 282.65 908.41 282.58 910.48 282.58 910.48"/><polygon class="cls-2" points="225.89 849.81 227.44 850.16 227.46 848.88 225.92 848.52 225.89 849.81 225.89 849.81"/><polygon class="cls-2" points="170.05 787.54 170.63 787.75 170.65 787.19 170.04 787.11 170.05 787.54 170.05 787.54"/><path class="cls-2" d="M1514.47,1553.09c11.12-1.57,25-3.33,26.7-3.53l-1.26.19-28.2,3.92c-3.45.51-6.92,1-10.41,1.44-.5.06-1,.14-1.5.16,1-.26,10.59-1.63,14.67-2.18Z"/><path class="cls-2" d="M1462.4,1558.08c9.42-.41,35.46-3.92,37.87-4.92,0-.07,0-.12,0-.15-4.47-.51-36.6,3.47-39.55,4.87a1.19,1.19,0,0,1,.1.17,9.84,9.84,0,0,0,1.63,0Z"/><path class="cls-2" d="M1233.42,1518.15c10.38,3,30.3,0,28.25-3.15-2.58-4-29.63-2.86-30.48,1.27-.14.7.63,1.29,2.23,1.88Z"/><path class="cls-2" d="M1181.16,1498.87c9.51,3.33,27.47.93,26.47-2.53-1.26-4.41-26.73-4.32-28.68.1-.19.49-.22,1.5,2.21,2.43Z"/><path class="cls-2" d="M1126.73,1475.78c9.4,3.76,26.06,1.48,24.74-2.28-1.74-4.79-25.43-5.09-27-.34-.16.53-.07,1.57,2.26,2.62Z"/><path class="cls-2" d="M1070.54,1448.83c9,4,24.44,1.85,22.92-2.1-1.87-5-22.78-5.9-25.14-1.11-.7,1.47,1.1,2.68,2.22,3.21Z"/><path class="cls-2" d="M1012.24,1417.94c8.7,4.32,22.87,2.18,21.18-2-2.05-5.14-21.6-6.35-23.44-1.45-.57,1.56,1.18,2.8,2.26,3.41Z"/><path class="cls-2" d="M952.22,1383c7.85,4.3,20.34,2.67,19.58-1.36-1-5.36-19.13-7.45-21.73-2.54-.69,1.25.09,2.66,2.15,3.9Z"/><path class="cls-2" d="M890.86,1344.43c7.33,4.32,18.61,2.75,17.68-1.29-1-4.87-16.67-7.26-19.64-3-.91,1.29-.16,2.93,2,4.3Z"/><path class="cls-2" d="M829.3,1302.7c6.54,4.17,16.47,2.69,15.6-1.18-1.07-4.78-14.72-7-17.36-2.91-.83,1.26-.15,2.79,1.76,4.09Z"/><path class="cls-2" d="M767.42,1258.16c6,4.07,14.84,2.64,14-1.09-1.07-4.52-13.26-6.75-15.53-2.83-.68,1.25-.11,2.7,1.58,3.92Z"/><path class="cls-2" d="M705.81,1211c5.29,3.79,12.94,2.45,12.22-1.12-.86-4.18-11-6.41-13.57-3-.87,1.19-.37,2.75,1.35,4.09Z"/><path class="cls-2" d="M644.14,1161.17c4.51,3.39,11,2.41,10.76-.74-.29-3.75-8.92-6.25-11.7-3.37-1.1,1.15-.72,2.73.94,4.11Z"/><path class="cls-2" d="M583.07,1108.81c3.66,2.94,9,2.1,8.77-.63-.23-3.27-7.56-5.5-9.66-3-.86,1-.48,2.4.89,3.59Z"/><path class="cls-2" d="M522.14,1054.32c3,2.57,7.5,1.75,7.24-.63-.27-2.93-6.27-4.87-8-2.65-.71.94-.41,2.2.78,3.28Z"/><path class="cls-2" d="M461.67,997.56c2.55,2.24,6.07,1.53,5.9-.58-.26-2.4-4.8-4.08-6.39-2.37-.73.77-.52,2,.49,2.95Z"/><path class="cls-2" d="M401.81,938.77c1.8,1.68,4.52,1.51,4.46-.26,0-2-3.6-3.55-4.91-2.09a1.77,1.77,0,0,0,.45,2.35Z"/><polygon class="cls-2" points="342.61 878.23 345.19 878.76 345.31 876.76 342.63 876.11 342.61 878.23 342.61 878.23"/><polygon class="cls-2" points="284.24 815.77 285.79 816.18 285.83 814.85 284.25 814.48 284.24 815.77 284.24 815.77"/><polygon class="cls-2" points="226.67 751.77 227.37 751.94 227.36 751.35 226.73 751.27 226.67 751.77 226.67 751.77"/><path class="cls-2" d="M1607.6,1540c12-1.7,25.51-3.41,26.9-3.56-.39.06-.79.12-1.16.16l-28.07,3.94-10.58,1.48c-.51,0-1,.07-1.58.16.89-.3,12.25-1.89,14.49-2.18Z"/><path class="cls-2" d="M1554.48,1545.08c8.64-.36,35.73-3.9,38.15-5a.53.53,0,0,1-.11-.15c-4.9-.48-36.91,3.46-39.78,4.91,0,.05.07.13.1.19.53,0,1.11,0,1.64,0Z"/><path class="cls-2" d="M1265.15,1484.19c9.8,3.44,27.88,1,26.71-2.49-1.51-4.48-27.3-4.46-29,0-.19.51-.16,1.5,2.34,2.46Z"/><path class="cls-2" d="M1209.27,1460.44c9.62,3.84,26.34,1.56,24.84-2.24-1.94-4.93-25.85-5.3-27.23-.45-.15.53,0,1.6,2.39,2.69Z"/><path class="cls-2" d="M1151.37,1432.75c9.25,4.17,24.77,2,23.11-2.08-2-5-23.18-6-25.43-1.25-.72,1.53,1.13,2.75,2.32,3.33Z"/><path class="cls-2" d="M1091.5,1400.93c8.77,4.37,23,2.26,21.25-1.88-2.13-5.08-22-6.39-23.69-1.57-.53,1.56,1.31,2.86,2.44,3.45Z"/><path class="cls-2" d="M1029.75,1365.05c8,4.36,20.5,2.75,19.65-1.28-1-5.06-18.3-7.51-21.74-3.09-1,1.34-.26,3,2.09,4.37Z"/><path class="cls-2" d="M966.51,1325.38c7.47,4.42,18.84,2.87,17.86-1.24-1.16-5-17-7.48-19.89-3.17-1,1.34-.17,3,2,4.41Z"/><path class="cls-2" d="M903.26,1282.45c6.8,4.29,16.62,2.93,15.69-1.11-1.12-4.75-15.08-7.18-17.6-3.09-.77,1.26-.05,2.86,1.91,4.2Z"/><path class="cls-2" d="M839.65,1236.66c6.15,4.17,15,2.76,14-1.07-1.2-4.62-13.52-6.92-15.72-3-.65,1.25,0,2.78,1.73,4Z"/><path class="cls-2" d="M776.26,1188.13c5,3.61,12.56,2.62,12.27-.68-.38-4.32-11.17-7.08-13.75-3.5-.87,1.2-.29,2.81,1.48,4.18Z"/><path class="cls-2" d="M712.83,1136.92c4.61,3.48,11.13,2.53,10.81-.7-.38-3.82-9.15-6.44-11.88-3.52-1.08,1.17-.67,2.76,1.07,4.22Z"/><path class="cls-2" d="M650,1083.06c3.76,3,9.1,2.19,8.84-.57-.33-3.33-7.78-5.68-9.84-3.08-.82,1-.42,2.43,1,3.65Z"/><path class="cls-2" d="M587.3,1027c3.13,2.63,7.61,1.83,7.3-.57-.33-3.09-6.41-5.1-8.18-2.73-.69.91-.35,2.18.88,3.3Z"/><path class="cls-2" d="M525.12,968.67c2.48,2.21,5.9,1.72,5.87-.27-.1-2.55-4.79-4.53-6.49-2.71-.7.77-.44,2,.62,3Z"/><path class="cls-2" d="M463.42,908.25c2,1.85,4.68,1.41,4.61-.26-.08-2.09-3.72-3.63-5-2.15-.6.65-.44,1.6.39,2.41Z"/><polygon class="cls-2" points="402.63 845.95 405.27 846.57 405.25 844.55 402.62 843.82 402.63 845.95 402.63 845.95"/><polygon class="cls-2" points="342.5 781.83 344.19 782.16 344.18 780.82 342.57 780.41 342.5 781.83 342.5 781.83"/><polygon class="cls-2" points="283.37 715.96 284.06 716.13 283.96 715.57 283.45 715.45 283.37 715.96 283.37 715.96"/><path class="cls-2" d="M1700.66,1526.92c13.69-1.94,26.29-3.48,27.29-3.62-.35.07-.71.1-1.07.16l-28.17,4c-3.59.5-7.18,1-10.77,1.49l-1.63.19c.76-.3,12.08-1.89,14.35-2.17Z"/><path class="cls-2" d="M1349.24,1469.49c10,3.5,28.06,1.15,26.7-2.42-1.75-4.62-27.62-4.69-29.18-.12-.16.52-.07,1.55,2.48,2.54Z"/><path class="cls-2" d="M1291.83,1445.08c9.72,3.91,26.45,1.68,24.88-2.2-1.92-4.69-24.89-5.48-27.32-.93-.74,1.44,1.18,2.58,2.44,3.13Z"/><path class="cls-2" d="M1232.27,1416.61c9.46,4.32,25,2.13,23.15-2-2.32-5.23-23.64-6.36-25.66-1.37-.62,1.54,1.31,2.77,2.51,3.35Z"/><path class="cls-2" d="M1170.74,1384c9,4.49,23.23,2.4,21.35-1.85-2.4-5.45-22.56-6.86-24-1.69-.43,1.56,1.48,2.87,2.64,3.54Z"/><path class="cls-2" d="M1107.12,1347.11c8.28,4.55,20.9,3,19.83-1.24-1.41-5.55-20-7.88-22.27-2.84-.58,1.31.31,2.77,2.44,4.08Z"/><path class="cls-2" d="M1042.27,1306.3c7.78,4.61,19,3.13,18-1.16-1.34-5.25-17.4-7.89-20.22-3.33-.85,1.36,0,3,2.27,4.49Z"/><path class="cls-2" d="M977.15,1262.23c6.89,4.38,16.89,3,15.76-1.08-1.35-5-15.36-7.49-17.83-3.21-.72,1.29.06,2.87,2.07,4.29Z"/><path class="cls-2" d="M911.85,1215.15c6.38,4.34,15.19,3,14.09-1-1.29-4.68-14-7.15-16-3.1-.62,1.24.07,2.77,1.87,4.1Z"/><path class="cls-2" d="M846.58,1165.3c5.28,3.81,12.79,2.84,12.45-.62-.45-4.53-11.45-7.4-14-3.66-.85,1.24-.27,2.9,1.53,4.28Z"/><path class="cls-2" d="M781.49,1112.62c4.69,3.57,11.22,2.63,10.86-.59-.42-3.88-9.43-6.62-12.07-3.66-1,1.15-.54,2.85,1.21,4.25Z"/><path class="cls-2" d="M716.78,1057.34c3.84,3.1,9.33,2.3,8.92-.52-.43-3.49-7.91-5.89-9.94-3.2-.82,1-.38,2.51,1,3.72Z"/><path class="cls-2" d="M652.46,999.76c3.26,2.73,7.69,2,7.36-.56-.36-3-6.71-5.16-8.37-2.83-.66.91-.24,2.24,1,3.39Z"/><path class="cls-2" d="M588.43,939.83c2.62,2.27,6.08,1.78,6-.26-.08-2.63-5-4.71-6.65-2.79-.68.78-.42,2,.63,3.05Z"/><path class="cls-2" d="M525.14,877.7c1.89,1.77,4.67,1.64,4.55-.19-.14-2.09-3.83-3.75-5.06-2.22-.52.6-.29,1.61.51,2.41Z"/><polygon class="cls-2" points="462.57 813.74 465.21 814.38 465.28 812.29 462.53 811.58 462.57 813.74 462.57 813.74"/><polygon class="cls-2" points="400.87 747.79 402.46 748.23 402.41 746.86 400.8 746.44 400.87 747.79 400.87 747.79"/><polygon class="cls-2" points="340.07 680.13 340.71 680.37 340.67 679.74 340.06 679.64 340.07 680.13 340.07 680.13"/><path class="cls-2" d="M1793.8,1513.82c9.61-1.35,25.72-3.44,27.6-3.66-.36.09-.7.11-1,.18l-28.17,4c-3.64.49-7.24,1-10.88,1.5-.57,0-1.13.13-1.73.18,1-.26,5.81-1,14.21-2.15Z"/><path class="cls-2" d="M1313.19,1400.5c9.7,4.44,25.22,2.26,23.22-1.94-2.52-5.33-24.06-6.55-25.87-1.49-.57,1.56,1.43,2.83,2.65,3.43Z"/><path class="cls-2" d="M1249.87,1367c8.9,4.48,22.68,2.84,21.63-1.32-1.37-5.54-21.47-7.78-24.2-2.72-.67,1.28.27,2.76,2.57,4Z"/><path class="cls-2" d="M1184.65,1329.12c8.5,4.65,21.13,3.08,19.92-1.18-1.61-5.65-20.33-8.14-22.54-3-.55,1.32.41,2.83,2.62,4.16Z"/><path class="cls-2" d="M1118,1287.24c7.91,4.69,19.28,3.18,18-1.09-1.58-5.22-17.78-8-20.41-3.53-.84,1.39.09,3.1,2.4,4.62Z"/><path class="cls-2" d="M1051.09,1242c7.09,4.52,17.14,3.14,15.89-1-1.52-5.08-15.69-7.71-18-3.39-.7,1.32.11,2.94,2.15,4.38Z"/><path class="cls-2" d="M983.94,1193.65c6.17,4.22,14.78,3.26,14.27-.5-.62-4.74-13.18-7.89-16-4-1,1.3-.29,3.05,1.74,4.53Z"/><path class="cls-2" d="M917,1142.46c5.35,3.88,12.89,2.91,12.49-.57-.45-4.29-10.92-7.4-14-4.12-1.17,1.26-.58,3.09,1.47,4.69Z"/><path class="cls-2" d="M850.07,1088.42c4.81,3.68,11.4,2.76,10.94-.57-.61-4.25-10.25-7-12.45-3.53-.73,1.19-.14,2.72,1.51,4.1Z"/><path class="cls-2" d="M783.71,1031.61c4.34,3.51,9.3,2.23,8.93-.46-.44-3.46-8.13-6-10.1-3.34-.79,1-.34,2.53,1.17,3.8Z"/><path class="cls-2" d="M717.55,972.52c3.27,2.75,7.79,2,7.42-.52-.49-3.06-6.78-5.29-8.45-3-.67,1-.28,2.31,1,3.47Z"/><path class="cls-2" d="M651.88,911c2.66,2.35,6.09,1.89,6-.21-.08-2.63-5.12-4.81-6.71-2.92-.71.8-.41,2.1.69,3.13Z"/><path class="cls-2" d="M586.88,847.16c2,1.79,4.71,1.71,4.57-.13-.17-2.14-3.93-3.87-5.15-2.35-.53.63-.29,1.64.58,2.48Z"/><polygon class="cls-2" points="522.6 781.49 525.3 782.15 525.29 780.03 522.49 779.26 522.6 781.49 522.6 781.49"/><polygon class="cls-2" points="459.2 713.77 460.85 714.22 460.77 712.85 459.12 712.38 459.2 713.77 459.2 713.77"/><polygon class="cls-2" points="396.7 644.33 397.45 644.54 397.39 643.91 396.79 643.83 396.7 644.33 396.7 644.33"/><path class="cls-2" d="M1887,1500.72c12-1.68,27.21-3.6,27.91-3.67-.35.07-.69.1-1,.14l-28.08,3.94c-3.69.53-7.35,1.06-11,1.54-.68.07-1.3.17-2,.2,1.17-.36,12-1.87,14.2-2.15Z"/><path class="cls-2" d="M1329.1,1350c9,4.54,22.82,3,21.74-1.26-1.43-5.42-22-7.83-24.41-2.88-.68,1.33.32,2.86,2.67,4.14Z"/><path class="cls-2" d="M1262.2,1311.14c8.55,4.75,21.21,3.22,20-1.09-1.58-5.36-19.47-8.2-22.54-3.56-.94,1.38,0,3.12,2.57,4.65Z"/><path class="cls-2" d="M1193.64,1268.15c8,4.8,19.53,3.31,18.18-1-1.64-5.3-18-8.2-20.66-3.63-.83,1.39.09,3.16,2.48,4.65Z"/><path class="cls-2" d="M1125.11,1221.7c7.14,4.61,17.19,3.21,15.94-.89-1.55-5.06-16.07-7.87-18.28-3.57-.66,1.35.19,3,2.34,4.46Z"/><path class="cls-2" d="M1056.13,1172.14c6.34,4.33,15,3.43,14.38-.45-.74-4.79-13.49-8.09-16.24-4.2-.92,1.32-.2,3.11,1.86,4.65Z"/><path class="cls-2" d="M987.47,1119.6c5.41,3.93,13.07,3,12.51-.48-.72-4.61-12-7.71-14.37-4-.79,1.27-.07,3,1.86,4.47Z"/><path class="cls-2" d="M918.75,1064.16c5,3.79,11.55,2.92,11-.5-.73-4.37-10.51-7.18-12.66-3.67-.7,1.17-.08,2.78,1.63,4.17Z"/><path class="cls-2" d="M850.61,1005.86c4.06,3.31,9.49,2.57,9-.41-.54-3.54-8.32-6.15-10.29-3.45-.76,1-.23,2.54,1.27,3.86Z"/><path class="cls-2" d="M782.69,945.22c3.27,2.77,7.58,2.27,7.5-.14-.09-3.14-6.34-5.78-8.42-3.6-.91,1-.52,2.47.92,3.74Z"/><path class="cls-2" d="M715.3,882.07c2.71,2.36,6.23,1.94,6-.16-.25-2.7-5.19-4.9-6.8-3-.68.78-.36,2.08.78,3.19Z"/><path class="cls-2" d="M648.5,816.67c2.13,2,4.87,1.6,4.7-.18-.21-2.25-4-4-5.28-2.4-.55.65-.34,1.69.58,2.58Z"/><polygon class="cls-2" points="582.63 749.24 585.37 749.94 585.25 747.81 582.49 746.99 582.63 749.24 582.63 749.24"/><polygon class="cls-2" points="517.47 679.78 519.22 680.23 519.13 678.82 517.47 678.32 517.47 679.78 517.47 679.78"/><polygon class="cls-2" points="453.41 608.5 454.15 608.72 454 608.14 453.48 607.97 453.41 608.5 453.41 608.5"/><path class="cls-2" d="M1980,1487.65c11.76-1.63,27.2-3.61,28.35-3.72a8.67,8.67,0,0,0-1,.13l-28.17,4c-3.74.51-7.47,1.06-11.22,1.54a19.73,19.73,0,0,1-2,.2c1.07-.3,11.9-1.83,14-2.11Z"/><path class="cls-2" d="M1339.56,1293.21c8.89,4.88,21.62,3.38,20.12-1.07-1.85-5.62-19.79-8.54-22.83-3.72-.91,1.42.13,3.21,2.71,4.79Z"/><path class="cls-2" d="M1269.4,1249.12c8.37,5,19.78,3.6,18.27-1-1.84-5.54-18.53-8.57-21-3.79-.78,1.43.25,3.21,2.7,4.79Z"/><path class="cls-2" d="M1199,1201.49c7.07,4.54,16.79,3.61,16.14-.42-.8-5.18-15.24-8.7-18.39-4.52-1,1.38-.17,3.26,2.25,4.94Z"/><path class="cls-2" d="M1128.34,1150.62c6.42,4.39,15.12,3.52,14.46-.37-.82-4.88-13.89-8.33-16.49-4.34-.87,1.32-.1,3.12,2,4.71Z"/><path class="cls-2" d="M1057.78,1096.78c5.69,4.13,13.31,3.25,12.71-.47-.8-4.73-12.27-8-14.6-4.1-.8,1.31-.05,3.06,1.89,4.57Z"/><path class="cls-2" d="M987.39,1039.89c5,3.86,11.68,3,11.1-.44-.69-4.11-10.15-7.19-12.63-4.1-1,1.2-.35,3,1.53,4.54Z"/><path class="cls-2" d="M917.42,980.18c4.26,3.42,9.27,2.48,9.14,0-.13-3.55-7.81-6.69-10.25-4.2-1,1.05-.55,2.79,1.11,4.25Z"/><path class="cls-2" d="M847.86,917.94c3.36,2.84,7.65,2.37,7.56-.1-.14-3.1-6.65-5.9-8.62-3.69-.84.92-.43,2.48,1.06,3.79Z"/><path class="cls-2" d="M778.66,853.22c2.79,2.44,6.3,2,6.12-.13-.2-2.76-5.35-5.07-6.94-3.1-.69.79-.35,2.11.82,3.23Z"/><path class="cls-2" d="M710.19,786.12c2,1.8,4.69,1.88,4.67.11,0-2.17-3.73-4.23-5.19-2.84-.68.61-.44,1.78.52,2.73Z"/><polygon class="cls-2" points="642.56 717.01 645.34 717.74 645.26 715.55 642.4 714.7 642.56 717.01 642.56 717.01"/><polygon class="cls-2" points="575.83 645.76 577.52 646.27 577.4 644.87 575.69 644.32 575.83 645.76 575.83 645.76"/><polygon class="cls-2" points="510.13 572.69 510.78 572.95 510.73 572.31 510.08 572.2 510.13 572.69 510.13 572.69"/><path class="cls-2" d="M2073.14,1474.55c11.87-1.66,27.73-3.66,28.64-3.76l-.94.14-28.19,3.93c-3.77.55-7.52,1.07-11.29,1.57-.73.09-1.44.18-2.15.23.82-.26,11.74-1.82,13.93-2.11Z"/><path class="cls-2" d="M1345.15,1230c8.13,4.85,19.17,3.9,18.43-.42-.94-5.33-17.67-9.19-21-4.88-1.17,1.49-.17,3.54,2.61,5.3Z"/><path class="cls-2" d="M1272.93,1181.22c7.28,4.66,17,3.76,16.29-.35-1-5.22-15.58-8.92-18.65-4.68-1,1.42-.1,3.34,2.36,5Z"/><path class="cls-2" d="M1200.43,1129.13c6.65,4.57,15.37,3.68,14.56-.3-1-5-14.11-8.56-16.67-4.5-.89,1.33-.06,3.19,2.11,4.8Z"/><path class="cls-2" d="M1128.22,1073.92c5.74,4.2,13.37,3.32,12.75-.37-.81-4.73-12.57-8.1-14.81-4.26-.75,1.29,0,3.06,2.06,4.63Z"/><path class="cls-2" d="M1056,1015.68c5.2,4,11.88,3.14,11.18-.39-.88-4.51-11-7.55-13-3.95-.67,1.19,0,2.85,1.82,4.34Z"/><path class="cls-2" d="M984.34,954.42c4.37,3.57,9.29,2.64,9.17,0-.19-3.62-8-6.86-10.42-4.3-1,1-.49,2.81,1.25,4.28Z"/><path class="cls-2" d="M912.92,890.72c3.44,2.88,7.81,2.44,7.64-.09-.24-3.16-6.75-6-8.7-3.85-.83,1-.42,2.6,1.06,3.94Z"/><path class="cls-2" d="M842.09,824.31c2.6,2.31,6.33,2.28,6.15-.07-.22-2.75-5.48-5.16-7-3.22-.66.83-.29,2.18.9,3.29Z"/><path class="cls-2" d="M771.93,755.57c2.16,2,4.73,1.79,4.68.17,0-2.22-3.81-4.36-5.28-2.93-.66.59-.41,1.77.6,2.76Z"/><polygon class="cls-2" points="702.59 684.74 705.39 685.51 705.3 683.3 702.38 682.41 702.59 684.74 702.59 684.74"/><polygon class="cls-2" points="634.15 611.74 635.89 612.28 635.74 610.82 634.02 610.28 634.15 611.74 634.15 611.74"/><polygon class="cls-2" points="566.76 536.89 567.49 537.13 567.43 536.47 566.78 536.35 566.76 536.89 566.76 536.89"/><path class="cls-2" d="M2166.3,1461.45c13.54-1.87,28.3-3.72,28.84-3.79-.26.06-.56.1-.85.15l-28.09,3.92c-3.82.54-7.64,1.08-11.49,1.59-.72.08-1.45.19-2.17.24,1.31-.34,8.21-1.34,13.76-2.11Z"/><path class="cls-2" d="M1272.63,1107.64c6.8,4.62,15.57,3.81,14.67-.25-1.11-5.09-14.4-8.78-16.91-4.69-.88,1.38,0,3.26,2.24,4.94Z"/><path class="cls-2" d="M1198.65,1051.09c6,4.33,13.6,3.49,12.77-.31-1-4.85-12.77-8.33-15-4.43-.74,1.31.13,3.12,2.19,4.74Z"/><path class="cls-2" d="M1124.63,991.38c5,3.88,11.5,3.39,11.3.1-.3-4.45-10.38-8.15-13-4.81-.94,1.23-.27,3.1,1.72,4.71Z"/><path class="cls-2" d="M1051.22,928.69c4.54,3.63,9.45,2.74,9.27.1-.26-3.69-8.14-7.07-10.58-4.5-1,1.06-.46,2.87,1.31,4.4Z"/><path class="cls-2" d="M978.09,863.42c3.53,3,7.9,2.56,7.68,0-.3-3.29-6.85-6.2-8.87-3.94-.84.93-.38,2.54,1.19,3.95Z"/><path class="cls-2" d="M905.53,795.45c2.74,2.43,6.17,2.25,6.15.23,0-2.69-5.08-5.44-7-3.78-.91.78-.53,2.25.83,3.55Z"/><path class="cls-2" d="M833.53,725.08c2.19,2,4.9,1.84,4.84.15,0-2.25-3.87-4.41-5.39-3-.73.64-.46,1.82.55,2.88Z"/><polygon class="cls-2" points="762.6 652.48 765.47 653.32 765.24 651.09 762.36 650.13 762.6 652.48 762.6 652.48"/><polygon class="cls-2" points="692.45 577.77 694.27 578.27 694.1 576.8 692.38 576.26 692.45 577.77 692.45 577.77"/><polygon class="cls-2" points="623.47 501.06 624.21 501.31 624.06 500.69 623.5 500.5 623.47 501.06 623.47 501.06"/><path class="cls-2" d="M1143.34,574.94C1129.91,543,1182.67,511.2,1212,524.7c25.24,11.61,14.17,45.93-19.07,59.27-20.91,8.38-42.69,4.41-49.6-9Z"/><path class="cls-2" d="M1174.49,637.61c-12.41-31.77,41.1-62.36,69.92-48.56,24.73,11.8,12.64,45.54-20.88,58.19-21,8-42.6,3.72-49-9.63Z"/><path class="cls-2" d="M1204.31,699.41c-11.06-30.77,42.07-59.58,69.71-46,23.83,11.8,11,44.25-22.24,56.08-21.09,7.53-41.53,3.17-47.47-10.12Z"/><path class="cls-2" d="M1232.09,760.84c-9.71-29.77,42.66-56.68,69-43.08,22.52,11.62,9,42.52-23.34,53.35-20.68,6.93-40.32,2.5-45.61-10.27Z"/><path class="cls-2" d="M1257.38,821.77c-8.39-28.82,43.47-54,68.6-40.62,22,11.77,7.88,40.88-24.67,51.14-20.35,6.35-39.23,1.85-43.93-10.52Z"/><path class="cls-2" d="M1280.1,882c-7.09-27.76,44.27-51.34,68.15-38.16,20.47,11.32,5.53,39.64-25.8,48.87-20,5.88-38.26,1.28-42.35-10.71Z"/><path class="cls-2" d="M1300.45,941.47c-5.83-26.86,44.86-48.85,67.51-35.78,19.73,11.34,4.37,37.87-26.91,46.51-19.61,5.42-37.07.8-40.6-10.73Z"/><path class="cls-2" d="M1318,1000c-4.84-27.82,49.7-47.36,69.16-32.08,17,13.32-5.53,39.66-37.71,44.06-16.3,2.24-28.94-2.56-31.45-12Z"/><path class="cls-2" d="M1332.72,1056.27c-3.31-25.94,50.23-43.94,68.28-29.62,15.78,12.49-7.28,37-38.52,41-15.83,2-27.79-2.6-29.76-11.4Z"/><path class="cls-2" d="M1344.45,1110.15c-1.88-24.23,50.69-40.85,67.37-27.44,14.6,11.69-8.89,34.48-39.23,38.08-15.36,1.84-26.64-2.46-28.14-10.64Z"/><path class="cls-2" d="M1353.1,1161.49c-.64-24.24,55.34-38.08,67.74-24,11.71,13.32-21.83,36-50.57,34.17-10-.62-16.47-4.43-17.17-10.17Z"/><path class="cls-2" d="M1359.05,1210.12c.75-22.14,55-34.79,66.13-22,10.51,12.25-22.83,33-50.23,31.34-9.57-.59-15.49-4.07-15.9-9.38Z"/><path class="cls-2" d="M1362,1256.27c2-20.47,54.79-32.06,64.67-20.15,9.73,11.71-27.08,31.71-52.51,28.55-7.66-1-12.11-4-12.16-8.4Z"/><path class="cls-2" d="M1362.12,1299.75c3.13-18.83,54.49-29.48,63.28-18.55,8.63,10.76-27.94,29.14-52.2,26.22-7.22-.88-11.28-3.66-11.08-7.67Z"/><path class="cls-2" d="M1359.3,1340.52c4.24-17.15,54.15-26.9,61.86-17,7.53,9.74-28.67,26.53-51.69,24-6.89-.76-10.61-3.32-10.17-7Z"/><path class="cls-2" d="M1353.91,1378.61c2.82-8.41,20.55-14.68,29.5-16.85,18.13-4.33,29.7-2.07,31.38,2.27,4.06,10.54-40.7,26-57,19.71-3-1.17-4.34-2.88-3.87-5.13Z"/><path class="cls-2" d="M1345.69,1414c6.67-15.25,56.15-22.5,59.19-13.36,3.23,9.81-44.25,24.3-57.09,17.4-2.48-1.33-2.4-3.11-2.1-4Z"/><path class="cls-2" d="M1335,1446.45c7.56-13.55,55.29-20.28,57.5-12.22,2.38,8.87-44,22-55.82,15.84-2.24-1.16-2-2.78-1.68-3.62Z"/><path class="cls-2" d="M1321.51,1476.18c8.37-12,54.36-18.24,55.71-11.16,1.59,8.35-46.89,20.56-55.22,13.84a2,2,0,0,1-.49-2.68Z"/><path class="cls-2" d="M1306,1503c8.94-10.27,52.65-16.1,53.29-10.09.68,6.7-46.46,17.71-53.1,12.38a1.5,1.5,0,0,1-.19-2.29Z"/><path class="cls-2" d="M1287.52,1526.88c9.52-8.79,51.5-14.28,51.44-9.22,0,5.75-45.79,15.67-51.52,11.17-.86-.67-.38-1.41.08-1.95Z"/><path class="cls-2" d="M1266.74,1547.9c10-7.34,50.2-12.59,49.6-8.46-.76,5.07-48.12,14.25-50.22,9.73-.13-.25,0-.71.62-1.27Z"/><path class="cls-2" d="M1243.43,1566c10.33-6,48.8-11,47.69-7.76-1.39,4.08-47.14,12.38-48.46,8.78-.06-.19.08-.58.77-1Z"/><path class="cls-2" d="M1218.23,1580.9c9-4,43.29-9.46,45.27-7.22-.82,3.07-44,10.59-46.15,8,0-.18.12-.41.88-.8Z"/><path class="cls-2" d="M1190.28,1592.94c9-3,39.78-7.74,43.32-6.8a1,1,0,0,1,0,.32c-3.93,2.19-40.27,8.07-44.18,7.1a.53.53,0,0,1,0-.24,3.13,3.13,0,0,1,.88-.38Z"/><path class="cls-2" d="M1160.23,1601.78c9.06-2,38.31-6.43,41.48-6.09-.92,1.15-40.17,6.63-42.54,6.5a6,6,0,0,1,1.06-.41Z"/><path class="cls-2" d="M1165.63,1602.32l-27.88,3.9,28.17-4-.29.06Z"/><path class="cls-2" d="M1237.9,528.27c-13.25-31.24,34.57-62.78,65.24-52,27.55,9.7,21.15,44.47-11,60-22.15,10.66-46.46,7.1-54.21-8Z"/><path class="cls-2" d="M1270,592.94c-12.86-32.73,40.59-63.46,69.71-49,25,12.43,13.33,46.9-20.19,59.5-21.14,7.89-42.84,3.3-49.52-10.5Z"/><path class="cls-2" d="M1300.79,656.78c-11.51-31.84,41.53-60.75,69.44-46.3,24,12.38,11.45,45.57-21.57,57.26-21.12,7.47-41.72,2.74-47.87-11Z"/><path class="cls-2" d="M1329.45,720.21c-10.1-30.74,42.22-57.74,68.79-43.52,22.77,12.21,9.53,43.83-22.84,54.58-20.71,6.9-40.47,2.12-46-11.06Z"/><path class="cls-2" d="M1355.52,783.12c-8.76-29.8,43-55.11,68.34-41,22.09,12.34,8.32,42.1-24.08,52.22-20.38,6.36-39.4,1.53-44.26-11.25Z"/><path class="cls-2" d="M1379,845.3c-7.38-28.61,44-52.35,68-38.52,20.66,11.84,5.91,40.78-25.42,50-20,5.84-38.36,1-42.63-11.44Z"/><path class="cls-2" d="M1399.92,906.72c-6.05-27.7,44.59-49.79,67.42-36.16,19.88,11.9,4.75,39-26.58,47.6-19.62,5.35-37.17.47-40.84-11.44Z"/><path class="cls-2" d="M1418,967.12c-4.64-26.45,45.46-47.06,67-33.82,18.65,11.49,2.78,37.15-27.9,45-19.27,4.95-36.08.14-39.13-11.22Z"/><path class="cls-2" d="M1433.24,1025.24c-3.53-26.77,50-44.76,68.18-29.88,15.93,13-7,38.1-38.29,41.88-15.87,1.92-27.89-2.92-29.89-12Z"/><path class="cls-2" d="M1445.17,1080.9c-2.05-25,50.62-41.69,67.45-27.73,14.64,12.18-8.78,35.45-39.17,38.93-15.42,1.78-26.79-2.74-28.28-11.2Z"/><path class="cls-2" d="M1454.19,1133.88c-.69-23.11,50.84-38.45,66.33-25.54,13.49,11.32-10.24,32.82-39.74,36-14.9,1.57-25.61-2.62-26.59-10.46Z"/><path class="cls-2" d="M1460.32,1184.12c.63-22.71,54.94-35.36,66.07-22.1,10.66,12.7-22.65,33.87-50.21,31.9-9.52-.67-15.46-4.37-15.86-9.8Z"/><path class="cls-2" d="M1463.3,1231.73c1.94-21,54.75-32.54,64.69-20.29s-27,32.58-52.6,29.08c-7.6-1-12-4.24-12.09-8.79Z"/><path class="cls-2" d="M1463.26,1276.64c3.17-19.35,54.52-30,63.3-18.63,8.58,11.13-28,29.8-52.2,26.63-7.26-.92-11.28-3.82-11.1-8Z"/><path class="cls-2" d="M1460.48,1318.72c4.26-17.54,54.16-27.33,61.88-17.07s-28.7,27.24-51.78,24.42c-6.9-.87-10.55-3.55-10.1-7.35Z"/><path class="cls-2" d="M1454.72,1358.07c2.89-8.64,20.73-15,29.74-17.21,18-4.37,29.5-1.93,31.13,2.56,4.14,11.28-40.08,26.8-57,20-3-1.22-4.34-3-3.88-5.35Z"/><path class="cls-2" d="M1446.38,1394.55c6.78-15.66,56.29-22.86,59.19-13.41,3.15,10.18-44.37,24.84-57.13,17.64-2.47-1.39-2.36-3.26-2.06-4.23Z"/><path class="cls-2" d="M1435.15,1428.12c7.75-14,55.44-20.65,57.49-12.27,2.16,9.05-44.31,22.36-55.87,16-2.25-1.22-2-2.87-1.62-3.76Z"/><path class="cls-2" d="M1421.38,1458.77c8.56-12.32,54.49-18.53,55.7-11.2,1.46,8.7-47.1,21-55.27,14a2.06,2.06,0,0,1-.43-2.79Z"/><path class="cls-2" d="M1405.11,1486.47c9.24-10.63,52.92-16.42,53.35-10.14.51,7.36-46.21,18.35-53.15,12.5a1.59,1.59,0,0,1-.2-2.36Z"/><path class="cls-2" d="M1386.23,1511.15c9.75-9.05,51.66-14.51,51.46-9.28-.22,6-46.06,16-51.61,11.28-.84-.69-.35-1.45.15-2Z"/><path class="cls-2" d="M1364.75,1532.82c10.26-7.59,50.29-12.77,49.44-8.45-1,5.12-48.28,14.32-50.12,9.79-.11-.26,0-.75.68-1.34Z"/><path class="cls-2" d="M1340.63,1551.48c10.64-6.16,49-11.17,47.74-7.79-1.6,4.19-47.45,12.57-48.55,8.84,0-.18.13-.57.81-1Z"/><path class="cls-2" d="M1314.48,1567c9.34-4.16,43.65-9.69,45.34-7.29-1.13,3.06-44.38,10.61-46.32,8.08.09-.16.17-.41,1-.79Z"/><path class="cls-2" d="M1285.75,1579.3c9.25-3,40-7.85,43.35-6.77a1.55,1.55,0,0,1-.06.31c-4.19,2.29-40.65,8.18-44.33,7.14a.91.91,0,0,0,.08-.23,6,6,0,0,1,1-.45Z"/><path class="cls-2" d="M1254.7,1588.51c10.19-2.28,38.85-6.53,41.42-6.14-1.26,1.13-40.64,6.69-42.6,6.51.23-.17.23-.17,1.18-.37Z"/><path class="cls-2" d="M1259.1,1589.2c-9.28,1.28-18.56,2.61-27.86,3.89l28.16-3.95c-.09,0-.19,0-.3.06Z"/><path class="cls-2" d="M1332.43,481.57c-13.77-32.25,33.88-63.95,64.91-52.43,27.72,10.32,21.79,45.85-10.24,61.31-22.15,10.66-46.67,6.73-54.67-8.88Z"/><path class="cls-2" d="M1365.62,548.26c-12.73-32.07,35.69-62.64,66.21-50.77,27.27,10.61,20.25,45.6-12.1,60.38-22.38,10.21-46.67,5.91-54.11-9.61Z"/><path class="cls-2" d="M1397.15,614.2c-11.93-32.82,41.1-61.92,69.41-46.78,25.58,13.71,10.24,50.05-25.24,59.81-19.78,5.45-38.34,0-44.17-13Z"/><path class="cls-2" d="M1426.8,679.56c-10.52-31.74,41.66-58.84,68.53-43.83,24.74,13.8,9,47.86-26.37,56.93-19.23,4.92-37-.58-42.16-13.1Z"/><path class="cls-2" d="M1453.53,744.52c-9.11-30.75,42.73-56.24,68.35-41.4,23.55,13.63,7,46.23-27.74,54.49-18.9,4.52-36-1-40.61-13.09Z"/><path class="cls-2" d="M1477.8,808.6c-7.64-29.45,43.54-53.24,67.81-38.82,22,13.06,4.44,44.67-28.86,52-18.55,4.08-34.89-1.46-39-13.18Z"/><path class="cls-2" d="M1499.31,872c-6.29-28.39,44.38-50.66,67.4-36.51,19.69,12.1,4.5,40.27-26.25,48.64-19.69,5.35-37.43.15-41.15-12.13Z"/><path class="cls-2" d="M1518.1,934.26c-4.9-27.25,45.06-47.92,66.72-34.09,19.87,12.66,1.2,40.67-31.23,46.83-18,3.42-32.59-1.79-35.49-12.74Z"/><path class="cls-2" d="M1533.58,994.26c-3.65-27.44,50-45.54,68.26-30.2,16.1,13.55-6.71,39.11-38.13,42.8-15.93,1.82-28-3.23-30.13-12.6Z"/><path class="cls-2" d="M1546,1051.62c-2.2-25.71,50.36-42.4,67.25-27.91,15.63,13.39-10.87,38.43-42.28,40-13.76.66-23.55-4.06-25-12.07Z"/><path class="cls-2" d="M1555.12,1106.32c-.77-23.85,50.91-39.27,66.45-25.8,14,12.14-13.26,35.66-43,37-13.34.59-22.54-3.78-23.49-11.19Z"/><path class="cls-2" d="M1561.55,1158.06c.62-23.47,54.81-36,66-22.2,10.58,13.17-22.63,34.69-50.08,32.47-9.52-.78-15.44-4.6-15.88-10.27Z"/><path class="cls-2" d="M1564.49,1207.27c1.94-21.65,54.87-33.21,64.8-20.5s-27.07,33.33-52.61,29.6c-7.69-1.11-12.12-4.45-12.19-9.1Z"/><path class="cls-2" d="M1564.56,1253.53c3.18-19.94,54.58-30.53,63.29-18.76,8.57,11.51-28,30.53-52.19,27.09-7.29-1-11.31-4-11.1-8.33Z"/><path class="cls-2" d="M1561.54,1297c4.29-18.09,54.33-27.85,62-17.2,7.52,10.47-28.84,27.88-51.92,24.81-6.89-.92-10.59-3.69-10.08-7.61Z"/><path class="cls-2" d="M1555.7,1337.52c2.91-8.92,20.75-15.4,29.8-17.59,18-4.37,29.48-1.77,31.11,2.87,3.9,11.28-40.92,27.21-57.12,20.3-3-1.31-4.27-3.19-3.79-5.58Z"/><path class="cls-2" d="M1547,1375.12c3.45-8,20.92-13.94,29.67-15.93,17.53-4,28.24-1.68,29.42,2.48,3,10.61-44.5,25.42-57.12,17.84a3.69,3.69,0,0,1-2-4.39Z"/><path class="cls-2" d="M1535.43,1409.75c7.89-14.45,55.62-21,57.52-12.32,2.09,9.47-44.49,23-56,16.25a3,3,0,0,1-1.55-3.93Z"/><path class="cls-2" d="M1521.22,1441.4c8.79-12.81,54.58-18.89,55.62-11.25,1.22,9-47.33,21.46-55.27,14.11a2.21,2.21,0,0,1-.35-2.86Z"/><path class="cls-2" d="M1504.43,1470c9.46-11,53.09-16.69,53.37-10.2.32,7.63-46.47,18.76-53.27,12.65a1.71,1.71,0,0,1-.1-2.45Z"/><path class="cls-2" d="M1484.92,1495.39c9.95-9.29,51.7-14.68,51.36-9.28-.41,6.18-46.19,16.27-51.58,11.39-.82-.76-.28-1.56.22-2.11Z"/><path class="cls-2" d="M1462.58,1517.8c10.47-7.78,50.62-12.94,49.64-8.52-1.08,5.24-48.65,14.55-50.36,9.89-.11-.28,0-.79.72-1.37Z"/><path class="cls-2" d="M1437.86,1537c10.87-6.33,49.12-11.25,47.63-7.77-1.82,4.29-47.6,12.69-48.52,8.86,0-.17.17-.59.89-1.09Z"/><path class="cls-2" d="M1410.83,1553c9.53-4.23,43.85-9.78,45.37-7.3-1.32,3.24-44.66,10.85-46.39,8.15.11-.21.18-.43,1-.85Z"/><path class="cls-2" d="M1381.19,1565.71c9.49-3.12,40.25-7.93,43.32-6.78-.91,2.61-41.91,8.28-44.43,7.49.14-.36.14-.36,1.11-.71Z"/><path class="cls-2" d="M1349,1575.21c10.41-2.33,39.2-6.57,41.63-6.15-1.45,1.17-41,6.75-42.87,6.56.26-.18.26-.18,1.24-.41Z"/><path class="cls-2" d="M1352.58,1576.06q-13.9,1.93-27.8,3.91l28.09-4-.29.07Z"/><path class="cls-2" d="M1426.84,434.94c-14.19-33.06,33.45-65,64.76-52.95,28.14,10.84,22.53,47.16-9.67,62.68-22.12,10.7-46.82,6.32-55.09-9.73Z"/><path class="cls-2" d="M1461,503.67c-13.1-32.86,35.31-63.69,66.11-51.3,27.62,11.15,20.92,46.94-11.6,61.79-22.36,10.17-46.81,5.49-54.51-10.49Z"/><path class="cls-2" d="M1493.65,571.51c-11.69-31.86,36.46-61,66.06-48.61,26.7,11.15,19,45.67-13.29,59.63-22.09,9.53-45.73,4.61-52.77-11Z"/><path class="cls-2" d="M1524,639c-10.27-30.85,37.26-58.09,65.52-45.73,25.32,11.08,16.73,44.06-14.81,56.9C1553,659,1530.26,654,1524,639Z"/><path class="cls-2" d="M1551.69,705.87c-9.4-31.46,42.32-57.08,68.17-41.77,23.4,13.88,6.76,47.71-27.36,55.68-18.9,4.38-36-1.45-40.81-13.91Z"/><path class="cls-2" d="M1576.55,772c-8-30.31,43.26-54.28,67.8-39.26,22.22,13.64,4.84,45.92-28.62,53.17-18.57,4-35-1.85-39.18-13.91Z"/><path class="cls-2" d="M1598.77,837.25c-6.56-29.31,44-51.66,67.18-36.85,21.44,13.68,3.6,44-29.78,50.64-18.11,3.61-33.83-2.18-37.4-13.79Z"/><path class="cls-2" d="M1618,901.47c-5.13-28.06,44.91-48.91,66.82-34.5,20,13.18,1.41,41.83-31.14,47.91-18,3.36-32.68-2.18-35.68-13.41Z"/><path class="cls-2" d="M1634.05,963.22c-3.85-28.31,49.69-46.41,68.09-30.39,16.74,14.56-9.63,42.48-41.46,43.92-14.19.64-24.65-4.66-26.63-13.53Z"/><path class="cls-2" d="M1646.83,1022.34c-2.28-26.41,50.25-43.17,67.23-28.15,15.4,13.59-11.45,39.53-42.21,40.79-13.73.57-23.56-4.39-25-12.64Z"/><path class="cls-2" d="M1656.21,1078.72c-.85-24.61,50.71-40,66.29-26,14.06,12.68-13.13,36.61-42.8,37.72-13.29.5-22.5-4.09-23.49-11.7Z"/><path class="cls-2" d="M1662.63,1132.1c.58-22.49,50.71-36.57,64.82-23.76,12.78,11.59-14.52,33.54-42.93,34.55-12.77.44-21.34-3.79-21.89-10.79Z"/><path class="cls-2" d="M1665.81,1182.71c2-22.32,54.73-33.8,64.69-20.56,9.76,13.06-27.07,34.12-52.55,30.07-7.65-1.22-12-4.68-12.14-9.51Z"/><path class="cls-2" d="M1665.84,1230.45c3.21-20.52,54.58-31.08,63.33-18.91,8.59,12-28.05,31.29-52.29,27.55-7.22-1.11-11.24-4.26-11-8.64Z"/><path class="cls-2" d="M1662.71,1275.19c4.37-18.7,54.3-28.38,61.89-17.33,7.83,11.47-32,29.8-54,24.84-7.5-1.69-8.19-5.44-7.92-7.51Z"/><path class="cls-2" d="M1656.68,1317c5.47-16.9,53.88-25.81,60.42-15.86,6.85,10.48-32.54,27.18-53.36,22.64-7-1.52-7.43-4.92-7.06-6.78Z"/><path class="cls-2" d="M1647.6,1355.76c7.05-16.62,56.48-23.63,59.23-13.54,2.94,10.91-44.69,25.9-57.3,18.08a3.8,3.8,0,0,1-1.93-4.54Z"/><path class="cls-2" d="M1635.77,1391.39c8-14.7,55.67-21.25,57.51-12.38,2,9.9-44.57,23.54-56,16.43a3.06,3.06,0,0,1-1.47-4Z"/><path class="cls-2" d="M1620.9,1424c8.92-13,54.85-19.13,55.82-11.33,1.14,9.35-47.58,21.89-55.48,14.3a2.35,2.35,0,0,1-.34-3Z"/><path class="cls-2" d="M1603.73,1453.43c9.59-11.22,53.24-16.9,53.42-10.25.2,7.5-47.18,18.85-53.39,12.77a1.82,1.82,0,0,1,0-2.52Z"/><path class="cls-2" d="M1583.45,1479.67c10.22-9.55,52.06-15,51.56-9.33-.6,6.41-46.61,16.63-51.85,11.51-.77-.78-.21-1.6.29-2.18Z"/><path class="cls-2" d="M1560.58,1502.73c10.71-8,50.8-13.15,49.7-8.54-1.35,5.59-49,15-50.5,10-.07-.26.12-.79.8-1.42Z"/><path class="cls-2" d="M1534.92,1522.54c11.21-6.56,49.52-11.48,47.82-7.83-2,4.43-48,12.88-48.74,9,0-.22.18-.62.92-1.14Z"/><path class="cls-2" d="M1507.19,1539c9.77-4.38,44.13-9.93,45.42-7.35-1.39,3.07-45.32,10.82-46.49,8.23.12-.24.22-.47,1.07-.88Z"/><path class="cls-2" d="M1476.48,1552.12c9.76-3.19,40.68-8,43.56-6.84-1.22,2.76-42.37,8.46-44.74,7.58.2-.38.2-.38,1.18-.74Z"/><path class="cls-2" d="M1443.46,1561.87c10.65-2.38,39.5-6.61,41.72-6.16-1.76,1.27-41.34,6.86-43,6.63.3-.22.3-.22,1.33-.47Z"/><path class="cls-2" d="M1446.13,1562.91c-9.32,1.31-18.6,2.6-27.9,3.89l28.19-3.92c-.11,0-.23,0-.29,0Z"/><path class="cls-2" d="M1521.4,388.23c-14.66-34,32.87-66.11,64.51-53.42,30,12.07,22.06,52.1-13.18,65.89-21,8.19-43.54,2.74-51.33-12.47Z"/><path class="cls-2" d="M1556.57,459c-13.52-33.81,34.77-64.81,65.87-51.78,29.54,12.38,20.33,51.76-15.17,64.85-21.17,7.77-43.42,2-50.7-13.07Z"/><path class="cls-2" d="M1590.15,528.87C1578,496,1626,466.77,1655.92,479.82c26.81,11.76,19.51,47-12.63,60.89-22.08,9.53-45.92,4.23-53.14-11.84Z"/><path class="cls-2" d="M1621.41,598.34c-10.67-31.74,36.81-59.16,65.31-46.2,25.55,11.59,17.26,45.3-14.29,58.19-21.71,8.82-44.62,3.46-51-12Z"/><path class="cls-2" d="M1649.86,667.2c-9.3-30.81,37.8-56.56,65.08-43.6,24.81,11.8,15.73,43.61-15.94,55.81-21.4,8.23-43.43,2.77-49.14-12.21Z"/><path class="cls-2" d="M1675.39,735.27c-8.26-31.15,43-55.26,67.7-39.61,22.43,14.19,5.26,47.15-28.25,54.25-18.57,4-35.15-2.21-39.45-14.64Z"/><path class="cls-2" d="M1698.27,802.47c-6.82-30.13,43.72-52.61,67.09-37.17,21.59,14.22,3.93,45.14-29.48,51.68-18.13,3.56-33.93-2.52-37.61-14.51Z"/><path class="cls-2" d="M1718,868.6c-5.33-28.85,44.66-49.76,66.71-34.81,20.19,13.71,1.75,43-30.86,48.89-18,3.3-32.75-2.5-35.85-14.08Z"/><path class="cls-2" d="M1734.55,932.23c-3.71-27,45.51-46.29,66-32.23,18.83,12.91-.4,40.16-32.12,45.55-17.55,3-31.5-2.48-33.9-13.32Z"/><path class="cls-2" d="M1747.53,993.13c-2.44-27.24,50.21-44,67.34-28.46,15.85,14.45-10.55,40.49-42.17,41.63-13.78.46-23.66-4.7-25.17-13.17Z"/><path class="cls-2" d="M1757.3,1051.09c-1-25.17,50.59-40.62,66.23-26.19,14.22,13.09-12.94,37.54-42.73,38.42-13.26.45-22.48-4.37-23.5-12.23Z"/><path class="cls-2" d="M1763.92,1106.08c.45-23,50.58-37.12,64.75-24,12.91,12-14.38,34.39-42.94,35.24-12.72.35-21.27-4.06-21.81-11.26Z"/><path class="cls-2" d="M1767.12,1158.21c1.9-22.85,54.7-34.3,64.66-20.72s-27,35-52.56,30.56c-7.63-1.29-12-4.89-12.1-9.84Z"/><path class="cls-2" d="M1767,1207.36c3.25-21.12,54.63-31.63,63.3-19,8.57,12.36-28.07,32-52.22,28-7.26-1.21-11.27-4.49-11.08-9Z"/><path class="cls-2" d="M1763.87,1253.4c4.43-19.11,54.34-28.82,61.92-17.46,7.9,11.93-32,30.58-54.08,25.25-7.42-1.78-8.11-5.67-7.84-7.79Z"/><path class="cls-2" d="M1757.51,1296.45c5.57-17.34,54-26.22,60.42-16,6.7,10.76-32.68,27.7-53.36,23-7.06-1.62-7.47-5.09-7.06-7Z"/><path class="cls-2" d="M1748.26,1336.33c7.19-17.06,56.61-24,59.26-13.61,2.88,11.31-44.81,26.52-57.34,18.3a4,4,0,0,1-1.92-4.69Z"/><path class="cls-2" d="M1735.91,1373.08c8.28-15.28,55.9-21.71,57.56-12.48,1.81,10-44.83,23.86-56.12,16.65a3.18,3.18,0,0,1-1.44-4.17Z"/><path class="cls-2" d="M1720.77,1406.62c9.13-13.39,55-19.43,55.82-11.36,1,9.64-47.83,22.34-55.53,14.43a2.45,2.45,0,0,1-.29-3.07Z"/><path class="cls-2" d="M1702.93,1436.93c9.86-11.58,53.44-17.19,53.41-10.27,0,8.14-47,19.49-53.44,12.9a1.91,1.91,0,0,1,0-2.63Z"/><path class="cls-2" d="M1682.12,1463.94c10.48-9.84,52.29-15.17,51.6-9.39-.77,6.63-46.89,16.93-51.91,11.61-.77-.8-.18-1.65.31-2.22Z"/><path class="cls-2" d="M1658.56,1487.67c11-8.26,51-13.33,49.61-8.56-1.6,5.61-49.2,15.06-50.43,10.05-.08-.3.1-.85.82-1.49Z"/><path class="cls-2" d="M1632.16,1508.05c11.41-6.72,49.71-11.61,47.87-7.86-2.29,4.58-48.4,13.12-48.89,9,0-.21.22-.67,1-1.19Z"/><path class="cls-2" d="M1603.43,1525c10.07-4.49,44.51-10.08,45.5-7.32-1.87,3.46-45.46,11.18-46.64,8.27.12-.23.26-.51,1.14-1Z"/><path class="cls-2" d="M1571.94,1538.53c10-3.3,41-8.16,43.62-6.87-1.41,2.65-42.86,8.51-44.89,7.65.24-.41.24-.41,1.27-.78Z"/><path class="cls-2" d="M1537.91,1548.58c10.31-2.3,40.83-6.92,41.63-6.11-3,1.32-39.07,6.59-42.89,6.61.13-.25.13-.25,1.26-.5Z"/><path class="cls-2" d="M1539.6,1549.78c-9.28,1.29-18.59,2.61-27.89,3.89l28.2-3.92a1,1,0,0,0-.31,0Z"/><path class="cls-2" d="M1615.94,341.56c-15.23-35,32.16-67.34,64.15-53.87,30.27,12.71,22.72,53.51-12.39,67.19-21.36,8.29-43.58,2.58-51.76-13.32Z"/><path class="cls-2" d="M1652.15,414.33c-14.05-34.81,34.08-66,65.51-52.21,29.71,13,20.92,53.21-14.43,66.15-21.56,7.87-43.47,1.89-51.08-13.94Z"/><path class="cls-2" d="M1686.53,486.31C1674,452.49,1722,423,1752.2,436.71c28.6,13,18.73,51.75-16.24,63.85-21.27,7.31-42.52,1.18-49.43-14.25Z"/><path class="cls-2" d="M1718.75,557.69c-11.06-32.7,36.27-60.27,65-46.62C1810.91,524,1800.11,561,1766,572c-20.78,6.73-41.08.57-47.26-14.29Z"/><path class="cls-2" d="M1747.88,628.61c-9.62-31.7,37.47-57.67,65-44.08,26.51,13,14.84,48-19.54,58.4-20.47,6.22-40,.08-45.49-14.32Z"/><path class="cls-2" d="M1774.26,698.58c-8.53-32,42.5-56.2,67.42-39.93,22.59,14.75,5.74,48.34-27.73,55.3-18.57,3.86-35.29-2.59-39.69-15.37Z"/><path class="cls-2" d="M1797.63,767.77c-7-30.86,43.53-53.49,67.09-37.58,21.33,14.42,3.63,46.44-29.13,52.75-18.22,3.53-34.19-2.87-38-15.17Z"/><path class="cls-2" d="M1818.07,835.76c-5.54-29.61,44.33-50.63,66.47-35.12,20.3,14.23,2.08,44.05-30.43,49.87-18,3.21-32.86-2.83-36-14.75Z"/><path class="cls-2" d="M1834.88,901.23c-3.87-27.59,45.43-47.09,66.08-32.56,19,13.37-.08,41.18-31.88,46.48-17.35,2.92-31.74-3-34.2-13.92Z"/><path class="cls-2" d="M1848.36,963.84c-2.57-27.94,50-44.75,67.15-28.64,15.92,14.93-10.31,41.45-41.88,42.36-13.81.38-23.71-5-25.27-13.72Z"/><path class="cls-2" d="M1858.26,1023.53c-1-25.89,50.62-41.41,66.34-26.47,14.26,13.53-12.86,38.44-42.66,39.21-13.35.33-22.67-4.67-23.68-12.74Z"/><path class="cls-2" d="M1865.16,1080c.45-23.74,50.45-37.85,64.66-24.12,13.13,12.73-13.66,35.2-42.82,35.85-12.71.29-21.28-4.29-21.84-11.73Z"/><path class="cls-2" d="M1868.3,1133.67c1.89-23.44,54.84-34.89,64.81-20.86s-27,35.77-52.63,31.12c-7.67-1.39-12.11-5.14-12.18-10.26Z"/><path class="cls-2" d="M1868.29,1184.25c3.23-21.68,54.63-32.2,63.32-19.17,8.53,12.75-28.1,32.72-52.31,28.49-7.22-1.28-11.24-4.69-11-9.32Z"/><path class="cls-2" d="M1864.88,1231.63c4.51-19.63,54.54-29.31,62.06-17.59,7.87,12.28-32.11,31.21-54.14,25.68-7.51-1.89-8.17-5.88-7.92-8.09Z"/><path class="cls-2" d="M1858.48,1275.88c5.64-17.79,54.09-26.68,60.45-16.05,6.69,11.16-32.8,28.41-53.49,23.34-7-1.69-7.34-5.3-7-7.29Z"/><path class="cls-2" d="M1849,1316.93c6.71-16,53.49-24.22,58.75-14.64,5.67,10.27-37,26.52-54.32,20.71-2.13-.72-5.52-2.43-4.43-6.07Z"/><path class="cls-2" d="M1836.24,1354.72c8.37-15.67,56-22,57.57-12.51,1.74,10.45-45.06,24.44-56.22,16.83a3.3,3.3,0,0,1-1.35-4.32Z"/><path class="cls-2" d="M1820.61,1389.25c9.38-13.86,55.07-19.8,55.72-11.41.77,10-48,22.8-55.51,14.55a2.6,2.6,0,0,1-.21-3.14Z"/><path class="cls-2" d="M1802.24,1420.42c10-11.89,53.62-17.47,53.45-10.34-.22,8.44-47.24,19.9-53.55,13.05a2,2,0,0,1,.1-2.71Z"/><path class="cls-2" d="M1780.82,1448.18c10.66-10.09,52.34-15.34,51.49-9.41-1,6.81-47,17.22-51.89,11.71-.74-.81-.09-1.71.4-2.3Z"/><path class="cls-2" d="M1756.42,1472.65c11.2-8.43,51.25-13.52,49.78-8.64-1.73,5.73-49.53,15.28-50.65,10.1-.07-.26.12-.84.87-1.46Z"/><path class="cls-2" d="M1729.37,1493.6c11.18-6.63,47.65-11.91,47.86-8.25.25,4.21-45.83,13.4-48.79,9.77-.42-.52.28-1.13.93-1.52Z"/><path class="cls-2" d="M1699.78,1511c10.23-4.59,44.73-10.2,45.59-7.4-2.15,3.74-45.84,11.48-46.76,8.36.12-.24.28-.5,1.17-1Z"/><path class="cls-2" d="M1667.38,1524.9c10.19-3.34,41.14-8.24,43.57-6.82-1.77,2.76-43.08,8.56-44.93,7.66.31-.44.31-.44,1.36-.84Z"/><path class="cls-2" d="M1632.2,1535.28c10-2.24,37.52-6.49,41.76-6.24-1,1.38-40.45,6.77-43.07,6.74.16-.21.16-.21,1.31-.5Z"/><path class="cls-2" d="M1633.07,1536.63q-13.89,2-27.8,3.91l28.07-3.94a.89.89,0,0,1-.27,0Z"/><path class="cls-2" d="M1710.37,294.94c-15.6-35.84,31.69-68.38,64-54.41,30.7,13.27,23.55,54.93-11.8,68.55-21,8.12-44,1.92-52.18-14.14Z"/><path class="cls-2" d="M1747.58,369.76c-14.45-35.61,33.66-67,65.37-52.75,30.14,13.55,21.69,54.57-13.91,67.5-21.18,7.71-43.82,1.22-51.46-14.75Z"/><path class="cls-2" d="M1783,443.66c-12.9-34.53,35-64.2,65.41-50,29,13.52,19.5,53.1-15.72,65.14-21.2,7.24-42.59.74-49.69-15.12Z"/><path class="cls-2" d="M1816,517.09c-11.38-33.42,36-61.23,65-47.06,27.47,13.36,16.91,51.17-17.38,62.16-20.76,6.68-41.22.18-47.58-15.1Z"/><path class="cls-2" d="M1846,590c-9.89-32.38,37.12-58.54,64.83-44.56,26.87,13.58,15.4,49.28-19.15,59.68-20.39,6.17-40-.38-45.68-15.12Z"/><path class="cls-2" d="M1873,661.93c-8.39-31.2,38.27-55.72,64.66-41.94,25.06,13,12.45,47.75-20.77,57.12-20.1,5.66-39-.86-43.89-15.18Z"/><path class="cls-2" d="M1897.13,733c-7.33-31.78,43.11-54.51,66.86-37.88,21.94,15.3,4.68,47.5-28.83,53.8-18.16,3.4-34.14-3.29-38-15.92Z"/><path class="cls-2" d="M1918,802.93c-5.75-30.41,44.17-51.59,66.53-35.48,20.47,14.74,2.33,45.2-30.33,50.93-18.08,3.16-33-3.19-36.2-15.45Z"/><path class="cls-2" d="M1935.38,870.2c-4.07-28.39,45.12-47.94,65.89-32.81,19,13.84.08,42.24-31.73,47.44-17.56,2.86-31.61-3.14-34.16-14.63Z"/><path class="cls-2" d="M1949.22,934.56c-2.52-26.47,45.93-44.59,65.21-30.46,17.71,13-2.06,39.4-33,44.17-17.06,2.59-30.3-3-32.18-13.71Z"/><path class="cls-2" d="M1959.34,995.93c-1.12-26.63,50.42-42.19,66.2-26.66,14.27,14-12.77,39.39-42.5,39.89-13.34.25-22.62-4.94-23.7-13.23Z"/><path class="cls-2" d="M1966.29,1054c.4-24.33,50.5-38.52,64.76-24.36,12.86,12.83-14.34,36.11-42.85,36.56-12.75.25-21.37-4.57-21.91-12.2Z"/><path class="cls-2" d="M1969.6,1109.17c1.79-22.52,50.69-35.53,63.51-22.38,11.83,12.1-15.21,33.15-43.17,33.62-12.25.19-20.22-4.23-20.34-11.24Z"/><path class="cls-2" d="M1969.58,1161.13c3.27-22.24,54.65-32.69,63.32-19.3,8.57,13.22-28.12,33.53-52.34,29-7.21-1.36-11.22-4.9-11-9.66Z"/><path class="cls-2" d="M1966.06,1209.85c4.6-20.24,54.52-29.86,62-17.69,7.74,12.68-32.21,31.88-54.1,26-7.48-2-8.13-6.1-7.86-8.36Z"/><path class="cls-2" d="M1959.47,1255.32c5.71-18.23,54.13-27.11,60.45-16.17,6.68,11.59-32.9,29.11-53.57,23.72-7-1.8-7.3-5.52-6.88-7.55Z"/><path class="cls-2" d="M1949.48,1297.57c6.84-16.41,53.69-24.55,58.93-14.82,5.66,10.64-37.14,27.13-54.51,21.09-2.11-.76-5.53-2.56-4.42-6.27Z"/><path class="cls-2" d="M1936.52,1336.35c8.5-15.93,56.09-22.29,57.63-12.55,1.67,10.87-45.17,25-56.31,17a3.55,3.55,0,0,1-1.32-4.48Z"/><path class="cls-2" d="M1920.31,1371.87c9.51-14.08,55.31-20,55.9-11.48.65,10.3-48.28,23.24-55.73,14.74a2.78,2.78,0,0,1-.17-3.26Z"/><path class="cls-2" d="M1901.54,1403.89c10.2-12.12,53.73-17.66,53.5-10.37-.3,8.28-47.93,19.94-53.66,13.16a2.24,2.24,0,0,1,.16-2.79Z"/><path class="cls-2" d="M1879.37,1432.48c10.91-10.35,52.68-15.61,51.66-9.45-1.14,7-47.44,17.54-52.13,11.8-.68-.85-.06-1.75.47-2.35Z"/><path class="cls-2" d="M1854.42,1457.57c11.45-8.63,51.42-13.68,49.78-8.65-1.91,6-46.82,15.41-50.54,10.61-.55-.69.16-1.46.76-2Z"/><path class="cls-2" d="M1826.44,1479.12c11.46-6.75,48-12.07,48-8.3.08,4.41-46.21,13.74-49,9.86-.38-.53.38-1.17,1-1.56Z"/><path class="cls-2" d="M1796.18,1497c11.48-5.16,46.07-10.11,45.59-7.43-.54,3.11-45.17,11.34-46.85,8.64-.22-.41.62-.87,1.26-1.21Z"/><path class="cls-2" d="M1762.66,1511.33c10.49-3.45,41.58-8.36,43.82-6.91-2.08,2.91-43.51,8.73-45.21,7.75.32-.44.32-.44,1.39-.84Z"/><path class="cls-2" d="M1726.66,1522c10.24-2.29,37.81-6.57,41.84-6.29-1.26,1.4-40.92,6.87-43.29,6.83.26-.24.26-.24,1.45-.54Z"/><path class="cls-2" d="M1726.61,1523.5c-5,.74-5,.74-27.9,3.91l28.17-4a1,1,0,0,0-.27,0Z"/><path class="cls-2" d="M1804.91,248.23c-16.09-36.75,31.14-69.47,63.77-54.88,31,13.86,24.22,56.33-11.13,69.88-21.07,8.08-44.16,1.48-52.64-15Z"/><path class="cls-2" d="M1843.1,325.09c-14.86-36.53,33.16-68.14,65.15-53.21,30.45,14.16,22.38,56-13.21,68.82-21.23,7.65-44,.78-51.94-15.61Z"/><path class="cls-2" d="M1879.5,401c-13.34-35.54,34.4-65.38,65.12-50.45,29.17,14.15,20,54.5-15.06,66.41-21.21,7.22-42.74.33-50.06-16Z"/><path class="cls-2" d="M1913.34,476.46c-11.75-34.3,35.5-62.25,64.77-47.56,27.71,14,17.46,52.51-16.84,63.43-20.81,6.65-41.39-.18-47.93-15.87Z"/><path class="cls-2" d="M1944.19,551.3c-10.28-33.32,36.61-59.63,64.53-44.94,27,14.16,15.82,50.54-18.58,60.85-20.41,6.11-40.17-.72-46-15.91Z"/><path class="cls-2" d="M1971.85,625.25c-8.64-32,37.92-56.71,64.53-42.42,25.26,13.6,12.84,49-20.37,58.33-20.1,5.62-39.09-1.22-44.16-15.91Z"/><path class="cls-2" d="M1996.63,698.24c-7.2-30.9,38.9-54,64.14-39.88,24.39,13.66,11.21,47-22,55.67-19.66,5.15-37.79-1.62-42.11-15.79Z"/><path class="cls-2" d="M2018,770.08c-6-31.18,44-52.49,66.46-35.83,20.61,15.3,2.6,46.34-30.08,51.94-18,3.08-33-3.53-36.38-16.11Z"/><path class="cls-2" d="M2035.88,839.19c-4.25-29.14,44.92-48.8,65.82-33.16,19.15,14.36.3,43.3-31.53,48.4-17.58,2.8-31.67-3.47-34.29-15.24Z"/><path class="cls-2" d="M2049.91,905.33c-2.63-27.2,45.91-45.43,65.31-30.77,17.73,13.41-1.94,40.35-32.93,45-17.12,2.58-30.46-3.23-32.38-14.23Z"/><path class="cls-2" d="M2060.45,968.32c-1.23-27.2,50.27-42.81,66.13-26.88,14.4,14.48-12.57,40.34-42.46,40.66-13.28.16-22.57-5.24-23.67-13.78Z"/><path class="cls-2" d="M2067.51,1028c.35-24.84,50.42-39.1,64.74-24.53,13,13.24-14.21,36.93-42.83,37.24-12.7.15-21.31-4.85-21.91-12.71Z"/><path class="cls-2" d="M2070.93,1084.64c1.74-23,50.61-36,63.51-22.55,12.4,13-18.21,35.68-46.14,34.18-10.62-.59-17.28-5-17.37-11.63Z"/><path class="cls-2" d="M2070.72,1138c3.29-22.78,54.67-33.22,63.34-19.4,8.54,13.56-28.18,34.19-52.35,29.39-7.23-1.42-11.25-5.06-11-10Z"/><path class="cls-2" d="M2067.25,1188c4.62-20.65,54.51-30.25,61.94-17.81,7.84,13.14-32.19,32.69-54.18,26.46-7.42-2.09-8-6.3-7.76-8.65Z"/><path class="cls-2" d="M2060.29,1234.83c5.82-18.74,54.22-27.59,60.48-16.3,6.53,11.83-33,29.6-53.59,24-7-1.88-7.33-5.68-6.89-7.75Z"/><path class="cls-2" d="M2050.14,1278.16c7-16.81,53.84-25,59-14.89,5.58,11-37.28,27.7-54.59,21.34-2.1-.78-5.49-2.66-4.37-6.45Z"/><path class="cls-2" d="M2036.68,1318.05c8-15.06,53.31-22.53,57.37-13.57,4.38,9.67-37.8,24.81-53.72,19.3-2-.67-5-2.33-3.65-5.73Z"/><path class="cls-2" d="M2020.18,1354.49c9.7-14.47,55.47-20.36,55.9-11.55.5,10.61-48.52,23.7-55.78,14.9a2.86,2.86,0,0,1-.12-3.35Z"/><path class="cls-2" d="M2000.71,1387.37c10.51-12.49,54-17.94,53.53-10.39-.59,9-47.78,20.66-53.74,13.28a2.33,2.33,0,0,1,.21-2.89Z"/><path class="cls-2" d="M1978.05,1416.74c11.16-10.65,52.88-15.86,51.7-9.52-1.32,7.27-47.71,17.88-52.22,12-.68-.9,0-1.84.52-2.44Z"/><path class="cls-2" d="M1952.41,1442.49c10.89-8.26,49.23-13.78,49.77-9.16.61,5.42-44,15.66-50.2,11.56-1.09-.73-.36-1.71.43-2.4Z"/><path class="cls-2" d="M1923.65,1464.63c11.7-6.91,48.25-12.19,48.12-8.31-.15,4.57-46.58,14-49.19,10-.38-.57.45-1.24,1.07-1.65Z"/><path class="cls-2" d="M1892.39,1483c11.84-5.34,46.4-10.26,45.67-7.44-.8,3.15-43.81,11.1-47,8.69,0-.32-.06-.55,1.29-1.25Z"/><path class="cls-2" d="M1858.11,1497.73c10.72-3.53,41.86-8.47,43.89-6.93-2.39,3-43.84,8.86-45.37,7.81.38-.48.38-.48,1.48-.88Z"/><path class="cls-2" d="M1821.12,1508.65c10.23-2.29,38.23-6.62,41.84-6.3-1.74,1.54-41.25,7-43.42,6.87.36-.28.36-.28,1.58-.57Z"/><path class="cls-2" d="M1820.09,1510.38q-13.92,1.93-27.89,3.91l28.17-4a.86.86,0,0,0-.28,0Z"/><path class="cls-2" d="M1899.47,201.54c-15.9-36.06,26.07-68.6,59.72-56.79,32.82,11.51,31.32,54.56-2.47,70.82-22.11,10.72-47.82,4.41-57.25-14Z"/><path class="cls-2" d="M1938.68,280.39c-14.68-35.85,28.11-67.31,61.22-55.15,32.3,11.88,29.45,54.34-4.67,69.91-22.36,10.24-47.72,3.61-56.55-14.76Z"/><path class="cls-2" d="M1975.86,358.41c-13.76-36.49,34-66.54,65.06-51,29.39,14.69,20.6,55.86-14.52,67.71-21.29,7.2-43,0-50.54-16.74Z"/><path class="cls-2" d="M2010.69,435.83c-12.15-35.31,35-63.39,64.5-48,28.45,14.9,18.74,53.55-16.26,64.68-20.77,6.56-41.53-.62-48.24-16.72Z"/><path class="cls-2" d="M2042.2,512.69c-10.59-34.21,36.3-60.72,64.52-45.44,27.12,14.72,16.29,51.84-18.16,62.1-20.47,6.09-40.43-1.07-46.36-16.66Z"/><path class="cls-2" d="M2070.72,588.54c-8.94-32.79,37.53-57.63,64.25-42.77,25.39,14.12,13.3,50.22-19.82,59.45-20.17,5.56-39.24-1.62-44.43-16.68Z"/><path class="cls-2" d="M2096,663.55c-7.39-31.62,38.74-54.94,64.14-40.34,24.05,13.84,10.9,48.31-21.64,56.79-19.79,5.13-38.05-1.93-42.5-16.45Z"/><path class="cls-2" d="M2118.05,737.21c-6.17-32,43.57-53.33,66.2-36.11,20.72,15.8,3,47.44-29.63,52.92-18.09,3-33.12-3.88-36.57-16.81Z"/><path class="cls-2" d="M2136.2,808.19c-4.34-29.78,44.87-49.57,65.89-33.48,19.34,14.82.64,44.35-31.3,49.32-17.36,2.72-31.91-3.95-34.59-15.84Z"/><path class="cls-2" d="M2150.76,876c-2.78-27.87,45.63-46.17,65.1-31,17.8,13.87-1.7,41.27-32.61,45.83-17.15,2.54-30.53-3.55-32.49-14.83Z"/><path class="cls-2" d="M2161.38,940.75c-1.3-27.93,50.33-43.6,66.26-27.13,14.48,14.92-12.48,41.22-42.4,41.41-13.38.07-22.74-5.52-23.86-14.28Z"/><path class="cls-2" d="M2168.76,1002c.31-25.6,50.3-39.81,64.6-24.72,12.92,13.67-14.19,37.76-42.64,37.9-12.72.06-21.35-5.11-22-13.18Z"/><path class="cls-2" d="M2172.09,1060.15c1.75-23.6,50.76-36.68,63.65-22.79,12.41,13.41-18.22,36.5-46.16,34.81-10.69-.64-17.38-5.25-17.49-12Z"/><path class="cls-2" d="M2172,1114.92c3.13-21.73,50.84-33.77,62.34-20.91,11,12.26-19.76,33.43-46.34,31.9-10.16-.64-16.3-4.8-16-11Z"/><path class="cls-2" d="M2168.27,1166.27c4.7-21.19,54.71-30.77,62.12-17.91,7.75,13.46-32.36,33.27-54.32,26.83-7.48-2.19-8.09-6.53-7.8-8.92Z"/><path class="cls-2" d="M2161.26,1214.24c5.91-19.2,54.33-28,60.52-16.38,6.49,12.26-33.15,30.32-53.72,24.44-6.94-2-7.23-5.9-6.8-8.06Z"/><path class="cls-2" d="M2150.84,1258.73c7.1-17.32,53.84-25.4,58.86-14.94,5.4,11.31-37.47,28.26-54.64,21.62-2-.81-5.38-2.76-4.22-6.68Z"/><path class="cls-2" d="M2137,1299.65c8.13-15.36,53.43-22.87,57.41-13.61,4.32,10-38,25.39-53.89,19.58-1.93-.71-5-2.42-3.52-6Z"/><path class="cls-2" d="M2120,1337.08c9.11-13.65,52.72-20.52,55.62-12.39,3.29,9.19-41.59,23.4-54,17.06-2.16-1.07-2.7-2.64-1.64-4.67Z"/><path class="cls-2" d="M2100,1370.86c10.72-12.82,54.18-18.23,53.54-10.44-.72,9.24-48,21-53.8,13.4-.95-1.21,0-2.5.26-3Z"/><path class="cls-2" d="M2076.73,1401c11.39-10.87,52.95-16,51.61-9.51-1.54,7.45-47.86,18.13-52.19,12-.71-1,.26-2.18.58-2.52Z"/><path class="cls-2" d="M2050.25,1427.45c11.07-8.41,49.51-13.94,50-9.22.5,5.56-44.25,15.92-50.45,11.65-1.08-.71-.32-1.72.48-2.43Z"/><path class="cls-2" d="M2020.89,1450.15c11.87-7.05,48.35-12.33,48-8.34-.38,4.71-46.81,14.18-49.2,10.06-.32-.62.5-1.26,1.17-1.72Z"/><path class="cls-2" d="M1988.75,1469.06c12-5.45,46.54-10.36,45.74-7.5-1,3.33-44.1,11.39-47.1,8.76,0-.3,0-.55,1.36-1.26Z"/><path class="cls-2" d="M1953.58,1484.13c10.88-3.61,42-8.56,43.81-7-.74,2.29-43.21,9.63-45.4,7.84.44-.47.44-.47,1.59-.88Z"/><path class="cls-2" d="M1915.41,1495.36c10.39-2.34,38.55-6.71,42.07-6.32-1.92,1.56-41.56,7-43.72,6.91.4-.29.4-.29,1.65-.59Z"/><path class="cls-2" d="M1913.56,1497.25c-9.25,1.27-18.55,2.6-27.82,3.88l28.08-3.94a1.58,1.58,0,0,0-.26.06Z"/><path class="cls-2" d="M1993.87,154.94c-16.24-36.86,25.64-69.67,59.54-57.42,33.21,12,32.08,55.94-1.85,72.31-22.11,10.69-48,4-57.69-14.89Z"/><path class="cls-2" d="M2034.09,235.81c-15-36.62,27.67-68.38,61.07-55.76,32.66,12.37,30.14,55.75-4.12,71.4-22.35,10.18-47.9,3.19-57-15.64Z"/><path class="cls-2" d="M2072.36,315.77c-14.1-37.18,33.54-67.44,64.77-51.41,29.86,15.27,21.36,57.2-14,69-21.25,7.13-43.1-.46-50.8-17.63Z"/><path class="cls-2" d="M2108,395.26c-12.45-36.05,34.64-64.38,64.36-48.47,28.17,15.07,18.57,55.13-15.79,65.94-20.82,6.55-41.74-1-48.57-17.47Z"/><path class="cls-2" d="M2140.32,474.05c-10.85-34.9,36-61.57,64.35-45.86,27.49,15.25,16.84,53.11-17.78,63.31-20.45,6-40.45-1.46-46.57-17.45Z"/><path class="cls-2" d="M2169.43,551.9c-9.21-33.57,37.28-58.64,64.24-43.26,25.61,14.67,13.72,51.51-19.58,60.66-20.12,5.55-39.3-2-44.66-17.4Z"/><path class="cls-2" d="M2195.47,628.77c-7.64-32.45,38.34-55.92,63.89-40.72,24.71,14.72,11.95,49.37-21.33,58-19.69,5.09-38-2.32-42.56-17.23Z"/><path class="cls-2" d="M2218,704.41c-6.08-31.13,39.58-53.06,63.73-38.22,23.18,14.22,9.29,47.08-23.21,54.9-19.34,4.68-36.76-2.49-40.52-16.68Z"/><path class="cls-2" d="M2236.7,777.16c-4.56-30.61,44.57-50.49,65.66-33.76,19.41,15.34.8,45.41-31.08,50.3-17.6,2.68-31.82-4.11-34.58-16.54Z"/><path class="cls-2" d="M2251.58,846.76c-2.88-28.49,45.51-46.91,65.06-31.29,18,14.35-1.53,42.32-32.56,46.75-17.11,2.46-30.45-3.9-32.5-15.46Z"/><path class="cls-2" d="M2262.47,913.13c-1.27-26.55,46.35-43.5,64.37-28.9,16.5,13.31-3.73,39.2-33.79,43.28-16.38,2.18-29.22-3.87-30.58-14.38Z"/><path class="cls-2" d="M2269.87,976c.27-26.22,50.38-40.51,64.73-24.94,13.87,15.06-16.46,40.6-45.73,38.46-11.16-.8-18.45-6-19-13.52Z"/><path class="cls-2" d="M2273.41,1035.62c1.74-24.23,50.65-37.37,63.52-22.95,12.34,13.83-18.24,37.32-46.08,35.39-10.67-.71-17.31-5.51-17.44-12.44Z"/><path class="cls-2" d="M2273.3,1091.81c3.12-22.28,50.84-34.31,62.35-21.11,11,12.72-19.77,34.26-46.43,32.44-10.11-.64-16.25-5-15.92-11.33Z"/><path class="cls-2" d="M2269.45,1144.49c4.76-21.8,54.64-31.3,62-18,7.59,13.85-32.45,33.94-54.25,27.24-7.42-2.31-8-6.76-7.75-9.22Z"/><path class="cls-2" d="M2262.23,1193.69c6-19.64,54.41-28.43,60.51-16.5,6.5,12.71-33.24,31-53.78,24.79-6.91-2.08-7.19-6.09-6.73-8.29Z"/><path class="cls-2" d="M2251.36,1239.35c7.19-17.62,54-25.71,59-15,5.42,11.63-37.58,28.86-54.77,21.93-2.09-.85-5.4-2.86-4.24-6.88Z"/><path class="cls-2" d="M2237.3,1281.34c8.23-15.68,53.52-23.18,57.42-13.76,4.35,10.45-38.08,26-54,19.86-1.89-.73-4.89-2.52-3.42-6.1Z"/><path class="cls-2" d="M2219.72,1319.73c9.23-13.89,52.94-20.79,55.81-12.51,3.28,9.49-41.83,23.88-54.19,17.31-2.17-1.13-2.7-2.75-1.62-4.8Z"/><path class="cls-2" d="M2199.35,1354.36c9.92-12,51.58-18.31,53.48-11.24,2.19,8.13-41.47,20.9-52.51,15.34q-2.85-1.44-1-4.1Z"/><path class="cls-2" d="M2175.29,1385.24c10.7-10.22,50.76-16.13,51.82-10.18,1.19,7-45,18.76-52,13.25-1.24-.94-.6-2.18.19-3.07Z"/><path class="cls-2" d="M2148.24,1412.4c11.6-8.83,49.72-14.5,50-9.28.33,5.9-44.59,16.36-50.62,11.8-1-.75-.25-1.78.59-2.52Z"/><path class="cls-2" d="M2118,1435.71c12.15-7.24,48.7-12.54,48.24-8.4-.58,4.88-47.27,14.44-49.49,10.14-.31-.62.57-1.3,1.25-1.74Z"/><path class="cls-2" d="M2085.13,1455.06c10.69-4.86,43.21-10.38,45.78-7.79,0,3.44-43.13,11.93-47.06,9.3-.08,0-.1-.14-.18-.22,0-.3,0-.56,1.46-1.29Z"/><path class="cls-2" d="M2048.88,1470.55c11.14-3.71,42.43-8.68,44-7-1,2.42-43.75,9.82-45.74,7.93.11-.21.19-.4,1.69-.93Z"/><path class="cls-2" d="M2009.86,1482.08c10.9-2.46,38.79-6.8,42.18-6.4-.05.08-.05.16-.08.19-4.26,1.61-40.79,7-43.86,6.79.5-.32.5-.32,1.76-.58Z"/><path class="cls-2" d="M2007.1,1484.1c-10.2,1.37-16.46,2.26-27.92,3.92l28.17-4-.25,0Z"/><path class="cls-2" d="M2088.4,108.21c-16.69-37.7,25.06-70.76,59.28-57.92,33.49,12.54,32.81,57.33-1.13,73.7-22.11,10.69-48.2,3.6-58.15-15.78Z"/><path class="cls-2" d="M2129.66,191.17c-15.48-37.55,27.14-69.52,60.78-56.34,32.92,12.95,30.84,57.15-3.4,72.81-22.38,10.18-48.1,2.79-57.38-16.47Z"/><path class="cls-2" d="M2168.83,273.14c-13.87-36.51,28.67-66.79,61-53.53,31.69,13,28.29,55.74-5.59,70.36-22.09,9.54-46.93,2-55.4-16.83Z"/><path class="cls-2" d="M2205.29,354.61c-12.24-35.23,29.95-63.71,60.83-50.54,30.18,12.86,25.44,53.79-7.81,67.35-21.71,8.83-45.48,1.28-53-16.81Z"/><path class="cls-2" d="M2238.5,435.37c-11.2-35.83,35.47-62.62,64-46.23,27.59,15.83,17.3,54.4-17.22,64.5-20.44,6-40.59-1.88-46.82-18.27Z"/><path class="cls-2" d="M2268.3,515.2c-9.49-34.4,36.93-59.64,64.1-43.66,25.78,15.16,14.14,52.72-19.16,61.84-20.15,5.5-39.47-2.31-44.94-18.18Z"/><path class="cls-2" d="M2295,594c-7.9-33.24,38.08-56.86,63.78-41.09,24.87,15.2,12.3,50.54-21,59.07-19.69,5-38.09-2.69-42.77-18Z"/><path class="cls-2" d="M2318,671.56c-6.25-31.88,39.37-54,63.68-38.62,23.29,14.72,9.56,48.2-22.94,56-19.36,4.62-36.83-2.86-40.74-17.39Z"/><path class="cls-2" d="M2337.21,746.15c-4.76-31.35,44.35-51.33,65.58-34.08,20.23,16.41-1.7,49.21-34.53,51.63-16,1.15-28.46-5.88-31.05-17.55Z"/><path class="cls-2" d="M2352.29,817.55c-3-29.27,45.45-47.79,65.14-31.63,19.14,15.71-3.4,45.75-36,48-15.5,1.09-27.22-5.5-29.14-16.36Z"/><path class="cls-2" d="M2363.56,885.53c-1.37-27.07,46.24-44.14,64.31-29.17,17.24,14.24-6.37,42.46-37.12,44.4-15,1-25.89-5.16-27.19-15.23Z"/><path class="cls-2" d="M2371.13,950c.19-26.71,50.28-41.08,64.68-25.15,14,15.54-16.3,41.51-45.71,39.14-11.11-.89-18.39-6.25-19-14Z"/><path class="cls-2" d="M2374.74,1011.1c1.69-24.71,50.57-37.86,63.48-23.12,12.46,14.26-18.15,38.13-46.11,36-10.61-.81-17.28-5.75-17.37-12.87Z"/><path class="cls-2" d="M2374.44,1068.72c3.16-22.79,50.88-34.87,62.37-21.25,11,13-19.85,34.91-46.41,33-10.16-.71-16.28-5.19-16-11.71Z"/><path class="cls-2" d="M2370.64,1122.69c4.79-22.18,54.66-31.7,62-18.16,7.73,14.38-32.4,34.77-54.34,27.66-7.35-2.4-7.93-7-7.63-9.5Z"/><path class="cls-2" d="M2363,1173.16c6.15-20.09,54.53-28.85,60.56-16.58,6.37,12.93-33.39,31.48-53.79,25.12-6.94-2.16-7.22-6.27-6.77-8.54Z"/><path class="cls-2" d="M2352.06,1220c7.32-18,54.16-26.13,59-15.17,5.34,12-37.76,29.41-54.86,22.25-2.09-.88-5.4-3-4.17-7.08Z"/><path class="cls-2" d="M2337.46,1263c8.44-16.14,53.73-23.61,57.46-13.83,4.08,10.54-38.36,26.36-54,20.1-1.94-.77-4.93-2.6-3.42-6.27Z"/><path class="cls-2" d="M2319.58,1302.33c9.41-14.2,53.1-21.11,55.83-12.59,3.11,9.77-42,24.36-54.3,17.54-2.16-1.18-2.67-2.85-1.53-5Z"/><path class="cls-2" d="M2298.48,1337.86c10.23-12.32,51.89-18.65,53.59-11.32,1.9,8.2-41.86,21.11-52.61,15.52-1.91-1-2.23-2.4-1-4.2Z"/><path class="cls-2" d="M2274,1369.53c10.9-10.52,51-16.41,51.84-10.31,1,7.22-45.23,19.15-52.11,13.43-1.29-1-.39-2.42.27-3.12Z"/><path class="cls-2" d="M2246.23,1397.33c11.57-8.83,49.89-14.31,49.94-9.3.06,6-44.89,16.55-50.6,11.91-1-.81-.2-1.85.66-2.61Z"/><path class="cls-2" d="M2215.16,1421.21c12.39-7.37,49-12.68,48.29-8.42-.78,5-47.59,14.69-49.59,10.21-.28-.62.62-1.31,1.3-1.79Z"/><path class="cls-2" d="M2181.35,1441.09c11-5,43.63-10.59,45.89-7.85-.36,3.67-44.71,12.22-47.43,9.2,0-.32.07-.64,1.54-1.35Z"/><path class="cls-2" d="M2144.33,1457c11.39-3.79,42.71-8.78,44.12-7-1.15,2.27-41.36,9.43-45.8,8.13,0-.12,0-.22,0-.32a6,6,0,0,1,1.66-.78Z"/><path class="cls-2" d="M2104.32,1468.76c11.2-2.53,39.14-6.9,42.15-6.38-.93,1.41-41.55,7.25-44,7,.14-.18.17-.25,1.9-.63Z"/><path class="cls-2" d="M2100.6,1470.94c-5.93.93-16.1,2.35-27.95,3.92l28.19-3.93a1,1,0,0,1-.24,0Z"/><path class="cls-2" d="M2183,61.51c-17.24-38.7,24.38-72,58.87-58.44,33.69,13.17,33.5,58.78-.3,75.09-22.1,10.7-48.39,3.23-58.57-16.65Z"/><path class="cls-2" d="M2225.21,146.5c-15.95-38.52,26.49-70.72,60.43-56.83,33.08,13.53,31.47,58.57-2.65,74.15-22.34,10.2-48.27,2.42-57.78-17.32Z"/><path class="cls-2" d="M2265.21,230.56c-14.3-37.42,28.19-67.94,60.85-54.13,31.94,13.54,28.9,57.12-5,71.73-22.12,9.56-47.2,1.68-55.85-17.6Z"/><path class="cls-2" d="M2302.66,314c-12.63-36.17,29.41-64.84,60.54-51,30.27,13.44,25.88,55.12-7.19,68.64-21.74,8.85-45.63.93-53.35-17.62Z"/><path class="cls-2" d="M2336.5,396.77c-11-35,30.95-62.17,60.82-48.4,29.6,13.65,24,53.14-9.49,66-21.46,8.26-44.47.38-51.33-17.61Z"/><path class="cls-2" d="M2367.19,478.49c-9.78-35.18,36.48-60.52,63.78-44,25.94,15.68,14.59,53.91-18.62,62.92-20.16,5.49-39.56-2.65-45.16-18.92Z"/><path class="cls-2" d="M2394.31,559.31c-8.11-34,37.87-57.78,63.77-41.56,24.5,15.34,12,51.9-20.64,60.18-19.78,5-38.32-3-43.13-18.62Z"/><path class="cls-2" d="M2418,638.68c-6.46-32.6,39-54.81,63.38-39,23.4,15.23,9.93,49.35-22.49,57-19.36,4.6-36.93-3.17-40.89-18.08Z"/><path class="cls-2" d="M2437.52,715.15c-4.85-32,44.28-52.1,65.67-34.39,20.41,16.87-1.38,50.28-34.33,52.54-16.07,1.12-28.67-6.2-31.34-18.15Z"/><path class="cls-2" d="M2453.1,788.27c-3.1-29.94,45.24-48.54,65-31.9,19.17,16.21-3.18,46.78-35.7,48.86-15.54,1-27.29-5.82-29.28-17Z"/><path class="cls-2" d="M2464.51,858c-1.43-27.74,46.27-45,64.42-29.51,17.26,14.67-6.27,43.41-37,45.23-15.07.89-26.08-5.43-27.39-15.72Z"/><path class="cls-2" d="M2472.39,924c.14-27.47,50.13-41.83,64.53-25.32,13.92,16-16.3,42.34-45.53,39.76-11.13-1-18.43-6.52-19-14.44Z"/><path class="cls-2" d="M2475.89,986.62c1.72-25.32,50.73-38.55,63.63-23.33,12.46,14.62-18.16,38.92-46.13,36.58-10.68-.9-17.38-6-17.5-13.25Z"/><path class="cls-2" d="M2475.73,1045.62c3.18-23.32,50.91-35.45,62.38-21.44,10.95,13.42-19.89,35.67-46.45,33.52-10.13-.81-16.23-5.44-15.93-12.08Z"/><path class="cls-2" d="M2471.67,1100.94c4.87-22.69,54.85-32.21,62.14-18.32,7.64,14.68-32.56,35.4-54.48,28.07-7.41-2.48-8-7.2-7.66-9.75Z"/><path class="cls-2" d="M2464,1152.61c6.22-20.6,54.58-29.31,60.59-16.69,6.32,13.37-33.54,32.19-54,25.48-6.86-2.24-7.09-6.49-6.62-8.79Z"/><path class="cls-2" d="M2452.75,1200.53c7.47-18.59,54.17-26.59,58.92-15.21,5.14,12.31-37.93,30-54.88,22.5-2-.92-5.3-3-4-7.29Z"/><path class="cls-2" d="M2437.78,1244.62c8.58-16.51,53.87-23.92,57.51-13.88,4,10.94-38.58,26.94-54.24,20.39-1.89-.81-4.82-2.7-3.27-6.51Z"/><path class="cls-2" d="M2419.43,1284.94c9.64-14.64,53.19-21.46,55.75-12.64,2.92,10.07-42.31,24.82-54.36,17.76-2.08-1.26-2.55-2.94-1.39-5.12Z"/><path class="cls-2" d="M2397.8,1321.34c10.43-12.61,52-18.9,53.62-11.41,1.74,8.46-42.11,21.53-52.76,15.76-1.87-1-2.16-2.5-.86-4.35Z"/><path class="cls-2" d="M2372.69,1353.75c11.08-10.68,51-16.57,51.75-10.29.84,7.4-45.39,19.41-52.13,13.57-1.22-1.1-.32-2.53.38-3.28Z"/><path class="cls-2" d="M2344.08,1382.28c12.05-9.2,50.17-14.87,50.13-9.36-.06,6.13-45.2,16.8-50.86,12-1-.83-.15-1.91.73-2.68Z"/><path class="cls-2" d="M2312.38,1406.76c12.63-7.55,49.08-12.85,48.2-8.47-1,5.16-47.79,14.87-49.57,10.29-.29-.73,1-1.56,1.37-1.82Z"/><path class="cls-2" d="M2277.73,1427.07c11.18-5,43.8-10.65,45.95-7.85-.53,3.92-45,12.56-47.59,9.27.07-.33.13-.66,1.64-1.42Z"/><path class="cls-2" d="M2239.76,1443.35c11.61-3.85,42.92-8.88,44.06-7-1.38,2.38-41.63,9.55-45.81,8.17,0-.08,0-.21,0-.3a5.87,5.87,0,0,1,1.71-.82Z"/><path class="cls-2" d="M2198.63,1455.45c11.35-2.58,39.44-7,42.37-6.4-1.1,1.46-41.92,7.33-44.32,7.07.13-.18.19-.28,2-.67Z"/><path class="cls-2" d="M2194.05,1457.83c-9.28,1.29-18.55,2.61-27.85,3.9l28.09-3.92a.41.41,0,0,0-.24,0Z"/></g></g></g></svg>